<svg width="165" height="44" viewBox="0 0 165 44" fill="none" xmlns="http://www.w3.org/2000/svg">
    <g filter="url(#filter0_d_2168_654)">
        <path
            d="M158.478 36.7744C158.478 35.1215 158.478 33.475 158.478 31.8221C158.478 29.9657 158.478 28.1094 158.478 26.2467C158.478 25.5093 158.478 24.7674 158.478 24.0287C158.478 23.784 158.383 23.5465 158.204 23.3795C157.035 22.1971 155.858 21.021 154.682 19.8449C153.87 19.0259 153.051 18.207 152.232 17.3881C152.169 17.3248 152.083 17.2892 151.993 17.2892C150.677 17.2892 149.361 17.2892 148.052 17.2892C146.151 17.2892 144.256 17.2892 142.362 17.2892C141.389 17.2892 140.423 17.2892 139.457 17.2892C139.453 17.2892 139.45 17.2892 139.446 17.2892C139.437 17.2892 139.428 17.2828 139.418 17.2828C139.414 17.2828 139.411 17.2804 139.408 17.2786C139.406 17.2773 139.405 17.2765 139.403 17.2765C139.4 17.2765 139.398 17.2757 139.397 17.2741C139.395 17.2718 139.394 17.2697 139.393 17.2679C139.391 17.2642 139.389 17.2583 139.384 17.2576C139.382 17.2572 139.379 17.2566 139.378 17.255C138.8 16.6709 138.216 16.0869 137.632 15.5028C136.354 14.225 135.076 12.9471 133.799 11.6693C132.521 10.3979 131.243 9.12003 129.971 7.84221C129.606 7.47724 129.244 7.11486 128.881 6.75177C128.484 6.35499 127.946 6.13208 127.385 6.13208C127.292 6.13208 127.198 6.13208 127.104 6.13208C124.237 6.13208 121.37 6.13208 118.509 6.13208C113.633 6.13208 108.757 6.13208 103.881 6.13208C97.8859 6.13208 91.891 6.13208 85.9024 6.13208C79.6849 6.13208 73.4674 6.13208 67.25 6.13208C61.7064 6.13208 28.5794 6.12573 23.0295 6.12573C19.0498 6.12573 15.0637 6.12573 11.084 6.12573C9.9591 6.12573 8.83778 6.12573 7.71464 6.12573C7.10372 6.12573 6.60846 6.62098 6.60846 7.23191C6.60846 8.87846 6.60846 10.5314 6.60846 12.1843C6.60846 14.0406 6.60846 15.897 6.60846 17.7533C6.60846 18.4983 6.60846 19.2386 6.60846 19.9822C6.60846 20.224 6.70451 20.4558 6.87547 20.6268C8.05158 21.8029 9.22769 22.979 10.4038 24.1551C11.2149 24.9662 12.0318 25.7831 12.8433 26.5947C12.9095 26.6609 12.9993 26.6981 13.0929 26.6981C14.4089 26.6981 15.7185 26.6981 17.0345 26.6981C18.9353 26.6981 20.8298 26.6981 22.7243 26.6981C23.6906 26.6981 24.6569 26.6981 25.6232 26.6981H25.6277C25.6288 26.6981 25.6296 26.6989 25.6296 26.6999C25.6296 26.7016 25.6318 26.7025 25.6334 26.702C25.6385 26.7003 25.6436 26.7044 25.6487 26.7044C25.6487 26.7044 25.6487 26.7044 25.655 26.7044C25.655 26.7044 25.6736 26.7103 25.6802 26.7168C25.6803 26.7169 25.6804 26.717 25.6805 26.7171C25.6868 26.7235 25.6932 26.7235 25.6995 26.7298C26.2844 27.3147 26.8693 27.906 27.4542 28.4908C28.732 29.7687 30.0098 31.0465 31.2876 32.3243C32.5655 33.6021 33.8369 34.88 35.1147 36.1578C35.4054 36.4517 35.6977 36.7456 35.9909 37.0387C36.5237 37.5714 37.2475 37.8679 38.001 37.8679C40.8745 37.8679 71.3314 37.8743 74.2112 37.8743C79.0873 37.8743 83.9634 37.8743 88.8458 37.8743C94.8344 37.8743 100.823 37.8743 106.818 37.8743C113.029 37.8743 119.24 37.8743 125.451 37.8743C130.989 37.8743 136.532 37.8743 142.069 37.8743C146.049 37.8743 150.029 37.8743 154.008 37.8743C155.131 37.8743 156.253 37.8743 157.378 37.8743C157.985 37.8743 158.478 37.3818 158.478 36.7744Z"
            fill="white" />
        <path
            d="M158.478 36.7744C158.478 35.1215 158.478 33.475 158.478 31.8221C158.478 29.9657 158.478 28.1094 158.478 26.2467C158.478 25.5093 158.478 24.7674 158.478 24.0287C158.478 23.784 158.383 23.5465 158.204 23.3795C157.035 22.1971 155.858 21.021 154.682 19.8449C153.87 19.0259 153.051 18.207 152.232 17.3881C152.169 17.3248 152.083 17.2892 151.993 17.2892C150.677 17.2892 149.361 17.2892 148.052 17.2892C146.151 17.2892 144.256 17.2892 142.362 17.2892C141.389 17.2892 140.423 17.2892 139.457 17.2892C139.453 17.2892 139.45 17.2892 139.446 17.2892C139.437 17.2892 139.428 17.2828 139.418 17.2828C139.414 17.2828 139.411 17.2804 139.408 17.2786C139.406 17.2773 139.405 17.2765 139.403 17.2765C139.4 17.2765 139.398 17.2757 139.397 17.2741C139.395 17.2718 139.394 17.2697 139.393 17.2679C139.391 17.2642 139.389 17.2583 139.384 17.2576C139.382 17.2572 139.379 17.2566 139.378 17.255C138.8 16.6709 138.216 16.0869 137.632 15.5028C136.354 14.225 135.076 12.9471 133.799 11.6693C132.521 10.3979 131.243 9.12003 129.971 7.84221C129.606 7.47724 129.244 7.11486 128.881 6.75177C128.484 6.35499 127.946 6.13208 127.385 6.13208C127.292 6.13208 127.198 6.13208 127.104 6.13208C124.237 6.13208 121.37 6.13208 118.509 6.13208C113.633 6.13208 108.757 6.13208 103.881 6.13208C97.8859 6.13208 91.891 6.13208 85.9024 6.13208C79.6849 6.13208 73.4674 6.13208 67.25 6.13208C61.7064 6.13208 28.5794 6.12573 23.0295 6.12573C19.0498 6.12573 15.0637 6.12573 11.084 6.12573C9.9591 6.12573 8.83778 6.12573 7.71464 6.12573C7.10372 6.12573 6.60846 6.62098 6.60846 7.23191C6.60846 8.87846 6.60846 10.5314 6.60846 12.1843C6.60846 14.0406 6.60846 15.897 6.60846 17.7533C6.60846 18.4983 6.60846 19.2386 6.60846 19.9822C6.60846 20.224 6.70451 20.4558 6.87547 20.6268C8.05158 21.8029 9.22769 22.979 10.4038 24.1551C11.2149 24.9662 12.0318 25.7831 12.8433 26.5947C12.9095 26.6609 12.9993 26.6981 13.0929 26.6981C14.4089 26.6981 15.7185 26.6981 17.0345 26.6981C18.9353 26.6981 20.8298 26.6981 22.7243 26.6981C23.6906 26.6981 24.6569 26.6981 25.6232 26.6981H25.6277C25.6288 26.6981 25.6296 26.6989 25.6296 26.6999C25.6296 26.7016 25.6318 26.7025 25.6334 26.702C25.6385 26.7003 25.6436 26.7044 25.6487 26.7044C25.6487 26.7044 25.6487 26.7044 25.655 26.7044C25.655 26.7044 25.6736 26.7103 25.6802 26.7168C25.6803 26.7169 25.6804 26.717 25.6805 26.7171C25.6868 26.7235 25.6932 26.7235 25.6995 26.7298C26.2844 27.3147 26.8693 27.906 27.4542 28.4908C28.732 29.7687 30.0098 31.0465 31.2876 32.3243C32.5655 33.6021 33.8369 34.88 35.1147 36.1578C35.4054 36.4517 35.6977 36.7456 35.9909 37.0387C36.5237 37.5714 37.2475 37.8679 38.001 37.8679C40.8745 37.8679 71.3314 37.8743 74.2112 37.8743C79.0873 37.8743 83.9634 37.8743 88.8458 37.8743C94.8344 37.8743 100.823 37.8743 106.818 37.8743C113.029 37.8743 119.24 37.8743 125.451 37.8743C130.989 37.8743 136.532 37.8743 142.069 37.8743C146.049 37.8743 150.029 37.8743 154.008 37.8743C155.131 37.8743 156.253 37.8743 157.378 37.8743C157.985 37.8743 158.478 37.3818 158.478 36.7744Z"
            fill="url(#paint0_linear_2168_654)" />
        <path
            d="M131.918 6.39909C132.986 7.46712 134.06 8.54151 135.128 9.60955C136.457 10.9446 137.786 12.2796 139.121 13.6083C139.574 14.0616 140.024 14.5181 140.476 14.9732C140.837 15.3374 141.329 15.5409 141.842 15.5409C143.603 15.5409 145.357 15.5409 147.118 15.5409C148.077 15.5409 149.04 15.5409 149.999 15.5409C150.142 15.5409 150.217 15.3649 150.113 15.2676C149.045 14.1932 147.97 13.1252 146.896 12.0508C145.567 10.7221 144.238 9.38704 142.91 8.05836C142.452 7.60057 141.994 7.14279 141.536 6.685C141.182 6.33098 140.702 6.13208 140.201 6.13208C138.447 6.13208 136.686 6.13208 134.931 6.13208C133.963 6.13208 132.994 6.13208 132.03 6.13208C131.893 6.13208 131.82 6.30173 131.918 6.39909Z"
            fill="white" />
        <path
            d="M131.918 6.39909C132.986 7.46712 134.06 8.54151 135.128 9.60955C136.457 10.9446 137.786 12.2796 139.121 13.6083C139.574 14.0616 140.024 14.5181 140.476 14.9732C140.837 15.3374 141.329 15.5409 141.842 15.5409C143.603 15.5409 145.357 15.5409 147.118 15.5409C148.077 15.5409 149.04 15.5409 149.999 15.5409C150.142 15.5409 150.217 15.3649 150.113 15.2676C149.045 14.1932 147.97 13.1252 146.896 12.0508C145.567 10.7221 144.238 9.38704 142.91 8.05836C142.452 7.60057 141.994 7.14279 141.536 6.685C141.182 6.33098 140.702 6.13208 140.201 6.13208C138.447 6.13208 136.686 6.13208 134.931 6.13208C133.963 6.13208 132.994 6.13208 132.03 6.13208C131.893 6.13208 131.82 6.30173 131.918 6.39909Z"
            fill="url(#paint1_linear_2168_654)" />
        <path
            d="M25.8555 26.4119L25.8574 26.4128C25.8632 26.4159 25.8721 26.4214 25.8818 26.4275C25.8916 26.4336 25.9025 26.441 25.9141 26.45L25.9492 26.4802L26.8271 27.3621C27.1195 27.656 27.4112 27.95 27.7031 28.2419L29.6201 30.158L31.5371 32.075L33.4512 33.9919L35.3643 35.908L35.3652 35.9099L36.2402 36.7888L36.4229 36.9539C36.8654 37.3158 37.4226 37.5154 38.001 37.5154C39.4378 37.5154 47.7703 37.5167 56.1035 37.5183C64.4364 37.5199 72.7702 37.5212 74.2109 37.5212H157.378C157.791 37.5212 158.125 37.1868 158.125 36.7742V24.0291C158.125 23.8735 158.065 23.732 157.964 23.6375L157.953 23.6277V23.6267C156.784 22.4453 155.609 21.2705 154.433 20.0945L154.432 20.0935L151.986 17.6414H139.446C139.405 17.6414 139.372 17.6351 139.351 17.6296C139.346 17.6284 139.342 17.6259 139.338 17.6248C139.308 17.6179 139.281 17.6096 139.26 17.5994C139.218 17.5816 139.179 17.5531 139.143 17.5144C139.138 17.5101 139.132 17.5074 139.127 17.5027L137.383 15.7517L133.549 11.9187V11.9177C132.271 10.6463 130.993 9.36839 129.722 8.09058V8.09155C129.357 7.72665 128.995 7.36376 128.632 7.00073L128.502 6.88354C128.188 6.6267 127.794 6.48511 127.385 6.48511H67.25C64.4782 6.48511 54.81 6.48279 45.1416 6.4812C35.4733 6.47961 25.8042 6.47827 23.0293 6.47827H7.71484C7.29867 6.47827 6.96094 6.816 6.96094 7.23218V19.9822C6.96094 20.1304 7.02017 20.2729 7.125 20.3777L13.0928 26.3455H25.6279C25.6489 26.3455 25.6694 26.3478 25.6895 26.3513H25.709L25.7607 26.3679H25.7617V26.3689H25.7637L25.7754 26.3728C25.7816 26.375 25.7905 26.3783 25.8008 26.3826C25.8018 26.383 25.8246 26.3932 25.8555 26.4119ZM25.8555 26.4119C25.8778 26.4254 25.9051 26.443 25.9297 26.4675C25.9201 26.4579 25.9104 26.449 25.9004 26.4412C25.8903 26.4333 25.8803 26.4268 25.8721 26.4216C25.8654 26.4174 25.8596 26.4141 25.8555 26.4119ZM25.9541 26.5632C25.9639 26.5863 25.9729 26.611 25.9775 26.6384L25.9824 26.7C25.9824 26.6514 25.9718 26.6054 25.9541 26.5632ZM25.9297 26.5173C25.9366 26.5285 25.9434 26.54 25.9492 26.5525C25.9436 26.5402 25.9366 26.5288 25.9297 26.5173ZM25.7402 26.364C25.7474 26.366 25.7531 26.3677 25.7539 26.3679C25.7526 26.3675 25.7496 26.3674 25.748 26.3669C25.7459 26.3663 25.7418 26.3656 25.7363 26.364C25.7347 26.3635 25.7331 26.3626 25.7314 26.3621C25.7349 26.3629 25.7379 26.3634 25.7402 26.364ZM25.5225 26.3669C25.5496 26.358 25.5771 26.3535 25.6035 26.3513C25.5786 26.3536 25.551 26.3575 25.5225 26.3669ZM139.275 17.6042C139.32 17.621 139.364 17.6286 139.402 17.6287L139.336 17.6228C139.314 17.6185 139.294 17.6116 139.275 17.6042ZM139.161 17.5291C139.159 17.5274 139.157 17.5258 139.155 17.5242C139.157 17.5258 139.159 17.5275 139.161 17.5291ZM140.201 6.48511C140.558 6.48511 140.902 6.60871 141.175 6.83276L141.287 6.93433L142.66 8.30737C143.324 8.97154 143.989 9.63751 144.653 10.3035L146.646 12.3005C147.612 13.266 148.575 14.2253 149.534 15.1882H141.842C141.475 15.1882 141.121 15.0608 140.841 14.8298L140.726 14.7253L139.37 13.3591L139.369 13.3582L135.378 9.36108V9.36011L132.502 6.48511H140.201Z"
            stroke="black" stroke-opacity="0.2" stroke-width="0.70524" />
        <path
            d="M25.8555 26.4119L25.8574 26.4128C25.8632 26.4159 25.8721 26.4214 25.8818 26.4275C25.8916 26.4336 25.9025 26.441 25.9141 26.45L25.9492 26.4802L26.8271 27.3621C27.1195 27.656 27.4112 27.95 27.7031 28.2419L29.6201 30.158L31.5371 32.075L33.4512 33.9919L35.3643 35.908L35.3652 35.9099L36.2402 36.7888L36.4229 36.9539C36.8654 37.3158 37.4226 37.5154 38.001 37.5154C39.4378 37.5154 47.7703 37.5167 56.1035 37.5183C64.4364 37.5199 72.7702 37.5212 74.2109 37.5212H157.378C157.791 37.5212 158.125 37.1868 158.125 36.7742V24.0291C158.125 23.8735 158.065 23.732 157.964 23.6375L157.953 23.6277V23.6267C156.784 22.4453 155.609 21.2705 154.433 20.0945L154.432 20.0935L151.986 17.6414H139.446C139.405 17.6414 139.372 17.6351 139.351 17.6296C139.346 17.6284 139.342 17.6259 139.338 17.6248C139.308 17.6179 139.281 17.6096 139.26 17.5994C139.218 17.5816 139.179 17.5531 139.143 17.5144C139.138 17.5101 139.132 17.5074 139.127 17.5027L137.383 15.7517L133.549 11.9187V11.9177C132.271 10.6463 130.993 9.36839 129.722 8.09058V8.09155C129.357 7.72665 128.995 7.36376 128.632 7.00073L128.502 6.88354C128.188 6.6267 127.794 6.48511 127.385 6.48511H67.25C64.4782 6.48511 54.81 6.48279 45.1416 6.4812C35.4733 6.47961 25.8042 6.47827 23.0293 6.47827H7.71484C7.29867 6.47827 6.96094 6.816 6.96094 7.23218V19.9822C6.96094 20.1304 7.02017 20.2729 7.125 20.3777L13.0928 26.3455H25.6279C25.6489 26.3455 25.6694 26.3478 25.6895 26.3513H25.709L25.7607 26.3679H25.7617V26.3689H25.7637L25.7754 26.3728C25.7816 26.375 25.7905 26.3783 25.8008 26.3826C25.8018 26.383 25.8246 26.3932 25.8555 26.4119ZM25.8555 26.4119C25.8778 26.4254 25.9051 26.443 25.9297 26.4675C25.9201 26.4579 25.9104 26.449 25.9004 26.4412C25.8903 26.4333 25.8803 26.4268 25.8721 26.4216C25.8654 26.4174 25.8596 26.4141 25.8555 26.4119ZM25.9541 26.5632C25.9639 26.5863 25.9729 26.611 25.9775 26.6384L25.9824 26.7C25.9824 26.6514 25.9718 26.6054 25.9541 26.5632ZM25.9297 26.5173C25.9366 26.5285 25.9434 26.54 25.9492 26.5525C25.9436 26.5402 25.9366 26.5288 25.9297 26.5173ZM25.7402 26.364C25.7474 26.366 25.7531 26.3677 25.7539 26.3679C25.7526 26.3675 25.7496 26.3674 25.748 26.3669C25.7459 26.3663 25.7418 26.3656 25.7363 26.364C25.7347 26.3635 25.7331 26.3626 25.7314 26.3621C25.7349 26.3629 25.7379 26.3634 25.7402 26.364ZM25.5225 26.3669C25.5496 26.358 25.5771 26.3535 25.6035 26.3513C25.5786 26.3536 25.551 26.3575 25.5225 26.3669ZM139.275 17.6042C139.32 17.621 139.364 17.6286 139.402 17.6287L139.336 17.6228C139.314 17.6185 139.294 17.6116 139.275 17.6042ZM139.161 17.5291C139.159 17.5274 139.157 17.5258 139.155 17.5242C139.157 17.5258 139.159 17.5275 139.161 17.5291ZM140.201 6.48511C140.558 6.48511 140.902 6.60871 141.175 6.83276L141.287 6.93433L142.66 8.30737C143.324 8.97154 143.989 9.63751 144.653 10.3035L146.646 12.3005C147.612 13.266 148.575 14.2253 149.534 15.1882H141.842C141.475 15.1882 141.121 15.0608 140.841 14.8298L140.726 14.7253L139.37 13.3591L139.369 13.3582L135.378 9.36108V9.36011L132.502 6.48511H140.201Z"
            stroke="url(#paint2_linear_2168_654)" stroke-width="0.70524" />
    </g>
    <path
        d="M68.0078 18.4526V19.6526H62.0078V22.0526H66.8078V23.2526H62.0078V26.8526H59.6078V18.4526H68.0078ZM73.1407 24.4526V26.8526H70.7407V24.4526H73.1407ZM86.0782 20.8526V26.8526H83.6782V24.4526H80.0782V26.8526H77.6782V20.8526H78.8782V19.6526H80.0782V18.4526H83.6782V19.6526H84.8782V20.8526H86.0782ZM80.0782 23.2526H83.6782V20.8526H82.4782V19.6526H81.2782V20.8526H80.0782V23.2526ZM93.0157 24.4526V26.8526H90.6157V24.4526H93.0157ZM105.953 25.6526V26.8526H104.753V25.6526H103.553V26.8526H98.7532V25.6526H97.5532V19.6526H98.7532V18.4526H104.753V19.6526H105.953V24.4526H104.753V25.6526H105.953ZM101.153 23.2526H103.553V19.6526H99.9532V25.6526H102.353V24.4526H101.153V23.2526Z"
        fill="#0D0D0D" />
    <defs>
        <filter id="filter0_d_2168_654" x="0.967453" y="0.483811" width="163.151" height="43.0324"
            filterUnits="userSpaceOnUse" color-interpolation-filters="sRGB">
            <feFlood flood-opacity="0" result="BackgroundImageFix" />
            <feColorMatrix in="SourceAlpha" type="matrix" values="0 0 0 0 0 0 0 0 0 0 0 0 0 0 0 0 0 0 127 0"
                result="hardAlpha" />
            <feOffset />
            <feGaussianBlur stdDeviation="2.82096" />
            <feComposite in2="hardAlpha" operator="out" />
            <feColorMatrix type="matrix" values="0 0 0 0 0.694118 0 0 0 0 0.956863 0 0 0 0 0.537255 0 0 0 0.5 0" />
            <feBlend mode="normal" in2="BackgroundImageFix" result="effect1_dropShadow_2168_654" />
            <feBlend mode="normal" in="SourceGraphic" in2="effect1_dropShadow_2168_654" result="shape" />
        </filter>
        <linearGradient id="paint0_linear_2168_654" x1="102.17" y1="7.17197" x2="101.211" y2="37.9971"
            gradientUnits="userSpaceOnUse">
            <stop offset="0.129328" stop-color="#B1F489" stop-opacity="0.48" />
            <stop offset="0.544605" stop-color="#B1F489" />
        </linearGradient>
        <linearGradient id="paint1_linear_2168_654" x1="102.17" y1="7.17197" x2="101.211" y2="37.9971"
            gradientUnits="userSpaceOnUse">
            <stop offset="0.129328" stop-color="#B1F489" stop-opacity="0.48" />
            <stop offset="0.544605" stop-color="#B1F489" />
        </linearGradient>
        <linearGradient id="paint2_linear_2168_654" x1="102.17" y1="7.17197" x2="101.211" y2="37.9971"
            gradientUnits="userSpaceOnUse">
            <stop offset="0.129328" stop-color="#B1F489" stop-opacity="0.48" />
            <stop offset="0.544605" stop-color="#B1F489" />
        </linearGradient>
    </defs>
</svg>