<svg width="154" height="34" viewBox="0 0 154 34" fill="none" xmlns="http://www.w3.org/2000/svg">
    <path
        d="M20.8516 21.4119L20.8535 21.4128C20.8593 21.4159 20.8682 21.4214 20.8779 21.4275C20.8877 21.4336 20.8986 21.441 20.9102 21.45L20.9453 21.4802L21.8232 22.3621C22.1156 22.656 22.4073 22.95 22.6992 23.2419L24.6162 25.158L26.5332 27.075L28.4473 28.9919L30.3604 30.908L30.3613 30.9099L31.2363 31.7888L31.4189 31.9539C31.8615 32.3158 32.4187 32.5154 32.9971 32.5154C34.4339 32.5154 42.7663 32.5167 51.0996 32.5183C59.4325 32.5199 67.7663 32.5212 69.207 32.5212H152.374C152.787 32.5212 153.121 32.1868 153.121 31.7742V19.0291C153.121 18.8735 153.061 18.732 152.96 18.6375L152.949 18.6277V18.6267C151.78 17.4453 150.605 16.2705 149.429 15.0945L149.428 15.0935L146.982 12.6414H134.442C134.401 12.6414 134.368 12.6351 134.347 12.6296C134.342 12.6284 134.338 12.6259 134.334 12.6248C134.304 12.6179 134.277 12.6096 134.256 12.5994C134.214 12.5816 134.175 12.5531 134.139 12.5144C134.134 12.5101 134.128 12.5074 134.123 12.5027L132.379 10.7517L128.545 6.9187V6.91772C127.267 5.64626 125.989 4.36839 124.718 3.09058V3.09155C124.353 2.72665 123.991 2.36376 123.628 2.00073L123.498 1.88354C123.184 1.6267 122.79 1.48511 122.381 1.48511H62.2461C59.4743 1.48511 49.8061 1.48279 40.1377 1.4812C30.4694 1.47961 20.8003 1.47827 18.0254 1.47827H2.71094C2.29476 1.47827 1.95703 1.816 1.95703 2.23218V14.9822C1.95703 15.1304 2.01626 15.2729 2.12109 15.3777L8.08887 21.3455H20.624C20.645 21.3455 20.6655 21.3478 20.6855 21.3513H20.7051L20.7568 21.3679H20.7578V21.3689H20.7598L20.7715 21.3728C20.7777 21.375 20.7866 21.3783 20.7969 21.3826C20.7979 21.383 20.8207 21.3932 20.8516 21.4119ZM20.8516 21.4119C20.8739 21.4254 20.9012 21.443 20.9258 21.4675C20.9162 21.4579 20.9065 21.449 20.8965 21.4412C20.8864 21.4333 20.8764 21.4268 20.8682 21.4216C20.8615 21.4174 20.8557 21.4141 20.8516 21.4119ZM20.9502 21.5632C20.96 21.5863 20.969 21.611 20.9736 21.6384L20.9785 21.7C20.9785 21.6514 20.9679 21.6054 20.9502 21.5632ZM20.9258 21.5173C20.9327 21.5285 20.9395 21.54 20.9453 21.5525C20.9397 21.5402 20.9327 21.5288 20.9258 21.5173ZM20.7363 21.364C20.7435 21.366 20.7492 21.3677 20.75 21.3679C20.7487 21.3675 20.7457 21.3674 20.7441 21.3669C20.742 21.3663 20.7379 21.3656 20.7324 21.364C20.7308 21.3635 20.7292 21.3626 20.7275 21.3621C20.731 21.3629 20.734 21.3634 20.7363 21.364ZM20.5186 21.3669C20.5457 21.358 20.5732 21.3535 20.5996 21.3513C20.5747 21.3536 20.5471 21.3575 20.5186 21.3669ZM134.271 12.6042C134.316 12.621 134.36 12.6286 134.398 12.6287L134.332 12.6228C134.31 12.6185 134.29 12.6116 134.271 12.6042ZM134.157 12.5291C134.155 12.5274 134.153 12.5258 134.151 12.5242C134.153 12.5258 134.155 12.5275 134.157 12.5291ZM135.197 1.48511C135.554 1.48511 135.898 1.60871 136.171 1.83276L136.283 1.93433L137.656 3.30737C138.32 3.97154 138.985 4.63751 139.649 5.30347L141.643 7.30054C142.608 8.26603 143.571 9.22525 144.53 10.1882H136.838C136.471 10.1882 136.117 10.0608 135.837 9.82983L135.722 9.72534L134.366 8.35913L134.365 8.35815L130.374 4.36108V4.36011L127.498 1.48511H135.197Z"
        stroke="#B1F489" stroke-width="0.70524" />
    <path
        d="M63.891 18.1406H63.291V20.8526H61.203L61.191 18.8486V15.8966C61.191 15.2246 61.371 14.7246 61.731 14.3966C62.091 14.0606 62.735 13.8926 63.663 13.8926H66.735H69.171V15.4766H65.763H64.587C64.075 15.4766 63.731 15.5726 63.555 15.7646C63.387 15.9566 63.299 16.2206 63.291 16.5566H63.891H69.171V18.1406H63.891ZM72.0172 19.4726V20.8526H70.5292V19.4726H72.0172ZM78.5961 18.1406H75.4161V20.8526H73.3281L73.3161 18.8486V15.8966C73.3161 15.2246 73.4961 14.7246 73.8561 14.3966C74.2161 14.0606 74.8601 13.8926 75.7881 13.8926H78.8241C79.7521 13.8926 80.3961 14.0606 80.7561 14.3966C81.1161 14.7246 81.2961 15.2246 81.2961 15.8966V18.8486L81.2841 20.8526H79.1961V18.1406H78.5961ZM78.1281 16.5566H79.1961C79.1881 16.2206 79.0961 15.9566 78.9201 15.7646C78.7521 15.5726 78.4121 15.4766 77.9001 15.4766H76.7121C76.2001 15.4766 75.8561 15.5726 75.6801 15.7646C75.5121 15.9566 75.4241 16.2206 75.4161 16.5566H78.1281ZM84.1424 19.4726V20.8526H82.6544V19.4726H84.1424ZM93.4213 18.8486C93.4213 19.4966 93.2493 19.9926 92.9053 20.3366C92.5613 20.6806 91.9213 20.8526 90.9853 20.8526H87.9133C86.9853 20.8526 86.3413 20.6886 85.9813 20.3606C85.6213 20.0246 85.4413 19.5206 85.4413 18.8486V15.8966C85.4413 15.2246 85.6213 14.7246 85.9813 14.3966C86.3413 14.0606 86.9853 13.8926 87.9133 13.8926H90.9853C91.9213 13.8926 92.5613 14.0646 92.9053 14.4086C93.2493 14.7526 93.4213 15.2486 93.4213 15.8966V18.8486ZM91.3093 16.5806C91.3093 16.2046 91.2293 15.9286 91.0693 15.7526C90.9173 15.5686 90.5653 15.4766 90.0133 15.4766H88.8373C88.3253 15.4766 87.9813 15.5726 87.8053 15.7646C87.6373 15.9566 87.5533 16.2286 87.5533 16.5806V18.1646C87.5533 18.5166 87.6373 18.7886 87.8053 18.9806C87.9813 19.1726 88.1813 19.2366 88.4053 19.1726V17.5406H90.4453V19.1726C90.7013 19.2206 90.9053 19.1646 91.0573 19.0046C91.2173 18.8366 91.3013 18.5566 91.3093 18.1646V16.5806Z"
        fill="#B1F489" />
</svg>