<svg width="154" height="34" viewBox="0 0 154 34" fill="none" xmlns="http://www.w3.org/2000/svg">
    <path
        d="M20.707 21.4119L20.709 21.4128C20.7148 21.4159 20.7237 21.4214 20.7334 21.4275C20.7431 21.4336 20.7541 21.441 20.7656 21.45L20.8008 21.4802L21.6787 22.3621C21.9711 22.656 22.2628 22.95 22.5547 23.2419L24.4717 25.158L26.3887 27.075L28.3027 28.9919L30.2158 30.908L30.2168 30.9099L31.0918 31.7888L31.2744 31.9539C31.717 32.3158 32.2742 32.5154 32.8525 32.5154C34.2893 32.5154 42.6218 32.5167 50.9551 32.5183C59.2879 32.5199 67.6218 32.5212 69.0625 32.5212H152.229C152.642 32.5212 152.977 32.1868 152.977 31.7742V19.0291C152.977 18.8735 152.917 18.732 152.815 18.6375L152.805 18.6277V18.6267C151.636 17.4453 150.46 16.2705 149.284 15.0945L149.283 15.0935L146.838 12.6414H134.298C134.257 12.6414 134.223 12.6351 134.202 12.6296C134.197 12.6284 134.193 12.6259 134.189 12.6248C134.159 12.6179 134.133 12.6096 134.111 12.5994C134.07 12.5816 134.03 12.5531 133.994 12.5144C133.989 12.5101 133.983 12.5074 133.979 12.5027L132.234 10.7517L128.4 6.9187V6.91772C127.123 5.64626 125.845 4.36839 124.573 3.09058V3.09155C124.208 2.72665 123.846 2.36376 123.483 2.00073L123.354 1.88354C123.04 1.6267 122.645 1.48511 122.236 1.48511H62.1016C59.3297 1.48511 49.6616 1.48279 39.9932 1.4812C30.3249 1.47961 20.6558 1.47827 17.8809 1.47827H2.56641C2.15023 1.47827 1.8125 1.816 1.8125 2.23218V14.9822C1.8125 15.1304 1.87173 15.2729 1.97656 15.3777L7.94434 21.3455H20.4795C20.5005 21.3455 20.521 21.3478 20.541 21.3513H20.5605L20.6123 21.3679H20.6133V21.3689H20.6152L20.627 21.3728C20.6331 21.375 20.642 21.3783 20.6523 21.3826C20.6533 21.383 20.6762 21.3932 20.707 21.4119ZM20.707 21.4119C20.7294 21.4254 20.7567 21.443 20.7812 21.4675C20.7717 21.4579 20.762 21.449 20.752 21.4412C20.7419 21.4333 20.7319 21.4268 20.7236 21.4216C20.7169 21.4174 20.7112 21.4141 20.707 21.4119ZM20.8057 21.5632C20.8155 21.5863 20.8244 21.611 20.8291 21.6384L20.834 21.7C20.834 21.6514 20.8233 21.6054 20.8057 21.5632ZM20.7812 21.5173C20.7882 21.5285 20.7949 21.54 20.8008 21.5525C20.7951 21.5402 20.7882 21.5288 20.7812 21.5173ZM20.5918 21.364C20.599 21.366 20.6047 21.3677 20.6055 21.3679C20.6042 21.3675 20.6012 21.3674 20.5996 21.3669C20.5975 21.3663 20.5934 21.3656 20.5879 21.364C20.5862 21.3635 20.5847 21.3626 20.583 21.3621C20.5865 21.3629 20.5895 21.3634 20.5918 21.364ZM20.374 21.3669C20.4011 21.358 20.4286 21.3535 20.4551 21.3513C20.4301 21.3536 20.4026 21.3575 20.374 21.3669ZM134.127 12.6042C134.171 12.621 134.215 12.6286 134.254 12.6287L134.188 12.6228C134.165 12.6185 134.145 12.6116 134.127 12.6042ZM134.013 12.5291C134.011 12.5274 134.009 12.5258 134.007 12.5242C134.009 12.5258 134.011 12.5275 134.013 12.5291ZM135.053 1.48511C135.409 1.48511 135.753 1.60871 136.026 1.83276L136.139 1.93433L137.512 3.30737C138.176 3.97154 138.841 4.63751 139.505 5.30347L141.498 7.30054C142.464 8.26603 143.426 9.22525 144.386 10.1882H136.693C136.326 10.1882 135.972 10.0608 135.692 9.82983L135.577 9.72534L134.222 8.35913L134.221 8.35815L130.229 4.36108V4.36011L127.354 1.48511H135.053Z"
        stroke="#B1F489" strokeWidth="0.70524" />
    <path
        d="M37.1133 13.4526V21.8526H34.7133V18.2526H31.1133V21.8526H28.7133V13.4526H31.1133V17.0526H34.7133V13.4526H37.1133ZM47.0508 14.6526V20.6526H45.8508V21.8526H39.8508V20.6526H38.6508V14.6526H39.8508V13.4526H45.8508V14.6526H47.0508ZM41.0508 20.6526H44.6508V14.6526H41.0508V20.6526ZM56.9883 13.4526V21.8526H54.5883V20.6526H53.3883V19.4526H52.1883V20.6526H50.9883V21.8526H48.5883V13.4526H50.9883V17.0526H52.1883V15.8526H53.3883V17.0526H54.5883V13.4526H56.9883ZM76.2633 13.4526V14.6526H73.8633V21.8526H71.4633V14.6526H69.0633V13.4526H76.2633ZM86.8008 14.6526V20.6526H85.6008V21.8526H79.6008V20.6526H78.4008V14.6526H79.6008V13.4526H85.6008V14.6526H86.8008ZM80.8008 20.6526H84.4008V14.6526H80.8008V20.6526ZM106.676 18.2526V20.6526H105.476V21.8526H98.2758V13.4526H105.476V14.6526H106.676V17.0526H105.476V18.2526H106.676ZM100.676 17.0526H104.276V14.6526H100.676V17.0526ZM100.676 20.6526H104.276V18.2526H100.676V20.6526ZM116.613 13.4526V20.6526H115.413V21.8526H109.413V20.6526H108.213V13.4526H110.613V20.6526H114.213V13.4526H116.613ZM125.951 13.4526V17.0526H124.751V18.2526H123.551V21.8526H121.151V18.2526H119.939V17.0526H118.751V13.4526H121.151V17.0526H123.551V13.4526H125.951Z"
        fill="#B1F489" />
</svg>