<svg width="164" height="44" viewBox="0 0 164 44" fill="none" xmlns="http://www.w3.org/2000/svg">
    <g filter="url(#filter0_d_2168_710)">
        <path
            d="M158.329 36.7744C158.329 35.1215 158.329 33.475 158.329 31.8221C158.329 29.9657 158.329 28.1094 158.329 26.2467C158.329 25.5093 158.329 24.7674 158.329 24.0287C158.329 23.784 158.235 23.5465 158.056 23.3795C156.886 22.1971 155.71 21.021 154.534 19.8449C153.721 19.0259 152.902 18.207 152.084 17.3881C152.02 17.3248 151.934 17.2892 151.845 17.2892C150.529 17.2892 149.213 17.2892 147.903 17.2892C146.002 17.2892 144.108 17.2892 142.213 17.2892C141.241 17.2892 140.274 17.2892 139.308 17.2892C139.305 17.2892 139.302 17.2892 139.298 17.2892C139.288 17.2892 139.28 17.2828 139.27 17.2828C139.266 17.2828 139.262 17.2804 139.26 17.2786C139.258 17.2773 139.256 17.2765 139.254 17.2765C139.252 17.2765 139.25 17.2757 139.249 17.2741C139.247 17.2718 139.246 17.2697 139.245 17.2679C139.242 17.2642 139.24 17.2583 139.236 17.2576C139.234 17.2572 139.231 17.2566 139.229 17.255C138.652 16.6709 138.068 16.0869 137.484 15.5028C136.206 14.225 134.928 12.9471 133.65 11.6693C132.372 10.3979 131.094 9.12003 129.823 7.84221C129.458 7.47724 129.096 7.11486 128.733 6.75177C128.336 6.35499 127.798 6.13208 127.236 6.13208C127.143 6.13208 127.05 6.13208 126.956 6.13208C124.089 6.13208 121.221 6.13208 118.361 6.13208C113.485 6.13208 108.609 6.13208 103.732 6.13208C97.7375 6.13208 91.7425 6.13208 85.7539 6.13208C79.5365 6.13208 73.319 6.13208 67.1015 6.13208C61.5579 6.13208 28.431 6.12573 22.881 6.12573C18.9013 6.12573 14.9153 6.12573 10.9356 6.12573C9.81066 6.12573 8.68935 6.12573 7.5662 6.12573C6.95528 6.12573 6.46003 6.62098 6.46003 7.23191C6.46003 8.87846 6.46003 10.5314 6.46003 12.1843C6.46003 14.0406 6.46003 15.897 6.46003 17.7533C6.46003 18.4983 6.46003 19.2386 6.46003 19.9822C6.46003 20.224 6.55607 20.4558 6.72703 20.6268C7.90314 21.8029 9.07925 22.979 10.2554 24.1551C11.0664 24.9662 11.8833 25.7831 12.6949 26.5947C12.7611 26.6609 12.8509 26.6981 12.9445 26.6981C14.2605 26.6981 15.5701 26.6981 16.8861 26.6981C18.7869 26.6981 20.6814 26.6981 22.5759 26.6981C23.5422 26.6981 24.5085 26.6981 25.4748 26.6981H25.4793C25.4803 26.6981 25.4812 26.6989 25.4812 26.6999C25.4812 26.7016 25.4833 26.7025 25.4849 26.702C25.49 26.7003 25.4951 26.7044 25.5002 26.7044C25.5002 26.7044 25.5002 26.7044 25.5066 26.7044C25.5066 26.7044 25.5251 26.7103 25.5317 26.7168C25.5318 26.7169 25.5319 26.717 25.532 26.7171C25.5384 26.7235 25.5447 26.7235 25.5511 26.7298C26.136 27.3147 26.7209 27.906 27.3057 28.4908C28.5835 29.7687 29.8614 31.0465 31.1392 32.3243C32.417 33.6021 33.6885 34.88 34.9663 36.1578C35.257 36.4517 35.5493 36.7456 35.8424 37.0387C36.3753 37.5714 37.099 37.8679 37.8525 37.8679C40.7261 37.8679 71.1829 37.8743 74.0628 37.8743C78.9389 37.8743 83.8149 37.8743 88.6974 37.8743C94.686 37.8743 100.675 37.8743 106.67 37.8743C112.881 37.8743 119.092 37.8743 125.303 37.8743C130.84 37.8743 136.384 37.8743 141.921 37.8743C145.901 37.8743 149.88 37.8743 153.86 37.8743C154.982 37.8743 156.104 37.8743 157.229 37.8743C157.837 37.8743 158.329 37.3818 158.329 36.7744Z"
            fill="white" />
        <path
            d="M158.329 36.7744C158.329 35.1215 158.329 33.475 158.329 31.8221C158.329 29.9657 158.329 28.1094 158.329 26.2467C158.329 25.5093 158.329 24.7674 158.329 24.0287C158.329 23.784 158.235 23.5465 158.056 23.3795C156.886 22.1971 155.71 21.021 154.534 19.8449C153.721 19.0259 152.902 18.207 152.084 17.3881C152.02 17.3248 151.934 17.2892 151.845 17.2892C150.529 17.2892 149.213 17.2892 147.903 17.2892C146.002 17.2892 144.108 17.2892 142.213 17.2892C141.241 17.2892 140.274 17.2892 139.308 17.2892C139.305 17.2892 139.302 17.2892 139.298 17.2892C139.288 17.2892 139.28 17.2828 139.27 17.2828C139.266 17.2828 139.262 17.2804 139.26 17.2786C139.258 17.2773 139.256 17.2765 139.254 17.2765C139.252 17.2765 139.25 17.2757 139.249 17.2741C139.247 17.2718 139.246 17.2697 139.245 17.2679C139.242 17.2642 139.24 17.2583 139.236 17.2576C139.234 17.2572 139.231 17.2566 139.229 17.255C138.652 16.6709 138.068 16.0869 137.484 15.5028C136.206 14.225 134.928 12.9471 133.65 11.6693C132.372 10.3979 131.094 9.12003 129.823 7.84221C129.458 7.47724 129.096 7.11486 128.733 6.75177C128.336 6.35499 127.798 6.13208 127.236 6.13208C127.143 6.13208 127.05 6.13208 126.956 6.13208C124.089 6.13208 121.221 6.13208 118.361 6.13208C113.485 6.13208 108.609 6.13208 103.732 6.13208C97.7375 6.13208 91.7425 6.13208 85.7539 6.13208C79.5365 6.13208 73.319 6.13208 67.1015 6.13208C61.5579 6.13208 28.431 6.12573 22.881 6.12573C18.9013 6.12573 14.9153 6.12573 10.9356 6.12573C9.81066 6.12573 8.68935 6.12573 7.5662 6.12573C6.95528 6.12573 6.46003 6.62098 6.46003 7.23191C6.46003 8.87846 6.46003 10.5314 6.46003 12.1843C6.46003 14.0406 6.46003 15.897 6.46003 17.7533C6.46003 18.4983 6.46003 19.2386 6.46003 19.9822C6.46003 20.224 6.55607 20.4558 6.72703 20.6268C7.90314 21.8029 9.07925 22.979 10.2554 24.1551C11.0664 24.9662 11.8833 25.7831 12.6949 26.5947C12.7611 26.6609 12.8509 26.6981 12.9445 26.6981C14.2605 26.6981 15.5701 26.6981 16.8861 26.6981C18.7869 26.6981 20.6814 26.6981 22.5759 26.6981C23.5422 26.6981 24.5085 26.6981 25.4748 26.6981H25.4793C25.4803 26.6981 25.4812 26.6989 25.4812 26.6999C25.4812 26.7016 25.4833 26.7025 25.4849 26.702C25.49 26.7003 25.4951 26.7044 25.5002 26.7044C25.5002 26.7044 25.5002 26.7044 25.5066 26.7044C25.5066 26.7044 25.5251 26.7103 25.5317 26.7168C25.5318 26.7169 25.5319 26.717 25.532 26.7171C25.5384 26.7235 25.5447 26.7235 25.5511 26.7298C26.136 27.3147 26.7209 27.906 27.3057 28.4908C28.5835 29.7687 29.8614 31.0465 31.1392 32.3243C32.417 33.6021 33.6885 34.88 34.9663 36.1578C35.257 36.4517 35.5493 36.7456 35.8424 37.0387C36.3753 37.5714 37.099 37.8679 37.8525 37.8679C40.7261 37.8679 71.1829 37.8743 74.0628 37.8743C78.9389 37.8743 83.8149 37.8743 88.6974 37.8743C94.686 37.8743 100.675 37.8743 106.67 37.8743C112.881 37.8743 119.092 37.8743 125.303 37.8743C130.84 37.8743 136.384 37.8743 141.921 37.8743C145.901 37.8743 149.88 37.8743 153.86 37.8743C154.982 37.8743 156.104 37.8743 157.229 37.8743C157.837 37.8743 158.329 37.3818 158.329 36.7744Z"
            fill="url(#paint0_linear_2168_710)" />
        <path
            d="M131.769 6.39909C132.837 7.46712 133.912 8.54151 134.98 9.60955C136.309 10.9446 137.637 12.2796 138.972 13.6083C139.426 14.0616 139.876 14.5181 140.327 14.9732C140.688 15.3374 141.18 15.5409 141.693 15.5409C143.454 15.5409 145.209 15.5409 146.97 15.5409C147.928 15.5409 148.891 15.5409 149.851 15.5409C149.994 15.5409 150.068 15.3649 149.964 15.2676C148.896 14.1932 147.822 13.1252 146.747 12.0508C145.419 10.7221 144.09 9.38704 142.761 8.05836C142.303 7.60057 141.846 7.14279 141.388 6.685C141.034 6.33098 140.554 6.13208 140.053 6.13208C138.298 6.13208 136.537 6.13208 134.783 6.13208C133.814 6.13208 132.846 6.13208 131.882 6.13208C131.744 6.13208 131.672 6.30173 131.769 6.39909Z"
            fill="white" />
        <path
            d="M131.769 6.39909C132.837 7.46712 133.912 8.54151 134.98 9.60955C136.309 10.9446 137.637 12.2796 138.972 13.6083C139.426 14.0616 139.876 14.5181 140.327 14.9732C140.688 15.3374 141.18 15.5409 141.693 15.5409C143.454 15.5409 145.209 15.5409 146.97 15.5409C147.928 15.5409 148.891 15.5409 149.851 15.5409C149.994 15.5409 150.068 15.3649 149.964 15.2676C148.896 14.1932 147.822 13.1252 146.747 12.0508C145.419 10.7221 144.09 9.38704 142.761 8.05836C142.303 7.60057 141.846 7.14279 141.388 6.685C141.034 6.33098 140.554 6.13208 140.053 6.13208C138.298 6.13208 136.537 6.13208 134.783 6.13208C133.814 6.13208 132.846 6.13208 131.882 6.13208C131.744 6.13208 131.672 6.30173 131.769 6.39909Z"
            fill="url(#paint1_linear_2168_710)" />
        <path
            d="M25.707 26.4119L25.709 26.4128C25.7148 26.4159 25.7237 26.4214 25.7334 26.4275C25.7431 26.4336 25.7541 26.441 25.7656 26.45L25.8008 26.4802L26.6787 27.3621C26.9711 27.656 27.2628 27.95 27.5547 28.2419L29.4717 30.158L31.3887 32.075L33.3027 33.9919L35.2158 35.908L35.2168 35.9099L36.0918 36.7888L36.2744 36.9539C36.717 37.3158 37.2742 37.5154 37.8525 37.5154C39.2893 37.5154 47.6218 37.5167 55.9551 37.5183C64.2879 37.5199 72.6218 37.5212 74.0625 37.5212H157.229C157.642 37.5212 157.977 37.1868 157.977 36.7742V24.0291C157.977 23.8735 157.917 23.732 157.815 23.6375L157.805 23.6277V23.6267C156.636 22.4453 155.46 21.2705 154.284 20.0945L154.283 20.0935L151.838 17.6414H139.298C139.257 17.6414 139.223 17.6351 139.202 17.6296C139.197 17.6284 139.193 17.6259 139.189 17.6248C139.159 17.6179 139.133 17.6096 139.111 17.5994C139.07 17.5816 139.03 17.5531 138.994 17.5144C138.989 17.5101 138.983 17.5074 138.979 17.5027L137.234 15.7517L133.4 11.9187V11.9177C132.123 10.6463 130.845 9.36839 129.573 8.09058V8.09155C129.208 7.72665 128.846 7.36376 128.483 7.00073L128.354 6.88354C128.04 6.6267 127.645 6.48511 127.236 6.48511H67.1016C64.3297 6.48511 54.6616 6.48279 44.9932 6.4812C35.3249 6.47961 25.6558 6.47827 22.8809 6.47827H7.56641C7.15023 6.47827 6.8125 6.816 6.8125 7.23218V19.9822C6.8125 20.1304 6.87173 20.2729 6.97656 20.3777L12.9443 26.3455H25.4795C25.5005 26.3455 25.521 26.3478 25.541 26.3513H25.5605L25.6123 26.3679H25.6133V26.3689H25.6152L25.627 26.3728C25.6331 26.375 25.642 26.3783 25.6523 26.3826C25.6533 26.383 25.6762 26.3932 25.707 26.4119ZM25.707 26.4119C25.7294 26.4254 25.7567 26.443 25.7812 26.4675C25.7717 26.4579 25.762 26.449 25.752 26.4412C25.7419 26.4333 25.7319 26.4268 25.7236 26.4216C25.7169 26.4174 25.7112 26.4141 25.707 26.4119ZM25.8057 26.5632C25.8155 26.5863 25.8244 26.611 25.8291 26.6384L25.834 26.7C25.834 26.6514 25.8233 26.6054 25.8057 26.5632ZM25.7812 26.5173C25.7882 26.5285 25.7949 26.54 25.8008 26.5525C25.7951 26.5402 25.7882 26.5288 25.7812 26.5173ZM25.5918 26.364C25.599 26.366 25.6047 26.3677 25.6055 26.3679C25.6042 26.3675 25.6012 26.3674 25.5996 26.3669C25.5975 26.3663 25.5934 26.3656 25.5879 26.364C25.5862 26.3635 25.5847 26.3626 25.583 26.3621C25.5865 26.3629 25.5895 26.3634 25.5918 26.364ZM25.374 26.3669C25.4011 26.358 25.4286 26.3535 25.4551 26.3513C25.4301 26.3536 25.4026 26.3575 25.374 26.3669ZM139.127 17.6042C139.171 17.621 139.215 17.6286 139.254 17.6287L139.188 17.6228C139.165 17.6185 139.145 17.6116 139.127 17.6042ZM139.013 17.5291C139.011 17.5274 139.009 17.5258 139.007 17.5242C139.009 17.5258 139.011 17.5275 139.013 17.5291ZM140.053 6.48511C140.409 6.48511 140.753 6.60871 141.026 6.83276L141.139 6.93433L142.512 8.30737C143.176 8.97154 143.841 9.63751 144.505 10.3035L146.498 12.3005C147.464 13.266 148.426 14.2253 149.386 15.1882H141.693C141.326 15.1882 140.972 15.0608 140.692 14.8298L140.577 14.7253L139.222 13.3591L139.221 13.3582L135.229 9.36108V9.36011L132.354 6.48511H140.053Z"
            stroke="black" stroke-opacity="0.2" stroke-width="0.70524" />
        <path
            d="M25.707 26.4119L25.709 26.4128C25.7148 26.4159 25.7237 26.4214 25.7334 26.4275C25.7431 26.4336 25.7541 26.441 25.7656 26.45L25.8008 26.4802L26.6787 27.3621C26.9711 27.656 27.2628 27.95 27.5547 28.2419L29.4717 30.158L31.3887 32.075L33.3027 33.9919L35.2158 35.908L35.2168 35.9099L36.0918 36.7888L36.2744 36.9539C36.717 37.3158 37.2742 37.5154 37.8525 37.5154C39.2893 37.5154 47.6218 37.5167 55.9551 37.5183C64.2879 37.5199 72.6218 37.5212 74.0625 37.5212H157.229C157.642 37.5212 157.977 37.1868 157.977 36.7742V24.0291C157.977 23.8735 157.917 23.732 157.815 23.6375L157.805 23.6277V23.6267C156.636 22.4453 155.46 21.2705 154.284 20.0945L154.283 20.0935L151.838 17.6414H139.298C139.257 17.6414 139.223 17.6351 139.202 17.6296C139.197 17.6284 139.193 17.6259 139.189 17.6248C139.159 17.6179 139.133 17.6096 139.111 17.5994C139.07 17.5816 139.03 17.5531 138.994 17.5144C138.989 17.5101 138.983 17.5074 138.979 17.5027L137.234 15.7517L133.4 11.9187V11.9177C132.123 10.6463 130.845 9.36839 129.573 8.09058V8.09155C129.208 7.72665 128.846 7.36376 128.483 7.00073L128.354 6.88354C128.04 6.6267 127.645 6.48511 127.236 6.48511H67.1016C64.3297 6.48511 54.6616 6.48279 44.9932 6.4812C35.3249 6.47961 25.6558 6.47827 22.8809 6.47827H7.56641C7.15023 6.47827 6.8125 6.816 6.8125 7.23218V19.9822C6.8125 20.1304 6.87173 20.2729 6.97656 20.3777L12.9443 26.3455H25.4795C25.5005 26.3455 25.521 26.3478 25.541 26.3513H25.5605L25.6123 26.3679H25.6133V26.3689H25.6152L25.627 26.3728C25.6331 26.375 25.642 26.3783 25.6523 26.3826C25.6533 26.383 25.6762 26.3932 25.707 26.4119ZM25.707 26.4119C25.7294 26.4254 25.7567 26.443 25.7812 26.4675C25.7717 26.4579 25.762 26.449 25.752 26.4412C25.7419 26.4333 25.7319 26.4268 25.7236 26.4216C25.7169 26.4174 25.7112 26.4141 25.707 26.4119ZM25.8057 26.5632C25.8155 26.5863 25.8244 26.611 25.8291 26.6384L25.834 26.7C25.834 26.6514 25.8233 26.6054 25.8057 26.5632ZM25.7812 26.5173C25.7882 26.5285 25.7949 26.54 25.8008 26.5525C25.7951 26.5402 25.7882 26.5288 25.7812 26.5173ZM25.5918 26.364C25.599 26.366 25.6047 26.3677 25.6055 26.3679C25.6042 26.3675 25.6012 26.3674 25.5996 26.3669C25.5975 26.3663 25.5934 26.3656 25.5879 26.364C25.5862 26.3635 25.5847 26.3626 25.583 26.3621C25.5865 26.3629 25.5895 26.3634 25.5918 26.364ZM25.374 26.3669C25.4011 26.358 25.4286 26.3535 25.4551 26.3513C25.4301 26.3536 25.4026 26.3575 25.374 26.3669ZM139.127 17.6042C139.171 17.621 139.215 17.6286 139.254 17.6287L139.188 17.6228C139.165 17.6185 139.145 17.6116 139.127 17.6042ZM139.013 17.5291C139.011 17.5274 139.009 17.5258 139.007 17.5242C139.009 17.5258 139.011 17.5275 139.013 17.5291ZM140.053 6.48511C140.409 6.48511 140.753 6.60871 141.026 6.83276L141.139 6.93433L142.512 8.30737C143.176 8.97154 143.841 9.63751 144.505 10.3035L146.498 12.3005C147.464 13.266 148.426 14.2253 149.386 15.1882H141.693C141.326 15.1882 140.972 15.0608 140.692 14.8298L140.577 14.7253L139.222 13.3591L139.221 13.3582L135.229 9.36108V9.36011L132.354 6.48511H140.053Z"
            stroke="url(#paint2_linear_2168_710)" stroke-width="0.70524" />
    </g>
    <path
        d="M42.1133 18.4526V26.8526H39.7133V23.2526H36.1133V26.8526H33.7133V18.4526H36.1133V22.0526H39.7133V18.4526H42.1133ZM52.0508 19.6526V25.6526H50.8508V26.8526H44.8508V25.6526H43.6508V19.6526H44.8508V18.4526H50.8508V19.6526H52.0508ZM46.0508 25.6526H49.6508V19.6526H46.0508V25.6526ZM61.9883 18.4526V26.8526H59.5883V25.6526H58.3883V24.4526H57.1883V25.6526H55.9883V26.8526H53.5883V18.4526H55.9883V22.0526H57.1883V20.8526H58.3883V22.0526H59.5883V18.4526H61.9883ZM81.2633 18.4526V19.6526H78.8633V26.8526H76.4633V19.6526H74.0633V18.4526H81.2633ZM91.8008 19.6526V25.6526H90.6008V26.8526H84.6008V25.6526H83.4008V19.6526H84.6008V18.4526H90.6008V19.6526H91.8008ZM85.8008 25.6526H89.4008V19.6526H85.8008V25.6526ZM111.676 23.2526V25.6526H110.476V26.8526H103.276V18.4526H110.476V19.6526H111.676V22.0526H110.476V23.2526H111.676ZM105.676 22.0526H109.276V19.6526H105.676V22.0526ZM105.676 25.6526H109.276V23.2526H105.676V25.6526ZM121.613 18.4526V25.6526H120.413V26.8526H114.413V25.6526H113.213V18.4526H115.613V25.6526H119.213V18.4526H121.613ZM130.951 18.4526V22.0526H129.751V23.2526H128.551V26.8526H126.151V23.2526H124.939V22.0526H123.751V18.4526H126.151V22.0526H128.551V18.4526H130.951Z"
        fill="#0D0D0D" />
    <defs>
        <filter id="filter0_d_2168_710" x="0.819016" y="0.483811" width="163.151" height="43.0324"
            filterUnits="userSpaceOnUse" color-interpolation-filters="sRGB">
            <feFlood flood-opacity="0" result="BackgroundImageFix" />
            <feColorMatrix in="SourceAlpha" type="matrix" values="0 0 0 0 0 0 0 0 0 0 0 0 0 0 0 0 0 0 127 0"
                result="hardAlpha" />
            <feOffset />
            <feGaussianBlur stdDeviation="2.82096" />
            <feComposite in2="hardAlpha" operator="out" />
            <feColorMatrix type="matrix" values="0 0 0 0 0.694118 0 0 0 0 0.956863 0 0 0 0 0.537255 0 0 0 0.5 0" />
            <feBlend mode="normal" in2="BackgroundImageFix" result="effect1_dropShadow_2168_710" />
            <feBlend mode="normal" in="SourceGraphic" in2="effect1_dropShadow_2168_710" result="shape" />
        </filter>
        <linearGradient id="paint0_linear_2168_710" x1="102.021" y1="7.17197" x2="101.062" y2="37.9971"
            gradientUnits="userSpaceOnUse">
            <stop offset="0.129328" stop-color="#B1F489" stop-opacity="0.48" />
            <stop offset="0.544605" stop-color="#B1F489" />
        </linearGradient>
        <linearGradient id="paint1_linear_2168_710" x1="102.021" y1="7.17197" x2="101.062" y2="37.9971"
            gradientUnits="userSpaceOnUse">
            <stop offset="0.129328" stop-color="#B1F489" stop-opacity="0.48" />
            <stop offset="0.544605" stop-color="#B1F489" />
        </linearGradient>
        <linearGradient id="paint2_linear_2168_710" x1="102.021" y1="7.17197" x2="101.062" y2="37.9971"
            gradientUnits="userSpaceOnUse">
            <stop offset="0.129328" stop-color="#B1F489" stop-opacity="0.48" />
            <stop offset="0.544605" stop-color="#B1F489" />
        </linearGradient>
    </defs>
</svg>