<svg width="165" height="44" viewBox="0 0 165 44" fill="none" xmlns="http://www.w3.org/2000/svg">
    <g filter="url(#filter0_d_2168_682)">
        <path
            d="M158.403 36.7744C158.403 35.1215 158.403 33.475 158.403 31.8221C158.403 29.9657 158.403 28.1094 158.403 26.2467C158.403 25.5093 158.403 24.7674 158.403 24.0287C158.403 23.784 158.309 23.5465 158.13 23.3795C156.96 22.1971 155.784 21.021 154.608 19.8449C153.795 19.0259 152.977 18.207 152.158 17.3881C152.094 17.3248 152.009 17.2892 151.919 17.2892C150.603 17.2892 149.287 17.2892 147.977 17.2892C146.077 17.2892 144.182 17.2892 142.288 17.2892C141.315 17.2892 140.349 17.2892 139.382 17.2892C139.379 17.2892 139.376 17.2892 139.372 17.2892C139.362 17.2892 139.354 17.2828 139.344 17.2828C139.34 17.2828 139.336 17.2804 139.334 17.2786C139.332 17.2773 139.33 17.2765 139.328 17.2765C139.326 17.2765 139.324 17.2757 139.323 17.2741C139.321 17.2718 139.32 17.2697 139.319 17.2679C139.316 17.2642 139.315 17.2583 139.31 17.2576C139.308 17.2572 139.305 17.2566 139.304 17.255C138.726 16.6709 138.142 16.0869 137.558 15.5028C136.28 14.225 135.002 12.9471 133.724 11.6693C132.446 10.3979 131.169 9.12003 129.897 7.84221C129.532 7.47724 129.17 7.11486 128.807 6.75177C128.41 6.35499 127.872 6.13208 127.311 6.13208C127.217 6.13208 127.124 6.13208 127.03 6.13208C124.163 6.13208 121.296 6.13208 118.435 6.13208C113.559 6.13208 108.683 6.13208 103.807 6.13208C97.8117 6.13208 91.8168 6.13208 85.8282 6.13208C79.6107 6.13208 73.3932 6.13208 67.1757 6.13208C61.6321 6.13208 28.5052 6.12573 22.9552 6.12573C18.9755 6.12573 14.9895 6.12573 11.0098 6.12573C9.88488 6.12573 8.76356 6.12573 7.64042 6.12573C7.0295 6.12573 6.53424 6.62098 6.53424 7.23191C6.53424 8.87846 6.53424 10.5314 6.53424 12.1843C6.53424 14.0406 6.53424 15.897 6.53424 17.7533C6.53424 18.4983 6.53424 19.2386 6.53424 19.9822C6.53424 20.224 6.63029 20.4558 6.80125 20.6268C7.97736 21.8029 9.15347 22.979 10.3296 24.1551C11.1406 24.9662 11.9576 25.7831 12.7691 26.5947C12.8353 26.6609 12.9251 26.6981 13.0187 26.6981C14.3347 26.6981 15.6443 26.6981 16.9603 26.6981C18.8611 26.6981 20.7556 26.6981 22.6501 26.6981C23.6164 26.6981 24.5827 26.6981 25.549 26.6981H25.5535C25.5546 26.6981 25.5554 26.6989 25.5554 26.6999C25.5554 26.7016 25.5576 26.7025 25.5591 26.702C25.5642 26.7003 25.5693 26.7044 25.5745 26.7044C25.5745 26.7044 25.5745 26.7044 25.5808 26.7044C25.5808 26.7044 25.5994 26.7103 25.6059 26.7168C25.606 26.7169 25.6061 26.717 25.6062 26.7171C25.6126 26.7235 25.619 26.7235 25.6253 26.7298C26.2102 27.3147 26.7951 27.906 27.3799 28.4908C28.6578 29.7687 29.9356 31.0465 31.2134 32.3243C32.4912 33.6021 33.7627 34.88 35.0405 36.1578C35.3312 36.4517 35.6235 36.7456 35.9166 37.0387C36.4495 37.5714 37.1733 37.8679 37.9268 37.8679C40.8003 37.8679 71.2571 37.8743 74.137 37.8743C79.0131 37.8743 83.8892 37.8743 88.7716 37.8743C94.7602 37.8743 100.749 37.8743 106.744 37.8743C112.955 37.8743 119.166 37.8743 125.377 37.8743C130.914 37.8743 136.458 37.8743 141.995 37.8743C145.975 37.8743 149.955 37.8743 153.934 37.8743C155.056 37.8743 156.179 37.8743 157.304 37.8743C157.911 37.8743 158.403 37.3818 158.403 36.7744Z"
            fill="white" />
        <path
            d="M158.403 36.7744C158.403 35.1215 158.403 33.475 158.403 31.8221C158.403 29.9657 158.403 28.1094 158.403 26.2467C158.403 25.5093 158.403 24.7674 158.403 24.0287C158.403 23.784 158.309 23.5465 158.13 23.3795C156.96 22.1971 155.784 21.021 154.608 19.8449C153.795 19.0259 152.977 18.207 152.158 17.3881C152.094 17.3248 152.009 17.2892 151.919 17.2892C150.603 17.2892 149.287 17.2892 147.977 17.2892C146.077 17.2892 144.182 17.2892 142.288 17.2892C141.315 17.2892 140.349 17.2892 139.382 17.2892C139.379 17.2892 139.376 17.2892 139.372 17.2892C139.362 17.2892 139.354 17.2828 139.344 17.2828C139.34 17.2828 139.336 17.2804 139.334 17.2786C139.332 17.2773 139.33 17.2765 139.328 17.2765C139.326 17.2765 139.324 17.2757 139.323 17.2741C139.321 17.2718 139.32 17.2697 139.319 17.2679C139.316 17.2642 139.315 17.2583 139.31 17.2576C139.308 17.2572 139.305 17.2566 139.304 17.255C138.726 16.6709 138.142 16.0869 137.558 15.5028C136.28 14.225 135.002 12.9471 133.724 11.6693C132.446 10.3979 131.169 9.12003 129.897 7.84221C129.532 7.47724 129.17 7.11486 128.807 6.75177C128.41 6.35499 127.872 6.13208 127.311 6.13208C127.217 6.13208 127.124 6.13208 127.03 6.13208C124.163 6.13208 121.296 6.13208 118.435 6.13208C113.559 6.13208 108.683 6.13208 103.807 6.13208C97.8117 6.13208 91.8168 6.13208 85.8282 6.13208C79.6107 6.13208 73.3932 6.13208 67.1757 6.13208C61.6321 6.13208 28.5052 6.12573 22.9552 6.12573C18.9755 6.12573 14.9895 6.12573 11.0098 6.12573C9.88488 6.12573 8.76356 6.12573 7.64042 6.12573C7.0295 6.12573 6.53424 6.62098 6.53424 7.23191C6.53424 8.87846 6.53424 10.5314 6.53424 12.1843C6.53424 14.0406 6.53424 15.897 6.53424 17.7533C6.53424 18.4983 6.53424 19.2386 6.53424 19.9822C6.53424 20.224 6.63029 20.4558 6.80125 20.6268C7.97736 21.8029 9.15347 22.979 10.3296 24.1551C11.1406 24.9662 11.9576 25.7831 12.7691 26.5947C12.8353 26.6609 12.9251 26.6981 13.0187 26.6981C14.3347 26.6981 15.6443 26.6981 16.9603 26.6981C18.8611 26.6981 20.7556 26.6981 22.6501 26.6981C23.6164 26.6981 24.5827 26.6981 25.549 26.6981H25.5535C25.5546 26.6981 25.5554 26.6989 25.5554 26.6999C25.5554 26.7016 25.5576 26.7025 25.5591 26.702C25.5642 26.7003 25.5693 26.7044 25.5745 26.7044C25.5745 26.7044 25.5745 26.7044 25.5808 26.7044C25.5808 26.7044 25.5994 26.7103 25.6059 26.7168C25.606 26.7169 25.6061 26.717 25.6062 26.7171C25.6126 26.7235 25.619 26.7235 25.6253 26.7298C26.2102 27.3147 26.7951 27.906 27.3799 28.4908C28.6578 29.7687 29.9356 31.0465 31.2134 32.3243C32.4912 33.6021 33.7627 34.88 35.0405 36.1578C35.3312 36.4517 35.6235 36.7456 35.9166 37.0387C36.4495 37.5714 37.1733 37.8679 37.9268 37.8679C40.8003 37.8679 71.2571 37.8743 74.137 37.8743C79.0131 37.8743 83.8892 37.8743 88.7716 37.8743C94.7602 37.8743 100.749 37.8743 106.744 37.8743C112.955 37.8743 119.166 37.8743 125.377 37.8743C130.914 37.8743 136.458 37.8743 141.995 37.8743C145.975 37.8743 149.955 37.8743 153.934 37.8743C155.056 37.8743 156.179 37.8743 157.304 37.8743C157.911 37.8743 158.403 37.3818 158.403 36.7744Z"
            fill="url(#paint0_linear_2168_682)" />
        <path
            d="M131.844 6.39909C132.912 7.46712 133.986 8.54151 135.054 9.60955C136.383 10.9446 137.711 12.2796 139.047 13.6083C139.5 14.0616 139.95 14.5181 140.401 14.9732C140.762 15.3374 141.255 15.5409 141.767 15.5409C143.528 15.5409 145.283 15.5409 147.044 15.5409C148.002 15.5409 148.966 15.5409 149.925 15.5409C150.068 15.5409 150.143 15.3649 150.038 15.2676C148.97 14.1932 147.896 13.1252 146.822 12.0508C145.493 10.7221 144.164 9.38704 142.835 8.05836C142.378 7.60057 141.92 7.14279 141.462 6.685C141.108 6.33098 140.628 6.13208 140.127 6.13208C138.373 6.13208 136.612 6.13208 134.857 6.13208C133.889 6.13208 132.92 6.13208 131.956 6.13208C131.818 6.13208 131.746 6.30173 131.844 6.39909Z"
            fill="white" />
        <path
            d="M131.844 6.39909C132.912 7.46712 133.986 8.54151 135.054 9.60955C136.383 10.9446 137.711 12.2796 139.047 13.6083C139.5 14.0616 139.95 14.5181 140.401 14.9732C140.762 15.3374 141.255 15.5409 141.767 15.5409C143.528 15.5409 145.283 15.5409 147.044 15.5409C148.002 15.5409 148.966 15.5409 149.925 15.5409C150.068 15.5409 150.143 15.3649 150.038 15.2676C148.97 14.1932 147.896 13.1252 146.822 12.0508C145.493 10.7221 144.164 9.38704 142.835 8.05836C142.378 7.60057 141.92 7.14279 141.462 6.685C141.108 6.33098 140.628 6.13208 140.127 6.13208C138.373 6.13208 136.612 6.13208 134.857 6.13208C133.889 6.13208 132.92 6.13208 131.956 6.13208C131.818 6.13208 131.746 6.30173 131.844 6.39909Z"
            fill="url(#paint1_linear_2168_682)" />
        <path
            d="M25.7812 26.4119L25.7832 26.4128C25.789 26.4159 25.7979 26.4214 25.8076 26.4275C25.8174 26.4336 25.8283 26.441 25.8398 26.45L25.875 26.4802L26.7529 27.3621C27.0453 27.656 27.337 27.95 27.6289 28.2419L29.5459 30.158L31.4629 32.075L33.377 33.9919L35.29 35.908L35.291 35.9099L36.166 36.7888L36.3486 36.9539C36.7912 37.3158 37.3484 37.5154 37.9268 37.5154C39.3635 37.5154 47.696 37.5167 56.0293 37.5183C64.3621 37.5199 72.696 37.5212 74.1367 37.5212H157.304C157.716 37.5212 158.051 37.1868 158.051 36.7742V24.0291C158.051 23.8735 157.991 23.732 157.89 23.6375L157.879 23.6277V23.6267C156.71 22.4453 155.534 21.2705 154.358 20.0945L154.357 20.0935L151.912 17.6414H139.372C139.331 17.6414 139.297 17.6351 139.276 17.6296C139.272 17.6284 139.268 17.6259 139.264 17.6248C139.234 17.6179 139.207 17.6096 139.186 17.5994C139.144 17.5816 139.105 17.5531 139.068 17.5144C139.064 17.5101 139.057 17.5074 139.053 17.5027L137.309 15.7517L133.475 11.9187V11.9177C132.197 10.6463 130.919 9.36839 129.647 8.09058V8.09155C129.283 7.72665 128.921 7.36376 128.558 7.00073L128.428 6.88354C128.114 6.6267 127.72 6.48511 127.311 6.48511H67.1758C64.4039 6.48511 54.7358 6.48279 45.0674 6.4812C35.3991 6.47961 25.73 6.47827 22.9551 6.47827H7.64062C7.22445 6.47827 6.88672 6.816 6.88672 7.23218V19.9822C6.88672 20.1304 6.94595 20.2729 7.05078 20.3777L13.0186 26.3455H25.5537C25.5747 26.3455 25.5952 26.3478 25.6152 26.3513H25.6348L25.6865 26.3679H25.6875V26.3689H25.6895L25.7012 26.3728C25.7074 26.375 25.7163 26.3783 25.7266 26.3826C25.7276 26.383 25.7504 26.3932 25.7812 26.4119ZM25.7812 26.4119C25.8036 26.4254 25.8309 26.443 25.8555 26.4675C25.8459 26.4579 25.8362 26.449 25.8262 26.4412C25.8161 26.4333 25.8061 26.4268 25.7979 26.4216C25.7911 26.4174 25.7854 26.4141 25.7812 26.4119ZM25.8799 26.5632C25.8897 26.5863 25.8986 26.611 25.9033 26.6384L25.9082 26.7C25.9082 26.6514 25.8976 26.6054 25.8799 26.5632ZM25.8555 26.5173C25.8624 26.5285 25.8691 26.54 25.875 26.5525C25.8694 26.5402 25.8624 26.5288 25.8555 26.5173ZM25.666 26.364C25.6732 26.366 25.6789 26.3677 25.6797 26.3679C25.6784 26.3675 25.6754 26.3674 25.6738 26.3669C25.6717 26.3663 25.6676 26.3656 25.6621 26.364C25.6604 26.3635 25.6589 26.3626 25.6572 26.3621C25.6607 26.3629 25.6637 26.3634 25.666 26.364ZM25.4482 26.3669C25.4753 26.358 25.5029 26.3535 25.5293 26.3513C25.5044 26.3536 25.4768 26.3575 25.4482 26.3669ZM139.201 17.6042C139.246 17.621 139.289 17.6286 139.328 17.6287L139.262 17.6228C139.24 17.6185 139.22 17.6116 139.201 17.6042ZM139.087 17.5291C139.085 17.5274 139.083 17.5258 139.081 17.5242C139.083 17.5258 139.085 17.5275 139.087 17.5291ZM140.127 6.48511C140.483 6.48511 140.827 6.60871 141.101 6.83276L141.213 6.93433L142.586 8.30737C143.25 8.97154 143.915 9.63751 144.579 10.3035L146.572 12.3005C147.538 13.266 148.501 14.2253 149.46 15.1882H141.768C141.4 15.1882 141.047 15.0608 140.767 14.8298L140.651 14.7253L139.296 13.3591L139.295 13.3582L135.304 9.36108V9.36011L132.428 6.48511H140.127Z"
            stroke="black" stroke-opacity="0.2" stroke-width="0.70524" />
        <path
            d="M25.7812 26.4119L25.7832 26.4128C25.789 26.4159 25.7979 26.4214 25.8076 26.4275C25.8174 26.4336 25.8283 26.441 25.8398 26.45L25.875 26.4802L26.7529 27.3621C27.0453 27.656 27.337 27.95 27.6289 28.2419L29.5459 30.158L31.4629 32.075L33.377 33.9919L35.29 35.908L35.291 35.9099L36.166 36.7888L36.3486 36.9539C36.7912 37.3158 37.3484 37.5154 37.9268 37.5154C39.3635 37.5154 47.696 37.5167 56.0293 37.5183C64.3621 37.5199 72.696 37.5212 74.1367 37.5212H157.304C157.716 37.5212 158.051 37.1868 158.051 36.7742V24.0291C158.051 23.8735 157.991 23.732 157.89 23.6375L157.879 23.6277V23.6267C156.71 22.4453 155.534 21.2705 154.358 20.0945L154.357 20.0935L151.912 17.6414H139.372C139.331 17.6414 139.297 17.6351 139.276 17.6296C139.272 17.6284 139.268 17.6259 139.264 17.6248C139.234 17.6179 139.207 17.6096 139.186 17.5994C139.144 17.5816 139.105 17.5531 139.068 17.5144C139.064 17.5101 139.057 17.5074 139.053 17.5027L137.309 15.7517L133.475 11.9187V11.9177C132.197 10.6463 130.919 9.36839 129.647 8.09058V8.09155C129.283 7.72665 128.921 7.36376 128.558 7.00073L128.428 6.88354C128.114 6.6267 127.72 6.48511 127.311 6.48511H67.1758C64.4039 6.48511 54.7358 6.48279 45.0674 6.4812C35.3991 6.47961 25.73 6.47827 22.9551 6.47827H7.64062C7.22445 6.47827 6.88672 6.816 6.88672 7.23218V19.9822C6.88672 20.1304 6.94595 20.2729 7.05078 20.3777L13.0186 26.3455H25.5537C25.5747 26.3455 25.5952 26.3478 25.6152 26.3513H25.6348L25.6865 26.3679H25.6875V26.3689H25.6895L25.7012 26.3728C25.7074 26.375 25.7163 26.3783 25.7266 26.3826C25.7276 26.383 25.7504 26.3932 25.7812 26.4119ZM25.7812 26.4119C25.8036 26.4254 25.8309 26.443 25.8555 26.4675C25.8459 26.4579 25.8362 26.449 25.8262 26.4412C25.8161 26.4333 25.8061 26.4268 25.7979 26.4216C25.7911 26.4174 25.7854 26.4141 25.7812 26.4119ZM25.8799 26.5632C25.8897 26.5863 25.8986 26.611 25.9033 26.6384L25.9082 26.7C25.9082 26.6514 25.8976 26.6054 25.8799 26.5632ZM25.8555 26.5173C25.8624 26.5285 25.8691 26.54 25.875 26.5525C25.8694 26.5402 25.8624 26.5288 25.8555 26.5173ZM25.666 26.364C25.6732 26.366 25.6789 26.3677 25.6797 26.3679C25.6784 26.3675 25.6754 26.3674 25.6738 26.3669C25.6717 26.3663 25.6676 26.3656 25.6621 26.364C25.6604 26.3635 25.6589 26.3626 25.6572 26.3621C25.6607 26.3629 25.6637 26.3634 25.666 26.364ZM25.4482 26.3669C25.4753 26.358 25.5029 26.3535 25.5293 26.3513C25.5044 26.3536 25.4768 26.3575 25.4482 26.3669ZM139.201 17.6042C139.246 17.621 139.289 17.6286 139.328 17.6287L139.262 17.6228C139.24 17.6185 139.22 17.6116 139.201 17.6042ZM139.087 17.5291C139.085 17.5274 139.083 17.5258 139.081 17.5242C139.083 17.5258 139.085 17.5275 139.087 17.5291ZM140.127 6.48511C140.483 6.48511 140.827 6.60871 141.101 6.83276L141.213 6.93433L142.586 8.30737C143.25 8.97154 143.915 9.63751 144.579 10.3035L146.572 12.3005C147.538 13.266 148.501 14.2253 149.46 15.1882H141.768C141.4 15.1882 141.047 15.0608 140.767 14.8298L140.651 14.7253L139.296 13.3591L139.295 13.3582L135.304 9.36108V9.36011L132.428 6.48511H140.127Z"
            stroke="url(#paint2_linear_2168_682)" stroke-width="0.70524" />
    </g>
    <path
        d="M57.0938 25.6526V26.8526H53.4938V25.6526H52.2938V24.4526H51.0938V26.8526H48.6938V18.4526H55.8938V19.6526H57.0938V23.2526H54.6938V24.4526H55.8938V25.6526H57.0938ZM53.4938 22.0526H54.6938V19.6526H51.0938V23.2526H53.4938V22.0526ZM67.0313 19.6526V25.6526H65.8313V26.8526H59.8313V25.6526H58.6313V19.6526H59.8313V18.4526H65.8313V19.6526H67.0313ZM61.0313 25.6526H64.6313V19.6526H61.0313V25.6526ZM76.9688 20.8526V26.8526H74.5688V24.4526H70.9688V26.8526H68.5688V20.8526H69.7688V19.6526H70.9688V18.4526H74.5688V19.6526H75.7688V20.8526H76.9688ZM70.9688 23.2526H74.5688V20.8526H73.3688V19.6526H72.1688V20.8526H70.9688V23.2526ZM86.9063 20.8526V24.4526H85.7063V25.6526H84.5063V26.8526H78.5063V18.4526H84.5063V19.6526H85.7063V20.8526H86.9063ZM83.3063 24.4526H84.5063V20.8526H83.3063V19.6526H80.9063V25.6526H83.3063V24.4526ZM96.8438 18.4526V26.8526H94.4438V23.2526H93.2438V24.4526H92.0438V23.2526H90.8438V26.8526H88.4438V18.4526H90.8438V19.6526H92.0438V20.8526H93.2438V19.6526H94.4438V18.4526H96.8438ZM106.781 20.8526V26.8526H104.381V24.4526H100.781V26.8526H98.3813V20.8526H99.5813V19.6526H100.781V18.4526H104.381V19.6526H105.581V20.8526H106.781ZM100.781 23.2526H104.381V20.8526H103.181V19.6526H101.981V20.8526H100.781V23.2526ZM116.719 19.6526V23.2526H115.519V24.4526H110.719V26.8526H108.319V18.4526H115.519V19.6526H116.719ZM110.719 23.2526H114.319V19.6526H110.719V23.2526Z"
        fill="#0D0D0D" />
    <defs>
        <filter id="filter0_d_2168_682" x="0.893235" y="0.483811" width="163.151" height="43.0324"
            filterUnits="userSpaceOnUse" color-interpolation-filters="sRGB">
            <feFlood flood-opacity="0" result="BackgroundImageFix" />
            <feColorMatrix in="SourceAlpha" type="matrix" values="0 0 0 0 0 0 0 0 0 0 0 0 0 0 0 0 0 0 127 0"
                result="hardAlpha" />
            <feOffset />
            <feGaussianBlur stdDeviation="2.82096" />
            <feComposite in2="hardAlpha" operator="out" />
            <feColorMatrix type="matrix" values="0 0 0 0 0.694118 0 0 0 0 0.956863 0 0 0 0 0.537255 0 0 0 0.5 0" />
            <feBlend mode="normal" in2="BackgroundImageFix" result="effect1_dropShadow_2168_682" />
            <feBlend mode="normal" in="SourceGraphic" in2="effect1_dropShadow_2168_682" result="shape" />
        </filter>
        <linearGradient id="paint0_linear_2168_682" x1="102.095" y1="7.17197" x2="101.136" y2="37.9971"
            gradientUnits="userSpaceOnUse">
            <stop offset="0.129328" stop-color="#B1F489" stop-opacity="0.48" />
            <stop offset="0.544605" stop-color="#B1F489" />
        </linearGradient>
        <linearGradient id="paint1_linear_2168_682" x1="102.095" y1="7.17197" x2="101.136" y2="37.9971"
            gradientUnits="userSpaceOnUse">
            <stop offset="0.129328" stop-color="#B1F489" stop-opacity="0.48" />
            <stop offset="0.544605" stop-color="#B1F489" />
        </linearGradient>
        <linearGradient id="paint2_linear_2168_682" x1="102.095" y1="7.17197" x2="101.136" y2="37.9971"
            gradientUnits="userSpaceOnUse">
            <stop offset="0.129328" stop-color="#B1F489" stop-opacity="0.48" />
            <stop offset="0.544605" stop-color="#B1F489" />
        </linearGradient>
    </defs>
</svg>