<svg width="154" height="34" viewBox="0 0 154 34" fill="none" xmlns="http://www.w3.org/2000/svg">
    <path
        d="M20.7773 21.4119L20.7793 21.4128C20.7851 21.4159 20.794 21.4214 20.8037 21.4275C20.8135 21.4336 20.8244 21.441 20.8359 21.45L20.8711 21.4802L21.749 22.3621C22.0414 22.656 22.3331 22.95 22.625 23.2419L24.542 25.158L26.459 27.075L28.373 28.9919L30.2861 30.908L30.2871 30.9099L31.1621 31.7888L31.3447 31.9539C31.7873 32.3158 32.3445 32.5154 32.9229 32.5154C34.3596 32.5154 42.6921 32.5167 51.0254 32.5183C59.3582 32.5199 67.6921 32.5212 69.1328 32.5212H152.3C152.712 32.5212 153.047 32.1868 153.047 31.7742V19.0291C153.047 18.8735 152.987 18.732 152.886 18.6375L152.875 18.6277V18.6267C151.706 17.4453 150.53 16.2705 149.354 15.0945L149.354 15.0935L146.908 12.6414H134.368C134.327 12.6414 134.293 12.6351 134.272 12.6296C134.268 12.6284 134.264 12.6259 134.26 12.6248C134.23 12.6179 134.203 12.6096 134.182 12.5994C134.14 12.5816 134.101 12.5531 134.064 12.5144C134.06 12.5101 134.053 12.5074 134.049 12.5027L132.305 10.7517L128.471 6.9187V6.91772C127.193 5.64626 125.915 4.36839 124.644 3.09058V3.09155C124.279 2.72665 123.917 2.36376 123.554 2.00073L123.424 1.88354C123.11 1.6267 122.716 1.48511 122.307 1.48511H62.1719C59.4 1.48511 49.7319 1.48279 40.0635 1.4812C30.3952 1.47961 20.7261 1.47827 17.9512 1.47827H2.63672C2.22054 1.47827 1.88281 1.816 1.88281 2.23218V14.9822C1.88281 15.1304 1.94204 15.2729 2.04688 15.3777L8.01465 21.3455H20.5498C20.5708 21.3455 20.5913 21.3478 20.6113 21.3513H20.6309L20.6826 21.3679H20.6836V21.3689H20.6855L20.6973 21.3728C20.7035 21.375 20.7124 21.3783 20.7227 21.3826C20.7237 21.383 20.7465 21.3932 20.7773 21.4119ZM20.7773 21.4119C20.7997 21.4254 20.827 21.443 20.8516 21.4675C20.842 21.4579 20.8323 21.449 20.8223 21.4412C20.8122 21.4333 20.8022 21.4268 20.7939 21.4216C20.7872 21.4174 20.7815 21.4141 20.7773 21.4119ZM20.876 21.5632C20.8858 21.5863 20.8947 21.611 20.8994 21.6384L20.9043 21.7C20.9043 21.6514 20.8936 21.6054 20.876 21.5632ZM20.8516 21.5173C20.8585 21.5285 20.8652 21.54 20.8711 21.5525C20.8655 21.5402 20.8585 21.5288 20.8516 21.5173ZM20.6621 21.364C20.6693 21.366 20.675 21.3677 20.6758 21.3679C20.6745 21.3675 20.6715 21.3674 20.6699 21.3669C20.6678 21.3663 20.6637 21.3656 20.6582 21.364C20.6565 21.3635 20.655 21.3626 20.6533 21.3621C20.6568 21.3629 20.6598 21.3634 20.6621 21.364ZM20.4443 21.3669C20.4714 21.358 20.499 21.3535 20.5254 21.3513C20.5005 21.3536 20.4729 21.3575 20.4443 21.3669ZM134.197 12.6042C134.242 12.621 134.286 12.6286 134.324 12.6287L134.258 12.6228C134.236 12.6185 134.216 12.6116 134.197 12.6042ZM134.083 12.5291C134.081 12.5274 134.079 12.5258 134.077 12.5242C134.079 12.5258 134.081 12.5275 134.083 12.5291ZM135.123 1.48511C135.479 1.48511 135.823 1.60871 136.097 1.83276L136.209 1.93433L137.582 3.30737C138.246 3.97154 138.911 4.63751 139.575 5.30347L141.568 7.30054C142.534 8.26603 143.497 9.22525 144.456 10.1882H136.764C136.396 10.1882 136.043 10.0608 135.763 9.82983L135.647 9.72534L134.292 8.35913L134.291 8.35815L130.3 4.36108V4.36011L127.424 1.48511H135.123Z"
        stroke="#B1F489" stroke-width="0.70524" />
    <path
        d="M52.0938 20.6526V21.8526H48.4938V20.6526H47.2938V19.4526H46.0938V21.8526H43.6938V13.4526H50.8938V14.6526H52.0938V18.2526H49.6938V19.4526H50.8938V20.6526H52.0938ZM48.4938 17.0526H49.6938V14.6526H46.0938V18.2526H48.4938V17.0526ZM62.0313 14.6526V20.6526H60.8313V21.8526H54.8313V20.6526H53.6313V14.6526H54.8313V13.4526H60.8313V14.6526H62.0313ZM56.0313 20.6526H59.6313V14.6526H56.0313V20.6526ZM71.9688 15.8526V21.8526H69.5688V19.4526H65.9688V21.8526H63.5688V15.8526H64.7688V14.6526H65.9688V13.4526H69.5688V14.6526H70.7688V15.8526H71.9688ZM65.9688 18.2526H69.5688V15.8526H68.3688V14.6526H67.1688V15.8526H65.9688V18.2526ZM81.9063 15.8526V19.4526H80.7063V20.6526H79.5063V21.8526H73.5063V13.4526H79.5063V14.6526H80.7063V15.8526H81.9063ZM78.3063 19.4526H79.5063V15.8526H78.3063V14.6526H75.9063V20.6526H78.3063V19.4526ZM91.8438 13.4526V21.8526H89.4438V18.2526H88.2438V19.4526H87.0438V18.2526H85.8438V21.8526H83.4438V13.4526H85.8438V14.6526H87.0438V15.8526H88.2438V14.6526H89.4438V13.4526H91.8438ZM101.781 15.8526V21.8526H99.3813V19.4526H95.7813V21.8526H93.3813V15.8526H94.5813V14.6526H95.7813V13.4526H99.3813V14.6526H100.581V15.8526H101.781ZM95.7813 18.2526H99.3813V15.8526H98.1813V14.6526H96.9813V15.8526H95.7813V18.2526ZM111.719 14.6526V18.2526H110.519V19.4526H105.719V21.8526H103.319V13.4526H110.519V14.6526H111.719ZM105.719 18.2526H109.319V14.6526H105.719V18.2526Z"
        fill="#B1F489" />
</svg>