<svg width="154" height="34" viewBox="0 0 154 34" fill="none" xmlns="http://www.w3.org/2000/svg">
    <path
        d="M20.8945 21.4119L20.8965 21.4128C20.9023 21.4159 20.9112 21.4214 20.9209 21.4275C20.9306 21.4336 20.9416 21.441 20.9531 21.45L20.9883 21.4802L21.8662 22.3621C22.1586 22.656 22.4503 22.95 22.7422 23.2419L24.6592 25.158L26.5762 27.075L28.4902 28.9919L30.4033 30.908L30.4043 30.9099L31.2793 31.7888L31.4619 31.9539C31.9045 32.3158 32.4617 32.5154 33.04 32.5154C34.4768 32.5154 42.8093 32.5167 51.1426 32.5183C59.4754 32.5199 67.8093 32.5212 69.25 32.5212H152.417C152.83 32.5212 153.164 32.1868 153.164 31.7742V19.0291C153.164 18.8735 153.104 18.732 153.003 18.6375L152.992 18.6277V18.6267C151.823 17.4453 150.648 16.2705 149.472 15.0945L149.471 15.0935L147.025 12.6414H134.485C134.444 12.6414 134.411 12.6351 134.39 12.6296C134.385 12.6284 134.381 12.6259 134.377 12.6248C134.347 12.6179 134.32 12.6096 134.299 12.5994C134.257 12.5816 134.218 12.5531 134.182 12.5144C134.177 12.5101 134.171 12.5074 134.166 12.5027L132.422 10.7517L128.588 6.9187V6.91772C127.31 5.64626 126.032 4.36839 124.761 3.09058V3.09155C124.396 2.72665 124.034 2.36376 123.671 2.00073L123.541 1.88354C123.227 1.6267 122.833 1.48511 122.424 1.48511H62.2891C59.5172 1.48511 49.8491 1.48279 40.1807 1.4812C30.5124 1.47961 20.8433 1.47827 18.0684 1.47827H2.75391C2.33773 1.47827 2 1.816 2 2.23218V14.9822C2 15.1304 2.05923 15.2729 2.16406 15.3777L8.13184 21.3455H20.667C20.688 21.3455 20.7085 21.3478 20.7285 21.3513H20.748L20.7998 21.3679H20.8008V21.3689H20.8027L20.8145 21.3728C20.8206 21.375 20.8295 21.3783 20.8398 21.3826C20.8408 21.383 20.8637 21.3932 20.8945 21.4119ZM20.8945 21.4119C20.9169 21.4254 20.9442 21.443 20.9688 21.4675C20.9592 21.4579 20.9495 21.449 20.9395 21.4412C20.9294 21.4333 20.9194 21.4268 20.9111 21.4216C20.9044 21.4174 20.8987 21.4141 20.8945 21.4119ZM20.9932 21.5632C21.003 21.5863 21.0119 21.611 21.0166 21.6384L21.0215 21.7C21.0215 21.6514 21.0108 21.6054 20.9932 21.5632ZM20.9688 21.5173C20.9757 21.5285 20.9824 21.54 20.9883 21.5525C20.9826 21.5402 20.9757 21.5288 20.9688 21.5173ZM20.7793 21.364C20.7865 21.366 20.7922 21.3677 20.793 21.3679C20.7917 21.3675 20.7887 21.3674 20.7871 21.3669C20.785 21.3663 20.7809 21.3656 20.7754 21.364C20.7737 21.3635 20.7722 21.3626 20.7705 21.3621C20.774 21.3629 20.777 21.3634 20.7793 21.364ZM20.5615 21.3669C20.5886 21.358 20.6161 21.3535 20.6426 21.3513C20.6176 21.3536 20.5901 21.3575 20.5615 21.3669ZM134.314 12.6042C134.359 12.621 134.403 12.6286 134.441 12.6287L134.375 12.6228C134.353 12.6185 134.333 12.6116 134.314 12.6042ZM134.2 12.5291C134.198 12.5274 134.196 12.5258 134.194 12.5242C134.196 12.5258 134.198 12.5275 134.2 12.5291ZM135.24 1.48511C135.597 1.48511 135.941 1.60871 136.214 1.83276L136.326 1.93433L137.699 3.30737C138.363 3.97154 139.028 4.63751 139.692 5.30347L141.686 7.30054C142.651 8.26603 143.614 9.22525 144.573 10.1882H136.881C136.514 10.1882 136.16 10.0608 135.88 9.82983L135.765 9.72534L134.409 8.35913L134.408 8.35815L130.417 4.36108V4.36011L127.541 1.48511H135.24Z"
        stroke="#B1F489" stroke-width="0.70524" />
    <path
        d="M53.1035 18.2526V20.6526H51.9035V21.8526H45.9035V20.6526H44.7035V19.4526H47.1035V20.6526H50.7035V18.2526H45.9035V17.0526H44.7035V14.6526H45.9035V13.4526H50.7035V14.6526H51.9035V15.8526H49.5035V14.6526H47.1035V17.0526H51.9035V18.2526H53.1035ZM61.2457 13.4526V14.6526H58.8457V21.8526H56.4457V14.6526H54.0457V13.4526H61.2457ZM71.1856 15.8526V21.8526H68.7856V19.4526H65.1856V21.8526H62.7856V15.8526H63.9856V14.6526H65.1856V13.4526H68.7856V14.6526H69.9856V15.8526H71.1856ZM65.1856 18.2526H68.7856V15.8526H67.5856V14.6526H66.3856V15.8526H65.1856V18.2526ZM81.1231 20.6526V21.8526H77.5231V20.6526H76.3231V19.4526H75.1231V21.8526H72.7231V13.4526H75.1231V17.0526H76.3231V15.8526H77.5231V14.6526H78.7231V13.4526H81.1231V14.6526H79.9231V15.8526H78.7231V17.0526H77.5231V18.2526H78.7231V19.4526H79.9231V20.6526H81.1231ZM90.4606 13.4526V14.6526H88.0606V20.6526H90.4606V21.8526H83.2606V20.6526H85.6606V14.6526H83.2606V13.4526H90.4606ZM100.998 13.4526V21.8526H98.5981V20.6526H97.3981V19.4526H96.1981V18.2526H94.9981V21.8526H92.5981V13.4526H94.9981V14.6526H96.1981V15.8526H97.3981V17.0526H98.5981V13.4526H100.998ZM110.936 17.0526V21.8526H104.936V20.6286H103.736V19.4526H102.536V15.8526H103.736V14.6526H104.936V13.4526H110.936V14.6526H106.136V15.8526H104.936V19.4526H106.136V20.6526H108.536V18.2526H107.336V17.0526H110.936Z"
        fill="#B1F489" />
</svg>