<svg width="164" height="44" viewBox="0 0 164 44" fill="none" xmlns="http://www.w3.org/2000/svg">
    <g filter="url(#filter0_d_2168_621)">
        <path
            d="M157.517 36.7744C157.517 35.1215 157.517 33.475 157.517 31.8221C157.517 29.9657 157.517 28.1094 157.517 26.2467C157.517 25.5093 157.517 24.7674 157.517 24.0287C157.517 23.784 157.422 23.5465 157.243 23.3795C156.074 22.1971 154.898 21.021 153.721 19.8449C152.909 19.0259 152.09 18.207 151.271 17.3881C151.208 17.3248 151.122 17.2892 151.032 17.2892C149.716 17.2892 148.4 17.2892 147.091 17.2892C145.19 17.2892 143.295 17.2892 141.401 17.2892C140.428 17.2892 139.462 17.2892 138.496 17.2892C138.492 17.2892 138.489 17.2892 138.485 17.2892C138.476 17.2892 138.467 17.2828 138.457 17.2828C138.454 17.2828 138.45 17.2804 138.447 17.2786C138.446 17.2773 138.444 17.2765 138.442 17.2765C138.44 17.2765 138.438 17.2757 138.436 17.2741C138.434 17.2718 138.433 17.2697 138.432 17.2679C138.43 17.2642 138.428 17.2583 138.423 17.2576C138.421 17.2572 138.418 17.2566 138.417 17.255C137.839 16.6709 137.255 16.0869 136.671 15.5028C135.393 14.225 134.115 12.9471 132.838 11.6693C131.56 10.3979 130.282 9.12003 129.01 7.84221C128.646 7.47724 128.283 7.11486 127.92 6.75177C127.523 6.35499 126.985 6.13208 126.424 6.13208C126.331 6.13208 126.237 6.13208 126.143 6.13208C123.276 6.13208 120.409 6.13208 117.548 6.13208C112.672 6.13208 107.796 6.13208 102.92 6.13208C96.925 6.13208 90.93 6.13208 84.9414 6.13208C78.724 6.13208 72.5065 6.13208 66.289 6.13208C60.7454 6.13208 27.6185 6.12573 22.0685 6.12573C18.0888 6.12573 14.1028 6.12573 10.1231 6.12573C8.99816 6.12573 7.87685 6.12573 6.7537 6.12573C6.14278 6.12573 5.64753 6.62098 5.64753 7.23191C5.64753 8.87846 5.64753 10.5314 5.64753 12.1843C5.64753 14.0406 5.64753 15.897 5.64753 17.7533C5.64753 18.4983 5.64753 19.2386 5.64753 19.9822C5.64753 20.224 5.74357 20.4558 5.91453 20.6268C7.09064 21.8029 8.26675 22.979 9.44285 24.1551C10.2539 24.9662 11.0708 25.7831 11.8824 26.5947C11.9486 26.6609 12.0384 26.6981 12.132 26.6981C13.448 26.6981 14.7576 26.6981 16.0736 26.6981C17.9744 26.6981 19.8689 26.6981 21.7634 26.6981C22.7297 26.6981 23.696 26.6981 24.6623 26.6981H24.6668C24.6678 26.6981 24.6687 26.6989 24.6687 26.6999C24.6687 26.7016 24.6708 26.7025 24.6724 26.702C24.6775 26.7003 24.6826 26.7044 24.6877 26.7044C24.6877 26.7044 24.6877 26.7044 24.6941 26.7044C24.6941 26.7044 24.7126 26.7103 24.7192 26.7168C24.7193 26.7169 24.7194 26.717 24.7195 26.7171C24.7259 26.7235 24.7322 26.7235 24.7386 26.7298C25.3235 27.3147 25.9084 27.906 26.4932 28.4908C27.771 29.7687 29.0489 31.0465 30.3267 32.3243C31.6045 33.6021 32.876 34.88 34.1538 36.1578C34.4445 36.4517 34.7368 36.7456 35.0299 37.0387C35.5628 37.5714 36.2865 37.8679 37.04 37.8679C39.9136 37.8679 70.3704 37.8743 73.2503 37.8743C78.1264 37.8743 83.0024 37.8743 87.8849 37.8743C93.8735 37.8743 99.8621 37.8743 105.857 37.8743C112.068 37.8743 118.279 37.8743 124.49 37.8743C130.028 37.8743 135.571 37.8743 141.108 37.8743C145.088 37.8743 149.068 37.8743 153.048 37.8743C154.17 37.8743 155.292 37.8743 156.417 37.8743C157.024 37.8743 157.517 37.3818 157.517 36.7744Z"
            fill="white" />
        <path
            d="M157.517 36.7744C157.517 35.1215 157.517 33.475 157.517 31.8221C157.517 29.9657 157.517 28.1094 157.517 26.2467C157.517 25.5093 157.517 24.7674 157.517 24.0287C157.517 23.784 157.422 23.5465 157.243 23.3795C156.074 22.1971 154.898 21.021 153.721 19.8449C152.909 19.0259 152.09 18.207 151.271 17.3881C151.208 17.3248 151.122 17.2892 151.032 17.2892C149.716 17.2892 148.4 17.2892 147.091 17.2892C145.19 17.2892 143.295 17.2892 141.401 17.2892C140.428 17.2892 139.462 17.2892 138.496 17.2892C138.492 17.2892 138.489 17.2892 138.485 17.2892C138.476 17.2892 138.467 17.2828 138.457 17.2828C138.454 17.2828 138.45 17.2804 138.447 17.2786C138.446 17.2773 138.444 17.2765 138.442 17.2765C138.44 17.2765 138.438 17.2757 138.436 17.2741C138.434 17.2718 138.433 17.2697 138.432 17.2679C138.43 17.2642 138.428 17.2583 138.423 17.2576C138.421 17.2572 138.418 17.2566 138.417 17.255C137.839 16.6709 137.255 16.0869 136.671 15.5028C135.393 14.225 134.115 12.9471 132.838 11.6693C131.56 10.3979 130.282 9.12003 129.01 7.84221C128.646 7.47724 128.283 7.11486 127.92 6.75177C127.523 6.35499 126.985 6.13208 126.424 6.13208C126.331 6.13208 126.237 6.13208 126.143 6.13208C123.276 6.13208 120.409 6.13208 117.548 6.13208C112.672 6.13208 107.796 6.13208 102.92 6.13208C96.925 6.13208 90.93 6.13208 84.9414 6.13208C78.724 6.13208 72.5065 6.13208 66.289 6.13208C60.7454 6.13208 27.6185 6.12573 22.0685 6.12573C18.0888 6.12573 14.1028 6.12573 10.1231 6.12573C8.99816 6.12573 7.87685 6.12573 6.7537 6.12573C6.14278 6.12573 5.64753 6.62098 5.64753 7.23191C5.64753 8.87846 5.64753 10.5314 5.64753 12.1843C5.64753 14.0406 5.64753 15.897 5.64753 17.7533C5.64753 18.4983 5.64753 19.2386 5.64753 19.9822C5.64753 20.224 5.74357 20.4558 5.91453 20.6268C7.09064 21.8029 8.26675 22.979 9.44285 24.1551C10.2539 24.9662 11.0708 25.7831 11.8824 26.5947C11.9486 26.6609 12.0384 26.6981 12.132 26.6981C13.448 26.6981 14.7576 26.6981 16.0736 26.6981C17.9744 26.6981 19.8689 26.6981 21.7634 26.6981C22.7297 26.6981 23.696 26.6981 24.6623 26.6981H24.6668C24.6678 26.6981 24.6687 26.6989 24.6687 26.6999C24.6687 26.7016 24.6708 26.7025 24.6724 26.702C24.6775 26.7003 24.6826 26.7044 24.6877 26.7044C24.6877 26.7044 24.6877 26.7044 24.6941 26.7044C24.6941 26.7044 24.7126 26.7103 24.7192 26.7168C24.7193 26.7169 24.7194 26.717 24.7195 26.7171C24.7259 26.7235 24.7322 26.7235 24.7386 26.7298C25.3235 27.3147 25.9084 27.906 26.4932 28.4908C27.771 29.7687 29.0489 31.0465 30.3267 32.3243C31.6045 33.6021 32.876 34.88 34.1538 36.1578C34.4445 36.4517 34.7368 36.7456 35.0299 37.0387C35.5628 37.5714 36.2865 37.8679 37.04 37.8679C39.9136 37.8679 70.3704 37.8743 73.2503 37.8743C78.1264 37.8743 83.0024 37.8743 87.8849 37.8743C93.8735 37.8743 99.8621 37.8743 105.857 37.8743C112.068 37.8743 118.279 37.8743 124.49 37.8743C130.028 37.8743 135.571 37.8743 141.108 37.8743C145.088 37.8743 149.068 37.8743 153.048 37.8743C154.17 37.8743 155.292 37.8743 156.417 37.8743C157.024 37.8743 157.517 37.3818 157.517 36.7744Z"
            fill="url(#paint0_linear_2168_621)" />
        <path
            d="M130.957 6.39909C132.025 7.46712 133.099 8.54151 134.167 9.60955C135.496 10.9446 136.825 12.2796 138.16 13.6083C138.613 14.0616 139.063 14.5181 139.515 14.9732C139.876 15.3374 140.368 15.5409 140.881 15.5409C142.642 15.5409 144.396 15.5409 146.157 15.5409C147.116 15.5409 148.079 15.5409 149.038 15.5409C149.181 15.5409 149.256 15.3649 149.152 15.2676C148.084 14.1932 147.009 13.1252 145.935 12.0508C144.606 10.7221 143.277 9.38704 141.949 8.05836C141.491 7.60057 141.033 7.14279 140.575 6.685C140.221 6.33098 139.741 6.13208 139.241 6.13208C137.486 6.13208 135.725 6.13208 133.97 6.13208C133.002 6.13208 132.033 6.13208 131.069 6.13208C130.932 6.13208 130.86 6.30173 130.957 6.39909Z"
            fill="white" />
        <path
            d="M130.957 6.39909C132.025 7.46712 133.099 8.54151 134.167 9.60955C135.496 10.9446 136.825 12.2796 138.16 13.6083C138.613 14.0616 139.063 14.5181 139.515 14.9732C139.876 15.3374 140.368 15.5409 140.881 15.5409C142.642 15.5409 144.396 15.5409 146.157 15.5409C147.116 15.5409 148.079 15.5409 149.038 15.5409C149.181 15.5409 149.256 15.3649 149.152 15.2676C148.084 14.1932 147.009 13.1252 145.935 12.0508C144.606 10.7221 143.277 9.38704 141.949 8.05836C141.491 7.60057 141.033 7.14279 140.575 6.685C140.221 6.33098 139.741 6.13208 139.241 6.13208C137.486 6.13208 135.725 6.13208 133.97 6.13208C133.002 6.13208 132.033 6.13208 131.069 6.13208C130.932 6.13208 130.86 6.30173 130.957 6.39909Z"
            fill="url(#paint1_linear_2168_621)" />
        <path
            d="M24.8945 26.4119L24.8965 26.4128C24.9023 26.4159 24.9112 26.4214 24.9209 26.4275C24.9306 26.4336 24.9416 26.441 24.9531 26.45L24.9883 26.4802L25.8662 27.3621C26.1586 27.656 26.4503 27.95 26.7422 28.2419L28.6592 30.158L30.5762 32.075L32.4902 33.9919L34.4033 35.908L34.4043 35.9099L35.2793 36.7888L35.4619 36.9539C35.9045 37.3158 36.4617 37.5154 37.04 37.5154C38.4768 37.5154 46.8093 37.5167 55.1426 37.5183C63.4754 37.5199 71.8093 37.5212 73.25 37.5212H156.417C156.83 37.5212 157.164 37.1868 157.164 36.7742V24.0291C157.164 23.8735 157.104 23.732 157.003 23.6375L156.992 23.6277V23.6267C155.823 22.4453 154.648 21.2705 153.472 20.0945L153.471 20.0935L151.025 17.6414H138.485C138.444 17.6414 138.411 17.6351 138.39 17.6296C138.385 17.6284 138.381 17.6259 138.377 17.6248C138.347 17.6179 138.32 17.6096 138.299 17.5994C138.257 17.5816 138.218 17.5531 138.182 17.5144C138.177 17.5101 138.171 17.5074 138.166 17.5027L136.422 15.7517L132.588 11.9187V11.9177C131.31 10.6463 130.032 9.36839 128.761 8.09058V8.09155C128.396 7.72665 128.034 7.36376 127.671 7.00073L127.541 6.88354C127.227 6.6267 126.833 6.48511 126.424 6.48511H66.2891C63.5172 6.48511 53.8491 6.48279 44.1807 6.4812C34.5124 6.47961 24.8433 6.47827 22.0684 6.47827H6.75391C6.33773 6.47827 6 6.816 6 7.23218V19.9822C6 20.1304 6.05923 20.2729 6.16406 20.3777L12.1318 26.3455H24.667C24.688 26.3455 24.7085 26.3478 24.7285 26.3513H24.748L24.7998 26.3679H24.8008V26.3689H24.8027L24.8145 26.3728C24.8206 26.375 24.8295 26.3783 24.8398 26.3826C24.8408 26.383 24.8637 26.3932 24.8945 26.4119ZM24.8945 26.4119C24.9169 26.4254 24.9442 26.443 24.9688 26.4675C24.9592 26.4579 24.9495 26.449 24.9395 26.4412C24.9294 26.4333 24.9194 26.4268 24.9111 26.4216C24.9044 26.4174 24.8987 26.4141 24.8945 26.4119ZM24.9932 26.5632C25.003 26.5863 25.0119 26.611 25.0166 26.6384L25.0215 26.7C25.0215 26.6514 25.0108 26.6054 24.9932 26.5632ZM24.9688 26.5173C24.9757 26.5285 24.9824 26.54 24.9883 26.5525C24.9826 26.5402 24.9757 26.5288 24.9688 26.5173ZM24.7793 26.364C24.7865 26.366 24.7922 26.3677 24.793 26.3679C24.7917 26.3675 24.7887 26.3674 24.7871 26.3669C24.785 26.3663 24.7809 26.3656 24.7754 26.364C24.7737 26.3635 24.7722 26.3626 24.7705 26.3621C24.774 26.3629 24.777 26.3634 24.7793 26.364ZM24.5615 26.3669C24.5886 26.358 24.6161 26.3535 24.6426 26.3513C24.6176 26.3536 24.5901 26.3575 24.5615 26.3669ZM138.314 17.6042C138.359 17.621 138.403 17.6286 138.441 17.6287L138.375 17.6228C138.353 17.6185 138.333 17.6116 138.314 17.6042ZM138.2 17.5291C138.198 17.5274 138.196 17.5258 138.194 17.5242C138.196 17.5258 138.198 17.5275 138.2 17.5291ZM139.24 6.48511C139.597 6.48511 139.941 6.60871 140.214 6.83276L140.326 6.93433L141.699 8.30737C142.363 8.97154 143.028 9.63751 143.692 10.3035L145.686 12.3005C146.651 13.266 147.614 14.2253 148.573 15.1882H140.881C140.514 15.1882 140.16 15.0608 139.88 14.8298L139.765 14.7253L138.409 13.3591L138.408 13.3582L134.417 9.36108V9.36011L131.541 6.48511H139.24Z"
            stroke="black" stroke-opacity="0.2" stroke-width="0.70524" />
        <path
            d="M24.8945 26.4119L24.8965 26.4128C24.9023 26.4159 24.9112 26.4214 24.9209 26.4275C24.9306 26.4336 24.9416 26.441 24.9531 26.45L24.9883 26.4802L25.8662 27.3621C26.1586 27.656 26.4503 27.95 26.7422 28.2419L28.6592 30.158L30.5762 32.075L32.4902 33.9919L34.4033 35.908L34.4043 35.9099L35.2793 36.7888L35.4619 36.9539C35.9045 37.3158 36.4617 37.5154 37.04 37.5154C38.4768 37.5154 46.8093 37.5167 55.1426 37.5183C63.4754 37.5199 71.8093 37.5212 73.25 37.5212H156.417C156.83 37.5212 157.164 37.1868 157.164 36.7742V24.0291C157.164 23.8735 157.104 23.732 157.003 23.6375L156.992 23.6277V23.6267C155.823 22.4453 154.648 21.2705 153.472 20.0945L153.471 20.0935L151.025 17.6414H138.485C138.444 17.6414 138.411 17.6351 138.39 17.6296C138.385 17.6284 138.381 17.6259 138.377 17.6248C138.347 17.6179 138.32 17.6096 138.299 17.5994C138.257 17.5816 138.218 17.5531 138.182 17.5144C138.177 17.5101 138.171 17.5074 138.166 17.5027L136.422 15.7517L132.588 11.9187V11.9177C131.31 10.6463 130.032 9.36839 128.761 8.09058V8.09155C128.396 7.72665 128.034 7.36376 127.671 7.00073L127.541 6.88354C127.227 6.6267 126.833 6.48511 126.424 6.48511H66.2891C63.5172 6.48511 53.8491 6.48279 44.1807 6.4812C34.5124 6.47961 24.8433 6.47827 22.0684 6.47827H6.75391C6.33773 6.47827 6 6.816 6 7.23218V19.9822C6 20.1304 6.05923 20.2729 6.16406 20.3777L12.1318 26.3455H24.667C24.688 26.3455 24.7085 26.3478 24.7285 26.3513H24.748L24.7998 26.3679H24.8008V26.3689H24.8027L24.8145 26.3728C24.8206 26.375 24.8295 26.3783 24.8398 26.3826C24.8408 26.383 24.8637 26.3932 24.8945 26.4119ZM24.8945 26.4119C24.9169 26.4254 24.9442 26.443 24.9688 26.4675C24.9592 26.4579 24.9495 26.449 24.9395 26.4412C24.9294 26.4333 24.9194 26.4268 24.9111 26.4216C24.9044 26.4174 24.8987 26.4141 24.8945 26.4119ZM24.9932 26.5632C25.003 26.5863 25.0119 26.611 25.0166 26.6384L25.0215 26.7C25.0215 26.6514 25.0108 26.6054 24.9932 26.5632ZM24.9688 26.5173C24.9757 26.5285 24.9824 26.54 24.9883 26.5525C24.9826 26.5402 24.9757 26.5288 24.9688 26.5173ZM24.7793 26.364C24.7865 26.366 24.7922 26.3677 24.793 26.3679C24.7917 26.3675 24.7887 26.3674 24.7871 26.3669C24.785 26.3663 24.7809 26.3656 24.7754 26.364C24.7737 26.3635 24.7722 26.3626 24.7705 26.3621C24.774 26.3629 24.777 26.3634 24.7793 26.364ZM24.5615 26.3669C24.5886 26.358 24.6161 26.3535 24.6426 26.3513C24.6176 26.3536 24.5901 26.3575 24.5615 26.3669ZM138.314 17.6042C138.359 17.621 138.403 17.6286 138.441 17.6287L138.375 17.6228C138.353 17.6185 138.333 17.6116 138.314 17.6042ZM138.2 17.5291C138.198 17.5274 138.196 17.5258 138.194 17.5242C138.196 17.5258 138.198 17.5275 138.2 17.5291ZM139.24 6.48511C139.597 6.48511 139.941 6.60871 140.214 6.83276L140.326 6.93433L141.699 8.30737C142.363 8.97154 143.028 9.63751 143.692 10.3035L145.686 12.3005C146.651 13.266 147.614 14.2253 148.573 15.1882H140.881C140.514 15.1882 140.16 15.0608 139.88 14.8298L139.765 14.7253L138.409 13.3591L138.408 13.3582L134.417 9.36108V9.36011L131.541 6.48511H139.24Z"
            stroke="url(#paint2_linear_2168_621)" stroke-width="0.70524" />
    </g>
    <path
        d="M57.1035 23.2527V25.6527H55.9035V26.8527H49.9035V25.6527H48.7035V24.4527H51.1035V25.6527H54.7035V23.2527H49.9035V22.0527H48.7035V19.6527H49.9035V18.4527H54.7035V19.6527H55.9035V20.8527H53.5035V19.6527H51.1035V22.0527H55.9035V23.2527H57.1035ZM65.2457 18.4527V19.6527H62.8457V26.8527H60.4457V19.6527H58.0457V18.4527H65.2457ZM75.1856 20.8527V26.8527H72.7856V24.4527H69.1856V26.8527H66.7856V20.8527H67.9856V19.6527H69.1856V18.4527H72.7856V19.6527H73.9856V20.8527H75.1856ZM69.1856 23.2527H72.7856V20.8527H71.5856V19.6527H70.3856V20.8527H69.1856V23.2527ZM85.1231 25.6527V26.8527H81.5231V25.6527H80.3231V24.4527H79.1231V26.8527H76.7231V18.4527H79.1231V22.0527H80.3231V20.8527H81.5231V19.6527H82.7231V18.4527H85.1231V19.6527H83.9231V20.8527H82.7231V22.0527H81.5231V23.2527H82.7231V24.4527H83.9231V25.6527H85.1231ZM94.4606 18.4527V19.6527H92.0606V25.6527H94.4606V26.8527H87.2606V25.6527H89.6606V19.6527H87.2606V18.4527H94.4606ZM104.998 18.4527V26.8527H102.598V25.6527H101.398V24.4527H100.198V23.2527H98.9981V26.8527H96.5981V18.4527H98.9981V19.6527H100.198V20.8527H101.398V22.0527H102.598V18.4527H104.998ZM114.936 22.0527V26.8527H108.936V25.6287H107.736V24.4527H106.536V20.8527H107.736V19.6527H108.936V18.4527H114.936V19.6527H110.136V20.8527H108.936V24.4527H110.136V25.6527H112.536V23.2527H111.336V22.0527H114.936Z"
        fill="#0D0D0D" />
    <defs>
        <filter id="filter0_d_2168_621" x="0.00651598" y="0.483811" width="163.151" height="43.0324"
            filterUnits="userSpaceOnUse" color-interpolation-filters="sRGB">
            <feFlood flood-opacity="0" result="BackgroundImageFix" />
            <feColorMatrix in="SourceAlpha" type="matrix" values="0 0 0 0 0 0 0 0 0 0 0 0 0 0 0 0 0 0 127 0"
                result="hardAlpha" />
            <feOffset />
            <feGaussianBlur stdDeviation="2.82096" />
            <feComposite in2="hardAlpha" operator="out" />
            <feColorMatrix type="matrix" values="0 0 0 0 0.694118 0 0 0 0 0.956863 0 0 0 0 0.537255 0 0 0 0.5 0" />
            <feBlend mode="normal" in2="BackgroundImageFix" result="effect1_dropShadow_2168_621" />
            <feBlend mode="normal" in="SourceGraphic" in2="effect1_dropShadow_2168_621" result="shape" />
        </filter>
        <linearGradient id="paint0_linear_2168_621" x1="101.209" y1="7.17197" x2="100.25" y2="37.9971"
            gradientUnits="userSpaceOnUse">
            <stop offset="0.129328" stop-color="#B1F489" stop-opacity="0.48" />
            <stop offset="0.544605" stop-color="#B1F489" />
        </linearGradient>
        <linearGradient id="paint1_linear_2168_621" x1="101.209" y1="7.17197" x2="100.25" y2="37.9971"
            gradientUnits="userSpaceOnUse">
            <stop offset="0.129328" stop-color="#B1F489" stop-opacity="0.48" />
            <stop offset="0.544605" stop-color="#B1F489" />
        </linearGradient>
        <linearGradient id="paint2_linear_2168_621" x1="101.209" y1="7.17197" x2="100.25" y2="37.9971"
            gradientUnits="userSpaceOnUse">
            <stop offset="0.129328" stop-color="#B1F489" stop-opacity="0.48" />
            <stop offset="0.544605" stop-color="#B1F489" />
        </linearGradient>
    </defs>
</svg>