<svg width="154" height="34" viewBox="0 0 154 34" fill="none" xmlns="http://www.w3.org/2000/svg">
    <path
        d="M20.7422 21.4119L20.7441 21.4128C20.7499 21.4159 20.7588 21.4214 20.7686 21.4275C20.7783 21.4336 20.7893 21.441 20.8008 21.45L20.8359 21.4802L21.7139 22.3621C22.0063 22.656 22.2979 22.95 22.5898 23.2419L24.5068 25.158L26.4238 27.075L28.3379 28.9919L30.251 30.908L30.252 30.9099L31.127 31.7888L31.3096 31.9539C31.7521 32.3158 32.3093 32.5154 32.8877 32.5154C34.3245 32.5154 42.657 32.5167 50.9902 32.5183C59.3231 32.5199 67.6569 32.5212 69.0977 32.5212H152.265C152.677 32.5212 153.012 32.1868 153.012 31.7742V19.0291C153.012 18.8735 152.952 18.732 152.851 18.6375L152.84 18.6277V18.6267C151.671 17.4453 150.495 16.2705 149.319 15.0945L149.318 15.0935L146.873 12.6414H134.333C134.292 12.6414 134.258 12.6351 134.237 12.6296C134.233 12.6284 134.228 12.6259 134.225 12.6248C134.194 12.6179 134.168 12.6096 134.146 12.5994C134.105 12.5816 134.066 12.5531 134.029 12.5144C134.025 12.5101 134.018 12.5074 134.014 12.5027L132.27 10.7517L128.436 6.9187V6.91772C127.158 5.64626 125.88 4.36839 124.608 3.09058V3.09155C124.244 2.72665 123.882 2.36376 123.519 2.00073L123.389 1.88354C123.075 1.6267 122.68 1.48511 122.271 1.48511H62.1367C59.3649 1.48511 49.6967 1.48279 40.0283 1.4812C30.36 1.47961 20.6909 1.47827 17.916 1.47827H2.60156C2.18538 1.47827 1.84766 1.816 1.84766 2.23218V14.9822C1.84766 15.1304 1.90689 15.2729 2.01172 15.3777L7.97949 21.3455H20.5146C20.5357 21.3455 20.5562 21.3478 20.5762 21.3513H20.5957L20.6475 21.3679H20.6484V21.3689H20.6504L20.6621 21.3728C20.6683 21.375 20.6772 21.3783 20.6875 21.3826C20.6885 21.383 20.7114 21.3932 20.7422 21.4119ZM20.7422 21.4119C20.7645 21.4254 20.7918 21.443 20.8164 21.4675C20.8068 21.4579 20.7971 21.449 20.7871 21.4412C20.777 21.4333 20.7671 21.4268 20.7588 21.4216C20.7521 21.4174 20.7463 21.4141 20.7422 21.4119ZM20.8408 21.5632C20.8506 21.5863 20.8596 21.611 20.8643 21.6384L20.8691 21.7C20.8691 21.6514 20.8585 21.6054 20.8408 21.5632ZM20.8164 21.5173C20.8234 21.5285 20.8301 21.54 20.8359 21.5525C20.8303 21.5402 20.8234 21.5288 20.8164 21.5173ZM20.627 21.364C20.6341 21.366 20.6399 21.3677 20.6406 21.3679C20.6393 21.3675 20.6363 21.3674 20.6348 21.3669C20.6326 21.3663 20.6285 21.3656 20.623 21.364C20.6214 21.3635 20.6198 21.3626 20.6182 21.3621C20.6216 21.3629 20.6247 21.3634 20.627 21.364ZM20.4092 21.3669C20.4363 21.358 20.4638 21.3535 20.4902 21.3513C20.4653 21.3536 20.4377 21.3575 20.4092 21.3669ZM134.162 12.6042C134.207 12.621 134.25 12.6286 134.289 12.6287L134.223 12.6228C134.201 12.6185 134.181 12.6116 134.162 12.6042ZM134.048 12.5291C134.046 12.5274 134.044 12.5258 134.042 12.5242C134.044 12.5258 134.046 12.5275 134.048 12.5291ZM135.088 1.48511C135.444 1.48511 135.788 1.60871 136.062 1.83276L136.174 1.93433L137.547 3.30737C138.211 3.97154 138.876 4.63751 139.54 5.30347L141.533 7.30054C142.499 8.26603 143.461 9.22525 144.421 10.1882H136.729C136.361 10.1882 136.007 10.0608 135.728 9.82983L135.612 9.72534L134.257 8.35913L134.256 8.35815L130.265 4.36108V4.36011L127.389 1.48511H135.088Z"
        stroke="#B1F489" stroke-width="0.70524" />
    <path
        d="M36.8512 13.4526V14.6526H34.4512V21.8526H32.0512V14.6526H29.6512V13.4526H36.8512ZM47.3887 14.6526V20.6526H46.1887V21.8526H40.1887V20.6526H38.9887V14.6526H40.1887V13.4526H46.1887V14.6526H47.3887ZM41.3887 20.6526H44.9887V14.6526H41.3887V20.6526ZM57.3262 20.6526V21.8526H53.7262V20.6526H52.5262V19.4526H51.3262V21.8526H48.9262V13.4526H51.3262V17.0526H52.5262V15.8526H53.7262V14.6526H54.9262V13.4526H57.3262V14.6526H56.1262V15.8526H54.9262V17.0526H53.7262V18.2526H54.9262V19.4526H56.1262V20.6526H57.3262ZM67.2637 20.6526V21.8526H58.8637V13.4526H67.2637V14.6526H61.2637V17.0526H66.0637V18.2526H61.2637V20.6526H67.2637ZM77.2012 13.4526V21.8526H74.8012V20.6526H73.6012V19.4526H72.4012V18.2526H71.2012V21.8526H68.8012V13.4526H71.2012V14.6526H72.4012V15.8526H73.6012V17.0526H74.8012V13.4526H77.2012ZM87.1387 14.6526V20.6526H85.9387V21.8526H79.9387V20.6526H78.7387V14.6526H79.9387V13.4526H85.9387V14.6526H87.1387ZM81.1387 20.6526H84.7387V14.6526H81.1387V20.6526ZM97.0762 13.4526V21.8526H94.6762V18.2526H93.4762V19.4526H92.2762V18.2526H91.0762V21.8526H88.6762V13.4526H91.0762V14.6526H92.2762V15.8526H93.4762V14.6526H94.6762V13.4526H97.0762ZM106.414 13.4526V14.6526H104.014V20.6526H106.414V21.8526H99.2137V20.6526H101.614V14.6526H99.2137V13.4526H106.414ZM116.354 19.4526V20.6526H115.154V21.8526H110.354V20.6526H109.154V19.4526H107.954V15.8526H109.154V14.6526H110.354V13.4526H115.154V14.6526H116.354V15.8526H113.954V14.6526H111.554V15.8526H110.354V19.4526H111.554V20.6526H113.954V19.4526H116.354ZM126.291 18.2526V20.6526H125.091V21.8526H119.091V20.6526H117.891V19.4526H120.291V20.6526H123.891V18.2526H119.091V17.0526H117.891V14.6526H119.091V13.4526H123.891V14.6526H125.091V15.8526H122.691V14.6526H120.291V17.0526H125.091V18.2526H126.291Z"
        fill="#B1F489" />
</svg>