<svg width="165" height="44" viewBox="0 0 165 44" fill="none" xmlns="http://www.w3.org/2000/svg">
    <g filter="url(#filter0_d_2168_753)">
        <path
            d="M158.368 36.7744C158.368 35.1215 158.368 33.475 158.368 31.8221C158.368 29.9657 158.368 28.1094 158.368 26.2467C158.368 25.5093 158.368 24.7674 158.368 24.0287C158.368 23.784 158.274 23.5465 158.095 23.3795C156.925 22.1971 155.749 21.021 154.573 19.8449C153.76 19.0259 152.942 18.207 152.123 17.3881C152.059 17.3248 151.973 17.2892 151.884 17.2892C150.568 17.2892 149.252 17.2892 147.942 17.2892C146.041 17.2892 144.147 17.2892 142.252 17.2892C141.28 17.2892 140.313 17.2892 139.347 17.2892C139.344 17.2892 139.341 17.2892 139.337 17.2892C139.327 17.2892 139.319 17.2828 139.309 17.2828C139.305 17.2828 139.301 17.2804 139.299 17.2786C139.297 17.2773 139.295 17.2765 139.293 17.2765C139.291 17.2765 139.289 17.2757 139.288 17.2741C139.286 17.2718 139.285 17.2697 139.284 17.2679C139.281 17.2642 139.279 17.2583 139.275 17.2576C139.273 17.2572 139.27 17.2566 139.269 17.255C138.691 16.6709 138.107 16.0869 137.523 15.5028C136.245 14.225 134.967 12.9471 133.689 11.6693C132.411 10.3979 131.133 9.12003 129.862 7.84221C129.497 7.47724 129.135 7.11486 128.772 6.75177C128.375 6.35499 127.837 6.13208 127.276 6.13208C127.182 6.13208 127.089 6.13208 126.995 6.13208C124.128 6.13208 121.261 6.13208 118.4 6.13208C113.524 6.13208 108.648 6.13208 103.772 6.13208C97.7766 6.13208 91.7816 6.13208 85.793 6.13208C79.5755 6.13208 73.3581 6.13208 67.1406 6.13208C61.597 6.13208 28.47 6.12573 22.9201 6.12573C18.9404 6.12573 14.9543 6.12573 10.9747 6.12573C9.84973 6.12573 8.72841 6.12573 7.60526 6.12573C6.99434 6.12573 6.49909 6.62098 6.49909 7.23191C6.49909 8.87846 6.49909 10.5314 6.49909 12.1843C6.49909 14.0406 6.49909 15.897 6.49909 17.7533C6.49909 18.4983 6.49909 19.2386 6.49909 19.9822C6.49909 20.224 6.59513 20.4558 6.7661 20.6268C7.9422 21.8029 9.11831 22.979 10.2944 24.1551C11.1055 24.9662 11.9224 25.7831 12.734 26.5947C12.8002 26.6609 12.8899 26.6981 12.9836 26.6981C14.2995 26.6981 15.6091 26.6981 16.9251 26.6981C18.826 26.6981 20.7204 26.6981 22.6149 26.6981C23.5812 26.6981 24.5476 26.6981 25.5139 26.6981H25.5184C25.5194 26.6981 25.5202 26.6989 25.5202 26.6999C25.5202 26.7016 25.5224 26.7025 25.524 26.702C25.5291 26.7003 25.5342 26.7044 25.5393 26.7044C25.5393 26.7044 25.5393 26.7044 25.5457 26.7044C25.5457 26.7044 25.5642 26.7103 25.5708 26.7168C25.5709 26.7169 25.571 26.717 25.5711 26.7171C25.5774 26.7235 25.5838 26.7235 25.5902 26.7298C26.175 27.3147 26.7599 27.906 27.3448 28.4908C28.6226 29.7687 29.9004 31.0465 31.1783 32.3243C32.4561 33.6021 33.7276 34.88 35.0054 36.1578C35.296 36.4517 35.5883 36.7456 35.8815 37.0387C36.4144 37.5714 37.1381 37.8679 37.8916 37.8679C40.7651 37.8679 71.222 37.8743 74.1019 37.8743C78.9779 37.8743 83.854 37.8743 88.7364 37.8743C94.7251 37.8743 100.714 37.8743 106.709 37.8743C112.92 37.8743 119.131 37.8743 125.342 37.8743C130.879 37.8743 136.423 37.8743 141.96 37.8743C145.94 37.8743 149.919 37.8743 153.899 37.8743C155.021 37.8743 156.144 37.8743 157.269 37.8743C157.876 37.8743 158.368 37.3818 158.368 36.7744Z"
            fill="white" />
        <path
            d="M158.368 36.7744C158.368 35.1215 158.368 33.475 158.368 31.8221C158.368 29.9657 158.368 28.1094 158.368 26.2467C158.368 25.5093 158.368 24.7674 158.368 24.0287C158.368 23.784 158.274 23.5465 158.095 23.3795C156.925 22.1971 155.749 21.021 154.573 19.8449C153.76 19.0259 152.942 18.207 152.123 17.3881C152.059 17.3248 151.973 17.2892 151.884 17.2892C150.568 17.2892 149.252 17.2892 147.942 17.2892C146.041 17.2892 144.147 17.2892 142.252 17.2892C141.28 17.2892 140.313 17.2892 139.347 17.2892C139.344 17.2892 139.341 17.2892 139.337 17.2892C139.327 17.2892 139.319 17.2828 139.309 17.2828C139.305 17.2828 139.301 17.2804 139.299 17.2786C139.297 17.2773 139.295 17.2765 139.293 17.2765C139.291 17.2765 139.289 17.2757 139.288 17.2741C139.286 17.2718 139.285 17.2697 139.284 17.2679C139.281 17.2642 139.279 17.2583 139.275 17.2576C139.273 17.2572 139.27 17.2566 139.269 17.255C138.691 16.6709 138.107 16.0869 137.523 15.5028C136.245 14.225 134.967 12.9471 133.689 11.6693C132.411 10.3979 131.133 9.12003 129.862 7.84221C129.497 7.47724 129.135 7.11486 128.772 6.75177C128.375 6.35499 127.837 6.13208 127.276 6.13208C127.182 6.13208 127.089 6.13208 126.995 6.13208C124.128 6.13208 121.261 6.13208 118.4 6.13208C113.524 6.13208 108.648 6.13208 103.772 6.13208C97.7766 6.13208 91.7816 6.13208 85.793 6.13208C79.5755 6.13208 73.3581 6.13208 67.1406 6.13208C61.597 6.13208 28.47 6.12573 22.9201 6.12573C18.9404 6.12573 14.9543 6.12573 10.9747 6.12573C9.84973 6.12573 8.72841 6.12573 7.60526 6.12573C6.99434 6.12573 6.49909 6.62098 6.49909 7.23191C6.49909 8.87846 6.49909 10.5314 6.49909 12.1843C6.49909 14.0406 6.49909 15.897 6.49909 17.7533C6.49909 18.4983 6.49909 19.2386 6.49909 19.9822C6.49909 20.224 6.59513 20.4558 6.7661 20.6268C7.9422 21.8029 9.11831 22.979 10.2944 24.1551C11.1055 24.9662 11.9224 25.7831 12.734 26.5947C12.8002 26.6609 12.8899 26.6981 12.9836 26.6981C14.2995 26.6981 15.6091 26.6981 16.9251 26.6981C18.826 26.6981 20.7204 26.6981 22.6149 26.6981C23.5812 26.6981 24.5476 26.6981 25.5139 26.6981H25.5184C25.5194 26.6981 25.5202 26.6989 25.5202 26.6999C25.5202 26.7016 25.5224 26.7025 25.524 26.702C25.5291 26.7003 25.5342 26.7044 25.5393 26.7044C25.5393 26.7044 25.5393 26.7044 25.5457 26.7044C25.5457 26.7044 25.5642 26.7103 25.5708 26.7168C25.5709 26.7169 25.571 26.717 25.5711 26.7171C25.5774 26.7235 25.5838 26.7235 25.5902 26.7298C26.175 27.3147 26.7599 27.906 27.3448 28.4908C28.6226 29.7687 29.9004 31.0465 31.1783 32.3243C32.4561 33.6021 33.7276 34.88 35.0054 36.1578C35.296 36.4517 35.5883 36.7456 35.8815 37.0387C36.4144 37.5714 37.1381 37.8679 37.8916 37.8679C40.7651 37.8679 71.222 37.8743 74.1019 37.8743C78.9779 37.8743 83.854 37.8743 88.7364 37.8743C94.7251 37.8743 100.714 37.8743 106.709 37.8743C112.92 37.8743 119.131 37.8743 125.342 37.8743C130.879 37.8743 136.423 37.8743 141.96 37.8743C145.94 37.8743 149.919 37.8743 153.899 37.8743C155.021 37.8743 156.144 37.8743 157.269 37.8743C157.876 37.8743 158.368 37.3818 158.368 36.7744Z"
            fill="url(#paint0_linear_2168_753)" />
        <path
            d="M131.808 6.39909C132.877 7.46712 133.951 8.54151 135.019 9.60955C136.348 10.9446 137.676 12.2796 139.011 13.6083C139.465 14.0616 139.915 14.5181 140.366 14.9732C140.727 15.3374 141.219 15.5409 141.732 15.5409C143.493 15.5409 145.248 15.5409 147.009 15.5409C147.967 15.5409 148.93 15.5409 149.89 15.5409C150.033 15.5409 150.107 15.3649 150.003 15.2676C148.935 14.1932 147.861 13.1252 146.786 12.0508C145.458 10.7221 144.129 9.38704 142.8 8.05836C142.343 7.60057 141.885 7.14279 141.427 6.685C141.073 6.33098 140.593 6.13208 140.092 6.13208C138.337 6.13208 136.576 6.13208 134.822 6.13208C133.853 6.13208 132.885 6.13208 131.921 6.13208C131.783 6.13208 131.711 6.30173 131.808 6.39909Z"
            fill="white" />
        <path
            d="M131.808 6.39909C132.877 7.46712 133.951 8.54151 135.019 9.60955C136.348 10.9446 137.676 12.2796 139.011 13.6083C139.465 14.0616 139.915 14.5181 140.366 14.9732C140.727 15.3374 141.219 15.5409 141.732 15.5409C143.493 15.5409 145.248 15.5409 147.009 15.5409C147.967 15.5409 148.93 15.5409 149.89 15.5409C150.033 15.5409 150.107 15.3649 150.003 15.2676C148.935 14.1932 147.861 13.1252 146.786 12.0508C145.458 10.7221 144.129 9.38704 142.8 8.05836C142.343 7.60057 141.885 7.14279 141.427 6.685C141.073 6.33098 140.593 6.13208 140.092 6.13208C138.337 6.13208 136.576 6.13208 134.822 6.13208C133.853 6.13208 132.885 6.13208 131.921 6.13208C131.783 6.13208 131.711 6.30173 131.808 6.39909Z"
            fill="url(#paint1_linear_2168_753)" />
        <path
            d="M25.7461 26.4119L25.748 26.4128C25.7538 26.4159 25.7628 26.4214 25.7725 26.4275C25.7822 26.4336 25.7932 26.441 25.8047 26.45L25.8398 26.4802L26.7178 27.3621C27.0102 27.656 27.3018 27.95 27.5938 28.2419L29.5107 30.158L31.4277 32.075L33.3418 33.9919L35.2549 35.908L35.2559 35.9099L36.1309 36.7888L36.3135 36.9539C36.756 37.3158 37.3132 37.5154 37.8916 37.5154C39.3284 37.5154 47.6609 37.5167 55.9941 37.5183C64.327 37.5199 72.6608 37.5212 74.1016 37.5212H157.269C157.681 37.5212 158.016 37.1868 158.016 36.7742V24.0291C158.016 23.8735 157.956 23.732 157.854 23.6375L157.844 23.6277V23.6267C156.675 22.4453 155.499 21.2705 154.323 20.0945L154.322 20.0935L151.877 17.6414H139.337C139.296 17.6414 139.262 17.6351 139.241 17.6296C139.237 17.6284 139.232 17.6259 139.229 17.6248C139.198 17.6179 139.172 17.6096 139.15 17.5994C139.109 17.5816 139.069 17.5531 139.033 17.5144C139.029 17.5101 139.022 17.5074 139.018 17.5027L137.273 15.7517L133.439 11.9187V11.9177C132.162 10.6463 130.884 9.36839 129.612 8.09058V8.09155C129.247 7.72665 128.885 7.36376 128.522 7.00073L128.393 6.88354C128.079 6.6267 127.684 6.48511 127.275 6.48511H67.1406C64.3688 6.48511 54.7006 6.48279 45.0322 6.4812C35.3639 6.47961 25.6948 6.47827 22.9199 6.47827H7.60547C7.18929 6.47827 6.85156 6.816 6.85156 7.23218V19.9822C6.85156 20.1304 6.91079 20.2729 7.01562 20.3777L12.9834 26.3455H25.5186C25.5396 26.3455 25.5601 26.3478 25.5801 26.3513H25.5996L25.6514 26.3679H25.6523V26.3689H25.6543L25.666 26.3728C25.6722 26.375 25.6811 26.3783 25.6914 26.3826C25.6924 26.383 25.7153 26.3932 25.7461 26.4119ZM25.7461 26.4119C25.7684 26.4254 25.7957 26.443 25.8203 26.4675C25.8107 26.4579 25.801 26.449 25.791 26.4412C25.7809 26.4333 25.771 26.4268 25.7627 26.4216C25.756 26.4174 25.7502 26.4141 25.7461 26.4119ZM25.8447 26.5632C25.8545 26.5863 25.8635 26.611 25.8682 26.6384L25.873 26.7C25.873 26.6514 25.8624 26.6054 25.8447 26.5632ZM25.8203 26.5173C25.8273 26.5285 25.834 26.54 25.8398 26.5525C25.8342 26.5402 25.8273 26.5288 25.8203 26.5173ZM25.6309 26.364C25.638 26.366 25.6438 26.3677 25.6445 26.3679C25.6432 26.3675 25.6402 26.3674 25.6387 26.3669C25.6365 26.3663 25.6324 26.3656 25.627 26.364C25.6253 26.3635 25.6237 26.3626 25.6221 26.3621C25.6255 26.3629 25.6286 26.3634 25.6309 26.364ZM25.4131 26.3669C25.4402 26.358 25.4677 26.3535 25.4941 26.3513C25.4692 26.3536 25.4416 26.3575 25.4131 26.3669ZM139.166 17.6042C139.211 17.621 139.254 17.6286 139.293 17.6287L139.227 17.6228C139.205 17.6185 139.184 17.6116 139.166 17.6042ZM139.052 17.5291C139.05 17.5274 139.048 17.5258 139.046 17.5242C139.048 17.5258 139.05 17.5275 139.052 17.5291ZM140.092 6.48511C140.448 6.48511 140.792 6.60871 141.065 6.83276L141.178 6.93433L142.551 8.30737C143.215 8.97154 143.88 9.63751 144.544 10.3035L146.537 12.3005C147.503 13.266 148.465 14.2253 149.425 15.1882H141.732C141.365 15.1882 141.011 15.0608 140.731 14.8298L140.616 14.7253L139.261 13.3591L139.26 13.3582L135.269 9.36108V9.36011L132.393 6.48511H140.092Z"
            stroke="black" stroke-opacity="0.2" stroke-width="0.70524" />
        <path
            d="M25.7461 26.4119L25.748 26.4128C25.7538 26.4159 25.7628 26.4214 25.7725 26.4275C25.7822 26.4336 25.7932 26.441 25.8047 26.45L25.8398 26.4802L26.7178 27.3621C27.0102 27.656 27.3018 27.95 27.5938 28.2419L29.5107 30.158L31.4277 32.075L33.3418 33.9919L35.2549 35.908L35.2559 35.9099L36.1309 36.7888L36.3135 36.9539C36.756 37.3158 37.3132 37.5154 37.8916 37.5154C39.3284 37.5154 47.6609 37.5167 55.9941 37.5183C64.327 37.5199 72.6608 37.5212 74.1016 37.5212H157.269C157.681 37.5212 158.016 37.1868 158.016 36.7742V24.0291C158.016 23.8735 157.956 23.732 157.854 23.6375L157.844 23.6277V23.6267C156.675 22.4453 155.499 21.2705 154.323 20.0945L154.322 20.0935L151.877 17.6414H139.337C139.296 17.6414 139.262 17.6351 139.241 17.6296C139.237 17.6284 139.232 17.6259 139.229 17.6248C139.198 17.6179 139.172 17.6096 139.15 17.5994C139.109 17.5816 139.069 17.5531 139.033 17.5144C139.029 17.5101 139.022 17.5074 139.018 17.5027L137.273 15.7517L133.439 11.9187V11.9177C132.162 10.6463 130.884 9.36839 129.612 8.09058V8.09155C129.247 7.72665 128.885 7.36376 128.522 7.00073L128.393 6.88354C128.079 6.6267 127.684 6.48511 127.275 6.48511H67.1406C64.3688 6.48511 54.7006 6.48279 45.0322 6.4812C35.3639 6.47961 25.6948 6.47827 22.9199 6.47827H7.60547C7.18929 6.47827 6.85156 6.816 6.85156 7.23218V19.9822C6.85156 20.1304 6.91079 20.2729 7.01562 20.3777L12.9834 26.3455H25.5186C25.5396 26.3455 25.5601 26.3478 25.5801 26.3513H25.5996L25.6514 26.3679H25.6523V26.3689H25.6543L25.666 26.3728C25.6722 26.375 25.6811 26.3783 25.6914 26.3826C25.6924 26.383 25.7153 26.3932 25.7461 26.4119ZM25.7461 26.4119C25.7684 26.4254 25.7957 26.443 25.8203 26.4675C25.8107 26.4579 25.801 26.449 25.791 26.4412C25.7809 26.4333 25.771 26.4268 25.7627 26.4216C25.756 26.4174 25.7502 26.4141 25.7461 26.4119ZM25.8447 26.5632C25.8545 26.5863 25.8635 26.611 25.8682 26.6384L25.873 26.7C25.873 26.6514 25.8624 26.6054 25.8447 26.5632ZM25.8203 26.5173C25.8273 26.5285 25.834 26.54 25.8398 26.5525C25.8342 26.5402 25.8273 26.5288 25.8203 26.5173ZM25.6309 26.364C25.638 26.366 25.6438 26.3677 25.6445 26.3679C25.6432 26.3675 25.6402 26.3674 25.6387 26.3669C25.6365 26.3663 25.6324 26.3656 25.627 26.364C25.6253 26.3635 25.6237 26.3626 25.6221 26.3621C25.6255 26.3629 25.6286 26.3634 25.6309 26.364ZM25.4131 26.3669C25.4402 26.358 25.4677 26.3535 25.4941 26.3513C25.4692 26.3536 25.4416 26.3575 25.4131 26.3669ZM139.166 17.6042C139.211 17.621 139.254 17.6286 139.293 17.6287L139.227 17.6228C139.205 17.6185 139.184 17.6116 139.166 17.6042ZM139.052 17.5291C139.05 17.5274 139.048 17.5258 139.046 17.5242C139.048 17.5258 139.05 17.5275 139.052 17.5291ZM140.092 6.48511C140.448 6.48511 140.792 6.60871 141.065 6.83276L141.178 6.93433L142.551 8.30737C143.215 8.97154 143.88 9.63751 144.544 10.3035L146.537 12.3005C147.503 13.266 148.465 14.2253 149.425 15.1882H141.732C141.365 15.1882 141.011 15.0608 140.731 14.8298L140.616 14.7253L139.261 13.3591L139.26 13.3582L135.269 9.36108V9.36011L132.393 6.48511H140.092Z"
            stroke="url(#paint2_linear_2168_753)" stroke-width="0.70524" />
    </g>
    <path
        d="M41.8512 18.4527V19.6527H39.4512V26.8527H37.0512V19.6527H34.6512V18.4527H41.8512ZM52.3887 19.6527V25.6527H51.1887V26.8527H45.1887V25.6527H43.9887V19.6527H45.1887V18.4527H51.1887V19.6527H52.3887ZM46.3887 25.6527H49.9887V19.6527H46.3887V25.6527ZM62.3262 25.6527V26.8527H58.7262V25.6527H57.5262V24.4527H56.3262V26.8527H53.9262V18.4527H56.3262V22.0527H57.5262V20.8527H58.7262V19.6527H59.9262V18.4527H62.3262V19.6527H61.1262V20.8527H59.9262V22.0527H58.7262V23.2527H59.9262V24.4527H61.1262V25.6527H62.3262ZM72.2637 25.6527V26.8527H63.8637V18.4527H72.2637V19.6527H66.2637V22.0527H71.0637V23.2527H66.2637V25.6527H72.2637ZM82.2012 18.4527V26.8527H79.8012V25.6527H78.6012V24.4527H77.4012V23.2527H76.2012V26.8527H73.8012V18.4527H76.2012V19.6527H77.4012V20.8527H78.6012V22.0527H79.8012V18.4527H82.2012ZM92.1387 19.6527V25.6527H90.9387V26.8527H84.9387V25.6527H83.7387V19.6527H84.9387V18.4527H90.9387V19.6527H92.1387ZM86.1387 25.6527H89.7387V19.6527H86.1387V25.6527ZM102.076 18.4527V26.8527H99.6762V23.2527H98.4762V24.4527H97.2762V23.2527H96.0762V26.8527H93.6762V18.4527H96.0762V19.6527H97.2762V20.8527H98.4762V19.6527H99.6762V18.4527H102.076ZM111.414 18.4527V19.6527H109.014V25.6527H111.414V26.8527H104.214V25.6527H106.614V19.6527H104.214V18.4527H111.414ZM121.354 24.4527V25.6527H120.154V26.8527H115.354V25.6527H114.154V24.4527H112.954V20.8527H114.154V19.6527H115.354V18.4527H120.154V19.6527H121.354V20.8527H118.954V19.6527H116.554V20.8527H115.354V24.4527H116.554V25.6527H118.954V24.4527H121.354ZM131.291 23.2527V25.6527H130.091V26.8527H124.091V25.6527H122.891V24.4527H125.291V25.6527H128.891V23.2527H124.091V22.0527H122.891V19.6527H124.091V18.4527H128.891V19.6527H130.091V20.8527H127.691V19.6527H125.291V22.0527H130.091V23.2527H131.291Z"
        fill="#0D0D0D" />
    <defs>
        <filter id="filter0_d_2168_753" x="0.858078" y="0.483811" width="163.151" height="43.0324"
            filterUnits="userSpaceOnUse" color-interpolation-filters="sRGB">
            <feFlood flood-opacity="0" result="BackgroundImageFix" />
            <feColorMatrix in="SourceAlpha" type="matrix" values="0 0 0 0 0 0 0 0 0 0 0 0 0 0 0 0 0 0 127 0"
                result="hardAlpha" />
            <feOffset />
            <feGaussianBlur stdDeviation="2.82096" />
            <feComposite in2="hardAlpha" operator="out" />
            <feColorMatrix type="matrix" values="0 0 0 0 0.694118 0 0 0 0 0.956863 0 0 0 0 0.537255 0 0 0 0.5 0" />
            <feBlend mode="normal" in2="BackgroundImageFix" result="effect1_dropShadow_2168_753" />
            <feBlend mode="normal" in="SourceGraphic" in2="effect1_dropShadow_2168_753" result="shape" />
        </filter>
        <linearGradient id="paint0_linear_2168_753" x1="102.06" y1="7.17197" x2="101.101" y2="37.9971"
            gradientUnits="userSpaceOnUse">
            <stop offset="0.129328" stop-color="#B1F489" stop-opacity="0.48" />
            <stop offset="0.544605" stop-color="#B1F489" />
        </linearGradient>
        <linearGradient id="paint1_linear_2168_753" x1="102.06" y1="7.17197" x2="101.101" y2="37.9971"
            gradientUnits="userSpaceOnUse">
            <stop offset="0.129328" stop-color="#B1F489" stop-opacity="0.48" />
            <stop offset="0.544605" stop-color="#B1F489" />
        </linearGradient>
        <linearGradient id="paint2_linear_2168_753" x1="102.06" y1="7.17197" x2="101.101" y2="37.9971"
            gradientUnits="userSpaceOnUse">
            <stop offset="0.129328" stop-color="#B1F489" stop-opacity="0.48" />
            <stop offset="0.544605" stop-color="#B1F489" />
        </linearGradient>
    </defs>
</svg>