<svg width="154" height="34" viewBox="0 0 154 34" fill="none" xmlns="http://www.w3.org/2000/svg">
    <path
        d="M20.8203 21.4119L20.8223 21.4128C20.828 21.4159 20.837 21.4214 20.8467 21.4275C20.8564 21.4336 20.8674 21.441 20.8789 21.45L20.9141 21.4802L21.792 22.3621C22.0844 22.656 22.376 22.95 22.668 23.2419L24.585 25.158L26.502 27.075L28.416 28.9919L30.3291 30.908L30.3301 30.9099L31.2051 31.7888L31.3877 31.9539C31.8302 32.3158 32.3874 32.5154 32.9658 32.5154C34.4026 32.5154 42.7351 32.5167 51.0684 32.5183C59.4012 32.5199 67.735 32.5212 69.1758 32.5212H152.343C152.755 32.5212 153.09 32.1868 153.09 31.7742V19.0291C153.09 18.8735 153.03 18.732 152.929 18.6375L152.918 18.6277V18.6267C151.749 17.4453 150.573 16.2705 149.397 15.0945L149.396 15.0935L146.951 12.6414H134.411C134.37 12.6414 134.336 12.6351 134.315 12.6296C134.311 12.6284 134.307 12.6259 134.303 12.6248C134.273 12.6179 134.246 12.6096 134.225 12.5994C134.183 12.5816 134.144 12.5531 134.107 12.5144C134.103 12.5101 134.096 12.5074 134.092 12.5027L132.348 10.7517L128.514 6.9187V6.91772C127.236 5.64626 125.958 4.36839 124.687 3.09058V3.09155C124.322 2.72665 123.96 2.36376 123.597 2.00073L123.467 1.88354C123.153 1.6267 122.759 1.48511 122.35 1.48511H62.2148C59.443 1.48511 49.7749 1.48279 40.1064 1.4812C30.4381 1.47961 20.769 1.47827 17.9941 1.47827H2.67969C2.26351 1.47827 1.92578 1.816 1.92578 2.23218V14.9822C1.92578 15.1304 1.98501 15.2729 2.08984 15.3777L8.05762 21.3455H20.5928C20.6138 21.3455 20.6343 21.3478 20.6543 21.3513H20.6738L20.7256 21.3679H20.7266V21.3689H20.7285L20.7402 21.3728C20.7464 21.375 20.7553 21.3783 20.7656 21.3826C20.7666 21.383 20.7895 21.3932 20.8203 21.4119ZM20.8203 21.4119C20.8427 21.4254 20.87 21.443 20.8945 21.4675C20.8849 21.4579 20.8752 21.449 20.8652 21.4412C20.8551 21.4333 20.8452 21.4268 20.8369 21.4216C20.8302 21.4174 20.8245 21.4141 20.8203 21.4119ZM20.9189 21.5632C20.9288 21.5863 20.9377 21.611 20.9424 21.6384L20.9473 21.7C20.9473 21.6514 20.9366 21.6054 20.9189 21.5632ZM20.8945 21.5173C20.9015 21.5285 20.9082 21.54 20.9141 21.5525C20.9084 21.5402 20.9015 21.5288 20.8945 21.5173ZM20.7051 21.364C20.7122 21.366 20.718 21.3677 20.7188 21.3679C20.7175 21.3675 20.7145 21.3674 20.7129 21.3669C20.7108 21.3663 20.7066 21.3656 20.7012 21.364C20.6995 21.3635 20.698 21.3626 20.6963 21.3621C20.6997 21.3629 20.7028 21.3634 20.7051 21.364ZM20.4873 21.3669C20.5144 21.358 20.5419 21.3535 20.5684 21.3513C20.5434 21.3536 20.5159 21.3575 20.4873 21.3669ZM134.24 12.6042C134.285 12.621 134.329 12.6286 134.367 12.6287L134.301 12.6228C134.279 12.6185 134.259 12.6116 134.24 12.6042ZM134.126 12.5291C134.124 12.5274 134.122 12.5258 134.12 12.5242C134.122 12.5258 134.124 12.5275 134.126 12.5291ZM135.166 1.48511C135.522 1.48511 135.866 1.60871 136.14 1.83276L136.252 1.93433L137.625 3.30737C138.289 3.97154 138.954 4.63751 139.618 5.30347L141.611 7.30054C142.577 8.26603 143.54 9.22525 144.499 10.1882H136.807C136.439 10.1882 136.086 10.0608 135.806 9.82983L135.69 9.72534L134.335 8.35913L134.334 8.35815L130.343 4.36108V4.36011L127.467 1.48511H135.166Z"
        stroke="#B1F489" stroke-width="0.70524" />
    <path
        d="M37.2266 13.4526V21.8526H34.8266V20.6526H33.6266V19.4526H32.4266V20.6526H31.2266V21.8526H28.8266V13.4526H31.2266V17.0526H32.4266V15.8526H33.6266V17.0526H34.8266V13.4526H37.2266ZM47.1641 13.4526V21.8526H44.7641V18.2526H41.1641V21.8526H38.7641V13.4526H41.1641V17.0526H44.7641V13.4526H47.1641ZM56.5016 13.4526V14.6526H54.1016V20.6526H56.5016V21.8526H49.3016V20.6526H51.7016V14.6526H49.3016V13.4526H56.5016ZM66.4391 13.4526V14.6526H64.0391V21.8526H61.6391V14.6526H59.2391V13.4526H66.4391ZM76.9766 20.6526V21.8526H68.5766V13.4526H76.9766V14.6526H70.9766V17.0526H75.7766V18.2526H70.9766V20.6526H76.9766ZM86.9141 14.6526V18.2526H85.7141V19.4526H80.9141V21.8526H78.5141V13.4526H85.7141V14.6526H86.9141ZM80.9141 18.2526H84.5141V14.6526H80.9141V18.2526ZM96.8516 15.8526V21.8526H94.4516V19.4526H90.8516V21.8526H88.4516V15.8526H89.6516V14.6526H90.8516V13.4526H94.4516V14.6526H95.6516V15.8526H96.8516ZM90.8516 18.2526H94.4516V15.8526H93.2516V14.6526H92.0516V15.8526H90.8516V18.2526ZM106.789 14.6526V18.2526H105.589V19.4526H100.789V21.8526H98.3891V13.4526H105.589V14.6526H106.789ZM100.789 18.2526H104.389V14.6526H100.789V18.2526ZM116.727 20.6526V21.8526H108.327V13.4526H116.727V14.6526H110.727V17.0526H115.527V18.2526H110.727V20.6526H116.727ZM126.664 20.6526V21.8526H123.064V20.6526H121.864V19.4526H120.664V21.8526H118.264V13.4526H125.464V14.6526H126.664V18.2526H124.264V19.4526H125.464V20.6526H126.664ZM123.064 17.0526H124.264V14.6526H120.664V18.2526H123.064V17.0526Z"
        fill="#B1F489" />
</svg>