<svg width="46" height="62" viewBox="0 0 46 62" fill="none" xmlns="http://www.w3.org/2000/svg">
    <g filter="url(#filter0_d_2162_1048)">
        <path fill-rule="evenodd" clip-rule="evenodd"
            d="M20.5703 3L3.00781 30.9931L13.9314 48.4028L16.2856 52.3255L20.2856 58.9931H42.9731L33.2231 43.4306H26.1953L18.4175 30.9931L26.1953 18.5625H33.2231L42.9731 3H20.5703Z"
            fill="white" />
        <path fill-rule="evenodd" clip-rule="evenodd"
            d="M20.5703 3L3.00781 30.9931L13.9314 48.4028L16.2856 52.3255L20.2856 58.9931H42.9731L33.2231 43.4306H26.1953L18.4175 30.9931L26.1953 18.5625H33.2231L42.9731 3H20.5703Z"
            fill="url(#paint0_linear_2162_1048)" />
        <path
            d="M25.8262 44.0977L25.6299 43.7842L17.8525 31.3467L17.6309 30.9932L17.8525 30.6396L25.6299 18.209L25.8262 17.8955H32.8545L41.7686 3.66699H20.9385L3.79395 30.9922L14.4961 48.0488L14.5029 48.0596L16.8574 51.9824L20.6621 58.3262H41.7686L32.8545 44.0977H25.8262Z"
            stroke="url(#paint1_linear_2162_1048)" stroke-width="1.33333" />
        <path
            d="M25.8262 44.0977L25.6299 43.7842L17.8525 31.3467L17.6309 30.9932L17.8525 30.6396L25.6299 18.209L25.8262 17.8955H32.8545L41.7686 3.66699H20.9385L3.79395 30.9922L14.4961 48.0488L14.5029 48.0596L16.8574 51.9824L20.6621 58.3262H41.7686L32.8545 44.0977H25.8262Z"
            stroke="black" stroke-opacity="0.2" stroke-width="1.33333" />
    </g>
    <defs>
        <filter id="filter0_d_2162_1048" x="0.341146" y="0.333333" width="45.2982" height="61.3264"
            filterUnits="userSpaceOnUse" color-interpolation-filters="sRGB">
            <feFlood flood-opacity="0" result="BackgroundImageFix" />
            <feColorMatrix in="SourceAlpha" type="matrix" values="0 0 0 0 0 0 0 0 0 0 0 0 0 0 0 0 0 0 127 0"
                result="hardAlpha" />
            <feOffset />
            <feGaussianBlur stdDeviation="1.33333" />
            <feComposite in2="hardAlpha" operator="out" />
            <feColorMatrix type="matrix" values="0 0 0 0 0.694118 0 0 0 0 0.956863 0 0 0 0 0.537255 0 0 0 0.5 0" />
            <feBlend mode="normal" in2="BackgroundImageFix" result="effect1_dropShadow_2162_1048" />
            <feBlend mode="normal" in="SourceGraphic" in2="effect1_dropShadow_2162_1048" result="shape" />
        </filter>
        <linearGradient id="paint0_linear_2162_1048" x1="2.92419" y1="36.2765" x2="42.6388" y2="2.91645"
            gradientUnits="userSpaceOnUse">
            <stop stop-color="#B1F489" stop-opacity="0.48" />
            <stop offset="1" stop-color="#B1F489" />
        </linearGradient>
        <linearGradient id="paint1_linear_2162_1048" x1="1.03539" y1="37.5376" x2="42.0078" y2="4.8094"
            gradientUnits="userSpaceOnUse">
            <stop stop-color="#E3FFDE" />
            <stop offset="0.748262" stop-color="#B1F489" />
        </linearGradient>
    </defs>
</svg>