<svg width="431" height="349" viewBox="0 0 431 349" fill="none" xmlns="http://www.w3.org/2000/svg">
    <g filter="url(#filter0_ddi_2168_2532)">
        <path d="M33.9457 285.724L42.78 275.176H124.383L115.529 285.724H33.9457Z" fill="#B1F489" />
    </g>
    <mask id="mask0_2168_2532" style="mask-type:luminance" maskUnits="userSpaceOnUse" x="343" y="197" width="85"
        height="113">
        <path d="M427.695 309.408H343.389V197.304H427.695V309.408Z" fill="white" />
    </mask>
    <g mask="url(#mask0_2168_2532)">
        <path
            d="M418.098 200.541L427.18 211.375V233.175L364.559 307.828H343.654V306.058H363.721L425.409 232.527V212.003L416.727 201.684L418.098 200.541Z"
            fill="url(#paint0_linear_2168_2532)" />
    </g>
    <g filter="url(#filter1_ddi_2168_2532)">
        <path d="M310.872 328.106L319.744 317.52L381.908 243.457H399.652L328.635 328.106H310.872Z" fill="#B1F489" />
    </g>
    <path
        d="M418.75 155.133V212.194L391.409 244.789H382.518L320.373 318.852H263.617L283.608 295.015H319.136L389.448 211.223V190.051L418.75 155.133ZM416.084 211.223V162.444L392.114 191.022V212.194L320.373 297.681H284.846L269.329 316.187H319.136L381.28 242.124H390.153L416.084 211.223Z"
        fill="url(#paint1_linear_2168_2532)" />
    <path d="M275.348 307.829H204.331V306.058H275.348V307.829Z" fill="url(#paint2_linear_2168_2532)" />
    <mask id="mask1_2168_2532" style="mask-type:luminance" maskUnits="userSpaceOnUse" x="31" y="36" width="397"
        height="284">
        <path d="M427.695 319.157H31.4476V36.46H427.695V319.157Z" fill="white" />
    </mask>
    <g mask="url(#mask1_2168_2532)">
        <path
            d="M427.617 37.7741V127.507L400.981 159.264V179.96H398.335L398.316 158.293L424.952 126.536V45.2375L400.981 74.5772V116.921L383.236 138.093V201.589L311.477 287.095H222.696L196.06 318.853H32.7594L52.7507 295.015H106.042L132.659 263.277L222.696 263.258L231.569 273.843H319.131L380.571 200.618V137.122L398.316 115.95V73.6252L427.617 37.7741ZM316.903 276.509H230.331L221.459 265.923L133.897 265.942L107.28 297.681H53.9883L38.4712 316.187H194.823L221.459 284.448H310.239L316.903 276.509Z"
            fill="url(#paint3_linear_2168_2532)" />
    </g>
    <path d="M319.321 253.128H337.504V254.918H320.159L302.662 275.766L301.31 274.623L319.321 253.128Z"
        fill="url(#paint4_linear_2168_2532)" />
    <g filter="url(#filter2_ddi_2168_2532)">
        <path d="M390.778 296.348L417.414 264.609V296.348H390.778Z" fill="#B1F489" />
    </g>
    <path d="M409.418 168.498H407.647V148.183H409.418V168.498Z" fill="url(#paint5_linear_2168_2532)" />
    <mask id="mask2_2168_2532" style="mask-type:luminance" maskUnits="userSpaceOnUse" x="0" y="294" width="47"
        height="26">
        <path d="M46.0742 319.157H-0.00109482V294.786H46.0742V319.157Z" fill="white" />
    </mask>
    <g mask="url(#mask2_2168_2532)">
        <g filter="url(#filter3_ddi_2168_2532)">
            <path d="M44.4961 296.347L26.7514 317.519H0.096241L17.86 296.347H44.4961Z" fill="#B1F489" />
        </g>
    </g>
    <path d="M381.219 189.594L382.57 190.717L329.298 254.595L327.946 253.452L381.219 189.594Z"
        fill="url(#paint6_linear_2168_2532)" />
    <mask id="mask3_2168_2532" style="mask-type:luminance" maskUnits="userSpaceOnUse" x="119" y="304" width="123"
        height="25">
        <path d="M241.035 329H119.183V304.534H241.035V329Z" fill="white" />
    </mask>
    <g mask="url(#mask3_2168_2532)">
        <path
            d="M239.149 306.362L240.52 307.504L222.489 329H132.871L123.732 318.09L125.084 316.948L133.69 327.21H221.671L239.149 306.362Z"
            fill="url(#paint7_linear_2168_2532)" />
    </g>
    <path d="M403.843 174.439H404.719V216.954L395.675 227.749V238.145H394.78V227.425L403.843 216.63V174.439Z"
        fill="url(#paint8_linear_2168_2532)" />
    <path d="M292.918 306.495H328.617V307.39H293.318L284.579 317.805L283.913 317.234L292.918 306.495Z"
        fill="url(#paint9_linear_2168_2532)" />
    <path
        d="M271.291 289.95H324.754V290.826H271.71L262.438 301.888H226.91L222.417 307.238L221.751 306.667L226.492 300.993H262.019L271.291 289.95Z"
        fill="url(#paint10_linear_2168_2532)" />
    <path d="M257.221 285.438L257.906 286.009L251.204 293.968H215.696V293.073H250.805L257.221 285.438Z"
        fill="url(#paint11_linear_2168_2532)" />
    <path d="M212.992 317.101H230.965V317.976H213.411L204.652 328.41L203.986 327.839L212.992 317.101Z"
        fill="url(#paint12_linear_2168_2532)" />
    <path
        d="M62.064 306.495H98.7148L89.2523 317.805L88.5669 317.234L96.8109 307.39H62.4829L53.7248 317.805L53.0394 317.234L62.064 306.495Z"
        fill="url(#paint13_linear_2168_2532)" />
    <path
        d="M416.976 52.3576H417.871V127.544L417.757 127.677L395.671 153.666V185.233H394.776V153.342L394.891 153.209L416.976 127.22V52.3576Z"
        fill="url(#paint14_linear_2168_2532)" />
    <path d="M393.297 188.242H392.402V124.574H393.297V188.242Z" fill="url(#paint15_linear_2168_2532)" />
    <path
        d="M368.566 227.33H377.305V228.225H368.984L325.327 281.154L328.964 285.514L328.297 286.085L324.185 281.154L324.413 280.869L368.566 227.33Z"
        fill="url(#paint16_linear_2168_2532)" />
    <path
        d="M417.434 243V243.894H408.752L373.472 285.952V296.348H372.577V285.629L372.691 285.515L408.333 243.019L417.434 243Z"
        fill="url(#paint17_linear_2168_2532)" />
    <path
        d="M224.51 267.598L225.195 268.169L207.279 289.474H124.61L99.0403 317.805L98.393 317.215L124.21 288.579H206.86L224.51 267.598Z"
        fill="url(#paint18_linear_2168_2532)" />
    <path d="M195.645 306.739H177.881L204.517 275H222.281L195.645 306.739Z" fill="#1C1C1C" />
    <path d="M171.247 306.933H153.483L180.119 275.195H197.883L171.247 306.933Z" fill="#1C1C1C" />
    <path d="M146.848 306.933H129.085L155.721 275.195H173.484L146.848 306.933Z" fill="#1C1C1C" />
    <path d="M268.645 306.739H250.881L277.517 275H295.281L268.645 306.739Z" fill="#1C1C1C" />
    <path d="M244.247 306.933H226.483L253.119 275.195H270.883L244.247 306.933Z" fill="#1C1C1C" />
    <path d="M219.848 306.933H202.085L228.721 275.195H246.484L219.848 306.933Z" fill="#1C1C1C" />
    <g filter="url(#filter4_d_2168_2532)">
        <path d="M122.446 306.933H104.682L131.318 275.195H149.082L122.446 306.933Z" fill="white" />
        <path d="M122.446 306.933H104.682L131.318 275.195H149.082L122.446 306.933Z"
            fill="url(#paint19_linear_2168_2532)" />
        <path d="M105.755 306.433L131.551 275.695H148.009L122.213 306.433H105.755Z"
            stroke="url(#paint20_linear_2168_2532)" />
        <path d="M105.755 306.433L131.551 275.695H148.009L122.213 306.433H105.755Z" stroke="black"
            stroke-opacity="0.2" />
    </g>
    <defs>
        <filter id="filter0_ddi_2168_2532" x="20.9453" y="269.176" width="116.438" height="36.5478"
            filterUnits="userSpaceOnUse" color-interpolation-filters="sRGB">
            <feFlood flood-opacity="0" result="BackgroundImageFix" />
            <feColorMatrix in="SourceAlpha" type="matrix" values="0 0 0 0 0 0 0 0 0 0 0 0 0 0 0 0 0 0 127 0"
                result="hardAlpha" />
            <feOffset dy="7" />
            <feGaussianBlur stdDeviation="6.5" />
            <feColorMatrix type="matrix" values="0 0 0 0 0 0 0 0 0 0 0 0 0 0 0 0 0 0 0.3 0" />
            <feBlend mode="normal" in2="BackgroundImageFix" result="effect1_dropShadow_2168_2532" />
            <feColorMatrix in="SourceAlpha" type="matrix" values="0 0 0 0 0 0 0 0 0 0 0 0 0 0 0 0 0 0 127 0"
                result="hardAlpha" />
            <feOffset dy="2" />
            <feGaussianBlur stdDeviation="2" />
            <feColorMatrix type="matrix" values="0 0 0 0 0 0 0 0 0 0 0 0 0 0 0 0 0 0 0.4 0" />
            <feBlend mode="normal" in2="effect1_dropShadow_2168_2532" result="effect2_dropShadow_2168_2532" />
            <feBlend mode="normal" in="SourceGraphic" in2="effect2_dropShadow_2168_2532" result="shape" />
            <feColorMatrix in="SourceAlpha" type="matrix" values="0 0 0 0 0 0 0 0 0 0 0 0 0 0 0 0 0 0 127 0"
                result="hardAlpha" />
            <feOffset dy="-3" />
            <feComposite in2="hardAlpha" operator="arithmetic" k2="-1" k3="1" />
            <feColorMatrix type="matrix" values="0 0 0 0 0 0 0 0 0 0 0 0 0 0 0 0 0 0 0.2 0" />
            <feBlend mode="normal" in2="shape" result="effect3_innerShadow_2168_2532" />
        </filter>
        <filter id="filter1_ddi_2168_2532" x="297.871" y="237.457" width="114.781" height="110.649"
            filterUnits="userSpaceOnUse" color-interpolation-filters="sRGB">
            <feFlood flood-opacity="0" result="BackgroundImageFix" />
            <feColorMatrix in="SourceAlpha" type="matrix" values="0 0 0 0 0 0 0 0 0 0 0 0 0 0 0 0 0 0 127 0"
                result="hardAlpha" />
            <feOffset dy="7" />
            <feGaussianBlur stdDeviation="6.5" />
            <feColorMatrix type="matrix" values="0 0 0 0 0 0 0 0 0 0 0 0 0 0 0 0 0 0 0.3 0" />
            <feBlend mode="normal" in2="BackgroundImageFix" result="effect1_dropShadow_2168_2532" />
            <feColorMatrix in="SourceAlpha" type="matrix" values="0 0 0 0 0 0 0 0 0 0 0 0 0 0 0 0 0 0 127 0"
                result="hardAlpha" />
            <feOffset dy="2" />
            <feGaussianBlur stdDeviation="2" />
            <feColorMatrix type="matrix" values="0 0 0 0 0 0 0 0 0 0 0 0 0 0 0 0 0 0 0.4 0" />
            <feBlend mode="normal" in2="effect1_dropShadow_2168_2532" result="effect2_dropShadow_2168_2532" />
            <feBlend mode="normal" in="SourceGraphic" in2="effect2_dropShadow_2168_2532" result="shape" />
            <feColorMatrix in="SourceAlpha" type="matrix" values="0 0 0 0 0 0 0 0 0 0 0 0 0 0 0 0 0 0 127 0"
                result="hardAlpha" />
            <feOffset dy="-3" />
            <feComposite in2="hardAlpha" operator="arithmetic" k2="-1" k3="1" />
            <feColorMatrix type="matrix" values="0 0 0 0 0 0 0 0 0 0 0 0 0 0 0 0 0 0 0.2 0" />
            <feBlend mode="normal" in2="shape" result="effect3_innerShadow_2168_2532" />
        </filter>
        <filter id="filter2_ddi_2168_2532" x="377.777" y="258.609" width="52.6367" height="57.7386"
            filterUnits="userSpaceOnUse" color-interpolation-filters="sRGB">
            <feFlood flood-opacity="0" result="BackgroundImageFix" />
            <feColorMatrix in="SourceAlpha" type="matrix" values="0 0 0 0 0 0 0 0 0 0 0 0 0 0 0 0 0 0 127 0"
                result="hardAlpha" />
            <feOffset dy="7" />
            <feGaussianBlur stdDeviation="6.5" />
            <feColorMatrix type="matrix" values="0 0 0 0 0 0 0 0 0 0 0 0 0 0 0 0 0 0 0.3 0" />
            <feBlend mode="normal" in2="BackgroundImageFix" result="effect1_dropShadow_2168_2532" />
            <feColorMatrix in="SourceAlpha" type="matrix" values="0 0 0 0 0 0 0 0 0 0 0 0 0 0 0 0 0 0 127 0"
                result="hardAlpha" />
            <feOffset dy="2" />
            <feGaussianBlur stdDeviation="2" />
            <feColorMatrix type="matrix" values="0 0 0 0 0 0 0 0 0 0 0 0 0 0 0 0 0 0 0.4 0" />
            <feBlend mode="normal" in2="effect1_dropShadow_2168_2532" result="effect2_dropShadow_2168_2532" />
            <feBlend mode="normal" in="SourceGraphic" in2="effect2_dropShadow_2168_2532" result="shape" />
            <feColorMatrix in="SourceAlpha" type="matrix" values="0 0 0 0 0 0 0 0 0 0 0 0 0 0 0 0 0 0 127 0"
                result="hardAlpha" />
            <feOffset dy="-3" />
            <feComposite in2="hardAlpha" operator="arithmetic" k2="-1" k3="1" />
            <feColorMatrix type="matrix" values="0 0 0 0 0 0 0 0 0 0 0 0 0 0 0 0 0 0 0.2 0" />
            <feBlend mode="normal" in2="shape" result="effect3_innerShadow_2168_2532" />
        </filter>
        <filter id="filter3_ddi_2168_2532" x="-12.9023" y="290.347" width="70.3984" height="47.1718"
            filterUnits="userSpaceOnUse" color-interpolation-filters="sRGB">
            <feFlood flood-opacity="0" result="BackgroundImageFix" />
            <feColorMatrix in="SourceAlpha" type="matrix" values="0 0 0 0 0 0 0 0 0 0 0 0 0 0 0 0 0 0 127 0"
                result="hardAlpha" />
            <feOffset dy="7" />
            <feGaussianBlur stdDeviation="6.5" />
            <feColorMatrix type="matrix" values="0 0 0 0 0 0 0 0 0 0 0 0 0 0 0 0 0 0 0.3 0" />
            <feBlend mode="normal" in2="BackgroundImageFix" result="effect1_dropShadow_2168_2532" />
            <feColorMatrix in="SourceAlpha" type="matrix" values="0 0 0 0 0 0 0 0 0 0 0 0 0 0 0 0 0 0 127 0"
                result="hardAlpha" />
            <feOffset dy="2" />
            <feGaussianBlur stdDeviation="2" />
            <feColorMatrix type="matrix" values="0 0 0 0 0 0 0 0 0 0 0 0 0 0 0 0 0 0 0.4 0" />
            <feBlend mode="normal" in2="effect1_dropShadow_2168_2532" result="effect2_dropShadow_2168_2532" />
            <feBlend mode="normal" in="SourceGraphic" in2="effect2_dropShadow_2168_2532" result="shape" />
            <feColorMatrix in="SourceAlpha" type="matrix" values="0 0 0 0 0 0 0 0 0 0 0 0 0 0 0 0 0 0 127 0"
                result="hardAlpha" />
            <feOffset dy="-3" />
            <feComposite in2="hardAlpha" operator="arithmetic" k2="-1" k3="1" />
            <feColorMatrix type="matrix" values="0 0 0 0 0 0 0 0 0 0 0 0 0 0 0 0 0 0 0.2 0" />
            <feBlend mode="normal" in2="shape" result="effect3_innerShadow_2168_2532" />
        </filter>
        <filter id="filter4_d_2168_2532" x="96.6836" y="267.195" width="60.3984" height="47.7386"
            filterUnits="userSpaceOnUse" color-interpolation-filters="sRGB">
            <feFlood flood-opacity="0" result="BackgroundImageFix" />
            <feColorMatrix in="SourceAlpha" type="matrix" values="0 0 0 0 0 0 0 0 0 0 0 0 0 0 0 0 0 0 127 0"
                result="hardAlpha" />
            <feOffset />
            <feGaussianBlur stdDeviation="4" />
            <feComposite in2="hardAlpha" operator="out" />
            <feColorMatrix type="matrix" values="0 0 0 0 0.694118 0 0 0 0 0.956863 0 0 0 0 0.537255 0 0 0 0.5 0" />
            <feBlend mode="normal" in2="BackgroundImageFix" result="effect1_dropShadow_2168_2532" />
            <feBlend mode="normal" in="SourceGraphic" in2="effect1_dropShadow_2168_2532" result="shape" />
        </filter>
        <linearGradient id="paint0_linear_2168_2532" x1="385.417" y1="200.541" x2="385.417" y2="307.828"
            gradientUnits="userSpaceOnUse">
            <stop stop-color="#1C1C1C" />
        </linearGradient>
        <linearGradient id="paint1_linear_2168_2532" x1="341.184" y1="155.133" x2="341.184" y2="318.852"
            gradientUnits="userSpaceOnUse">
            <stop stop-color="#1C1C1C" />
        </linearGradient>
        <linearGradient id="paint2_linear_2168_2532" x1="239.839" y1="306.058" x2="239.839" y2="307.829"
            gradientUnits="userSpaceOnUse">
            <stop stop-color="#1C1C1C" />
        </linearGradient>
        <linearGradient id="paint3_linear_2168_2532" x1="230.188" y1="37.7741" x2="230.188" y2="318.853"
            gradientUnits="userSpaceOnUse">
            <stop stop-color="#1C1C1C" />
        </linearGradient>
        <linearGradient id="paint4_linear_2168_2532" x1="319.407" y1="253.128" x2="319.407" y2="275.766"
            gradientUnits="userSpaceOnUse">
            <stop stop-color="#1C1C1C" />
        </linearGradient>
        <linearGradient id="paint5_linear_2168_2532" x1="408.533" y1="148.183" x2="408.533" y2="168.498"
            gradientUnits="userSpaceOnUse">
            <stop stop-color="#1C1C1C" />
        </linearGradient>
        <linearGradient id="paint6_linear_2168_2532" x1="355.258" y1="189.594" x2="355.258" y2="254.595"
            gradientUnits="userSpaceOnUse">
            <stop stop-color="#1C1C1C" />
        </linearGradient>
        <linearGradient id="paint7_linear_2168_2532" x1="182.126" y1="306.362" x2="182.126" y2="329"
            gradientUnits="userSpaceOnUse">
            <stop stop-color="#1C1C1C" />
        </linearGradient>
        <linearGradient id="paint8_linear_2168_2532" x1="399.749" y1="174.439" x2="399.749" y2="238.145"
            gradientUnits="userSpaceOnUse">
            <stop stop-color="#1C1C1C" />
        </linearGradient>
        <linearGradient id="paint9_linear_2168_2532" x1="306.265" y1="306.495" x2="306.265" y2="317.805"
            gradientUnits="userSpaceOnUse">
            <stop stop-color="#1C1C1C" />
        </linearGradient>
        <linearGradient id="paint10_linear_2168_2532" x1="273.252" y1="289.95" x2="273.252" y2="307.238"
            gradientUnits="userSpaceOnUse">
            <stop stop-color="#1C1C1C" />
        </linearGradient>
        <linearGradient id="paint11_linear_2168_2532" x1="236.801" y1="285.438" x2="236.801" y2="293.968"
            gradientUnits="userSpaceOnUse">
            <stop stop-color="#1C1C1C" />
        </linearGradient>
        <linearGradient id="paint12_linear_2168_2532" x1="217.475" y1="317.101" x2="217.475" y2="328.41"
            gradientUnits="userSpaceOnUse">
            <stop stop-color="#1C1C1C" />
        </linearGradient>
        <linearGradient id="paint13_linear_2168_2532" x1="75.8771" y1="306.495" x2="75.8771" y2="317.805"
            gradientUnits="userSpaceOnUse">
            <stop stop-color="#1C1C1C" />
        </linearGradient>
        <linearGradient id="paint14_linear_2168_2532" x1="406.324" y1="52.3576" x2="406.324" y2="185.233"
            gradientUnits="userSpaceOnUse">
            <stop stop-color="#1C1C1C" />
        </linearGradient>
        <linearGradient id="paint15_linear_2168_2532" x1="392.849" y1="124.574" x2="392.849" y2="188.242"
            gradientUnits="userSpaceOnUse">
            <stop stop-color="#1C1C1C" />
        </linearGradient>
        <linearGradient id="paint16_linear_2168_2532" x1="350.745" y1="227.33" x2="350.745" y2="286.085"
            gradientUnits="userSpaceOnUse">
            <stop stop-color="#1C1C1C" />
        </linearGradient>
        <linearGradient id="paint17_linear_2168_2532" x1="395.005" y1="243" x2="395.005" y2="296.348"
            gradientUnits="userSpaceOnUse">
            <stop stop-color="#1C1C1C" />
        </linearGradient>
        <linearGradient id="paint18_linear_2168_2532" x1="161.794" y1="267.598" x2="161.794" y2="317.805"
            gradientUnits="userSpaceOnUse">
            <stop stop-color="#1C1C1C" />
        </linearGradient>
        <linearGradient id="paint19_linear_2168_2532" x1="122.695" y1="307" x2="149.195" y2="275.5"
            gradientUnits="userSpaceOnUse">
            <stop stop-color="#B1F489" stop-opacity="0.48" />
            <stop offset="1" stop-color="#B1F489" />
        </linearGradient>
        <linearGradient id="paint20_linear_2168_2532" x1="121.695" y1="308.5" x2="147.695" y2="276"
            gradientUnits="userSpaceOnUse">
            <stop stop-color="#B1F489" />
            <stop offset="0.748262" stop-color="#B1F489" />
        </linearGradient>
    </defs>
</svg>