<svg width="1440" height="40" viewBox="0 0 1440 40" fill="none" xmlns="http://www.w3.org/2000/svg">
    <g filter="url(#filter0_d_2057_328)">
        <g filter="url(#filter1_ddi_2057_328)">
            <path
                d="M-85.6758 6.00002L-72.2487 19.4271L117 19.4271L104 6L-85.6758 6.00002ZM113.385 11.0313C112.583 11.0313 111.932 10.3802 111.932 9.57813C111.932 8.77604 112.583 8.125 113.385 8.125C114.187 8.125 114.839 8.77604 114.839 9.57813C114.839 10.3802 114.187 11.0313 113.385 11.0313Z"
                fill="#B1F489" />
        </g>
        <path
            d="M-49.9345 10.36H-48.9665C-48.3425 10.36 -47.9158 10.4747 -47.6865 10.704C-47.4572 10.9333 -47.3425 11.264 -47.3425 11.696V15H-48.7425V12.152C-48.7425 11.896 -48.7958 11.7093 -48.9025 11.592C-49.0092 11.4747 -49.2465 11.416 -49.6145 11.416H-50.0625V15H-51.4785L-51.4865 11.416H-51.8865C-52.2278 11.416 -52.4572 11.48 -52.5745 11.608C-52.6865 11.736 -52.7425 11.9173 -52.7425 12.152V15H-54.1505V11.696C-54.1505 11.248 -54.0305 10.9147 -53.7905 10.696C-53.5505 10.472 -53.1212 10.36 -52.5025 10.36H-49.9345ZM-42.9286 13.192H-45.0486V15H-46.4406L-46.4486 13.664V11.696C-46.4486 11.248 -46.3286 10.9147 -46.0886 10.696C-45.8486 10.472 -45.4193 10.36 -44.8006 10.36H-42.7766C-42.158 10.36 -41.7286 10.472 -41.4886 10.696C-41.2486 10.9147 -41.1286 11.248 -41.1286 11.696V13.664L-41.1366 15H-42.5286V13.192H-42.9286ZM-43.2406 12.136H-42.5286C-42.534 11.912 -42.5953 11.736 -42.7126 11.608C-42.8246 11.48 -43.0513 11.416 -43.3926 11.416H-44.1846C-44.526 11.416 -44.7553 11.48 -44.8726 11.608C-44.9846 11.736 -45.0433 11.912 -45.0486 12.136H-43.2406ZM-34.6551 14.144C-34.7031 14.3467 -34.8205 14.5413 -35.0071 14.728C-35.1885 14.9093 -35.4498 15 -35.7911 15H-40.2231V13.944H-36.5511C-36.4338 13.944 -36.3885 13.9067 -36.4151 13.832C-36.4365 13.7573 -36.4658 13.712 -36.5031 13.696L-39.6391 12.536C-40.0285 12.4027 -40.2231 12.1307 -40.2231 11.72C-40.2231 11.5387 -40.2125 11.408 -40.1911 11.328C-40.1431 11.2427 -40.1031 11.128 -40.0711 10.984C-40.0338 10.8347 -39.8738 10.6933 -39.5911 10.56C-39.3031 10.4267 -38.9645 10.36 -38.5751 10.36H-34.6551V11.448H-35.7111H-38.5751C-38.6605 11.448 -38.7085 11.496 -38.7191 11.592C-38.7085 11.656 -38.6951 11.688 -38.6791 11.688L-35.1991 13C-34.9698 13.0907 -34.8178 13.256 -34.7431 13.496C-34.6631 13.7307 -34.6338 13.9467 -34.6551 14.144ZM-28.1798 14.144C-28.2278 14.3467 -28.3451 14.5413 -28.5318 14.728C-28.7131 14.9093 -28.9745 15 -29.3158 15H-33.7478V13.944H-30.0758C-29.9585 13.944 -29.9131 13.9067 -29.9398 13.832C-29.9611 13.7573 -29.9905 13.712 -30.0278 13.696L-33.1638 12.536C-33.5531 12.4027 -33.7478 12.1307 -33.7478 11.72C-33.7478 11.5387 -33.7371 11.408 -33.7158 11.328C-33.6678 11.2427 -33.6278 11.128 -33.5958 10.984C-33.5585 10.8347 -33.3985 10.6933 -33.1158 10.56C-32.8278 10.4267 -32.4891 10.36 -32.0998 10.36H-28.1798V11.448H-29.2358H-32.0998C-32.1851 11.448 -32.2331 11.496 -32.2438 11.592C-32.2331 11.656 -32.2198 11.688 -32.2038 11.688L-28.7238 13C-28.4945 13.0907 -28.3425 13.256 -28.2678 13.496C-28.1878 13.7307 -28.1585 13.9467 -28.1798 14.144ZM-25.8805 15H-27.2725V10.36H-25.8725V13.208L-25.8805 15ZM-21.0729 10.36H-19.6649C-20.2302 12.4827 -20.5342 13.592 -20.5769 13.688C-20.6569 13.944 -20.8275 14.2267 -21.0889 14.536C-21.3449 14.8453 -21.6249 15 -21.9289 15H-22.7209C-22.9769 15 -23.2462 14.8453 -23.5289 14.536C-23.8115 14.2267 -23.9902 13.9493 -24.0649 13.704C-24.1289 13.5973 -24.4355 12.4827 -24.9849 10.36H-23.5769L-22.8649 13.208C-22.7902 13.4533 -22.7022 13.6267 -22.6009 13.728C-22.4995 13.8293 -22.4062 13.8853 -22.3209 13.896C-22.2355 13.8853 -22.1449 13.8293 -22.0489 13.728C-21.9475 13.6267 -21.8595 13.4533 -21.7849 13.208L-21.0729 10.36ZM-16.9674 13.192H-17.3674C-17.362 13.4373 -17.3034 13.624 -17.1914 13.752C-17.074 13.88 -16.8447 13.944 -16.5034 13.944H-15.7194H-13.4474V15H-15.0714H-17.1194C-17.738 15 -18.1674 14.8907 -18.4074 14.672C-18.6474 14.448 -18.7674 14.112 -18.7674 13.664V11.696C-18.7674 11.248 -18.6474 10.9147 -18.4074 10.696C-18.1674 10.472 -17.738 10.36 -17.1194 10.36H-15.0714H-13.4474V11.416H-15.7194H-16.5034C-16.8447 11.416 -17.074 11.48 -17.1914 11.608C-17.3034 11.736 -17.362 11.912 -17.3674 12.136H-16.9674H-13.4474V13.192H-16.9674ZM-6.69018 12.344H-5.04218C-4.67418 12.344 -4.43685 12.2853 -4.33018 12.168C-4.22352 12.0507 -4.17018 11.9547 -4.17018 11.88C-4.17018 11.8053 -4.22352 11.7093 -4.33018 11.592C-4.43685 11.4747 -4.67418 11.416 -5.04218 11.416H-5.82618H-6.69018V12.344ZM-6.69018 13.4V15H-8.08218L-8.09018 13.664V11.696L-8.08218 10.36H-6.44218H-4.39418C-3.77018 10.36 -3.34352 10.4747 -3.11418 10.704C-2.88485 10.9333 -2.77018 11.264 -2.77018 11.696V11.896V12.064C-2.77018 12.496 -2.88485 12.8267 -3.11418 13.056C-3.34352 13.2853 -3.77018 13.4 -4.39418 13.4H-5.20218H-5.82618H-6.69018ZM-0.472685 12.344H1.17532C1.54332 12.344 1.78065 12.2853 1.88732 12.168C1.99398 12.0507 2.04732 11.9547 2.04732 11.88C2.04732 11.8053 1.99398 11.7093 1.88732 11.592C1.78065 11.4747 1.54332 11.416 1.17532 11.416H0.391315H-0.472685V12.344ZM1.95932 13.4L3.51132 15H1.94332L0.391315 13.4H-0.472685V15H-1.86469V10.36H-0.224685H1.82332C2.44732 10.36 2.87398 10.4747 3.10332 10.704C3.33265 10.9333 3.44732 11.264 3.44732 11.696V11.896V12.064C3.44732 12.496 3.33265 12.8267 3.10332 13.056C2.87398 13.2853 2.56198 13.4 2.16732 13.4H1.95932ZM6.14481 13.192H5.74481C5.75015 13.4373 5.80881 13.624 5.92081 13.752C6.03815 13.88 6.26748 13.944 6.60881 13.944H7.39281H9.66481V15H8.04081H5.99281C5.37415 15 4.94481 14.8907 4.70481 14.672C4.46481 14.448 4.34481 14.112 4.34481 13.664V11.696C4.34481 11.248 4.46481 10.9147 4.70481 10.696C4.94481 10.472 5.37415 10.36 5.99281 10.36H8.04081H9.66481V11.416H7.39281H6.60881C6.26748 11.416 6.03815 11.48 5.92081 11.608C5.80881 11.736 5.75015 11.912 5.74481 12.136H6.14481H9.66481V13.192H6.14481ZM16.1383 14.144C16.0903 14.3467 15.973 14.5413 15.7863 14.728C15.605 14.9093 15.3436 15 15.0023 15H10.5703V13.944H14.2423C14.3596 13.944 14.405 13.9067 14.3783 13.832C14.357 13.7573 14.3276 13.712 14.2903 13.696L11.1543 12.536C10.765 12.4027 10.5703 12.1307 10.5703 11.72C10.5703 11.5387 10.581 11.408 10.6023 11.328C10.6503 11.2427 10.6903 11.128 10.7223 10.984C10.7596 10.8347 10.9196 10.6933 11.2023 10.56C11.4903 10.4267 11.829 10.36 12.2183 10.36H16.1383V11.448H15.0823H12.2183C12.133 11.448 12.085 11.496 12.0743 11.592C12.085 11.656 12.0983 11.688 12.1143 11.688L15.5943 13C15.8236 13.0907 15.9756 13.256 16.0503 13.496C16.1303 13.7307 16.1596 13.9467 16.1383 14.144ZM20.5576 13.192H18.4376V15H17.0456L17.0376 13.664V11.696C17.0376 11.248 17.1576 10.9147 17.3976 10.696C17.6376 10.472 18.067 10.36 18.6856 10.36H20.7096C21.3283 10.36 21.7576 10.472 21.9976 10.696C22.2376 10.9147 22.3576 11.248 22.3576 11.696V13.664L22.3496 15H20.9576V13.192H20.5576ZM20.2456 12.136H20.9576C20.9523 11.912 20.891 11.736 20.7736 11.608C20.6616 11.48 20.435 11.416 20.0936 11.416H19.3016C18.9603 11.416 18.731 11.48 18.6136 11.608C18.5016 11.736 18.443 11.912 18.4376 12.136H20.2456ZM28.5751 14.312V15H24.9031C24.2845 15 23.8551 14.8907 23.6151 14.672C23.3751 14.448 23.2551 14.112 23.2551 13.664V10.36H24.6631V13.208C24.6631 13.4427 24.7191 13.624 24.8311 13.752C24.9485 13.88 25.1778 13.944 25.5191 13.944H28.5751V14.312ZM31.2726 13.192H30.8726C30.878 13.4373 30.9366 13.624 31.0486 13.752C31.166 13.88 31.3953 13.944 31.7366 13.944H32.5206H34.7926V15H33.1686H31.1206C30.502 15 30.0726 14.8907 29.8326 14.672C29.5926 14.448 29.4726 14.112 29.4726 13.664V11.696C29.4726 11.248 29.5926 10.9147 29.8326 10.696C30.0726 10.472 30.502 10.36 31.1206 10.36H33.1686H34.7926V11.416H32.5206H31.7366C31.3953 11.416 31.166 11.48 31.0486 11.608C30.9366 11.736 30.878 11.912 30.8726 12.136H31.2726H34.7926V13.192H31.2726ZM41.5498 12.344H43.1978C43.5658 12.344 43.8031 12.2853 43.9098 12.168C44.0165 12.0507 44.0698 11.9547 44.0698 11.88C44.0698 11.8053 44.0165 11.7093 43.9098 11.592C43.8031 11.4747 43.5658 11.416 43.1978 11.416H42.4138H41.5498V12.344ZM43.9818 13.4L45.5338 15H43.9658L42.4138 13.4H41.5498V15H40.1578V10.36H41.7978H43.8458C44.4698 10.36 44.8965 10.4747 45.1258 10.704C45.3551 10.9333 45.4698 11.264 45.4698 11.696V11.896V12.064C45.4698 12.496 45.3551 12.8267 45.1258 13.056C44.8965 13.2853 44.5845 13.4 44.1898 13.4H43.9818ZM48.1673 13.192H47.7673C47.7726 13.4373 47.8313 13.624 47.9433 13.752C48.0606 13.88 48.29 13.944 48.6313 13.944H49.4153H51.6873V15H50.0633H48.0153C47.3966 15 46.9673 14.8907 46.7273 14.672C46.4873 14.448 46.3673 14.112 46.3673 13.664V11.696C46.3673 11.248 46.4873 10.9147 46.7273 10.696C46.9673 10.472 47.3966 10.36 48.0153 10.36H50.0633H51.6873V11.416H49.4153H48.6313C48.29 11.416 48.0606 11.48 47.9433 11.608C47.8313 11.736 47.7726 11.912 47.7673 12.136H48.1673H51.6873V13.192H48.1673ZM56.8008 15H54.2328C53.6141 15 53.1848 14.8907 52.9448 14.672C52.7048 14.448 52.5848 14.112 52.5848 13.664V10.36H53.9928V13.208C53.9928 13.4427 54.0488 13.624 54.1608 13.752C54.2781 13.88 54.5075 13.944 54.8488 13.944H55.2488L55.2568 10.36H56.6728V13.944H57.1208C57.4888 13.944 57.7261 13.8853 57.8328 13.768C57.9395 13.6507 57.9928 13.464 57.9928 13.208V10.36H59.3928V13.664C59.3928 14.096 59.2781 14.4267 59.0488 14.656C58.8195 14.8853 58.3928 15 57.7688 15H56.8008ZM63.8067 13.192H61.6867V15H60.2947L60.2867 13.664V11.696C60.2867 11.248 60.4067 10.9147 60.6467 10.696C60.8867 10.472 61.316 10.36 61.9347 10.36H63.9587C64.5773 10.36 65.0067 10.472 65.2467 10.696C65.4867 10.9147 65.6067 11.248 65.6067 11.696V13.664L65.5987 15H64.2067V13.192H63.8067ZM63.4947 12.136H64.2067C64.2013 11.912 64.14 11.736 64.0227 11.608C63.9107 11.48 63.684 11.416 63.3427 11.416H62.5507C62.2093 11.416 61.98 11.48 61.8627 11.608C61.7507 11.736 61.692 11.912 61.6867 12.136H63.4947ZM67.9042 12.344H69.5522C69.9202 12.344 70.1575 12.2853 70.2642 12.168C70.3708 12.0507 70.4242 11.9547 70.4242 11.88C70.4242 11.8053 70.3708 11.7093 70.2642 11.592C70.1575 11.4747 69.9202 11.416 69.5522 11.416H68.7682H67.9042V12.344ZM70.3362 13.4L71.8882 15H70.3202L68.7682 13.4H67.9042V15H66.5122V10.36H68.1522H70.2002C70.8242 10.36 71.2508 10.4747 71.4802 10.704C71.7095 10.9333 71.8242 11.264 71.8242 11.696V11.896V12.064C71.8242 12.496 71.7095 12.8267 71.4802 13.056C71.2508 13.2853 70.9388 13.4 70.5442 13.4H70.3362ZM74.1217 11.416V13.944H74.9937H75.7777C76.119 13.944 76.3457 13.88 76.4577 13.752C76.575 13.624 76.6337 13.4427 76.6337 13.208V12.152C76.6337 11.9173 76.575 11.736 76.4577 11.608C76.3457 11.48 76.119 11.416 75.7777 11.416H74.9937H74.1217ZM72.7297 15V10.36H74.3457H76.3937C77.0123 10.36 77.4417 10.472 77.6817 10.696C77.9217 10.9147 78.0417 11.248 78.0417 11.696V13.664C78.0417 14.112 77.9217 14.448 77.6817 14.672C77.4417 14.8907 77.0123 15 76.3937 15H74.3457H72.7297ZM84.5152 14.144C84.4672 14.3467 84.3499 14.5413 84.1632 14.728C83.9819 14.9093 83.7205 15 83.3792 15H78.9472V13.944H82.6192C82.7365 13.944 82.7819 13.9067 82.7552 13.832C82.7339 13.7573 82.7045 13.712 82.6672 13.696L79.5312 12.536C79.1419 12.4027 78.9472 12.1307 78.9472 11.72C78.9472 11.5387 78.9579 11.408 78.9792 11.328C79.0272 11.2427 79.0672 11.128 79.0992 10.984C79.1365 10.8347 79.2965 10.6933 79.5792 10.56C79.8672 10.4267 80.2059 10.36 80.5952 10.36H84.5152V11.448H83.4592H80.5952C80.5099 11.448 80.4619 11.496 80.4512 11.592C80.4619 11.656 80.4752 11.688 80.4912 11.688L83.9712 13C84.2005 13.0907 84.3525 13.256 84.4272 13.496C84.5072 13.7307 84.5365 13.9467 84.5152 14.144Z"
            fill="#0D0D0D" />
    </g>
    <g filter="url(#filter2_d_2057_328)">
        <mask id="mask0_2057_328" style="mask-type:luminance" maskUnits="userSpaceOnUse" x="121" y="12" width="23"
            height="8">
            <path d="M121.168 12.6303H143.835V20.0001H121.168V12.6303Z" fill="white" />
        </mask>
        <g mask="url(#mask0_2057_328)">
            <path d="M122.346 12.8699L129.132 19.6564H143.445L136.658 12.8699H122.346Z" fill="#F95D51" />
        </g>
        <mask id="mask1_2057_328" style="mask-type:luminance" maskUnits="userSpaceOnUse" x="114" y="6" width="42"
            height="14">
            <path d="M114.5 6.00009H155.833V20.0001H114.5V6.00009Z" fill="white" />
        </mask>
        <g mask="url(#mask1_2057_328)">
            <path
                d="M115.609 6.02613L120.839 11.2553C122.828 11.2501 131.516 11.2397 138.188 11.2397L146.583 19.6407H155.057L141.443 6.02613C141.026 6.00009 115.609 6.02613 115.609 6.02613ZM140.354 8.79176C139.984 8.79176 139.682 8.49488 139.682 8.11988C139.682 7.75009 139.984 7.45321 140.354 7.45321C140.724 7.45321 141.026 7.75009 141.026 8.11988C141.026 8.49488 140.724 8.79176 140.354 8.79176Z"
                fill="#F95D51" />
        </g>
        <mask id="mask2_2057_328" style="mask-type:luminance" maskUnits="userSpaceOnUse" x="143" y="6" width="21"
            height="14">
            <path d="M143.834 6.00009H163.834V20.0001H143.834V6.00009Z" fill="white" />
        </mask>
        <g mask="url(#mask2_2057_328)">
            <path d="M145.324 6.00009L158.746 19.4272H163.559L150.132 6.00009H145.324Z" fill="#F95D51" />
        </g>
        <g filter="url(#filter3_ddi_2057_328)">
            <path
                d="M153.324 6L166.751 19.4271L280.824 19.4271L267.824 6H153.324ZM277.21 11.0313C276.408 11.0313 275.757 10.3802 275.757 9.57813C275.757 8.77604 276.408 8.125 277.21 8.125C278.012 8.125 278.663 8.77604 278.663 9.57813C278.663 10.3802 278.012 11.0313 277.21 11.0313Z"
                fill="#F95D51" />
        </g>
        <path
            d="M175.907 13.1921H175.507V15.0001H174.115L174.107 13.6641V11.6961C174.107 11.2481 174.227 10.9148 174.467 10.6961C174.707 10.4721 175.136 10.3601 175.755 10.3601H177.803H179.427V11.4161H177.155H176.371C176.03 11.4161 175.8 11.4801 175.683 11.6081C175.571 11.7361 175.512 11.9121 175.507 12.1361H175.907H179.427V13.1921H175.907ZM181.724 15.0001H180.332V10.3601H181.732V13.2081L181.724 15.0001ZM184.02 12.3441H185.668C186.036 12.3441 186.273 12.2854 186.38 12.1681C186.487 12.0508 186.54 11.9548 186.54 11.8801C186.54 11.8054 186.487 11.7094 186.38 11.5921C186.273 11.4748 186.036 11.4161 185.668 11.4161H184.884H184.02V12.3441ZM186.452 13.4001L188.004 15.0001H186.436L184.884 13.4001H184.02V15.0001H182.628V10.3601H184.268H186.316C186.94 10.3601 187.367 10.4748 187.596 10.7041C187.825 10.9334 187.94 11.2641 187.94 11.6961V11.8961V12.0641C187.94 12.4961 187.825 12.8268 187.596 13.0561C187.367 13.2854 187.055 13.4001 186.66 13.4001H186.452ZM194.413 14.1441C194.365 14.3468 194.248 14.5414 194.061 14.7281C193.88 14.9094 193.619 15.0001 193.277 15.0001H188.845V13.9441H192.517C192.635 13.9441 192.68 13.9068 192.653 13.8321C192.632 13.7574 192.603 13.7121 192.565 13.6961L189.429 12.5361C189.04 12.4028 188.845 12.1308 188.845 11.7201C188.845 11.5388 188.856 11.4081 188.877 11.3281C188.925 11.2428 188.965 11.1281 188.997 10.9841C189.035 10.8348 189.195 10.6934 189.477 10.5601C189.765 10.4268 190.104 10.3601 190.493 10.3601H194.413V11.4481H193.357H190.493C190.408 11.4481 190.36 11.4961 190.349 11.5921C190.36 11.6561 190.373 11.6881 190.389 11.6881L193.869 13.0001C194.099 13.0908 194.251 13.2561 194.325 13.4961C194.405 13.7308 194.435 13.9468 194.413 14.1441ZM197.241 11.4161H195.321V10.3601H196.937H198.985H200.633V11.4161H198.633V15.0001H197.241V11.4161ZM207.39 13.1921V13.9441H208.254H209.038C209.406 13.9441 209.643 13.8854 209.75 13.7681C209.857 13.6508 209.91 13.5548 209.91 13.4801C209.91 13.4054 209.857 13.3388 209.75 13.2801C209.649 13.2214 209.417 13.1921 209.054 13.1921H207.39ZM209.07 12.1361C209.433 12.1361 209.662 12.1121 209.758 12.0641C209.859 12.0161 209.91 11.9548 209.91 11.8801C209.91 11.8054 209.857 11.7094 209.75 11.5921C209.643 11.4748 209.406 11.4161 209.038 11.4161H208.254H207.39V12.1361H209.07ZM210.43 12.7921C211.006 12.9201 211.299 13.1441 211.31 13.4641V13.6641C211.31 14.0961 211.195 14.4268 210.966 14.6561C210.737 14.8854 210.31 15.0001 209.686 15.0001H207.638H205.998L205.99 13.6641V11.6961L205.998 10.3601H207.638H209.686C210.31 10.3601 210.737 10.4748 210.966 10.7041C211.195 10.9334 211.31 11.2641 211.31 11.6961V11.8961C211.31 12.2801 211.017 12.5788 210.43 12.7921ZM213.607 15.0001H212.215V10.3601H213.615V13.2081L213.607 15.0001ZM216.431 11.4161H214.511V10.3601H216.127H218.175H219.823V11.4161H217.823V15.0001H216.431V11.4161ZM226.041 13.6641C226.041 14.0961 225.926 14.4268 225.697 14.6561C225.467 14.8854 225.041 15.0001 224.417 15.0001H222.369C221.75 15.0001 221.321 14.8908 221.081 14.6721C220.841 14.4481 220.721 14.1121 220.721 13.6641V11.6961C220.721 11.2481 220.841 10.9148 221.081 10.6961C221.321 10.4721 221.75 10.3601 222.369 10.3601H224.417C225.041 10.3601 225.467 10.4748 225.697 10.7041C225.926 10.9334 226.041 11.2641 226.041 11.6961V12.1521H224.641C224.641 11.8961 224.587 11.7094 224.481 11.5921C224.374 11.4748 224.137 11.4161 223.769 11.4161H222.985C222.643 11.4161 222.414 11.4801 222.297 11.6081C222.185 11.7361 222.129 11.9174 222.129 12.1521V13.2081C222.129 13.4428 222.185 13.6241 222.297 13.7521C222.414 13.8801 222.643 13.9441 222.985 13.9441H223.769C224.137 13.9441 224.374 13.8854 224.481 13.7681C224.587 13.6508 224.641 13.4641 224.641 13.2081H226.041V13.6641ZM232.258 13.6641C232.258 14.0961 232.143 14.4268 231.914 14.6561C231.685 14.8854 231.258 15.0001 230.634 15.0001H228.586C227.967 15.0001 227.538 14.8908 227.298 14.6721C227.058 14.4481 226.938 14.1121 226.938 13.6641V11.6961C226.938 11.2481 227.058 10.9148 227.298 10.6961C227.538 10.4721 227.967 10.3601 228.586 10.3601H230.634C231.258 10.3601 231.685 10.4748 231.914 10.7041C232.143 10.9334 232.258 11.2641 232.258 11.6961V13.6641ZM230.858 13.2161V12.1521C230.858 11.8961 230.805 11.7094 230.698 11.5921C230.591 11.4748 230.354 11.4161 229.986 11.4161H229.202C228.861 11.4161 228.631 11.4801 228.514 11.6081C228.402 11.7361 228.346 11.9174 228.346 12.1521V13.2081C228.346 13.4428 228.402 13.6241 228.514 13.7521C228.631 13.8801 228.861 13.9441 229.202 13.9441H229.986C230.354 13.9441 230.589 13.8854 230.69 13.7681C230.791 13.6508 230.847 13.4668 230.858 13.2161ZM234.556 15.0001H233.164V10.3601H234.564V13.2081L234.556 15.0001ZM240.771 11.6961V15.0001H239.371V12.1521C239.371 11.8961 239.318 11.7094 239.211 11.5921C239.105 11.4748 238.867 11.4161 238.499 11.4161H237.715C237.374 11.4161 237.145 11.4801 237.027 11.6081C236.915 11.7361 236.859 11.9174 236.859 12.1521V15.0001H235.451V11.6961C235.451 11.2481 235.571 10.9148 235.811 10.6961C236.051 10.4721 236.481 10.3601 237.099 10.3601H239.147C239.771 10.3601 240.198 10.4748 240.427 10.7041C240.657 10.9334 240.771 11.2641 240.771 11.6961ZM251.448 14.3121V15.0001H247.776C247.158 15.0001 246.728 14.8908 246.488 14.6721C246.248 14.4481 246.128 14.1121 246.128 13.6641V10.3601H247.536V13.2081C247.536 13.4428 247.592 13.6241 247.704 13.7521C247.822 13.8801 248.051 13.9441 248.392 13.9441H251.448V14.3121ZM257.922 11.2161C257.943 11.4134 257.914 11.6321 257.834 11.8721C257.759 12.1068 257.607 12.2694 257.378 12.3601L253.898 13.6721L253.89 13.9121H256.866H257.922V15.0001H254.002H252.354V13.6401C252.354 13.2294 252.549 12.9574 252.938 12.8241L256.074 11.6641C256.111 11.6481 256.141 11.6028 256.162 11.5281C256.189 11.4534 256.143 11.4161 256.026 11.4161H252.354V10.3601H256.786C257.127 10.3601 257.389 10.4534 257.57 10.6401C257.757 10.8214 257.874 11.0134 257.922 11.2161Z"
            fill="#0D0D0D" />
    </g>
    <g filter="url(#filter4_d_2057_328)">
        <mask id="mask3_2057_328" style="mask-type:luminance" maskUnits="userSpaceOnUse" x="284" y="12" width="24"
            height="8">
            <path d="M284.992 12.6303H307.659V20.0001H284.992V12.6303Z" fill="white" />
        </mask>
        <g mask="url(#mask3_2057_328)">
            <path d="M286.17 12.8699L292.956 19.6564H307.269L300.482 12.8699H286.17Z" fill="#00FFFF" />
        </g>
        <mask id="mask4_2057_328" style="mask-type:luminance" maskUnits="userSpaceOnUse" x="278" y="6" width="42"
            height="14">
            <path d="M278.324 6.00009H319.658V20.0001H278.324V6.00009Z" fill="white" />
        </mask>
        <g mask="url(#mask4_2057_328)">
            <path
                d="M279.434 6.02613L284.663 11.2553C286.652 11.2501 295.34 11.2397 302.012 11.2397L310.408 19.6407H318.882L305.267 6.02613C304.85 6.00009 279.434 6.02613 279.434 6.02613ZM304.178 8.79176C303.809 8.79176 303.507 8.49488 303.507 8.11988C303.507 7.75009 303.809 7.45321 304.178 7.45321C304.548 7.45321 304.85 7.75009 304.85 8.11988C304.85 8.49488 304.548 8.79176 304.178 8.79176Z"
                fill="#00FFFF" />
        </g>
        <mask id="mask5_2057_328" style="mask-type:luminance" maskUnits="userSpaceOnUse" x="307" y="6" width="21"
            height="14">
            <path d="M307.658 6.00009H327.658V20.0001H307.658V6.00009Z" fill="white" />
        </mask>
        <g mask="url(#mask5_2057_328)">
            <path d="M309.148 6.00009L322.57 19.4272H327.383L313.956 6.00009H309.148Z" fill="#00FFFF" />
        </g>
        <g filter="url(#filter5_ddi_2057_328)">
            <path
                d="M317.148 6.00001L330.576 19.4271L465.824 19.4271L452.824 6L317.148 6.00001ZM462.21 11.0313C461.408 11.0313 460.757 10.3802 460.757 9.57813C460.757 8.77604 461.408 8.125 462.21 8.125C463.012 8.125 463.663 8.77604 463.663 9.57813C463.663 10.3802 463.012 11.0313 462.21 11.0313Z"
                fill="#00FFFF" />
        </g>
        <path
            d="M339.201 13.192V13.944H340.065H340.849C341.217 13.944 341.454 13.8853 341.561 13.768C341.667 13.6507 341.721 13.5547 341.721 13.48C341.721 13.4053 341.667 13.3387 341.561 13.28C341.459 13.2213 341.227 13.192 340.865 13.192H339.201ZM340.881 12.136C341.243 12.136 341.473 12.112 341.569 12.064C341.67 12.016 341.721 11.9547 341.721 11.88C341.721 11.8053 341.667 11.7093 341.561 11.592C341.454 11.4747 341.217 11.416 340.849 11.416H340.065H339.201V12.136H340.881ZM342.241 12.792C342.817 12.92 343.11 13.144 343.121 13.464V13.664C343.121 14.096 343.006 14.4267 342.777 14.656C342.547 14.8853 342.121 15 341.497 15H339.449H337.809L337.801 13.664V11.696L337.809 10.36H339.449H341.497C342.121 10.36 342.547 10.4747 342.777 10.704C343.006 10.9333 343.121 11.264 343.121 11.696V11.896C343.121 12.28 342.827 12.5787 342.241 12.792ZM345.418 15H344.026V10.36H345.426V13.208L345.418 15ZM348.242 11.416H346.322V10.36H347.938H349.986H351.634V11.416H349.634V15H348.242V11.416ZM357.851 13.664C357.851 14.096 357.737 14.4267 357.507 14.656C357.278 14.8853 356.851 15 356.227 15H354.179C353.561 15 353.131 14.8907 352.891 14.672C352.651 14.448 352.531 14.112 352.531 13.664V11.696C352.531 11.248 352.651 10.9147 352.891 10.696C353.131 10.472 353.561 10.36 354.179 10.36H356.227C356.851 10.36 357.278 10.4747 357.507 10.704C357.737 10.9333 357.851 11.264 357.851 11.696V12.152H356.451C356.451 11.896 356.398 11.7093 356.291 11.592C356.185 11.4747 355.947 11.416 355.579 11.416H354.795C354.454 11.416 354.225 11.48 354.107 11.608C353.995 11.736 353.939 11.9173 353.939 12.152V13.208C353.939 13.4427 353.995 13.624 354.107 13.752C354.225 13.88 354.454 13.944 354.795 13.944H355.579C355.947 13.944 356.185 13.8853 356.291 13.768C356.398 13.6507 356.451 13.464 356.451 13.208H357.851V13.664ZM364.069 13.664C364.069 14.096 363.954 14.4267 363.725 14.656C363.496 14.8853 363.069 15 362.445 15H360.397C359.778 15 359.349 14.8907 359.109 14.672C358.869 14.448 358.749 14.112 358.749 13.664V11.696C358.749 11.248 358.869 10.9147 359.109 10.696C359.349 10.472 359.778 10.36 360.397 10.36H362.445C363.069 10.36 363.496 10.4747 363.725 10.704C363.954 10.9333 364.069 11.264 364.069 11.696V13.664ZM362.669 13.216V12.152C362.669 11.896 362.616 11.7093 362.509 11.592C362.402 11.4747 362.165 11.416 361.797 11.416H361.013C360.672 11.416 360.442 11.48 360.325 11.608C360.213 11.736 360.157 11.9173 360.157 12.152V13.208C360.157 13.4427 360.213 13.624 360.325 13.752C360.442 13.88 360.672 13.944 361.013 13.944H361.797C362.165 13.944 362.4 13.8853 362.501 13.768C362.602 13.6507 362.658 13.4667 362.669 13.216ZM366.366 15H364.974V10.36H366.374V13.208L366.366 15ZM372.582 11.696V15H371.182V12.152C371.182 11.896 371.129 11.7093 371.022 11.592C370.915 11.4747 370.678 11.416 370.31 11.416H369.526C369.185 11.416 368.955 11.48 368.838 11.608C368.726 11.736 368.67 11.9173 368.67 12.152V15H367.262V11.696C367.262 11.248 367.382 10.9147 367.622 10.696C367.862 10.472 368.291 10.36 368.91 10.36H370.958C371.582 10.36 372.009 10.4747 372.238 10.704C372.467 10.9333 372.582 11.264 372.582 11.696ZM383.259 12.424V15H381.643H379.595C378.977 15 378.547 14.8907 378.307 14.672C378.067 14.448 377.947 14.112 377.947 13.664V11.696C377.947 11.248 378.067 10.9147 378.307 10.696C378.547 10.472 378.977 10.36 379.595 10.36H381.643H383.259V11.416H381.867H380.995H380.211C379.87 11.416 379.641 11.48 379.523 11.608C379.411 11.736 379.355 11.9173 379.355 12.152V13.208C379.355 13.4427 379.411 13.624 379.523 13.752C379.641 13.88 379.87 13.944 380.211 13.944H380.995H381.867V12.424H383.259ZM385.557 12.344H387.205C387.573 12.344 387.81 12.2853 387.917 12.168C388.023 12.0507 388.077 11.9547 388.077 11.88C388.077 11.8053 388.023 11.7093 387.917 11.592C387.81 11.4747 387.573 11.416 387.205 11.416H386.421H385.557V12.344ZM387.989 13.4L389.541 15H387.973L386.421 13.4H385.557V15H384.165V10.36H385.805H387.853C388.477 10.36 388.903 10.4747 389.133 10.704C389.362 10.9333 389.477 11.264 389.477 11.696V11.896V12.064C389.477 12.496 389.362 12.8267 389.133 13.056C388.903 13.2853 388.591 13.4 388.197 13.4H387.989ZM392.174 13.192H391.774C391.78 13.4373 391.838 13.624 391.95 13.752C392.068 13.88 392.297 13.944 392.638 13.944H393.422H395.694V15H394.07H392.022C391.404 15 390.974 14.8907 390.734 14.672C390.494 14.448 390.374 14.112 390.374 13.664V11.696C390.374 11.248 390.494 10.9147 390.734 10.696C390.974 10.472 391.404 10.36 392.022 10.36H394.07H395.694V11.416H393.422H392.638C392.297 11.416 392.068 11.48 391.95 11.608C391.838 11.736 391.78 11.912 391.774 12.136H392.174H395.694V13.192H392.174ZM400.112 13.192H397.992V15H396.6L396.592 13.664V11.696C396.592 11.248 396.712 10.9147 396.952 10.696C397.192 10.472 397.621 10.36 398.24 10.36H400.264C400.882 10.36 401.312 10.472 401.552 10.696C401.792 10.9147 401.912 11.248 401.912 11.696V13.664L401.904 15H400.512V13.192H400.112ZM399.8 12.136H400.512C400.506 11.912 400.445 11.736 400.328 11.608C400.216 11.48 399.989 11.416 399.648 11.416H398.856C398.514 11.416 398.285 11.48 398.168 11.608C398.056 11.736 397.997 11.912 397.992 12.136H399.8ZM404.737 11.416H402.817V10.36H404.433H406.481H408.129V11.416H406.129V15H404.737V11.416ZM417.006 13.192H414.886V15H413.494L413.486 13.664V11.696C413.486 11.248 413.606 10.9147 413.846 10.696C414.086 10.472 414.516 10.36 415.134 10.36H417.158C417.777 10.36 418.206 10.472 418.446 10.696C418.686 10.9147 418.806 11.248 418.806 11.696V13.664L418.798 15H417.406V13.192H417.006ZM416.694 12.136H417.406C417.401 11.912 417.34 11.736 417.222 11.608C417.11 11.48 416.884 11.416 416.542 11.416H415.75C415.409 11.416 415.18 11.48 415.062 11.608C414.95 11.736 414.892 11.912 414.886 12.136H416.694ZM425.024 12.424V15H423.408H421.36C420.741 15 420.312 14.8907 420.072 14.672C419.832 14.448 419.712 14.112 419.712 13.664V11.696C419.712 11.248 419.832 10.9147 420.072 10.696C420.312 10.472 420.741 10.36 421.36 10.36H423.408H425.024V11.416H423.632H422.76H421.976C421.635 11.416 421.405 11.48 421.288 11.608C421.176 11.736 421.12 11.9173 421.12 12.152V13.208C421.12 13.4427 421.176 13.624 421.288 13.752C421.405 13.88 421.635 13.944 421.976 13.944H422.76H423.632V12.424H425.024ZM429.441 13.192H427.321V15H425.929L425.921 13.664V11.696C425.921 11.248 426.041 10.9147 426.281 10.696C426.521 10.472 426.951 10.36 427.569 10.36H429.593C430.212 10.36 430.641 10.472 430.881 10.696C431.121 10.9147 431.241 11.248 431.241 11.696V13.664L431.233 15H429.841V13.192H429.441ZM429.129 12.136H429.841C429.836 11.912 429.775 11.736 429.657 11.608C429.545 11.48 429.319 11.416 428.977 11.416H428.185C427.844 11.416 427.615 11.48 427.497 11.608C427.385 11.736 427.327 11.912 427.321 12.136H429.129ZM433.539 15H432.147V10.36H433.547V13.208L433.539 15ZM439.755 11.696V15H438.355V12.152C438.355 11.896 438.301 11.7093 438.195 11.592C438.088 11.4747 437.851 11.416 437.483 11.416H436.699C436.357 11.416 436.128 11.48 436.011 11.608C435.899 11.736 435.843 11.9173 435.843 12.152V15H434.435V11.696C434.435 11.248 434.555 10.9147 434.795 10.696C435.035 10.472 435.464 10.36 436.083 10.36H438.131C438.755 10.36 439.181 10.4747 439.411 10.704C439.64 10.9333 439.755 11.264 439.755 11.696Z"
            fill="#0D0D0D" />
    </g>
    <g filter="url(#filter6_d_2057_328)">
        <mask id="mask6_2057_328" style="mask-type:luminance" maskUnits="userSpaceOnUse" x="469" y="12" width="24"
            height="8">
            <path d="M469.992 12.6303H492.659V20.0001H469.992V12.6303Z" fill="white" />
        </mask>
        <g mask="url(#mask6_2057_328)">
            <path d="M471.17 12.8699L477.956 19.6564H492.269L485.482 12.8699H471.17Z" fill="#EBB4B8" />
        </g>
        <mask id="mask7_2057_328" style="mask-type:luminance" maskUnits="userSpaceOnUse" x="463" y="6" width="42"
            height="14">
            <path d="M463.324 6.00009H504.658V20.0001H463.324V6.00009Z" fill="white" />
        </mask>
        <g mask="url(#mask7_2057_328)">
            <path
                d="M464.434 6.02613L469.663 11.2553C471.652 11.2501 480.34 11.2397 487.012 11.2397L495.408 19.6407H503.882L490.267 6.02613C489.85 6.00009 464.434 6.02613 464.434 6.02613ZM489.178 8.79176C488.809 8.79176 488.507 8.49488 488.507 8.11988C488.507 7.75009 488.809 7.45321 489.178 7.45321C489.548 7.45321 489.85 7.75009 489.85 8.11988C489.85 8.49488 489.548 8.79176 489.178 8.79176Z"
                fill="#EBB4B8" />
        </g>
        <mask id="mask8_2057_328" style="mask-type:luminance" maskUnits="userSpaceOnUse" x="492" y="6" width="21"
            height="14">
            <path d="M492.658 6.00009H512.658V20.0001H492.658V6.00009Z" fill="white" />
        </mask>
        <g mask="url(#mask8_2057_328)">
            <path d="M494.148 6.00009L507.57 19.4272H512.383L498.956 6.00009H494.148Z" fill="#EBB4B8" />
        </g>
        <g filter="url(#filter7_ddi_2057_328)">
            <path
                d="M502.148 6.00002L515.576 19.4271L704.824 19.4271L691.824 6L502.148 6.00002ZM701.21 11.0313C700.408 11.0313 699.757 10.3802 699.757 9.57813C699.757 8.77604 700.408 8.125 701.21 8.125C702.012 8.125 702.663 8.77604 702.663 9.57813C702.663 10.3802 702.012 11.0313 701.21 11.0313Z"
                fill="#EBB4B8" />
        </g>
        <path
            d="M532.479 14.144C532.431 14.3467 532.313 14.5413 532.127 14.728C531.945 14.9093 531.684 15 531.343 15H526.911V13.944H530.583C530.7 13.944 530.745 13.9067 530.719 13.832C530.697 13.7573 530.668 13.712 530.631 13.696L527.495 12.536C527.105 12.4027 526.911 12.1307 526.911 11.72C526.911 11.5387 526.921 11.408 526.943 11.328C526.991 11.2427 527.031 11.128 527.063 10.984C527.1 10.8347 527.26 10.6933 527.543 10.56C527.831 10.4267 528.169 10.36 528.559 10.36H532.479V11.448H531.423H528.559C528.473 11.448 528.425 11.496 528.415 11.592C528.425 11.656 528.439 11.688 528.455 11.688L531.935 13C532.164 13.0907 532.316 13.256 532.391 13.496C532.471 13.7307 532.5 13.9467 532.479 14.144ZM536.898 13.192H534.778V15H533.386L533.378 13.664V11.696C533.378 11.248 533.498 10.9147 533.738 10.696C533.978 10.472 534.407 10.36 535.026 10.36H537.05C537.669 10.36 538.098 10.472 538.338 10.696C538.578 10.9147 538.698 11.248 538.698 11.696V13.664L538.69 15H537.298V13.192H536.898ZM536.586 12.136H537.298C537.293 11.912 537.231 11.736 537.114 11.608C537.002 11.48 536.775 11.416 536.434 11.416H535.642C535.301 11.416 535.071 11.48 534.954 11.608C534.842 11.736 534.783 11.912 534.778 12.136H536.586ZM541.524 11.416H539.604V10.36H541.22H543.268H544.916V11.416H542.916V15H541.524V11.416ZM551.133 13.664C551.133 14.096 551.018 14.4267 550.789 14.656C550.56 14.8853 550.133 15 549.509 15H547.461C546.842 15 546.413 14.8907 546.173 14.672C545.933 14.448 545.813 14.112 545.813 13.664V11.696C545.813 11.248 545.933 10.9147 546.173 10.696C546.413 10.472 546.842 10.36 547.461 10.36H549.509C550.133 10.36 550.56 10.4747 550.789 10.704C551.018 10.9333 551.133 11.264 551.133 11.696V13.664ZM549.733 13.216V12.152C549.733 11.896 549.68 11.7093 549.573 11.592C549.466 11.4747 549.229 11.416 548.861 11.416H548.077C547.736 11.416 547.506 11.48 547.389 11.608C547.277 11.736 547.221 11.9173 547.221 12.152V13.208C547.221 13.4427 547.277 13.624 547.389 13.752C547.506 13.88 547.736 13.944 548.077 13.944H548.861C549.229 13.944 549.464 13.8853 549.565 13.768C549.666 13.6507 549.722 13.4667 549.733 13.216ZM555.943 10.36H557.351C556.785 12.4827 556.481 13.592 556.439 13.688C556.359 13.944 556.188 14.2267 555.927 14.536C555.671 14.8453 555.391 15 555.087 15H554.295C554.039 15 553.769 14.8453 553.487 14.536C553.204 14.2267 553.025 13.9493 552.951 13.704C552.887 13.5973 552.58 12.4827 552.031 10.36H553.439L554.151 13.208C554.225 13.4533 554.313 13.6267 554.415 13.728C554.516 13.8293 554.609 13.8853 554.695 13.896C554.78 13.8853 554.871 13.8293 554.967 13.728C555.068 13.6267 555.156 13.4533 555.231 13.208L555.943 10.36ZM560.048 13.192H559.648C559.653 13.4373 559.712 13.624 559.824 13.752C559.941 13.88 560.171 13.944 560.512 13.944H561.296H563.568V15H561.944H559.896C559.277 15 558.848 14.8907 558.608 14.672C558.368 14.448 558.248 14.112 558.248 13.664V11.696C558.248 11.248 558.368 10.9147 558.608 10.696C558.848 10.472 559.277 10.36 559.896 10.36H561.944H563.568V11.416H561.296H560.512C560.171 11.416 559.941 11.48 559.824 11.608C559.712 11.736 559.653 11.912 559.648 12.136H560.048H563.568V13.192H560.048ZM565.866 12.344H567.514C567.882 12.344 568.119 12.2853 568.226 12.168C568.332 12.0507 568.386 11.9547 568.386 11.88C568.386 11.8053 568.332 11.7093 568.226 11.592C568.119 11.4747 567.882 11.416 567.514 11.416H566.73H565.866V12.344ZM568.298 13.4L569.85 15H568.282L566.73 13.4H565.866V15H564.474V10.36H566.114H568.162C568.786 10.36 569.212 10.4747 569.442 10.704C569.671 10.9333 569.786 11.264 569.786 11.696V11.896V12.064C569.786 12.496 569.671 12.8267 569.442 13.056C569.212 13.2853 568.9 13.4 568.506 13.4H568.298ZM576.259 14.144C576.211 14.3467 576.094 14.5413 575.907 14.728C575.726 14.9093 575.464 15 575.123 15H570.691V13.944H574.363C574.48 13.944 574.526 13.9067 574.499 13.832C574.478 13.7573 574.448 13.712 574.411 13.696L571.275 12.536C570.886 12.4027 570.691 12.1307 570.691 11.72C570.691 11.5387 570.702 11.408 570.723 11.328C570.771 11.2427 570.811 11.128 570.843 10.984C570.88 10.8347 571.04 10.6933 571.323 10.56C571.611 10.4267 571.95 10.36 572.339 10.36H576.259V11.448H575.203H572.339C572.254 11.448 572.206 11.496 572.195 11.592C572.206 11.656 572.219 11.688 572.235 11.688L575.715 13C575.944 13.0907 576.096 13.256 576.171 13.496C576.251 13.7307 576.28 13.9467 576.259 14.144ZM578.958 13.192H578.558C578.564 13.4373 578.622 13.624 578.734 13.752C578.852 13.88 579.081 13.944 579.422 13.944H580.206H582.478V15H580.854H578.806C578.188 15 577.758 14.8907 577.518 14.672C577.278 14.448 577.158 14.112 577.158 13.664V11.696C577.158 11.248 577.278 10.9147 577.518 10.696C577.758 10.472 578.188 10.36 578.806 10.36H580.854H582.478V11.416H580.206H579.422C579.081 11.416 578.852 11.48 578.734 11.608C578.622 11.736 578.564 11.912 578.558 12.136H578.958H582.478V13.192H578.958ZM589.636 13.192H589.236C589.241 13.4373 589.3 13.624 589.412 13.752C589.529 13.88 589.758 13.944 590.1 13.944H590.884H593.156V15H591.532H589.484C588.865 15 588.436 14.8907 588.196 14.672C587.956 14.448 587.836 14.112 587.836 13.664V11.696C587.836 11.248 587.956 10.9147 588.196 10.696C588.436 10.472 588.865 10.36 589.484 10.36H591.532H593.156V11.416H590.884H590.1C589.758 11.416 589.529 11.48 589.412 11.608C589.3 11.736 589.241 11.912 589.236 12.136H589.636H593.156V13.192H589.636ZM596.717 13.192L595.469 15H594.061L595.501 12.68L594.061 10.36H595.469L596.725 12.136L597.965 10.36H599.373L597.933 12.68L599.373 15H597.965L596.717 13.192ZM601.671 12.344H603.319C603.687 12.344 603.924 12.2853 604.031 12.168C604.137 12.0507 604.191 11.9547 604.191 11.88C604.191 11.8053 604.137 11.7093 604.031 11.592C603.924 11.4747 603.687 11.416 603.319 11.416H602.535H601.671V12.344ZM601.671 13.4V15H600.279L600.271 13.664V11.696L600.279 10.36H601.919H603.967C604.591 10.36 605.017 10.4747 605.247 10.704C605.476 10.9333 605.591 11.264 605.591 11.696V11.896V12.064C605.591 12.496 605.476 12.8267 605.247 13.056C605.017 13.2853 604.591 13.4 603.967 13.4H603.159H602.535H601.671ZM610.008 13.192H607.888V15H606.496L606.488 13.664V11.696C606.488 11.248 606.608 10.9147 606.848 10.696C607.088 10.472 607.517 10.36 608.136 10.36H610.16C610.779 10.36 611.208 10.472 611.448 10.696C611.688 10.9147 611.808 11.248 611.808 11.696V13.664L611.8 15H610.408V13.192H610.008ZM609.696 12.136H610.408C610.403 11.912 610.341 11.736 610.224 11.608C610.112 11.48 609.885 11.416 609.544 11.416H608.752C608.411 11.416 608.181 11.48 608.064 11.608C607.952 11.736 607.893 11.912 607.888 12.136H609.696ZM618.026 11.696V15H616.626V12.152C616.626 11.896 616.572 11.7093 616.466 11.592C616.359 11.4747 616.122 11.416 615.754 11.416H614.97C614.628 11.416 614.399 11.48 614.282 11.608C614.17 11.736 614.114 11.9173 614.114 12.152V15H612.706V11.696C612.706 11.248 612.826 10.9147 613.066 10.696C613.306 10.472 613.735 10.36 614.354 10.36H616.402C617.026 10.36 617.452 10.4747 617.682 10.704C617.911 10.9333 618.026 11.264 618.026 11.696ZM620.323 11.416V13.944H621.195H621.979C622.32 13.944 622.547 13.88 622.659 13.752C622.776 13.624 622.835 13.4427 622.835 13.208V12.152C622.835 11.9173 622.776 11.736 622.659 11.608C622.547 11.48 622.32 11.416 621.979 11.416H621.195H620.323ZM618.931 15V10.36H620.547H622.595C623.214 10.36 623.643 10.472 623.883 10.696C624.123 10.9147 624.243 11.248 624.243 11.696V13.664C624.243 14.112 624.123 14.448 623.883 14.672C623.643 14.8907 623.214 15 622.595 15H620.547H618.931ZM626.541 15H625.149V10.36H626.549V13.208L626.541 15ZM632.756 11.696V15H631.356V12.152C631.356 11.896 631.303 11.7093 631.196 11.592C631.09 11.4747 630.852 11.416 630.484 11.416H629.7C629.359 11.416 629.13 11.48 629.012 11.608C628.9 11.736 628.844 11.9173 628.844 12.152V15H627.436V11.696C627.436 11.248 627.556 10.9147 627.796 10.696C628.036 10.472 628.466 10.36 629.084 10.36H631.132C631.756 10.36 632.183 10.4747 632.412 10.704C632.642 10.9333 632.756 11.264 632.756 11.696ZM638.974 12.424V15H637.358H635.31C634.691 15 634.262 14.8907 634.022 14.672C633.782 14.448 633.662 14.112 633.662 13.664V11.696C633.662 11.248 633.782 10.9147 634.022 10.696C634.262 10.472 634.691 10.36 635.31 10.36H637.358H638.974V11.416H637.582H636.71H635.926C635.584 11.416 635.355 11.48 635.238 11.608C635.126 11.736 635.07 11.9173 635.07 12.152V13.208C635.07 13.4427 635.126 13.624 635.238 13.752C635.355 13.88 635.584 13.944 635.926 13.944H636.71H637.582V12.424H638.974ZM645.731 13.192V13.944H646.595H647.379C647.747 13.944 647.984 13.8853 648.091 13.768C648.198 13.6507 648.251 13.5547 648.251 13.48C648.251 13.4053 648.198 13.3387 648.091 13.28C647.99 13.2213 647.758 13.192 647.395 13.192H645.731ZM647.411 12.136C647.774 12.136 648.003 12.112 648.099 12.064C648.2 12.016 648.251 11.9547 648.251 11.88C648.251 11.8053 648.198 11.7093 648.091 11.592C647.984 11.4747 647.747 11.416 647.379 11.416H646.595H645.731V12.136H647.411ZM648.771 12.792C649.347 12.92 649.64 13.144 649.651 13.464V13.664C649.651 14.096 649.536 14.4267 649.307 14.656C649.078 14.8853 648.651 15 648.027 15H645.979H644.339L644.331 13.664V11.696L644.339 10.36H645.979H648.027C648.651 10.36 649.078 10.4747 649.307 10.704C649.536 10.9333 649.651 11.264 649.651 11.696V11.896C649.651 12.28 649.358 12.5787 648.771 12.792ZM651.948 15H650.556V10.36H651.956V13.208L651.948 15ZM654.772 11.416H652.852V10.36H654.468H656.516H658.164V11.416H656.164V15H654.772V11.416ZM664.382 13.664C664.382 14.096 664.267 14.4267 664.038 14.656C663.808 14.8853 663.382 15 662.758 15H660.71C660.091 15 659.662 14.8907 659.422 14.672C659.182 14.448 659.062 14.112 659.062 13.664V11.696C659.062 11.248 659.182 10.9147 659.422 10.696C659.662 10.472 660.091 10.36 660.71 10.36H662.758C663.382 10.36 663.808 10.4747 664.038 10.704C664.267 10.9333 664.382 11.264 664.382 11.696V12.152H662.982C662.982 11.896 662.928 11.7093 662.822 11.592C662.715 11.4747 662.478 11.416 662.11 11.416H661.326C660.984 11.416 660.755 11.48 660.638 11.608C660.526 11.736 660.47 11.9173 660.47 12.152V13.208C660.47 13.4427 660.526 13.624 660.638 13.752C660.755 13.88 660.984 13.944 661.326 13.944H662.11C662.478 13.944 662.715 13.8853 662.822 13.768C662.928 13.6507 662.982 13.464 662.982 13.208H664.382V13.664ZM670.599 13.664C670.599 14.096 670.484 14.4267 670.255 14.656C670.026 14.8853 669.599 15 668.975 15H666.927C666.308 15 665.879 14.8907 665.639 14.672C665.399 14.448 665.279 14.112 665.279 13.664V11.696C665.279 11.248 665.399 10.9147 665.639 10.696C665.879 10.472 666.308 10.36 666.927 10.36H668.975C669.599 10.36 670.026 10.4747 670.255 10.704C670.484 10.9333 670.599 11.264 670.599 11.696V13.664ZM669.199 13.216V12.152C669.199 11.896 669.146 11.7093 669.039 11.592C668.932 11.4747 668.695 11.416 668.327 11.416H667.543C667.202 11.416 666.972 11.48 666.855 11.608C666.743 11.736 666.687 11.9173 666.687 12.152V13.208C666.687 13.4427 666.743 13.624 666.855 13.752C666.972 13.88 667.202 13.944 667.543 13.944H668.327C668.695 13.944 668.93 13.8853 669.031 13.768C669.132 13.6507 669.188 13.4667 669.199 13.216ZM672.897 15H671.505V10.36H672.905V13.208L672.897 15ZM679.112 11.696V15H677.712V12.152C677.712 11.896 677.659 11.7093 677.552 11.592C677.445 11.4747 677.208 11.416 676.84 11.416H676.056C675.715 11.416 675.485 11.48 675.368 11.608C675.256 11.736 675.2 11.9173 675.2 12.152V15H673.792V11.696C673.792 11.248 673.912 10.9147 674.152 10.696C674.392 10.472 674.821 10.36 675.44 10.36H677.488C678.112 10.36 678.539 10.4747 678.768 10.704C678.997 10.9333 679.112 11.264 679.112 11.696Z"
            fill="#0D0D0D" />
    </g>
    <g filter="url(#filter8_d_2057_328)">
        <mask id="mask9_2057_328" style="mask-type:luminance" maskUnits="userSpaceOnUse" x="708" y="12" width="24"
            height="8">
            <path d="M708.992 12.6303H731.659V20.0001H708.992V12.6303Z" fill="white" />
        </mask>
        <g mask="url(#mask9_2057_328)">
            <path d="M710.17 12.8699L716.956 19.6564H731.269L724.482 12.8699H710.17Z" fill="#B8AA8D" />
        </g>
        <mask id="mask10_2057_328" style="mask-type:luminance" maskUnits="userSpaceOnUse" x="702" y="6" width="42"
            height="14">
            <path d="M702.324 6.00009H743.658V20.0001H702.324V6.00009Z" fill="white" />
        </mask>
        <g mask="url(#mask10_2057_328)">
            <path
                d="M703.434 6.02613L708.663 11.2553C710.652 11.2501 719.34 11.2397 726.012 11.2397L734.408 19.6407H742.882L729.267 6.02613C728.85 6.00009 703.434 6.02613 703.434 6.02613ZM728.178 8.79176C727.809 8.79176 727.507 8.49488 727.507 8.11988C727.507 7.75009 727.809 7.45321 728.178 7.45321C728.548 7.45321 728.85 7.75009 728.85 8.11988C728.85 8.49488 728.548 8.79176 728.178 8.79176Z"
                fill="#B8AA8D" />
        </g>
        <mask id="mask11_2057_328" style="mask-type:luminance" maskUnits="userSpaceOnUse" x="731" y="6" width="21"
            height="14">
            <path d="M731.658 6.00009H751.658V20.0001H731.658V6.00009Z" fill="white" />
        </mask>
        <g mask="url(#mask11_2057_328)">
            <path d="M733.148 6.00009L746.57 19.4272H751.383L737.956 6.00009H733.148Z" fill="#B8AA8D" />
        </g>
        <g filter="url(#filter9_ddi_2057_328)">
            <path
                d="M741.148 6.00002L754.576 19.4271L943.824 19.4271L930.824 6L741.148 6.00002ZM940.21 11.0313C939.408 11.0313 938.757 10.3802 938.757 9.57813C938.757 8.77604 939.408 8.125 940.21 8.125C941.012 8.125 941.663 8.77604 941.663 9.57813C941.663 10.3802 941.012 11.0313 940.21 11.0313Z"
                fill="#B8AA8D" />
        </g>
        <path
            d="M767.226 13.192H766.826V15H765.434L765.426 13.664V11.696C765.426 11.248 765.546 10.9147 765.786 10.696C766.026 10.472 766.456 10.36 767.074 10.36H769.122H770.746V11.416H768.474H767.69C767.349 11.416 767.12 11.48 767.002 11.608C766.89 11.736 766.832 11.912 766.826 12.136H767.226H770.746V13.192H767.226ZM776.964 13.664C776.964 14.096 776.849 14.4267 776.62 14.656C776.39 14.8853 775.964 15 775.34 15H773.292C772.673 15 772.244 14.8907 772.004 14.672C771.764 14.448 771.644 14.112 771.644 13.664V10.36H773.052V13.208C773.052 13.4427 773.108 13.624 773.22 13.752C773.337 13.88 773.566 13.944 773.908 13.944H774.692C775.06 13.944 775.297 13.8853 775.404 13.768C775.51 13.6507 775.564 13.464 775.564 13.208V10.36H776.964V13.664ZM779.789 11.416H777.869V10.36H779.485H781.533H783.181V11.416H781.181V15H779.789V11.416ZM789.399 13.664C789.399 14.096 789.284 14.4267 789.055 14.656C788.825 14.8853 788.399 15 787.775 15H785.727C785.108 15 784.679 14.8907 784.439 14.672C784.199 14.448 784.079 14.112 784.079 13.664V10.36H785.487V13.208C785.487 13.4427 785.543 13.624 785.655 13.752C785.772 13.88 786.001 13.944 786.343 13.944H787.127C787.495 13.944 787.732 13.8853 787.839 13.768C787.945 13.6507 787.999 13.464 787.999 13.208V10.36H789.399V13.664ZM791.696 12.344H793.344C793.712 12.344 793.95 12.2853 794.056 12.168C794.163 12.0507 794.216 11.9547 794.216 11.88C794.216 11.8053 794.163 11.7093 794.056 11.592C793.95 11.4747 793.712 11.416 793.344 11.416H792.56H791.696V12.344ZM794.128 13.4L795.68 15H794.112L792.56 13.4H791.696V15H790.304V10.36H791.944H793.992C794.616 10.36 795.043 10.4747 795.272 10.704C795.502 10.9333 795.616 11.264 795.616 11.696V11.896V12.064C795.616 12.496 795.502 12.8267 795.272 13.056C795.043 13.2853 794.731 13.4 794.336 13.4H794.128ZM798.314 13.192H797.914C797.919 13.4373 797.978 13.624 798.09 13.752C798.207 13.88 798.436 13.944 798.778 13.944H799.562H801.834V15H800.21H798.162C797.543 15 797.114 14.8907 796.874 14.672C796.634 14.448 796.514 14.112 796.514 13.664V11.696C796.514 11.248 796.634 10.9147 796.874 10.696C797.114 10.472 797.543 10.36 798.162 10.36H800.21H801.834V11.416H799.562H798.778C798.436 11.416 798.207 11.48 798.09 11.608C797.978 11.736 797.919 11.912 797.914 12.136H798.314H801.834V13.192H798.314ZM812.511 13.664C812.511 14.096 812.396 14.4267 812.167 14.656C811.938 14.8853 811.511 15 810.887 15H808.839C808.22 15 807.791 14.8907 807.551 14.672C807.311 14.448 807.191 14.112 807.191 13.664V11.696C807.191 11.248 807.311 10.9147 807.551 10.696C807.791 10.472 808.22 10.36 808.839 10.36H810.887C811.511 10.36 811.938 10.4747 812.167 10.704C812.396 10.9333 812.511 11.264 812.511 11.696V13.664ZM811.111 13.216V12.152C811.111 11.896 811.058 11.7093 810.951 11.592C810.844 11.4747 810.607 11.416 810.239 11.416H809.455C809.114 11.416 808.884 11.48 808.767 11.608C808.655 11.736 808.599 11.9173 808.599 12.152V13.208C808.599 13.4427 808.655 13.624 808.767 13.752C808.884 13.88 809.114 13.944 809.455 13.944H810.239C810.607 13.944 810.842 13.8853 810.943 13.768C811.044 13.6507 811.1 13.4667 811.111 13.216ZM815.208 13.192H814.808V15H813.416L813.408 13.664V11.696C813.408 11.248 813.528 10.9147 813.768 10.696C814.008 10.472 814.438 10.36 815.056 10.36H817.104H818.728V11.416H816.456H815.672C815.331 11.416 815.102 11.48 814.984 11.608C814.872 11.736 814.814 11.912 814.808 12.136H815.208H818.728V13.192H815.208ZM825.486 13.192V13.944H826.35H827.134C827.502 13.944 827.739 13.8853 827.846 13.768C827.952 13.6507 828.006 13.5547 828.006 13.48C828.006 13.4053 827.952 13.3387 827.846 13.28C827.744 13.2213 827.512 13.192 827.15 13.192H825.486ZM827.166 12.136C827.528 12.136 827.758 12.112 827.854 12.064C827.955 12.016 828.006 11.9547 828.006 11.88C828.006 11.8053 827.952 11.7093 827.846 11.592C827.739 11.4747 827.502 11.416 827.134 11.416H826.35H825.486V12.136H827.166ZM828.526 12.792C829.102 12.92 829.395 13.144 829.406 13.464V13.664C829.406 14.096 829.291 14.4267 829.062 14.656C828.832 14.8853 828.406 15 827.782 15H825.734H824.094L824.086 13.664V11.696L824.094 10.36H825.734H827.782C828.406 10.36 828.832 10.4747 829.062 10.704C829.291 10.9333 829.406 11.264 829.406 11.696V11.896C829.406 12.28 829.112 12.5787 828.526 12.792ZM831.703 15H830.311V10.36H831.711V13.208L831.703 15ZM834.527 11.416H832.607V10.36H834.223H836.271H837.919V11.416H835.919V15H834.527V11.416ZM844.136 13.664C844.136 14.096 844.022 14.4267 843.792 14.656C843.563 14.8853 843.136 15 842.512 15H840.464C839.846 15 839.416 14.8907 839.176 14.672C838.936 14.448 838.816 14.112 838.816 13.664V11.696C838.816 11.248 838.936 10.9147 839.176 10.696C839.416 10.472 839.846 10.36 840.464 10.36H842.512C843.136 10.36 843.563 10.4747 843.792 10.704C844.022 10.9333 844.136 11.264 844.136 11.696V12.152H842.736C842.736 11.896 842.683 11.7093 842.576 11.592C842.47 11.4747 842.232 11.416 841.864 11.416H841.08C840.739 11.416 840.51 11.48 840.392 11.608C840.28 11.736 840.224 11.9173 840.224 12.152V13.208C840.224 13.4427 840.28 13.624 840.392 13.752C840.51 13.88 840.739 13.944 841.08 13.944H841.864C842.232 13.944 842.47 13.8853 842.576 13.768C842.683 13.6507 842.736 13.464 842.736 13.208H844.136V13.664ZM850.354 13.664C850.354 14.096 850.239 14.4267 850.01 14.656C849.78 14.8853 849.354 15 848.73 15H846.682C846.063 15 845.634 14.8907 845.394 14.672C845.154 14.448 845.034 14.112 845.034 13.664V11.696C845.034 11.248 845.154 10.9147 845.394 10.696C845.634 10.472 846.063 10.36 846.682 10.36H848.73C849.354 10.36 849.78 10.4747 850.01 10.704C850.239 10.9333 850.354 11.264 850.354 11.696V13.664ZM848.954 13.216V12.152C848.954 11.896 848.9 11.7093 848.794 11.592C848.687 11.4747 848.45 11.416 848.082 11.416H847.298C846.956 11.416 846.727 11.48 846.61 11.608C846.498 11.736 846.442 11.9173 846.442 12.152V13.208C846.442 13.4427 846.498 13.624 846.61 13.752C846.727 13.88 846.956 13.944 847.298 13.944H848.082C848.45 13.944 848.684 13.8853 848.786 13.768C848.887 13.6507 848.943 13.4667 848.954 13.216ZM852.651 15H851.259V10.36H852.659V13.208L852.651 15ZM858.867 11.696V15H857.467V12.152C857.467 11.896 857.414 11.7093 857.307 11.592C857.2 11.4747 856.963 11.416 856.595 11.416H855.811C855.47 11.416 855.24 11.48 855.123 11.608C855.011 11.736 854.955 11.9173 854.955 12.152V15H853.547V11.696C853.547 11.248 853.667 10.9147 853.907 10.696C854.147 10.472 854.576 10.36 855.195 10.36H857.243C857.867 10.36 858.294 10.4747 858.523 10.704C858.752 10.9333 858.867 11.264 858.867 11.696ZM868.44 10.36H869.408C870.032 10.36 870.459 10.4747 870.688 10.704C870.917 10.9333 871.032 11.264 871.032 11.696V15H869.632V12.152C869.632 11.896 869.579 11.7093 869.472 11.592C869.365 11.4747 869.128 11.416 868.76 11.416H868.312V15H866.896L866.888 11.416H866.488C866.147 11.416 865.917 11.48 865.8 11.608C865.688 11.736 865.632 11.9173 865.632 12.152V15H864.224V11.696C864.224 11.248 864.344 10.9147 864.584 10.696C864.824 10.472 865.253 10.36 865.872 10.36H868.44ZM873.726 13.192H873.326C873.331 13.4373 873.39 13.624 873.502 13.752C873.619 13.88 873.849 13.944 874.19 13.944H874.974H877.246V15H875.622H873.574C872.955 15 872.526 14.8907 872.286 14.672C872.046 14.448 871.926 14.112 871.926 13.664V11.696C871.926 11.248 872.046 10.9147 872.286 10.696C872.526 10.472 872.955 10.36 873.574 10.36H875.622H877.246V11.416H874.974H874.19C873.849 11.416 873.619 11.48 873.502 11.608C873.39 11.736 873.331 11.912 873.326 12.136H873.726H877.246V13.192H873.726ZM882.359 10.36H883.327C883.951 10.36 884.378 10.4747 884.607 10.704C884.837 10.9333 884.951 11.264 884.951 11.696V15H883.551V12.152C883.551 11.896 883.498 11.7093 883.391 11.592C883.285 11.4747 883.047 11.416 882.679 11.416H882.231V15H880.815L880.807 11.416H880.407C880.066 11.416 879.837 11.48 879.719 11.608C879.607 11.736 879.551 11.9173 879.551 12.152V15H878.143V11.696C878.143 11.248 878.263 10.9147 878.503 10.696C878.743 10.472 879.173 10.36 879.791 10.36H882.359ZM887.645 13.192H887.245C887.251 13.4373 887.309 13.624 887.421 13.752C887.539 13.88 887.768 13.944 888.109 13.944H888.893H891.165V15H889.541H887.493C886.875 15 886.445 14.8907 886.205 14.672C885.965 14.448 885.845 14.112 885.845 13.664V11.696C885.845 11.248 885.965 10.9147 886.205 10.696C886.445 10.472 886.875 10.36 887.493 10.36H889.541H891.165V11.416H888.893H888.109C887.768 11.416 887.539 11.48 887.421 11.608C887.309 11.736 887.251 11.912 887.245 12.136H887.645H891.165V13.192H887.645ZM897.383 13.664C897.383 14.096 897.268 14.4267 897.039 14.656C896.809 14.8853 896.383 15 895.759 15H893.711C893.092 15 892.663 14.8907 892.423 14.672C892.183 14.448 892.063 14.112 892.063 13.664V11.696C892.063 11.248 892.183 10.9147 892.423 10.696C892.663 10.472 893.092 10.36 893.711 10.36H895.759C896.383 10.36 896.809 10.4747 897.039 10.704C897.268 10.9333 897.383 11.264 897.383 11.696V12.152H895.983C895.983 11.896 895.929 11.7093 895.823 11.592C895.716 11.4747 895.479 11.416 895.111 11.416H894.327C893.985 11.416 893.756 11.48 893.639 11.608C893.527 11.736 893.471 11.9173 893.471 12.152V13.208C893.471 13.4427 893.527 13.624 893.639 13.752C893.756 13.88 893.985 13.944 894.327 13.944H895.111C895.479 13.944 895.716 13.8853 895.823 13.768C895.929 13.6507 895.983 13.464 895.983 13.208H897.383V13.664ZM903.6 13.664C903.6 14.096 903.486 14.4267 903.256 14.656C903.027 14.8853 902.6 15 901.976 15H899.928C899.31 15 898.88 14.8907 898.64 14.672C898.4 14.448 898.28 14.112 898.28 13.664V11.696C898.28 11.248 898.4 10.9147 898.64 10.696C898.88 10.472 899.31 10.36 899.928 10.36H901.976C902.6 10.36 903.027 10.4747 903.256 10.704C903.486 10.9333 903.6 11.264 903.6 11.696V13.664ZM902.2 13.216V12.152C902.2 11.896 902.147 11.7093 902.04 11.592C901.934 11.4747 901.696 11.416 901.328 11.416H900.544C900.203 11.416 899.974 11.48 899.856 11.608C899.744 11.736 899.688 11.9173 899.688 12.152V13.208C899.688 13.4427 899.744 13.624 899.856 13.752C899.974 13.88 900.203 13.944 900.544 13.944H901.328C901.696 13.944 901.931 13.8853 902.032 13.768C902.134 13.6507 902.19 13.4667 902.2 13.216ZM905.898 15H904.506V10.36H905.906V13.208L905.898 15ZM912.113 11.696V15H910.713V12.152C910.713 11.896 910.66 11.7093 910.553 11.592C910.447 11.4747 910.209 11.416 909.841 11.416H909.057C908.716 11.416 908.487 11.48 908.369 11.608C908.257 11.736 908.201 11.9173 908.201 12.152V15H906.793V11.696C906.793 11.248 906.913 10.9147 907.153 10.696C907.393 10.472 907.823 10.36 908.441 10.36H910.489C911.113 10.36 911.54 10.4747 911.769 10.704C911.999 10.9333 912.113 11.264 912.113 11.696ZM918.587 14.144C918.539 14.3467 918.422 14.5413 918.235 14.728C918.054 14.9093 917.792 15 917.451 15H913.019V13.944H916.691C916.808 13.944 916.854 13.9067 916.827 13.832C916.806 13.7573 916.776 13.712 916.739 13.696L913.603 12.536C913.214 12.4027 913.019 12.1307 913.019 11.72C913.019 11.5387 913.03 11.408 913.051 11.328C913.099 11.2427 913.139 11.128 913.171 10.984C913.208 10.8347 913.368 10.6933 913.651 10.56C913.939 10.4267 914.278 10.36 914.667 10.36H918.587V11.448H917.531H914.667C914.582 11.448 914.534 11.496 914.523 11.592C914.534 11.656 914.547 11.688 914.563 11.688L918.043 13C918.272 13.0907 918.424 13.256 918.499 13.496C918.579 13.7307 918.608 13.9467 918.587 14.144Z"
            fill="#0D0D0D" />
    </g>
    <g filter="url(#filter10_d_2057_328)">
        <mask id="mask12_2057_328" style="mask-type:luminance" maskUnits="userSpaceOnUse" x="947" y="12" width="24"
            height="8">
            <path d="M947.992 12.6303H970.659V20.0001H947.992V12.6303Z" fill="white" />
        </mask>
        <g mask="url(#mask12_2057_328)">
            <path d="M949.17 12.8699L955.956 19.6564H970.269L963.482 12.8699H949.17Z" fill="#9A65C4" />
        </g>
        <mask id="mask13_2057_328" style="mask-type:luminance" maskUnits="userSpaceOnUse" x="941" y="6" width="42"
            height="14">
            <path d="M941.324 6.00009H982.658V20.0001H941.324V6.00009Z" fill="white" />
        </mask>
        <g mask="url(#mask13_2057_328)">
            <path
                d="M942.434 6.02613L947.663 11.2553C949.652 11.2501 958.34 11.2397 965.012 11.2397L973.408 19.6407H981.882L968.267 6.02613C967.85 6.00009 942.434 6.02613 942.434 6.02613ZM967.178 8.79176C966.809 8.79176 966.507 8.49488 966.507 8.11988C966.507 7.75009 966.809 7.45321 967.178 7.45321C967.548 7.45321 967.85 7.75009 967.85 8.11988C967.85 8.49488 967.548 8.79176 967.178 8.79176Z"
                fill="#9A65C4" />
        </g>
        <mask id="mask14_2057_328" style="mask-type:luminance" maskUnits="userSpaceOnUse" x="970" y="6" width="21"
            height="14">
            <path d="M970.658 6.00009H990.658V20.0001H970.658V6.00009Z" fill="white" />
        </mask>
        <g mask="url(#mask14_2057_328)">
            <path d="M972.148 6.00009L985.57 19.4272H990.383L976.956 6.00009H972.148Z" fill="#9A65C4" />
        </g>
        <g filter="url(#filter11_ddi_2057_328)">
            <path
                d="M980.148 6L993.576 19.4271L1161.32 19.4271L1148.32 6.00001L980.148 6ZM1157.71 11.0313C1156.91 11.0313 1156.26 10.3802 1156.26 9.57814C1156.26 8.77606 1156.91 8.12502 1157.71 8.12502C1158.51 8.12502 1159.16 8.77606 1159.16 9.57814C1159.16 10.3802 1158.51 11.0313 1157.71 11.0313Z"
                fill="#9A65C4" />
        </g>
        <path
            d="M1012.33 13.192H1011.93V15H1010.54L1010.53 13.664V11.696C1010.53 11.248 1010.65 10.9147 1010.89 10.696C1011.13 10.472 1011.56 10.36 1012.18 10.36H1014.23H1015.85V11.416H1013.58H1012.8C1012.46 11.416 1012.23 11.48 1012.11 11.608C1012 11.736 1011.94 11.912 1011.93 12.136H1012.33H1015.85V13.192H1012.33ZM1020.27 13.192H1018.15V15H1016.76L1016.75 13.664V11.696C1016.75 11.248 1016.87 10.9147 1017.11 10.696C1017.35 10.472 1017.78 10.36 1018.4 10.36H1020.42C1021.04 10.36 1021.47 10.472 1021.71 10.696C1021.95 10.9147 1022.07 11.248 1022.07 11.696V13.664L1022.06 15H1020.67V13.192H1020.27ZM1019.96 12.136H1020.67C1020.67 11.912 1020.6 11.736 1020.49 11.608C1020.37 11.48 1020.15 11.416 1019.81 11.416H1019.01C1018.67 11.416 1018.44 11.48 1018.33 11.608C1018.21 11.736 1018.16 11.912 1018.15 12.136H1019.96ZM1028.54 14.144C1028.5 14.3467 1028.38 14.5413 1028.19 14.728C1028.01 14.9093 1027.75 15 1027.41 15H1022.98V13.944H1026.65C1026.77 13.944 1026.81 13.9067 1026.78 13.832C1026.76 13.7573 1026.73 13.712 1026.7 13.696L1023.56 12.536C1023.17 12.4027 1022.98 12.1307 1022.98 11.72C1022.98 11.5387 1022.99 11.408 1023.01 11.328C1023.06 11.2427 1023.1 11.128 1023.13 10.984C1023.17 10.8347 1023.33 10.6933 1023.61 10.56C1023.9 10.4267 1024.23 10.36 1024.62 10.36H1028.54V11.448H1027.49H1024.62C1024.54 11.448 1024.49 11.496 1024.48 11.592C1024.49 11.656 1024.5 11.688 1024.52 11.688L1028 13C1028.23 13.0907 1028.38 13.256 1028.46 13.496C1028.54 13.7307 1028.57 13.9467 1028.54 14.144ZM1031.37 11.416H1029.45V10.36H1031.07H1033.12H1034.76V11.416H1032.76V15H1031.37V11.416ZM1036.66 14.08V15H1035.67V14.08H1036.66ZM1047.31 13.664C1047.31 14.096 1047.19 14.4267 1046.96 14.656C1046.73 14.8853 1046.31 15 1045.68 15H1043.63C1043.02 15 1042.59 14.8907 1042.35 14.672C1042.11 14.448 1041.99 14.112 1041.99 13.664V11.696C1041.99 11.248 1042.11 10.9147 1042.35 10.696C1042.59 10.472 1043.02 10.36 1043.63 10.36H1045.68C1046.31 10.36 1046.73 10.4747 1046.96 10.704C1047.19 10.9333 1047.31 11.264 1047.31 11.696V12.152H1045.91C1045.91 11.896 1045.85 11.7093 1045.75 11.592C1045.64 11.4747 1045.4 11.416 1045.03 11.416H1044.25C1043.91 11.416 1043.68 11.48 1043.56 11.608C1043.45 11.736 1043.39 11.9173 1043.39 12.152V13.208C1043.39 13.4427 1043.45 13.624 1043.56 13.752C1043.68 13.88 1043.91 13.944 1044.25 13.944H1045.03C1045.4 13.944 1045.64 13.8853 1045.75 13.768C1045.85 13.6507 1045.91 13.464 1045.91 13.208H1047.31V13.664ZM1049.6 13.192V15H1048.21L1048.2 13.664V11.696L1048.21 10.36H1049.6V12.136H1052.12V10.36H1053.52V11.696V13.664V15H1052.12V13.192H1049.6ZM1056.22 13.192H1055.82C1055.83 13.4373 1055.89 13.624 1056 13.752C1056.11 13.88 1056.34 13.944 1056.69 13.944H1057.47H1059.74V15H1058.12H1056.07C1055.45 15 1055.02 14.8907 1054.78 14.672C1054.54 14.448 1054.42 14.112 1054.42 13.664V11.696C1054.42 11.248 1054.54 10.9147 1054.78 10.696C1055.02 10.472 1055.45 10.36 1056.07 10.36H1058.12H1059.74V11.416H1057.47H1056.69C1056.34 11.416 1056.11 11.48 1056 11.608C1055.89 11.736 1055.83 11.912 1055.82 12.136H1056.22H1059.74V13.192H1056.22ZM1064.16 13.192H1062.04V15H1060.65L1060.64 13.664V11.696C1060.64 11.248 1060.76 10.9147 1061 10.696C1061.24 10.472 1061.67 10.36 1062.29 10.36H1064.31C1064.93 10.36 1065.36 10.472 1065.6 10.696C1065.84 10.9147 1065.96 11.248 1065.96 11.696V13.664L1065.95 15H1064.56V13.192H1064.16ZM1063.85 12.136H1064.56C1064.55 11.912 1064.49 11.736 1064.38 11.608C1064.26 11.48 1064.04 11.416 1063.7 11.416H1062.9C1062.56 11.416 1062.33 11.48 1062.22 11.608C1062.1 11.736 1062.04 11.912 1062.04 12.136H1063.85ZM1068.26 12.344H1069.9C1070.27 12.344 1070.51 12.2853 1070.62 12.168C1070.72 12.0507 1070.78 11.9547 1070.78 11.88C1070.78 11.8053 1070.72 11.7093 1070.62 11.592C1070.51 11.4747 1070.27 11.416 1069.9 11.416H1069.12H1068.26V12.344ZM1068.26 13.4V15H1066.86L1066.86 13.664V11.696L1066.86 10.36H1068.5H1070.55C1071.18 10.36 1071.6 10.4747 1071.83 10.704C1072.06 10.9333 1072.18 11.264 1072.18 11.696V11.896V12.064C1072.18 12.496 1072.06 12.8267 1071.83 13.056C1071.6 13.2853 1071.18 13.4 1070.55 13.4H1069.74H1069.12H1068.26ZM1074.07 14.08V15H1073.08V14.08H1074.07ZM1084.72 14.312V15H1081.05C1080.43 15 1080 14.8907 1079.76 14.672C1079.52 14.448 1079.4 14.112 1079.4 13.664V10.36H1080.81V13.208C1080.81 13.4427 1080.86 13.624 1080.98 13.752C1081.09 13.88 1081.32 13.944 1081.66 13.944H1084.72V14.312ZM1087.02 15H1085.63V10.36H1087.03V13.208L1087.02 15ZM1092.13 10.36H1093.1C1093.72 10.36 1094.15 10.4747 1094.38 10.704C1094.61 10.9333 1094.72 11.264 1094.72 11.696V15H1093.32V12.152C1093.32 11.896 1093.27 11.7093 1093.16 11.592C1093.05 11.4747 1092.82 11.416 1092.45 11.416H1092V15H1090.58L1090.58 11.416H1090.18C1089.84 11.416 1089.61 11.48 1089.49 11.608C1089.38 11.736 1089.32 11.9173 1089.32 12.152V15H1087.91V11.696C1087.91 11.248 1088.03 10.9147 1088.27 10.696C1088.51 10.472 1088.94 10.36 1089.56 10.36H1092.13ZM1097.01 15H1095.62V10.36H1097.02V13.208L1097.01 15ZM1099.84 11.416H1097.92V10.36H1099.53H1101.58H1103.23V11.416H1101.23V15H1099.84V11.416ZM1109.45 14.312V15H1105.78C1105.16 15 1104.73 14.8907 1104.49 14.672C1104.25 14.448 1104.13 14.112 1104.13 13.664V10.36H1105.54V13.208C1105.54 13.4427 1105.59 13.624 1105.7 13.752C1105.82 13.88 1106.05 13.944 1106.39 13.944H1109.45V14.312ZM1112.15 13.192H1111.75C1111.75 13.4373 1111.81 13.624 1111.92 13.752C1112.04 13.88 1112.27 13.944 1112.61 13.944H1113.39H1115.67V15H1114.04H1111.99C1111.37 15 1110.95 14.8907 1110.71 14.672C1110.47 14.448 1110.35 14.112 1110.35 13.664V11.696C1110.35 11.248 1110.47 10.9147 1110.71 10.696C1110.95 10.472 1111.37 10.36 1111.99 10.36H1114.04H1115.67V11.416H1113.39H1112.61C1112.27 11.416 1112.04 11.48 1111.92 11.608C1111.81 11.736 1111.75 11.912 1111.75 12.136H1112.15H1115.67V13.192H1112.15ZM1122.14 14.144C1122.09 14.3467 1121.97 14.5413 1121.79 14.728C1121.61 14.9093 1121.34 15 1121 15H1116.57V13.944H1120.24C1120.36 13.944 1120.41 13.9067 1120.38 13.832C1120.36 13.7573 1120.33 13.712 1120.29 13.696L1117.15 12.536C1116.77 12.4027 1116.57 12.1307 1116.57 11.72C1116.57 11.5387 1116.58 11.408 1116.6 11.328C1116.65 11.2427 1116.69 11.128 1116.72 10.984C1116.76 10.8347 1116.92 10.6933 1117.2 10.56C1117.49 10.4267 1117.83 10.36 1118.22 10.36H1122.14V11.448H1121.08H1118.22C1118.13 11.448 1118.09 11.496 1118.07 11.592C1118.09 11.656 1118.1 11.688 1118.11 11.688L1121.59 13C1121.82 13.0907 1121.98 13.256 1122.05 13.496C1122.13 13.7307 1122.16 13.9467 1122.14 14.144ZM1128.61 14.144C1128.57 14.3467 1128.45 14.5413 1128.26 14.728C1128.08 14.9093 1127.82 15 1127.48 15H1123.05V13.944H1126.72C1126.84 13.944 1126.88 13.9067 1126.85 13.832C1126.83 13.7573 1126.8 13.712 1126.77 13.696L1123.63 12.536C1123.24 12.4027 1123.05 12.1307 1123.05 11.72C1123.05 11.5387 1123.06 11.408 1123.08 11.328C1123.13 11.2427 1123.17 11.128 1123.2 10.984C1123.24 10.8347 1123.4 10.6933 1123.68 10.56C1123.97 10.4267 1124.3 10.36 1124.69 10.36H1128.61V11.448H1127.56H1124.69C1124.61 11.448 1124.56 11.496 1124.55 11.592C1124.56 11.656 1124.57 11.688 1124.59 11.688L1128.07 13C1128.3 13.0907 1128.45 13.256 1128.53 13.496C1128.61 13.7307 1128.64 13.9467 1128.61 14.144ZM1130.51 14.08V15H1129.52V14.08H1130.51Z"
            fill="#0D0D0D" />
    </g>
    <g filter="url(#filter12_d_2057_328)">
        <mask id="mask15_2057_328" style="mask-type:luminance" maskUnits="userSpaceOnUse" x="1164" y="12" width="24"
            height="8">
            <path d="M1164.99 12.6303H1187.66V20.0001H1164.99V12.6303Z" fill="white" />
        </mask>
        <g mask="url(#mask15_2057_328)">
            <path d="M1166.17 12.8699L1172.96 19.6564H1187.27L1180.48 12.8699H1166.17Z" fill="#B1F489" />
        </g>
        <mask id="mask16_2057_328" style="mask-type:luminance" maskUnits="userSpaceOnUse" x="1158" y="6" width="42"
            height="14">
            <path d="M1158.32 6.00009H1199.66V20.0001H1158.32V6.00009Z" fill="white" />
        </mask>
        <g mask="url(#mask16_2057_328)">
            <path
                d="M1159.43 6.02613L1164.66 11.2553C1166.65 11.2501 1175.34 11.2397 1182.01 11.2397L1190.41 19.6407H1198.88L1185.27 6.02613C1184.85 6.00009 1159.43 6.02613 1159.43 6.02613ZM1184.18 8.79176C1183.81 8.79176 1183.51 8.49488 1183.51 8.11988C1183.51 7.75009 1183.81 7.45321 1184.18 7.45321C1184.55 7.45321 1184.85 7.75009 1184.85 8.11988C1184.85 8.49488 1184.55 8.79176 1184.18 8.79176Z"
                fill="#B1F489" />
        </g>
        <mask id="mask17_2057_328" style="mask-type:luminance" maskUnits="userSpaceOnUse" x="1187" y="6" width="21"
            height="14">
            <path d="M1187.66 6.00009H1207.66V20.0001H1187.66V6.00009Z" fill="white" />
        </mask>
        <g mask="url(#mask17_2057_328)">
            <path d="M1189.15 6.00009L1202.57 19.4272H1207.38L1193.96 6.00009H1189.15Z" fill="#B1F489" />
        </g>
        <g filter="url(#filter13_ddi_2057_328)">
            <path
                d="M1197.15 6.00002L1210.58 19.4271L1399.82 19.4271L1386.82 6L1197.15 6.00002ZM1396.21 11.0313C1395.41 11.0313 1394.76 10.3802 1394.76 9.57813C1394.76 8.77604 1395.41 8.125 1396.21 8.125C1397.01 8.125 1397.66 8.77604 1397.66 9.57813C1397.66 10.3802 1397.01 11.0313 1396.21 11.0313Z"
                fill="#B1F489" />
        </g>
        <path
            d="M1232.89 10.36H1233.86C1234.48 10.36 1234.91 10.4747 1235.14 10.704C1235.37 10.9333 1235.48 11.264 1235.48 11.696V15H1234.08V12.152C1234.08 11.896 1234.03 11.7093 1233.92 11.592C1233.82 11.4747 1233.58 11.416 1233.21 11.416H1232.76V15H1231.35L1231.34 11.416H1230.94C1230.6 11.416 1230.37 11.48 1230.25 11.608C1230.14 11.736 1230.08 11.9173 1230.08 12.152V15H1228.67V11.696C1228.67 11.248 1228.79 10.9147 1229.03 10.696C1229.27 10.472 1229.7 10.36 1230.32 10.36H1232.89ZM1239.9 13.192H1237.78V15H1236.38L1236.38 13.664V11.696C1236.38 11.248 1236.5 10.9147 1236.74 10.696C1236.98 10.472 1237.4 10.36 1238.02 10.36H1240.05C1240.67 10.36 1241.1 10.472 1241.34 10.696C1241.58 10.9147 1241.7 11.248 1241.7 11.696V13.664L1241.69 15H1240.3V13.192H1239.9ZM1239.58 12.136H1240.3C1240.29 11.912 1240.23 11.736 1240.11 11.608C1240 11.48 1239.77 11.416 1239.43 11.416H1238.64C1238.3 11.416 1238.07 11.48 1237.95 11.608C1237.84 11.736 1237.78 11.912 1237.78 12.136H1239.58ZM1248.17 14.144C1248.12 14.3467 1248 14.5413 1247.82 14.728C1247.64 14.9093 1247.37 15 1247.03 15H1242.6V13.944H1246.27C1246.39 13.944 1246.44 13.9067 1246.41 13.832C1246.39 13.7573 1246.36 13.712 1246.32 13.696L1243.19 12.536C1242.8 12.4027 1242.6 12.1307 1242.6 11.72C1242.6 11.5387 1242.61 11.408 1242.63 11.328C1242.68 11.2427 1242.72 11.128 1242.75 10.984C1242.79 10.8347 1242.95 10.6933 1243.23 10.56C1243.52 10.4267 1243.86 10.36 1244.25 10.36H1248.17V11.448H1247.11H1244.25C1244.16 11.448 1244.12 11.496 1244.11 11.592C1244.12 11.656 1244.13 11.688 1244.15 11.688L1247.63 13C1247.85 13.0907 1248.01 13.256 1248.08 13.496C1248.16 13.7307 1248.19 13.9467 1248.17 14.144ZM1254.64 14.144C1254.6 14.3467 1254.48 14.5413 1254.29 14.728C1254.11 14.9093 1253.85 15 1253.51 15H1249.08V13.944H1252.75C1252.87 13.944 1252.91 13.9067 1252.88 13.832C1252.86 13.7573 1252.83 13.712 1252.8 13.696L1249.66 12.536C1249.27 12.4027 1249.08 12.1307 1249.08 11.72C1249.08 11.5387 1249.09 11.408 1249.11 11.328C1249.16 11.2427 1249.2 11.128 1249.23 10.984C1249.27 10.8347 1249.43 10.6933 1249.71 10.56C1250 10.4267 1250.34 10.36 1250.72 10.36H1254.64V11.448H1253.59H1250.72C1250.64 11.448 1250.59 11.496 1250.58 11.592C1250.59 11.656 1250.6 11.688 1250.62 11.688L1254.1 13C1254.33 13.0907 1254.48 13.256 1254.56 13.496C1254.64 13.7307 1254.67 13.9467 1254.64 14.144ZM1256.94 15H1255.55V10.36H1256.95V13.208L1256.94 15ZM1261.75 10.36H1263.16C1262.59 12.4827 1262.29 13.592 1262.25 13.688C1262.17 13.944 1262 14.2267 1261.74 14.536C1261.48 14.8453 1261.2 15 1260.9 15H1260.1C1259.85 15 1259.58 14.8453 1259.3 14.536C1259.01 14.2267 1258.83 13.9493 1258.76 13.704C1258.7 13.5973 1258.39 12.4827 1257.84 10.36H1259.25L1259.96 13.208C1260.03 13.4533 1260.12 13.6267 1260.22 13.728C1260.32 13.8293 1260.42 13.8853 1260.5 13.896C1260.59 13.8853 1260.68 13.8293 1260.78 13.728C1260.88 13.6267 1260.96 13.4533 1261.04 13.208L1261.75 10.36ZM1265.86 13.192H1265.46C1265.46 13.4373 1265.52 13.624 1265.63 13.752C1265.75 13.88 1265.98 13.944 1266.32 13.944H1267.1H1269.38V15H1267.75H1265.7C1265.09 15 1264.66 14.8907 1264.42 14.672C1264.18 14.448 1264.06 14.112 1264.06 13.664V11.696C1264.06 11.248 1264.18 10.9147 1264.42 10.696C1264.66 10.472 1265.09 10.36 1265.7 10.36H1267.75H1269.38V11.416H1267.1H1266.32C1265.98 11.416 1265.75 11.48 1265.63 11.608C1265.52 11.736 1265.46 11.912 1265.46 12.136H1265.86H1269.38V13.192H1265.86ZM1276.13 12.344H1277.78C1278.15 12.344 1278.39 12.2853 1278.49 12.168C1278.6 12.0507 1278.65 11.9547 1278.65 11.88C1278.65 11.8053 1278.6 11.7093 1278.49 11.592C1278.39 11.4747 1278.15 11.416 1277.78 11.416H1277H1276.13V12.344ZM1276.13 13.4V15H1274.74L1274.73 13.664V11.696L1274.74 10.36H1276.38H1278.43C1279.05 10.36 1279.48 10.4747 1279.71 10.704C1279.94 10.9333 1280.05 11.264 1280.05 11.696V11.896V12.064C1280.05 12.496 1279.94 12.8267 1279.71 13.056C1279.48 13.2853 1279.05 13.4 1278.43 13.4H1277.62H1277H1276.13ZM1282.35 12.344H1284C1284.37 12.344 1284.6 12.2853 1284.71 12.168C1284.82 12.0507 1284.87 11.9547 1284.87 11.88C1284.87 11.8053 1284.82 11.7093 1284.71 11.592C1284.6 11.4747 1284.37 11.416 1284 11.416H1283.22H1282.35V12.344ZM1284.78 13.4L1286.34 15H1284.77L1283.22 13.4H1282.35V15H1280.96V10.36H1282.6H1284.65C1285.27 10.36 1285.7 10.4747 1285.93 10.704C1286.16 10.9333 1286.27 11.264 1286.27 11.696V11.896V12.064C1286.27 12.496 1286.16 12.8267 1285.93 13.056C1285.7 13.2853 1285.39 13.4 1284.99 13.4H1284.78ZM1288.97 13.192H1288.57C1288.57 13.4373 1288.63 13.624 1288.75 13.752C1288.86 13.88 1289.09 13.944 1289.43 13.944H1290.22H1292.49V15H1290.87H1288.82C1288.2 15 1287.77 14.8907 1287.53 14.672C1287.29 14.448 1287.17 14.112 1287.17 13.664V11.696C1287.17 11.248 1287.29 10.9147 1287.53 10.696C1287.77 10.472 1288.2 10.36 1288.82 10.36H1290.87H1292.49V11.416H1290.22H1289.43C1289.09 11.416 1288.86 11.48 1288.75 11.608C1288.63 11.736 1288.57 11.912 1288.57 12.136H1288.97H1292.49V13.192H1288.97ZM1298.96 14.144C1298.91 14.3467 1298.8 14.5413 1298.61 14.728C1298.43 14.9093 1298.17 15 1297.83 15H1293.39V13.944H1297.07C1297.18 13.944 1297.23 13.9067 1297.2 13.832C1297.18 13.7573 1297.15 13.712 1297.11 13.696L1293.98 12.536C1293.59 12.4027 1293.39 12.1307 1293.39 11.72C1293.39 11.5387 1293.41 11.408 1293.43 11.328C1293.47 11.2427 1293.51 11.128 1293.55 10.984C1293.58 10.8347 1293.74 10.6933 1294.03 10.56C1294.31 10.4267 1294.65 10.36 1295.04 10.36H1298.96V11.448H1297.91H1295.04C1294.96 11.448 1294.91 11.496 1294.9 11.592C1294.91 11.656 1294.92 11.688 1294.94 11.688L1298.42 13C1298.65 13.0907 1298.8 13.256 1298.87 13.496C1298.95 13.7307 1298.98 13.9467 1298.96 14.144ZM1303.38 13.192H1301.26V15H1299.87L1299.86 13.664V11.696C1299.86 11.248 1299.98 10.9147 1300.22 10.696C1300.46 10.472 1300.89 10.36 1301.51 10.36H1303.53C1304.15 10.36 1304.58 10.472 1304.82 10.696C1305.06 10.9147 1305.18 11.248 1305.18 11.696V13.664L1305.17 15H1303.78V13.192H1303.38ZM1303.07 12.136H1303.78C1303.78 11.912 1303.72 11.736 1303.6 11.608C1303.49 11.48 1303.26 11.416 1302.92 11.416H1302.13C1301.78 11.416 1301.56 11.48 1301.44 11.608C1301.33 11.736 1301.27 11.912 1301.26 12.136H1303.07ZM1311.4 14.312V15H1307.73C1307.11 15 1306.68 14.8907 1306.44 14.672C1306.2 14.448 1306.08 14.112 1306.08 13.664V10.36H1307.49V13.208C1307.49 13.4427 1307.54 13.624 1307.66 13.752C1307.77 13.88 1308 13.944 1308.34 13.944H1311.4V14.312ZM1314.1 13.192H1313.7C1313.7 13.4373 1313.76 13.624 1313.87 13.752C1313.99 13.88 1314.22 13.944 1314.56 13.944H1315.34H1317.62V15H1315.99H1313.94C1313.33 15 1312.9 14.8907 1312.66 14.672C1312.42 14.448 1312.3 14.112 1312.3 13.664V11.696C1312.3 11.248 1312.42 10.9147 1312.66 10.696C1312.9 10.472 1313.33 10.36 1313.94 10.36H1315.99H1317.62V11.416H1315.34H1314.56C1314.22 11.416 1313.99 11.48 1313.87 11.608C1313.76 11.736 1313.7 11.912 1313.7 12.136H1314.1H1317.62V13.192H1314.1ZM1324.37 12.344H1326.02C1326.39 12.344 1326.63 12.2853 1326.73 12.168C1326.84 12.0507 1326.89 11.9547 1326.89 11.88C1326.89 11.8053 1326.84 11.7093 1326.73 11.592C1326.63 11.4747 1326.39 11.416 1326.02 11.416H1325.24H1324.37V12.344ZM1326.81 13.4L1328.36 15H1326.79L1325.24 13.4H1324.37V15H1322.98V10.36H1324.62H1326.67C1327.29 10.36 1327.72 10.4747 1327.95 10.704C1328.18 10.9333 1328.29 11.264 1328.29 11.696V11.896V12.064C1328.29 12.496 1328.18 12.8267 1327.95 13.056C1327.72 13.2853 1327.41 13.4 1327.01 13.4H1326.81ZM1330.99 13.192H1330.59C1330.6 13.4373 1330.66 13.624 1330.77 13.752C1330.88 13.88 1331.11 13.944 1331.46 13.944H1332.24H1334.51V15H1332.89H1330.84C1330.22 15 1329.79 14.8907 1329.55 14.672C1329.31 14.448 1329.19 14.112 1329.19 13.664V11.696C1329.19 11.248 1329.31 10.9147 1329.55 10.696C1329.79 10.472 1330.22 10.36 1330.84 10.36H1332.89H1334.51V11.416H1332.24H1331.46C1331.11 11.416 1330.88 11.48 1330.77 11.608C1330.66 11.736 1330.6 11.912 1330.59 12.136H1330.99H1334.51V13.192H1330.99ZM1339.63 15H1337.06C1336.44 15 1336.01 14.8907 1335.77 14.672C1335.53 14.448 1335.41 14.112 1335.41 13.664V10.36H1336.82V13.208C1336.82 13.4427 1336.87 13.624 1336.99 13.752C1337.1 13.88 1337.33 13.944 1337.67 13.944H1338.07L1338.08 10.36H1339.5V13.944H1339.95C1340.31 13.944 1340.55 13.8853 1340.66 13.768C1340.76 13.6507 1340.82 13.464 1340.82 13.208V10.36H1342.22V13.664C1342.22 14.096 1342.1 14.4267 1341.87 14.656C1341.64 14.8853 1341.22 15 1340.59 15H1339.63ZM1346.63 13.192H1344.51V15H1343.12L1343.11 13.664V11.696C1343.11 11.248 1343.23 10.9147 1343.47 10.696C1343.71 10.472 1344.14 10.36 1344.76 10.36H1346.78C1347.4 10.36 1347.83 10.472 1348.07 10.696C1348.31 10.9147 1348.43 11.248 1348.43 11.696V13.664L1348.42 15H1347.03V13.192H1346.63ZM1346.32 12.136H1347.03C1347.03 11.912 1346.96 11.736 1346.85 11.608C1346.73 11.48 1346.51 11.416 1346.17 11.416H1345.37C1345.03 11.416 1344.8 11.48 1344.69 11.608C1344.57 11.736 1344.52 11.912 1344.51 12.136H1346.32ZM1350.73 12.344H1352.38C1352.74 12.344 1352.98 12.2853 1353.09 12.168C1353.2 12.0507 1353.25 11.9547 1353.25 11.88C1353.25 11.8053 1353.2 11.7093 1353.09 11.592C1352.98 11.4747 1352.74 11.416 1352.38 11.416H1351.59H1350.73V12.344ZM1353.16 13.4L1354.71 15H1353.14L1351.59 13.4H1350.73V15H1349.34V10.36H1350.98H1353.02C1353.65 10.36 1354.08 10.4747 1354.3 10.704C1354.53 10.9333 1354.65 11.264 1354.65 11.696V11.896V12.064C1354.65 12.496 1354.53 12.8267 1354.3 13.056C1354.08 13.2853 1353.76 13.4 1353.37 13.4H1353.16ZM1356.95 11.416V13.944H1357.82H1358.6C1358.94 13.944 1359.17 13.88 1359.28 13.752C1359.4 13.624 1359.46 13.4427 1359.46 13.208V12.152C1359.46 11.9173 1359.4 11.736 1359.28 11.608C1359.17 11.48 1358.94 11.416 1358.6 11.416H1357.82H1356.95ZM1355.55 15V10.36H1357.17H1359.22C1359.84 10.36 1360.27 10.472 1360.51 10.696C1360.75 10.9147 1360.87 11.248 1360.87 11.696V13.664C1360.87 14.112 1360.75 14.448 1360.51 14.672C1360.27 14.8907 1359.84 15 1359.22 15H1357.17H1355.55ZM1367.34 14.144C1367.29 14.3467 1367.17 14.5413 1366.99 14.728C1366.81 14.9093 1366.54 15 1366.2 15H1361.77V13.944H1365.44C1365.56 13.944 1365.61 13.9067 1365.58 13.832C1365.56 13.7573 1365.53 13.712 1365.49 13.696L1362.36 12.536C1361.97 12.4027 1361.77 12.1307 1361.77 11.72C1361.77 11.5387 1361.78 11.408 1361.8 11.328C1361.85 11.2427 1361.89 11.128 1361.92 10.984C1361.96 10.8347 1362.12 10.6933 1362.4 10.56C1362.69 10.4267 1363.03 10.36 1363.42 10.36H1367.34V11.448H1366.28H1363.42C1363.33 11.448 1363.29 11.496 1363.28 11.592C1363.29 11.656 1363.3 11.688 1363.32 11.688L1366.8 13C1367.02 13.0907 1367.18 13.256 1367.25 13.496C1367.33 13.7307 1367.36 13.9467 1367.34 14.144Z"
            fill="#0D0D0D" />
    </g>
    <g filter="url(#filter14_d_2057_328)">
        <mask id="mask18_2057_328" style="mask-type:luminance" maskUnits="userSpaceOnUse" x="1403" y="12" width="24"
            height="8">
            <path d="M1403.99 12.6303H1426.66V20.0001H1403.99V12.6303Z" fill="white" />
        </mask>
        <g mask="url(#mask18_2057_328)">
            <path d="M1405.17 12.8699L1411.96 19.6564H1426.27L1419.48 12.8699H1405.17Z" fill="#F95D51" />
        </g>
        <mask id="mask19_2057_328" style="mask-type:luminance" maskUnits="userSpaceOnUse" x="1397" y="6" width="42"
            height="14">
            <path d="M1397.32 6.00009H1438.66V20.0001H1397.32V6.00009Z" fill="white" />
        </mask>
        <g mask="url(#mask19_2057_328)">
            <path
                d="M1398.43 6.02613L1403.66 11.2553C1405.65 11.2501 1414.34 11.2397 1421.01 11.2397L1429.41 19.6407H1437.88L1424.27 6.02613C1423.85 6.00009 1398.43 6.02613 1398.43 6.02613ZM1423.18 8.79176C1422.81 8.79176 1422.51 8.49488 1422.51 8.11988C1422.51 7.75009 1422.81 7.45321 1423.18 7.45321C1423.55 7.45321 1423.85 7.75009 1423.85 8.11988C1423.85 8.49488 1423.55 8.79176 1423.18 8.79176Z"
                fill="#F95D51" />
        </g>
        <mask id="mask20_2057_328" style="mask-type:luminance" maskUnits="userSpaceOnUse" x="1426" y="6" width="21"
            height="14">
            <path d="M1426.66 6.00009H1446.66V20.0001H1426.66V6.00009Z" fill="white" />
        </mask>
        <g mask="url(#mask20_2057_328)">
            <path d="M1428.15 6.00009L1441.57 19.4272H1446.38L1432.96 6.00009H1428.15Z" fill="#F95D51" />
        </g>
        <g filter="url(#filter15_ddi_2057_328)">
            <path
                d="M1436.15 6L1449.58 19.4271L1563.65 19.4271L1550.65 6H1436.15ZM1560.03 11.0313C1559.23 11.0313 1558.58 10.3802 1558.58 9.57813C1558.58 8.77604 1559.23 8.125 1560.03 8.125C1560.84 8.125 1561.49 8.77604 1561.49 9.57813C1561.49 10.3802 1560.84 11.0313 1560.03 11.0313Z"
                fill="#F95D51" />
        </g>
    </g>
    <defs>
        <filter id="filter0_d_2057_328" x="-128.5" y="2" width="250" height="22.0001" filterUnits="userSpaceOnUse"
            color-interpolation-filters="sRGB">
            <feFlood flood-opacity="0" result="BackgroundImageFix" />
            <feColorMatrix in="SourceAlpha" type="matrix" values="0 0 0 0 0 0 0 0 0 0 0 0 0 0 0 0 0 0 127 0"
                result="hardAlpha" />
            <feOffset />
            <feGaussianBlur stdDeviation="2" />
            <feComposite in2="hardAlpha" operator="out" />
            <feColorMatrix type="matrix" values="0 0 0 0 0.694118 0 0 0 0 0.956863 0 0 0 0 0.537255 0 0 0 0.5 0" />
            <feBlend mode="normal" in2="BackgroundImageFix" result="effect1_dropShadow_2057_328" />
            <feBlend mode="normal" in="SourceGraphic" in2="effect1_dropShadow_2057_328" result="shape" />
        </filter>
        <filter id="filter1_ddi_2057_328" x="-98.6758" y="0" width="228.676" height="39.4271"
            filterUnits="userSpaceOnUse" color-interpolation-filters="sRGB">
            <feFlood flood-opacity="0" result="BackgroundImageFix" />
            <feColorMatrix in="SourceAlpha" type="matrix" values="0 0 0 0 0 0 0 0 0 0 0 0 0 0 0 0 0 0 127 0"
                result="hardAlpha" />
            <feOffset dy="7" />
            <feGaussianBlur stdDeviation="6.5" />
            <feColorMatrix type="matrix" values="0 0 0 0 0 0 0 0 0 0 0 0 0 0 0 0 0 0 0.3 0" />
            <feBlend mode="normal" in2="BackgroundImageFix" result="effect1_dropShadow_2057_328" />
            <feColorMatrix in="SourceAlpha" type="matrix" values="0 0 0 0 0 0 0 0 0 0 0 0 0 0 0 0 0 0 127 0"
                result="hardAlpha" />
            <feOffset dy="2" />
            <feGaussianBlur stdDeviation="2" />
            <feColorMatrix type="matrix" values="0 0 0 0 0 0 0 0 0 0 0 0 0 0 0 0 0 0 0.4 0" />
            <feBlend mode="normal" in2="effect1_dropShadow_2057_328" result="effect2_dropShadow_2057_328" />
            <feBlend mode="normal" in="SourceGraphic" in2="effect2_dropShadow_2057_328" result="shape" />
            <feColorMatrix in="SourceAlpha" type="matrix" values="0 0 0 0 0 0 0 0 0 0 0 0 0 0 0 0 0 0 127 0"
                result="hardAlpha" />
            <feOffset dy="-3" />
            <feComposite in2="hardAlpha" operator="arithmetic" k2="-1" k3="1" />
            <feColorMatrix type="matrix" values="0 0 0 0 0 0 0 0 0 0 0 0 0 0 0 0 0 0 0.2 0" />
            <feBlend mode="normal" in2="shape" result="effect3_innerShadow_2057_328" />
        </filter>
        <filter id="filter2_d_2057_328" x="110.5" y="2" width="174.824" height="22.0001" filterUnits="userSpaceOnUse"
            color-interpolation-filters="sRGB">
            <feFlood flood-opacity="0" result="BackgroundImageFix" />
            <feColorMatrix in="SourceAlpha" type="matrix" values="0 0 0 0 0 0 0 0 0 0 0 0 0 0 0 0 0 0 127 0"
                result="hardAlpha" />
            <feOffset />
            <feGaussianBlur stdDeviation="2" />
            <feComposite in2="hardAlpha" operator="out" />
            <feColorMatrix type="matrix" values="0 0 0 0 0.976471 0 0 0 0 0.364706 0 0 0 0 0.317647 0 0 0 0.5 0" />
            <feBlend mode="normal" in2="BackgroundImageFix" result="effect1_dropShadow_2057_328" />
            <feBlend mode="normal" in="SourceGraphic" in2="effect1_dropShadow_2057_328" result="shape" />
        </filter>
        <filter id="filter3_ddi_2057_328" x="140.324" y="0" width="153.5" height="39.4271" filterUnits="userSpaceOnUse"
            color-interpolation-filters="sRGB">
            <feFlood flood-opacity="0" result="BackgroundImageFix" />
            <feColorMatrix in="SourceAlpha" type="matrix" values="0 0 0 0 0 0 0 0 0 0 0 0 0 0 0 0 0 0 127 0"
                result="hardAlpha" />
            <feOffset dy="7" />
            <feGaussianBlur stdDeviation="6.5" />
            <feColorMatrix type="matrix" values="0 0 0 0 0 0 0 0 0 0 0 0 0 0 0 0 0 0 0.3 0" />
            <feBlend mode="normal" in2="BackgroundImageFix" result="effect1_dropShadow_2057_328" />
            <feColorMatrix in="SourceAlpha" type="matrix" values="0 0 0 0 0 0 0 0 0 0 0 0 0 0 0 0 0 0 127 0"
                result="hardAlpha" />
            <feOffset dy="2" />
            <feGaussianBlur stdDeviation="2" />
            <feColorMatrix type="matrix" values="0 0 0 0 0 0 0 0 0 0 0 0 0 0 0 0 0 0 0.4 0" />
            <feBlend mode="normal" in2="effect1_dropShadow_2057_328" result="effect2_dropShadow_2057_328" />
            <feBlend mode="normal" in="SourceGraphic" in2="effect2_dropShadow_2057_328" result="shape" />
            <feColorMatrix in="SourceAlpha" type="matrix" values="0 0 0 0 0 0 0 0 0 0 0 0 0 0 0 0 0 0 127 0"
                result="hardAlpha" />
            <feOffset dy="-3" />
            <feComposite in2="hardAlpha" operator="arithmetic" k2="-1" k3="1" />
            <feColorMatrix type="matrix" values="0 0 0 0 0 0 0 0 0 0 0 0 0 0 0 0 0 0 0.2 0" />
            <feBlend mode="normal" in2="shape" result="effect3_innerShadow_2057_328" />
        </filter>
        <filter id="filter4_d_2057_328" x="274.324" y="2" width="196" height="22.0001" filterUnits="userSpaceOnUse"
            color-interpolation-filters="sRGB">
            <feFlood flood-opacity="0" result="BackgroundImageFix" />
            <feColorMatrix in="SourceAlpha" type="matrix" values="0 0 0 0 0 0 0 0 0 0 0 0 0 0 0 0 0 0 127 0"
                result="hardAlpha" />
            <feOffset />
            <feGaussianBlur stdDeviation="2" />
            <feComposite in2="hardAlpha" operator="out" />
            <feColorMatrix type="matrix" values="0 0 0 0 0 0 0 0 0 1 0 0 0 0 1 0 0 0 0.5 0" />
            <feBlend mode="normal" in2="BackgroundImageFix" result="effect1_dropShadow_2057_328" />
            <feBlend mode="normal" in="SourceGraphic" in2="effect1_dropShadow_2057_328" result="shape" />
        </filter>
        <filter id="filter5_ddi_2057_328" x="304.148" y="0" width="174.676" height="39.4271"
            filterUnits="userSpaceOnUse" color-interpolation-filters="sRGB">
            <feFlood flood-opacity="0" result="BackgroundImageFix" />
            <feColorMatrix in="SourceAlpha" type="matrix" values="0 0 0 0 0 0 0 0 0 0 0 0 0 0 0 0 0 0 127 0"
                result="hardAlpha" />
            <feOffset dy="7" />
            <feGaussianBlur stdDeviation="6.5" />
            <feColorMatrix type="matrix" values="0 0 0 0 0 0 0 0 0 0 0 0 0 0 0 0 0 0 0.3 0" />
            <feBlend mode="normal" in2="BackgroundImageFix" result="effect1_dropShadow_2057_328" />
            <feColorMatrix in="SourceAlpha" type="matrix" values="0 0 0 0 0 0 0 0 0 0 0 0 0 0 0 0 0 0 127 0"
                result="hardAlpha" />
            <feOffset dy="2" />
            <feGaussianBlur stdDeviation="2" />
            <feColorMatrix type="matrix" values="0 0 0 0 0 0 0 0 0 0 0 0 0 0 0 0 0 0 0.4 0" />
            <feBlend mode="normal" in2="effect1_dropShadow_2057_328" result="effect2_dropShadow_2057_328" />
            <feBlend mode="normal" in="SourceGraphic" in2="effect2_dropShadow_2057_328" result="shape" />
            <feColorMatrix in="SourceAlpha" type="matrix" values="0 0 0 0 0 0 0 0 0 0 0 0 0 0 0 0 0 0 127 0"
                result="hardAlpha" />
            <feOffset dy="-3" />
            <feComposite in2="hardAlpha" operator="arithmetic" k2="-1" k3="1" />
            <feColorMatrix type="matrix" values="0 0 0 0 0 0 0 0 0 0 0 0 0 0 0 0 0 0 0.2 0" />
            <feBlend mode="normal" in2="shape" result="effect3_innerShadow_2057_328" />
        </filter>
        <filter id="filter6_d_2057_328" x="459.324" y="2" width="250" height="22.0001" filterUnits="userSpaceOnUse"
            color-interpolation-filters="sRGB">
            <feFlood flood-opacity="0" result="BackgroundImageFix" />
            <feColorMatrix in="SourceAlpha" type="matrix" values="0 0 0 0 0 0 0 0 0 0 0 0 0 0 0 0 0 0 127 0"
                result="hardAlpha" />
            <feOffset />
            <feGaussianBlur stdDeviation="2" />
            <feComposite in2="hardAlpha" operator="out" />
            <feColorMatrix type="matrix" values="0 0 0 0 0.921569 0 0 0 0 0.705882 0 0 0 0 0.721569 0 0 0 0.5 0" />
            <feBlend mode="normal" in2="BackgroundImageFix" result="effect1_dropShadow_2057_328" />
            <feBlend mode="normal" in="SourceGraphic" in2="effect1_dropShadow_2057_328" result="shape" />
        </filter>
        <filter id="filter7_ddi_2057_328" x="489.148" y="0" width="228.676" height="39.4271"
            filterUnits="userSpaceOnUse" color-interpolation-filters="sRGB">
            <feFlood flood-opacity="0" result="BackgroundImageFix" />
            <feColorMatrix in="SourceAlpha" type="matrix" values="0 0 0 0 0 0 0 0 0 0 0 0 0 0 0 0 0 0 127 0"
                result="hardAlpha" />
            <feOffset dy="7" />
            <feGaussianBlur stdDeviation="6.5" />
            <feColorMatrix type="matrix" values="0 0 0 0 0 0 0 0 0 0 0 0 0 0 0 0 0 0 0.3 0" />
            <feBlend mode="normal" in2="BackgroundImageFix" result="effect1_dropShadow_2057_328" />
            <feColorMatrix in="SourceAlpha" type="matrix" values="0 0 0 0 0 0 0 0 0 0 0 0 0 0 0 0 0 0 127 0"
                result="hardAlpha" />
            <feOffset dy="2" />
            <feGaussianBlur stdDeviation="2" />
            <feColorMatrix type="matrix" values="0 0 0 0 0 0 0 0 0 0 0 0 0 0 0 0 0 0 0.4 0" />
            <feBlend mode="normal" in2="effect1_dropShadow_2057_328" result="effect2_dropShadow_2057_328" />
            <feBlend mode="normal" in="SourceGraphic" in2="effect2_dropShadow_2057_328" result="shape" />
            <feColorMatrix in="SourceAlpha" type="matrix" values="0 0 0 0 0 0 0 0 0 0 0 0 0 0 0 0 0 0 127 0"
                result="hardAlpha" />
            <feOffset dy="-3" />
            <feComposite in2="hardAlpha" operator="arithmetic" k2="-1" k3="1" />
            <feColorMatrix type="matrix" values="0 0 0 0 0 0 0 0 0 0 0 0 0 0 0 0 0 0 0.2 0" />
            <feBlend mode="normal" in2="shape" result="effect3_innerShadow_2057_328" />
        </filter>
        <filter id="filter8_d_2057_328" x="698.324" y="2" width="250" height="22.0001" filterUnits="userSpaceOnUse"
            color-interpolation-filters="sRGB">
            <feFlood flood-opacity="0" result="BackgroundImageFix" />
            <feColorMatrix in="SourceAlpha" type="matrix" values="0 0 0 0 0 0 0 0 0 0 0 0 0 0 0 0 0 0 127 0"
                result="hardAlpha" />
            <feOffset />
            <feGaussianBlur stdDeviation="2" />
            <feComposite in2="hardAlpha" operator="out" />
            <feColorMatrix type="matrix" values="0 0 0 0 0.721569 0 0 0 0 0.666667 0 0 0 0 0.552941 0 0 0 0.5 0" />
            <feBlend mode="normal" in2="BackgroundImageFix" result="effect1_dropShadow_2057_328" />
            <feBlend mode="normal" in="SourceGraphic" in2="effect1_dropShadow_2057_328" result="shape" />
        </filter>
        <filter id="filter9_ddi_2057_328" x="728.148" y="0" width="228.676" height="39.4271"
            filterUnits="userSpaceOnUse" color-interpolation-filters="sRGB">
            <feFlood flood-opacity="0" result="BackgroundImageFix" />
            <feColorMatrix in="SourceAlpha" type="matrix" values="0 0 0 0 0 0 0 0 0 0 0 0 0 0 0 0 0 0 127 0"
                result="hardAlpha" />
            <feOffset dy="7" />
            <feGaussianBlur stdDeviation="6.5" />
            <feColorMatrix type="matrix" values="0 0 0 0 0 0 0 0 0 0 0 0 0 0 0 0 0 0 0.3 0" />
            <feBlend mode="normal" in2="BackgroundImageFix" result="effect1_dropShadow_2057_328" />
            <feColorMatrix in="SourceAlpha" type="matrix" values="0 0 0 0 0 0 0 0 0 0 0 0 0 0 0 0 0 0 127 0"
                result="hardAlpha" />
            <feOffset dy="2" />
            <feGaussianBlur stdDeviation="2" />
            <feColorMatrix type="matrix" values="0 0 0 0 0 0 0 0 0 0 0 0 0 0 0 0 0 0 0.4 0" />
            <feBlend mode="normal" in2="effect1_dropShadow_2057_328" result="effect2_dropShadow_2057_328" />
            <feBlend mode="normal" in="SourceGraphic" in2="effect2_dropShadow_2057_328" result="shape" />
            <feColorMatrix in="SourceAlpha" type="matrix" values="0 0 0 0 0 0 0 0 0 0 0 0 0 0 0 0 0 0 127 0"
                result="hardAlpha" />
            <feOffset dy="-3" />
            <feComposite in2="hardAlpha" operator="arithmetic" k2="-1" k3="1" />
            <feColorMatrix type="matrix" values="0 0 0 0 0 0 0 0 0 0 0 0 0 0 0 0 0 0 0.2 0" />
            <feBlend mode="normal" in2="shape" result="effect3_innerShadow_2057_328" />
        </filter>
        <filter id="filter10_d_2057_328" x="937.324" y="2" width="228" height="22.0001" filterUnits="userSpaceOnUse"
            color-interpolation-filters="sRGB">
            <feFlood flood-opacity="0" result="BackgroundImageFix" />
            <feColorMatrix in="SourceAlpha" type="matrix" values="0 0 0 0 0 0 0 0 0 0 0 0 0 0 0 0 0 0 127 0"
                result="hardAlpha" />
            <feOffset />
            <feGaussianBlur stdDeviation="2" />
            <feComposite in2="hardAlpha" operator="out" />
            <feColorMatrix type="matrix" values="0 0 0 0 0.603922 0 0 0 0 0.396078 0 0 0 0 0.768627 0 0 0 0.5 0" />
            <feBlend mode="normal" in2="BackgroundImageFix" result="effect1_dropShadow_2057_328" />
            <feBlend mode="normal" in="SourceGraphic" in2="effect1_dropShadow_2057_328" result="shape" />
        </filter>
        <filter id="filter11_ddi_2057_328" x="967.148" y="0" width="207.176" height="39.4271"
            filterUnits="userSpaceOnUse" color-interpolation-filters="sRGB">
            <feFlood flood-opacity="0" result="BackgroundImageFix" />
            <feColorMatrix in="SourceAlpha" type="matrix" values="0 0 0 0 0 0 0 0 0 0 0 0 0 0 0 0 0 0 127 0"
                result="hardAlpha" />
            <feOffset dy="7" />
            <feGaussianBlur stdDeviation="6.5" />
            <feColorMatrix type="matrix" values="0 0 0 0 0 0 0 0 0 0 0 0 0 0 0 0 0 0 0.3 0" />
            <feBlend mode="normal" in2="BackgroundImageFix" result="effect1_dropShadow_2057_328" />
            <feColorMatrix in="SourceAlpha" type="matrix" values="0 0 0 0 0 0 0 0 0 0 0 0 0 0 0 0 0 0 127 0"
                result="hardAlpha" />
            <feOffset dy="2" />
            <feGaussianBlur stdDeviation="2" />
            <feColorMatrix type="matrix" values="0 0 0 0 0 0 0 0 0 0 0 0 0 0 0 0 0 0 0.4 0" />
            <feBlend mode="normal" in2="effect1_dropShadow_2057_328" result="effect2_dropShadow_2057_328" />
            <feBlend mode="normal" in="SourceGraphic" in2="effect2_dropShadow_2057_328" result="shape" />
            <feColorMatrix in="SourceAlpha" type="matrix" values="0 0 0 0 0 0 0 0 0 0 0 0 0 0 0 0 0 0 127 0"
                result="hardAlpha" />
            <feOffset dy="-3" />
            <feComposite in2="hardAlpha" operator="arithmetic" k2="-1" k3="1" />
            <feColorMatrix type="matrix" values="0 0 0 0 0 0 0 0 0 0 0 0 0 0 0 0 0 0 0.2 0" />
            <feBlend mode="normal" in2="shape" result="effect3_innerShadow_2057_328" />
        </filter>
        <filter id="filter12_d_2057_328" x="1154.32" y="2" width="250" height="22.0001" filterUnits="userSpaceOnUse"
            color-interpolation-filters="sRGB">
            <feFlood flood-opacity="0" result="BackgroundImageFix" />
            <feColorMatrix in="SourceAlpha" type="matrix" values="0 0 0 0 0 0 0 0 0 0 0 0 0 0 0 0 0 0 127 0"
                result="hardAlpha" />
            <feOffset />
            <feGaussianBlur stdDeviation="2" />
            <feComposite in2="hardAlpha" operator="out" />
            <feColorMatrix type="matrix" values="0 0 0 0 0.694118 0 0 0 0 0.956863 0 0 0 0 0.537255 0 0 0 0.5 0" />
            <feBlend mode="normal" in2="BackgroundImageFix" result="effect1_dropShadow_2057_328" />
            <feBlend mode="normal" in="SourceGraphic" in2="effect1_dropShadow_2057_328" result="shape" />
        </filter>
        <filter id="filter13_ddi_2057_328" x="1184.15" y="0" width="228.676" height="39.4271"
            filterUnits="userSpaceOnUse" color-interpolation-filters="sRGB">
            <feFlood flood-opacity="0" result="BackgroundImageFix" />
            <feColorMatrix in="SourceAlpha" type="matrix" values="0 0 0 0 0 0 0 0 0 0 0 0 0 0 0 0 0 0 127 0"
                result="hardAlpha" />
            <feOffset dy="7" />
            <feGaussianBlur stdDeviation="6.5" />
            <feColorMatrix type="matrix" values="0 0 0 0 0 0 0 0 0 0 0 0 0 0 0 0 0 0 0.3 0" />
            <feBlend mode="normal" in2="BackgroundImageFix" result="effect1_dropShadow_2057_328" />
            <feColorMatrix in="SourceAlpha" type="matrix" values="0 0 0 0 0 0 0 0 0 0 0 0 0 0 0 0 0 0 127 0"
                result="hardAlpha" />
            <feOffset dy="2" />
            <feGaussianBlur stdDeviation="2" />
            <feColorMatrix type="matrix" values="0 0 0 0 0 0 0 0 0 0 0 0 0 0 0 0 0 0 0.4 0" />
            <feBlend mode="normal" in2="effect1_dropShadow_2057_328" result="effect2_dropShadow_2057_328" />
            <feBlend mode="normal" in="SourceGraphic" in2="effect2_dropShadow_2057_328" result="shape" />
            <feColorMatrix in="SourceAlpha" type="matrix" values="0 0 0 0 0 0 0 0 0 0 0 0 0 0 0 0 0 0 127 0"
                result="hardAlpha" />
            <feOffset dy="-3" />
            <feComposite in2="hardAlpha" operator="arithmetic" k2="-1" k3="1" />
            <feColorMatrix type="matrix" values="0 0 0 0 0 0 0 0 0 0 0 0 0 0 0 0 0 0 0.2 0" />
            <feBlend mode="normal" in2="shape" result="effect3_innerShadow_2057_328" />
        </filter>
        <filter id="filter14_d_2057_328" x="1393.32" y="2" width="174.824" height="22.0001" filterUnits="userSpaceOnUse"
            color-interpolation-filters="sRGB">
            <feFlood flood-opacity="0" result="BackgroundImageFix" />
            <feColorMatrix in="SourceAlpha" type="matrix" values="0 0 0 0 0 0 0 0 0 0 0 0 0 0 0 0 0 0 127 0"
                result="hardAlpha" />
            <feOffset />
            <feGaussianBlur stdDeviation="2" />
            <feComposite in2="hardAlpha" operator="out" />
            <feColorMatrix type="matrix" values="0 0 0 0 0.976471 0 0 0 0 0.364706 0 0 0 0 0.317647 0 0 0 0.5 0" />
            <feBlend mode="normal" in2="BackgroundImageFix" result="effect1_dropShadow_2057_328" />
            <feBlend mode="normal" in="SourceGraphic" in2="effect1_dropShadow_2057_328" result="shape" />
        </filter>
        <filter id="filter15_ddi_2057_328" x="1423.15" y="0" width="153.5" height="39.4271" filterUnits="userSpaceOnUse"
            color-interpolation-filters="sRGB">
            <feFlood flood-opacity="0" result="BackgroundImageFix" />
            <feColorMatrix in="SourceAlpha" type="matrix" values="0 0 0 0 0 0 0 0 0 0 0 0 0 0 0 0 0 0 127 0"
                result="hardAlpha" />
            <feOffset dy="7" />
            <feGaussianBlur stdDeviation="6.5" />
            <feColorMatrix type="matrix" values="0 0 0 0 0 0 0 0 0 0 0 0 0 0 0 0 0 0 0.3 0" />
            <feBlend mode="normal" in2="BackgroundImageFix" result="effect1_dropShadow_2057_328" />
            <feColorMatrix in="SourceAlpha" type="matrix" values="0 0 0 0 0 0 0 0 0 0 0 0 0 0 0 0 0 0 127 0"
                result="hardAlpha" />
            <feOffset dy="2" />
            <feGaussianBlur stdDeviation="2" />
            <feColorMatrix type="matrix" values="0 0 0 0 0 0 0 0 0 0 0 0 0 0 0 0 0 0 0.4 0" />
            <feBlend mode="normal" in2="effect1_dropShadow_2057_328" result="effect2_dropShadow_2057_328" />
            <feBlend mode="normal" in="SourceGraphic" in2="effect2_dropShadow_2057_328" result="shape" />
            <feColorMatrix in="SourceAlpha" type="matrix" values="0 0 0 0 0 0 0 0 0 0 0 0 0 0 0 0 0 0 127 0"
                result="hardAlpha" />
            <feOffset dy="-3" />
            <feComposite in2="hardAlpha" operator="arithmetic" k2="-1" k3="1" />
            <feColorMatrix type="matrix" values="0 0 0 0 0 0 0 0 0 0 0 0 0 0 0 0 0 0 0.2 0" />
            <feBlend mode="normal" in2="shape" result="effect3_innerShadow_2057_328" />
        </filter>
    </defs>
</svg>