<svg width="428" height="329" viewBox="0 0 428 329" fill="none" xmlns="http://www.w3.org/2000/svg">
    <g filter="url(#filter0_ddi_2057_586)">
        <path d="M34.2504 285.724L43.0847 275.176H124.688L115.834 285.724H34.2504Z" fill="#B1F489" />
    </g>
    <mask id="mask0_2057_586" style="mask-type:luminance" maskUnits="userSpaceOnUse" x="343" y="197" width="85"
        height="113">
        <path d="M428 309.408H343.694V197.305H428V309.408Z" fill="white" />
    </mask>
    <g mask="url(#mask0_2057_586)">
        <path
            d="M418.403 200.541L427.484 211.375V233.175L364.864 307.828H343.959V306.058H364.026L425.714 232.527V212.003L417.032 201.684L418.403 200.541Z"
            fill="url(#paint0_linear_2057_586)" />
    </g>
    <g filter="url(#filter1_ddi_2057_586)">
        <path d="M311.174 328.106L320.047 317.52L382.21 243.457H399.955L328.938 328.106H311.174Z" fill="#B1F489" />
    </g>
    <path
        d="M419.053 155.133V212.194L391.712 244.789H382.821L320.676 318.853H263.92L283.911 295.015H319.439L389.751 211.223V190.051L419.053 155.133ZM416.387 211.223V162.444L392.417 191.022V212.194L320.676 297.681H285.149L269.632 316.187H319.439L381.583 242.124H390.456L416.387 211.223Z"
        fill="url(#paint1_linear_2057_586)" />
    <path d="M275.652 307.829H204.635V306.058H275.652V307.829Z" fill="url(#paint2_linear_2057_586)" />
    <mask id="mask1_2057_586" style="mask-type:luminance" maskUnits="userSpaceOnUse" x="31" y="36" width="397"
        height="284">
        <path d="M428 319.157H31.7523V36.46H428V319.157Z" fill="white" />
    </mask>
    <g mask="url(#mask1_2057_586)">
        <path
            d="M427.92 37.7741V127.507L401.284 159.264V179.96H398.637L398.618 158.293L425.254 126.536V45.2375L401.284 74.5772V116.921L383.539 138.093V201.589L311.78 287.095H222.999L196.363 318.853H33.0621L53.0535 295.015H106.345L132.962 263.277L222.999 263.258L231.871 273.843H319.434L380.874 200.618V137.122L398.618 115.95V73.6252L427.92 37.7741ZM317.206 276.509H230.634L221.761 265.923L134.199 265.942L107.582 297.681H54.291L38.7739 316.187H195.125L221.761 284.448H310.542L317.206 276.509Z"
            fill="url(#paint3_linear_2057_586)" />
    </g>
    <path d="M319.628 253.128H337.811V254.918H320.466L302.968 275.766L301.617 274.624L319.628 253.128Z"
        fill="url(#paint4_linear_2057_586)" />
    <g filter="url(#filter2_ddi_2057_586)">
        <path d="M391.083 296.348L417.719 264.609V296.348H391.083Z" fill="#B1F489" />
    </g>
    <path d="M409.723 168.498H407.952V148.183H409.723V168.498Z" fill="url(#paint5_linear_2057_586)" />
    <mask id="mask2_2057_586" style="mask-type:luminance" maskUnits="userSpaceOnUse" x="0" y="294" width="47"
        height="26">
        <path d="M46.3789 319.157H0.303593V294.787H46.3789V319.157Z" fill="white" />
    </mask>
    <g mask="url(#mask2_2057_586)">
        <g filter="url(#filter3_ddi_2057_586)">
            <path d="M44.8008 296.347L27.0561 317.519H0.400928L18.1647 296.347H44.8008Z" fill="#B1F489" />
        </g>
    </g>
    <path d="M381.525 189.594L382.877 190.717L329.605 254.595L328.253 253.452L381.525 189.594Z"
        fill="url(#paint6_linear_2057_586)" />
    <mask id="mask3_2057_586" style="mask-type:luminance" maskUnits="userSpaceOnUse" x="119" y="304" width="123"
        height="25">
        <path d="M241.34 329H119.488V304.534H241.34V329Z" fill="white" />
    </mask>
    <g mask="url(#mask3_2057_586)">
        <path
            d="M239.453 306.362L240.824 307.505L222.794 329H133.176L124.037 318.09L125.388 316.948L133.994 327.21H221.975L239.453 306.362Z"
            fill="url(#paint7_linear_2057_586)" />
    </g>
    <path d="M404.148 174.439H405.023V216.954L395.98 227.749V238.145H395.085V227.425L404.148 216.63V174.439Z"
        fill="url(#paint8_linear_2057_586)" />
    <path d="M293.223 306.495H328.922V307.39H293.623L284.884 317.805L284.217 317.234L293.223 306.495Z"
        fill="url(#paint9_linear_2057_586)" />
    <path
        d="M271.596 289.95H325.059V290.826H272.015L262.743 301.888H227.215L222.722 307.238L222.056 306.667L226.796 300.993H262.324L271.596 289.95Z"
        fill="url(#paint10_linear_2057_586)" />
    <path d="M257.524 285.438L258.209 286.009L251.507 293.968H215.999V293.073H251.107L257.524 285.438Z"
        fill="url(#paint11_linear_2057_586)" />
    <path d="M213.298 317.101H231.271V317.976H213.717L204.959 328.41L204.293 327.839L213.298 317.101Z"
        fill="url(#paint12_linear_2057_586)" />
    <path
        d="M62.3687 306.495H99.0195L89.557 317.805L88.8715 317.234L97.1156 307.39H62.7876L54.0295 317.805L53.344 317.234L62.3687 306.495Z"
        fill="url(#paint13_linear_2057_586)" />
    <path
        d="M417.281 52.3578H418.176V127.544L418.062 127.678L395.976 153.666V185.234H395.081V153.343L395.195 153.209L417.281 127.221V52.3578Z"
        fill="url(#paint14_linear_2057_586)" />
    <path d="M393.602 188.242H392.707V124.574H393.602V188.242Z" fill="url(#paint15_linear_2057_586)" />
    <path
        d="M368.868 227.33H377.607V228.225H369.287L325.63 281.154L329.266 285.514L328.6 286.086L324.488 281.154L324.716 280.869L368.868 227.33Z"
        fill="url(#paint16_linear_2057_586)" />
    <path
        d="M417.74 243V243.895H409.058L373.778 285.953V296.348H372.883V285.629L372.998 285.515L408.639 243.019L417.74 243Z"
        fill="url(#paint17_linear_2057_586)" />
    <path
        d="M224.817 267.598L225.502 268.169L207.586 289.474H124.917L99.347 317.805L98.6996 317.215L124.517 288.579H207.167L224.817 267.598Z"
        fill="url(#paint18_linear_2057_586)" />
    <path d="M195.952 306.739H178.188L204.824 275H222.588L195.952 306.739Z" fill="#1C1C1C" />
    <path d="M171.551 306.934H153.788L180.424 275.195H198.188L171.551 306.934Z" fill="#1C1C1C" />
    <path d="M147.151 306.934H129.387L156.023 275.195H173.787L147.151 306.934Z" fill="#1C1C1C" />
    <path d="M268.952 306.739H251.188L277.824 275H295.588L268.952 306.739Z" fill="#1C1C1C" />
    <path d="M244.551 306.934H226.788L253.424 275.195H271.188L244.551 306.934Z" fill="#1C1C1C" />
    <path d="M220.151 306.934H202.387L229.023 275.195H246.787L220.151 306.934Z" fill="#1C1C1C" />
    <g filter="url(#filter4_d_2057_586)">
        <path d="M122.751 306.934H104.987L131.623 275.195H149.387L122.751 306.934Z" fill="white" />
        <path d="M122.751 306.934H104.987L131.623 275.195H149.387L122.751 306.934Z"
            fill="url(#paint19_linear_2057_586)" />
        <path d="M106.06 306.434L131.855 275.695H148.313L122.518 306.434H106.06Z"
            stroke="url(#paint20_linear_2057_586)" />
        <path d="M106.06 306.434L131.855 275.695H148.313L122.518 306.434H106.06Z" stroke="black" stroke-opacity="0.2" />
    </g>
    <defs>
        <filter id="filter0_ddi_2057_586" x="21.25" y="269.176" width="116.438" height="36.5479"
            filterUnits="userSpaceOnUse" color-interpolation-filters="sRGB">
            <feFlood flood-opacity="0" result="BackgroundImageFix" />
            <feColorMatrix in="SourceAlpha" type="matrix" values="0 0 0 0 0 0 0 0 0 0 0 0 0 0 0 0 0 0 127 0"
                result="hardAlpha" />
            <feOffset dy="7" />
            <feGaussianBlur stdDeviation="6.5" />
            <feColorMatrix type="matrix" values="0 0 0 0 0 0 0 0 0 0 0 0 0 0 0 0 0 0 0.3 0" />
            <feBlend mode="normal" in2="BackgroundImageFix" result="effect1_dropShadow_2057_586" />
            <feColorMatrix in="SourceAlpha" type="matrix" values="0 0 0 0 0 0 0 0 0 0 0 0 0 0 0 0 0 0 127 0"
                result="hardAlpha" />
            <feOffset dy="2" />
            <feGaussianBlur stdDeviation="2" />
            <feColorMatrix type="matrix" values="0 0 0 0 0 0 0 0 0 0 0 0 0 0 0 0 0 0 0.4 0" />
            <feBlend mode="normal" in2="effect1_dropShadow_2057_586" result="effect2_dropShadow_2057_586" />
            <feBlend mode="normal" in="SourceGraphic" in2="effect2_dropShadow_2057_586" result="shape" />
            <feColorMatrix in="SourceAlpha" type="matrix" values="0 0 0 0 0 0 0 0 0 0 0 0 0 0 0 0 0 0 127 0"
                result="hardAlpha" />
            <feOffset dy="-3" />
            <feComposite in2="hardAlpha" operator="arithmetic" k2="-1" k3="1" />
            <feColorMatrix type="matrix" values="0 0 0 0 0 0 0 0 0 0 0 0 0 0 0 0 0 0 0.2 0" />
            <feBlend mode="normal" in2="shape" result="effect3_innerShadow_2057_586" />
        </filter>
        <filter id="filter1_ddi_2057_586" x="298.174" y="237.457" width="114.781" height="110.649"
            filterUnits="userSpaceOnUse" color-interpolation-filters="sRGB">
            <feFlood flood-opacity="0" result="BackgroundImageFix" />
            <feColorMatrix in="SourceAlpha" type="matrix" values="0 0 0 0 0 0 0 0 0 0 0 0 0 0 0 0 0 0 127 0"
                result="hardAlpha" />
            <feOffset dy="7" />
            <feGaussianBlur stdDeviation="6.5" />
            <feColorMatrix type="matrix" values="0 0 0 0 0 0 0 0 0 0 0 0 0 0 0 0 0 0 0.3 0" />
            <feBlend mode="normal" in2="BackgroundImageFix" result="effect1_dropShadow_2057_586" />
            <feColorMatrix in="SourceAlpha" type="matrix" values="0 0 0 0 0 0 0 0 0 0 0 0 0 0 0 0 0 0 127 0"
                result="hardAlpha" />
            <feOffset dy="2" />
            <feGaussianBlur stdDeviation="2" />
            <feColorMatrix type="matrix" values="0 0 0 0 0 0 0 0 0 0 0 0 0 0 0 0 0 0 0.4 0" />
            <feBlend mode="normal" in2="effect1_dropShadow_2057_586" result="effect2_dropShadow_2057_586" />
            <feBlend mode="normal" in="SourceGraphic" in2="effect2_dropShadow_2057_586" result="shape" />
            <feColorMatrix in="SourceAlpha" type="matrix" values="0 0 0 0 0 0 0 0 0 0 0 0 0 0 0 0 0 0 127 0"
                result="hardAlpha" />
            <feOffset dy="-3" />
            <feComposite in2="hardAlpha" operator="arithmetic" k2="-1" k3="1" />
            <feColorMatrix type="matrix" values="0 0 0 0 0 0 0 0 0 0 0 0 0 0 0 0 0 0 0.2 0" />
            <feBlend mode="normal" in2="shape" result="effect3_innerShadow_2057_586" />
        </filter>
        <filter id="filter2_ddi_2057_586" x="378.082" y="258.609" width="52.6367" height="57.7386"
            filterUnits="userSpaceOnUse" color-interpolation-filters="sRGB">
            <feFlood flood-opacity="0" result="BackgroundImageFix" />
            <feColorMatrix in="SourceAlpha" type="matrix" values="0 0 0 0 0 0 0 0 0 0 0 0 0 0 0 0 0 0 127 0"
                result="hardAlpha" />
            <feOffset dy="7" />
            <feGaussianBlur stdDeviation="6.5" />
            <feColorMatrix type="matrix" values="0 0 0 0 0 0 0 0 0 0 0 0 0 0 0 0 0 0 0.3 0" />
            <feBlend mode="normal" in2="BackgroundImageFix" result="effect1_dropShadow_2057_586" />
            <feColorMatrix in="SourceAlpha" type="matrix" values="0 0 0 0 0 0 0 0 0 0 0 0 0 0 0 0 0 0 127 0"
                result="hardAlpha" />
            <feOffset dy="2" />
            <feGaussianBlur stdDeviation="2" />
            <feColorMatrix type="matrix" values="0 0 0 0 0 0 0 0 0 0 0 0 0 0 0 0 0 0 0.4 0" />
            <feBlend mode="normal" in2="effect1_dropShadow_2057_586" result="effect2_dropShadow_2057_586" />
            <feBlend mode="normal" in="SourceGraphic" in2="effect2_dropShadow_2057_586" result="shape" />
            <feColorMatrix in="SourceAlpha" type="matrix" values="0 0 0 0 0 0 0 0 0 0 0 0 0 0 0 0 0 0 127 0"
                result="hardAlpha" />
            <feOffset dy="-3" />
            <feComposite in2="hardAlpha" operator="arithmetic" k2="-1" k3="1" />
            <feColorMatrix type="matrix" values="0 0 0 0 0 0 0 0 0 0 0 0 0 0 0 0 0 0 0.2 0" />
            <feBlend mode="normal" in2="shape" result="effect3_innerShadow_2057_586" />
        </filter>
        <filter id="filter3_ddi_2057_586" x="-12.5996" y="290.348" width="70.4004" height="47.1718"
            filterUnits="userSpaceOnUse" color-interpolation-filters="sRGB">
            <feFlood flood-opacity="0" result="BackgroundImageFix" />
            <feColorMatrix in="SourceAlpha" type="matrix" values="0 0 0 0 0 0 0 0 0 0 0 0 0 0 0 0 0 0 127 0"
                result="hardAlpha" />
            <feOffset dy="7" />
            <feGaussianBlur stdDeviation="6.5" />
            <feColorMatrix type="matrix" values="0 0 0 0 0 0 0 0 0 0 0 0 0 0 0 0 0 0 0.3 0" />
            <feBlend mode="normal" in2="BackgroundImageFix" result="effect1_dropShadow_2057_586" />
            <feColorMatrix in="SourceAlpha" type="matrix" values="0 0 0 0 0 0 0 0 0 0 0 0 0 0 0 0 0 0 127 0"
                result="hardAlpha" />
            <feOffset dy="2" />
            <feGaussianBlur stdDeviation="2" />
            <feColorMatrix type="matrix" values="0 0 0 0 0 0 0 0 0 0 0 0 0 0 0 0 0 0 0.4 0" />
            <feBlend mode="normal" in2="effect1_dropShadow_2057_586" result="effect2_dropShadow_2057_586" />
            <feBlend mode="normal" in="SourceGraphic" in2="effect2_dropShadow_2057_586" result="shape" />
            <feColorMatrix in="SourceAlpha" type="matrix" values="0 0 0 0 0 0 0 0 0 0 0 0 0 0 0 0 0 0 127 0"
                result="hardAlpha" />
            <feOffset dy="-3" />
            <feComposite in2="hardAlpha" operator="arithmetic" k2="-1" k3="1" />
            <feColorMatrix type="matrix" values="0 0 0 0 0 0 0 0 0 0 0 0 0 0 0 0 0 0 0.2 0" />
            <feBlend mode="normal" in2="shape" result="effect3_innerShadow_2057_586" />
        </filter>
        <filter id="filter4_d_2057_586" x="96.9863" y="267.195" width="60.4004" height="47.7386"
            filterUnits="userSpaceOnUse" color-interpolation-filters="sRGB">
            <feFlood flood-opacity="0" result="BackgroundImageFix" />
            <feColorMatrix in="SourceAlpha" type="matrix" values="0 0 0 0 0 0 0 0 0 0 0 0 0 0 0 0 0 0 127 0"
                result="hardAlpha" />
            <feOffset />
            <feGaussianBlur stdDeviation="4" />
            <feComposite in2="hardAlpha" operator="out" />
            <feColorMatrix type="matrix" values="0 0 0 0 0.694118 0 0 0 0 0.956863 0 0 0 0 0.537255 0 0 0 0.5 0" />
            <feBlend mode="normal" in2="BackgroundImageFix" result="effect1_dropShadow_2057_586" />
            <feBlend mode="normal" in="SourceGraphic" in2="effect1_dropShadow_2057_586" result="shape" />
        </filter>
        <linearGradient id="paint0_linear_2057_586" x1="385.721" y1="200.541" x2="385.721" y2="307.828"
            gradientUnits="userSpaceOnUse">
            <stop stop-color="#1C1C1C" />
        </linearGradient>
        <linearGradient id="paint1_linear_2057_586" x1="341.486" y1="155.133" x2="341.486" y2="318.853"
            gradientUnits="userSpaceOnUse">
            <stop stop-color="#1C1C1C" />
        </linearGradient>
        <linearGradient id="paint2_linear_2057_586" x1="240.144" y1="306.058" x2="240.144" y2="307.829"
            gradientUnits="userSpaceOnUse">
            <stop stop-color="#1C1C1C" />
        </linearGradient>
        <linearGradient id="paint3_linear_2057_586" x1="230.491" y1="37.7741" x2="230.491" y2="318.853"
            gradientUnits="userSpaceOnUse">
            <stop stop-color="#1C1C1C" />
        </linearGradient>
        <linearGradient id="paint4_linear_2057_586" x1="319.714" y1="253.128" x2="319.714" y2="275.766"
            gradientUnits="userSpaceOnUse">
            <stop stop-color="#1C1C1C" />
        </linearGradient>
        <linearGradient id="paint5_linear_2057_586" x1="408.837" y1="148.183" x2="408.837" y2="168.498"
            gradientUnits="userSpaceOnUse">
            <stop stop-color="#1C1C1C" />
        </linearGradient>
        <linearGradient id="paint6_linear_2057_586" x1="355.565" y1="189.594" x2="355.565" y2="254.595"
            gradientUnits="userSpaceOnUse">
            <stop stop-color="#1C1C1C" />
        </linearGradient>
        <linearGradient id="paint7_linear_2057_586" x1="182.43" y1="306.362" x2="182.43" y2="329"
            gradientUnits="userSpaceOnUse">
            <stop stop-color="#1C1C1C" />
        </linearGradient>
        <linearGradient id="paint8_linear_2057_586" x1="400.054" y1="174.439" x2="400.054" y2="238.145"
            gradientUnits="userSpaceOnUse">
            <stop stop-color="#1C1C1C" />
        </linearGradient>
        <linearGradient id="paint9_linear_2057_586" x1="306.57" y1="306.495" x2="306.57" y2="317.805"
            gradientUnits="userSpaceOnUse">
            <stop stop-color="#1C1C1C" />
        </linearGradient>
        <linearGradient id="paint10_linear_2057_586" x1="273.557" y1="289.95" x2="273.557" y2="307.238"
            gradientUnits="userSpaceOnUse">
            <stop stop-color="#1C1C1C" />
        </linearGradient>
        <linearGradient id="paint11_linear_2057_586" x1="237.104" y1="285.438" x2="237.104" y2="293.968"
            gradientUnits="userSpaceOnUse">
            <stop stop-color="#1C1C1C" />
        </linearGradient>
        <linearGradient id="paint12_linear_2057_586" x1="217.782" y1="317.101" x2="217.782" y2="328.41"
            gradientUnits="userSpaceOnUse">
            <stop stop-color="#1C1C1C" />
        </linearGradient>
        <linearGradient id="paint13_linear_2057_586" x1="76.1818" y1="306.495" x2="76.1818" y2="317.805"
            gradientUnits="userSpaceOnUse">
            <stop stop-color="#1C1C1C" />
        </linearGradient>
        <linearGradient id="paint14_linear_2057_586" x1="406.628" y1="52.3578" x2="406.628" y2="185.234"
            gradientUnits="userSpaceOnUse">
            <stop stop-color="#1C1C1C" />
        </linearGradient>
        <linearGradient id="paint15_linear_2057_586" x1="393.154" y1="124.574" x2="393.154" y2="188.242"
            gradientUnits="userSpaceOnUse">
            <stop stop-color="#1C1C1C" />
        </linearGradient>
        <linearGradient id="paint16_linear_2057_586" x1="351.047" y1="227.33" x2="351.047" y2="286.086"
            gradientUnits="userSpaceOnUse">
            <stop stop-color="#1C1C1C" />
        </linearGradient>
        <linearGradient id="paint17_linear_2057_586" x1="395.312" y1="243" x2="395.312" y2="296.348"
            gradientUnits="userSpaceOnUse">
            <stop stop-color="#1C1C1C" />
        </linearGradient>
        <linearGradient id="paint18_linear_2057_586" x1="162.101" y1="267.598" x2="162.101" y2="317.805"
            gradientUnits="userSpaceOnUse">
            <stop stop-color="#1C1C1C" />
        </linearGradient>
        <linearGradient id="paint19_linear_2057_586" x1="123" y1="307" x2="149.5" y2="275.5"
            gradientUnits="userSpaceOnUse">
            <stop stop-color="#B1F489" stop-opacity="0.48" />
            <stop offset="1" stop-color="#B1F489" />
        </linearGradient>
        <linearGradient id="paint20_linear_2057_586" x1="122" y1="308.5" x2="148" y2="276"
            gradientUnits="userSpaceOnUse">
            <stop stop-color="#B1F489" />
            <stop offset="0.748262" stop-color="#B1F489" />
        </linearGradient>
    </defs>
</svg>