<svg width="11" height="13" viewBox="0 0 11 13" fill="none" xmlns="http://www.w3.org/2000/svg">
    <mask id="mask0_2168_1465" style="mask-type:luminance" maskUnits="userSpaceOnUse" x="0" y="0" width="11"
        height="13">
        <path d="M10.1328 12.7068V0.706787H0.835938V12.7068H10.1328Z" fill="white" />
    </mask>
    <g mask="url(#mask0_2168_1465)">
        <path fill-rule="evenodd" clip-rule="evenodd"
            d="M9.03125 7.59024V6.12417L6.19816 4.49168L3.36904 2.85522L2.10109 3.58826V10.1222L3.36904 10.8552L6.19816 9.21877L9.03125 7.59024Z"
            fill="url(#paint0_linear_2168_1465)" />
        <path fill-rule="evenodd" clip-rule="evenodd"
            d="M9.03125 7.59024V6.12417L6.19816 4.49168L3.36904 2.85522L2.10109 3.58826V10.1222L3.36904 10.8552L6.19816 9.21877L9.03125 7.59024Z"
            fill="url(#paint1_linear_2168_1465)" />
        <path fill-rule="evenodd" clip-rule="evenodd"
            d="M9.03125 7.59024V6.12417L6.19816 4.49168L3.36904 2.85522L2.10109 3.58826V10.1222L3.36904 10.8552L6.19816 9.21877L9.03125 7.59024Z"
            fill="url(#paint2_linear_2168_1465)" />
    </g>
    <defs>
        <linearGradient id="paint0_linear_2168_1465" x1="5.56617" y1="2.85522" x2="5.56617" y2="10.8552"
            gradientUnits="userSpaceOnUse">
            <stop stop-color="#C0C0C0" />
            <stop offset="1" stop-color="#5A5A5A" />
        </linearGradient>
        <linearGradient id="paint1_linear_2168_1465" x1="5.56619" y1="10.8552" x2="5.56619" y2="2.85525"
            gradientUnits="userSpaceOnUse">
            <stop stop-color="#8E723E" />
            <stop offset="1" stop-color="#F4C46A" />
        </linearGradient>
        <linearGradient id="paint2_linear_2168_1465" x1="2.10109" y1="6.85522" x2="9.03125" y2="6.85522"
            gradientUnits="userSpaceOnUse">
            <stop stop-color="#AA9F65" />
            <stop offset="1" stop-color="#E3DAAC" />
        </linearGradient>
    </defs>
</svg>