<svg width="56" height="56" viewBox="0 0 56 56" fill="none" xmlns="http://www.w3.org/2000/svg">
    <g filter="url(#filter0_ddii_2831_2897)">
        <path fill-rule="evenodd" clip-rule="evenodd"
            d="M36.3327 20.5332C34.0315 20.5332 32.166 22.3987 32.166 24.6999C32.166 27.0011 34.0315 28.8665 36.3327 28.8665C38.6339 28.8665 40.4993 27.0011 40.4993 24.6999C40.4993 22.3987 38.6339 20.5332 36.3327 20.5332Z"
            fill="#B1F489" />
        <path
            d="M18.5417 26.5371C17.8454 25.2103 15.9459 25.2103 15.2495 26.5371L14.1609 28.6112L11.8972 28.9247C10.3534 29.1385 9.74207 31.0428 10.873 32.1152L12.5011 33.6591L12.1061 35.8516C11.8356 37.3533 13.3896 38.5234 14.7581 37.8485L16.8956 36.7943L19.0332 37.8485C20.4017 38.5234 21.9556 37.3533 21.6851 35.8516L21.2902 33.6591L22.9183 32.1152C24.0492 31.0428 23.4379 29.1385 21.8941 28.9247L19.6304 28.6112L18.5417 26.5371Z"
            fill="#B1F489" />
        <path opacity="0.4" fill-rule="evenodd" clip-rule="evenodd"
            d="M13.6287 5.53397C11.5995 5.80453 10.084 7.53551 10.084 9.5827V26.3646C10.084 26.6161 10.354 26.7799 10.5894 26.6915C10.8907 26.5784 11.2131 26.4957 11.5551 26.4483L12.5455 26.3112L13.0367 25.3753C14.6696 22.2642 19.1234 22.2642 20.7562 25.3753L21.1678 26.1594V26.1594C21.2178 26.2544 21.3109 26.3199 21.4172 26.3347L22.2378 26.4483C25.8576 26.9496 27.291 31.4148 24.6394 33.9293L24.1213 34.4205V34.4205C24.0402 34.4978 24.0027 34.6112 24.0226 34.7215L24.1464 35.4084C24.2973 36.2462 24.206 37.04 23.936 37.742C23.8453 37.978 24.0089 38.2507 24.2618 38.2507H38.834C42.6688 38.2507 45.9173 35.3174 45.9173 31.532V17.8861C45.9173 14.1007 42.6688 11.1674 38.834 11.1674H37.584V9.47858C37.584 5.69865 34.2547 2.78383 30.508 3.2834L13.6287 5.53397ZM30.8384 5.76147C33.0864 5.46173 35.084 7.21062 35.084 9.47858V11.1674H14.1686C13.2935 11.1674 12.584 10.4579 12.584 9.5827C12.584 8.78851 13.1719 8.117 13.9591 8.01204L30.8384 5.76147Z"
            fill="#B1F489" />
    </g>
    <defs>
        <filter id="filter0_ddii_2831_2897" x="-2" y="-2.25" width="60" height="60" filterUnits="userSpaceOnUse"
            color-interpolation-filters="sRGB">
            <feFlood flood-opacity="0" result="BackgroundImageFix" />
            <feColorMatrix in="SourceAlpha" type="matrix" values="0 0 0 0 0 0 0 0 0 0 0 0 0 0 0 0 0 0 127 0"
                result="hardAlpha" />
            <feMorphology radius="3" operator="erode" in="SourceAlpha" result="effect1_dropShadow_2831_2897" />
            <feOffset dy="7" />
            <feGaussianBlur stdDeviation="6.5" />
            <feColorMatrix type="matrix" values="0 0 0 0 0 0 0 0 0 0 0 0 0 0 0 0 0 0 0.3 0" />
            <feBlend mode="normal" in2="BackgroundImageFix" result="effect1_dropShadow_2831_2897" />
            <feColorMatrix in="SourceAlpha" type="matrix" values="0 0 0 0 0 0 0 0 0 0 0 0 0 0 0 0 0 0 127 0"
                result="hardAlpha" />
            <feOffset dy="2" />
            <feGaussianBlur stdDeviation="2" />
            <feColorMatrix type="matrix" values="0 0 0 0 0 0 0 0 0 0 0 0 0 0 0 0 0 0 0.4 0" />
            <feBlend mode="normal" in2="effect1_dropShadow_2831_2897" result="effect2_dropShadow_2831_2897" />
            <feBlend mode="normal" in="SourceGraphic" in2="effect2_dropShadow_2831_2897" result="shape" />
            <feColorMatrix in="SourceAlpha" type="matrix" values="0 0 0 0 0 0 0 0 0 0 0 0 0 0 0 0 0 0 127 0"
                result="hardAlpha" />
            <feMorphology radius="1" operator="erode" in="SourceAlpha" result="effect3_innerShadow_2831_2897" />
            <feOffset dx="-3" dy="-3" />
            <feGaussianBlur stdDeviation="3" />
            <feComposite in2="hardAlpha" operator="arithmetic" k2="-1" k3="1" />
            <feColorMatrix type="matrix" values="0 0 0 0 1 0 0 0 0 1 0 0 0 0 1 0 0 0 0.5 0" />
            <feBlend mode="normal" in2="shape" result="effect3_innerShadow_2831_2897" />
            <feColorMatrix in="SourceAlpha" type="matrix" values="0 0 0 0 0 0 0 0 0 0 0 0 0 0 0 0 0 0 127 0"
                result="hardAlpha" />
            <feOffset dx="3" dy="3" />
            <feGaussianBlur stdDeviation="3" />
            <feComposite in2="hardAlpha" operator="arithmetic" k2="-1" k3="1" />
            <feColorMatrix type="matrix" values="0 0 0 0 0.627594 0 0 0 0 1 0 0 0 0 0.557767 0 0 0 1 0" />
            <feBlend mode="normal" in2="effect3_innerShadow_2831_2897" result="effect4_innerShadow_2831_2897" />
        </filter>
    </defs>
</svg>