<svg width="58" height="45" viewBox="0 0 58 45" fill="none" xmlns="http://www.w3.org/2000/svg">
    <g clip-path="url(#clip0_2831_2928)" filter="url(#filter0_dddddi_2831_2928)">
        <path
            d="M16.1094 23.0368C16.1094 19.4854 16.1094 17.7098 16.8124 16.2488C17.1283 15.5921 17.5429 14.9916 18.0406 14.4697C19.1478 13.3086 20.7693 12.7355 24.0123 11.5894L30.3962 9.3332C35.0429 7.69096 37.3662 6.86984 39.0994 7.78727C39.5066 8.00284 39.8805 8.28015 40.2088 8.61007C41.6059 10.0142 41.6059 12.5584 41.6059 17.6469C41.6059 21.1702 41.6059 22.9318 40.8217 24.3394C40.6315 24.6807 40.4098 25.0019 40.1595 25.2986C39.1272 26.5223 37.5185 27.0908 34.3011 28.2279L26.7209 30.9069C22.6298 32.3528 20.5842 33.0757 19.0069 32.4251C16.9859 31.5913 16.1094 29.6535 16.1094 27.9856C16.1094 26.8593 16.1094 24.7841 16.1094 23.0368Z"
            fill="url(#paint0_linear_2831_2928)" />
        <path fill-rule="evenodd" clip-rule="evenodd"
            d="M16.1094 14.6604C16.1094 11.8161 16.1094 9.48415 16.5656 8.27042C16.9685 7.19851 17.6225 6.24739 18.4686 5.50282C19.4266 4.65976 20.7237 4.19564 23.3177 3.26742L24.2119 2.94744C27.2242 1.86955 28.7304 1.33059 29.9396 1.57294C31.2481 1.83522 32.3825 2.67316 33.0488 3.86963C33.6644 4.97522 33.6644 7.49317 33.6644 10.7962C33.6644 13.4023 33.6644 14.7055 33.2802 15.8289C32.8626 17.0503 32.123 18.1259 31.1455 18.9336C30.2461 19.6766 29.0578 20.1019 26.681 20.9523C26.681 20.9523 22.588 22.4017 20.0384 23.3251C17.4887 24.2485 16.1094 26.1009 16.1094 28.0277V14.6604Z"
            fill="white" />
    </g>
    <defs>
        <filter id="filter0_dddddi_2831_2928" x="-0.666016" y="0.75" width="58.666" height="80"
            filterUnits="userSpaceOnUse" color-interpolation-filters="sRGB">
            <feFlood flood-opacity="0" result="BackgroundImageFix" />
            <feColorMatrix in="SourceAlpha" type="matrix" values="0 0 0 0 0 0 0 0 0 0 0 0 0 0 0 0 0 0 127 0"
                result="hardAlpha" />
            <feOffset dy="32" />
            <feGaussianBlur stdDeviation="8" />
            <feColorMatrix type="matrix" values="0 0 0 0 0 0 0 0 0 0 0 0 0 0 0 0 0 0 0.09 0" />
            <feBlend mode="normal" in2="BackgroundImageFix" result="effect1_dropShadow_2831_2928" />
            <feColorMatrix in="SourceAlpha" type="matrix" values="0 0 0 0 0 0 0 0 0 0 0 0 0 0 0 0 0 0 127 0"
                result="hardAlpha" />
            <feOffset dy="16" />
            <feGaussianBlur stdDeviation="4" />
            <feColorMatrix type="matrix" values="0 0 0 0 0 0 0 0 0 0 0 0 0 0 0 0 0 0 0.09 0" />
            <feBlend mode="normal" in2="effect1_dropShadow_2831_2928" result="effect2_dropShadow_2831_2928" />
            <feColorMatrix in="SourceAlpha" type="matrix" values="0 0 0 0 0 0 0 0 0 0 0 0 0 0 0 0 0 0 127 0"
                result="hardAlpha" />
            <feOffset dy="8" />
            <feGaussianBlur stdDeviation="2" />
            <feColorMatrix type="matrix" values="0 0 0 0 0 0 0 0 0 0 0 0 0 0 0 0 0 0 0.09 0" />
            <feBlend mode="normal" in2="effect2_dropShadow_2831_2928" result="effect3_dropShadow_2831_2928" />
            <feColorMatrix in="SourceAlpha" type="matrix" values="0 0 0 0 0 0 0 0 0 0 0 0 0 0 0 0 0 0 127 0"
                result="hardAlpha" />
            <feOffset dy="4" />
            <feGaussianBlur stdDeviation="1" />
            <feColorMatrix type="matrix" values="0 0 0 0 0 0 0 0 0 0 0 0 0 0 0 0 0 0 0.09 0" />
            <feBlend mode="normal" in2="effect3_dropShadow_2831_2928" result="effect4_dropShadow_2831_2928" />
            <feColorMatrix in="SourceAlpha" type="matrix" values="0 0 0 0 0 0 0 0 0 0 0 0 0 0 0 0 0 0 127 0"
                result="hardAlpha" />
            <feOffset dy="2" />
            <feGaussianBlur stdDeviation="0.5" />
            <feColorMatrix type="matrix" values="0 0 0 0 0 0 0 0 0 0 0 0 0 0 0 0 0 0 0.06 0" />
            <feBlend mode="normal" in2="effect4_dropShadow_2831_2928" result="effect5_dropShadow_2831_2928" />
            <feBlend mode="normal" in="SourceGraphic" in2="effect5_dropShadow_2831_2928" result="shape" />
            <feColorMatrix in="SourceAlpha" type="matrix" values="0 0 0 0 0 0 0 0 0 0 0 0 0 0 0 0 0 0 127 0"
                result="hardAlpha" />
            <feOffset dy="-79" />
            <feGaussianBlur stdDeviation="20" />
            <feComposite in2="hardAlpha" operator="arithmetic" k2="-1" k3="1" />
            <feColorMatrix type="matrix" values="0 0 0 0 0 0 0 0 0 0 0 0 0 0 0 0 0 0 0.1 0" />
            <feBlend mode="normal" in2="shape" result="effect6_innerShadow_2831_2928" />
        </filter>
        <linearGradient id="paint0_linear_2831_2928" x1="40.7073" y1="24.0216" x2="16.7394" y2="10.7334"
            gradientUnits="userSpaceOnUse">
            <stop stop-color="white" />
            <stop offset="1" stop-color="white" stop-opacity="0.12" />
        </linearGradient>
        <clipPath id="clip0_2831_2928">
            <rect width="26.6667" height="32" fill="white" transform="translate(15.334 0.75)" />
        </clipPath>
    </defs>
</svg>