<svg width="10" height="10" viewBox="0 0 10 10" fill="none" xmlns="http://www.w3.org/2000/svg">
    <path
        d="M4.66523 6.68838L8.19023 3.16338L7.49023 2.46338L4.66523 5.28838L3.24023 3.86338L2.54023 4.56338L4.66523 6.68838ZM1.86523 9.08838C1.59023 9.08838 1.35482 8.99046 1.15898 8.79463C0.963151 8.5988 0.865234 8.36338 0.865234 8.08838V1.08838C0.865234 0.813379 0.963151 0.577962 1.15898 0.382129C1.35482 0.186296 1.59023 0.0883789 1.86523 0.0883789H8.86523C9.14023 0.0883789 9.37565 0.186296 9.57148 0.382129C9.76732 0.577962 9.86523 0.813379 9.86523 1.08838V8.08838C9.86523 8.36338 9.76732 8.5988 9.57148 8.79463C9.37565 8.99046 9.14023 9.08838 8.86523 9.08838H1.86523Z"
        fill="#B1F489" />
</svg>