<svg width="20" height="21" viewBox="0 0 20 21" fill="none" xmlns="http://www.w3.org/2000/svg">
    <path opacity="0.4" fill-rule="evenodd" clip-rule="evenodd"
        d="M15.5886 5.16107C15.914 5.48651 15.914 6.01414 15.5886 6.33958L5.5886 16.3396C5.26317 16.665 4.73553 16.665 4.41009 16.3396C4.08466 16.0141 4.08466 15.4865 4.41009 15.1611L14.4101 5.16107C14.7355 4.83563 15.2632 4.83563 15.5886 5.16107Z"
        fill="white" />
    <path fill-rule="evenodd" clip-rule="evenodd"
        d="M4.41009 5.16107C4.73553 4.83563 5.26317 4.83563 5.5886 5.16107L15.5886 15.1611C15.914 15.4865 15.914 16.0141 15.5886 16.3396C15.2632 16.665 14.7355 16.665 14.4101 16.3396L4.41009 6.33958C4.08466 6.01414 4.08466 5.48651 4.41009 5.16107Z"
        fill="white" />
</svg>