<svg width="24" height="25" viewBox="0 0 24 25" fill="none" xmlns="http://www.w3.org/2000/svg">
    <path opacity="0.4" fill-rule="evenodd" clip-rule="evenodd"
        d="M18.7071 5.44872C19.0976 5.83924 19.0976 6.47241 18.7071 6.86293L6.70711 18.8629C6.31658 19.2535 5.68342 19.2535 5.29289 18.8629C4.90237 18.4724 4.90237 17.8392 5.29289 17.4487L17.2929 5.44872C17.6834 5.05819 18.3166 5.05819 18.7071 5.44872Z"
        fill="#B1F489" />
    <path fill-rule="evenodd" clip-rule="evenodd"
        d="M5.29289 5.44872C5.68342 5.05819 6.31658 5.05819 6.70711 5.44872L18.7071 17.4487C19.0976 17.8392 19.0976 18.4724 18.7071 18.8629C18.3166 19.2535 17.6834 19.2535 17.2929 18.8629L5.29289 6.86293C4.90237 6.47241 4.90237 5.83924 5.29289 5.44872Z"
        fill="#B1F489" />
</svg>