<svg width="64" height="45" viewBox="0 0 64 45" fill="none" xmlns="http://www.w3.org/2000/svg">
    <g filter="url(#filter0_dddddi_2831_3065)">
        <g clip-path="url(#clip0_2831_3065)">
            <mask id="mask0_2831_3065" style="mask-type:luminance" maskUnits="userSpaceOnUse" x="16" y="0" width="32"
                height="33">
                <path d="M48 0.25H16V32.25H48V0.25Z" fill="white" />
            </mask>
            <g mask="url(#mask0_2831_3065)">
                <path
                    d="M44.25 0.25H19.75C17.6789 0.25 16 1.92893 16 4V28.5C16 30.5711 17.6789 32.25 19.75 32.25H44.25C46.3211 32.25 48 30.5711 48 28.5V4C48 1.92893 46.3211 0.25 44.25 0.25Z"
                    fill="#0052FF" />
                <path
                    d="M31.9688 2.75C39.4417 2.75 45.5 8.80825 45.5 16.2812C45.5 23.7542 39.4417 29.8125 31.9688 29.8125C24.4957 29.8125 18.4375 23.7542 18.4375 16.2812C18.4375 8.80825 24.4957 2.75 31.9688 2.75Z"
                    fill="#0052FF" />
                <path
                    d="M31.9749 20.9829C29.345 20.9829 27.2199 18.8519 27.2199 16.2279C27.2199 13.6038 29.3508 11.4729 31.9749 11.4729C34.3289 11.4729 36.2838 13.187 36.6595 15.4354H41.4497C41.0447 10.5512 36.9589 6.71191 31.9691 6.71191C26.7151 6.71191 22.4531 10.9739 22.4531 16.2279C22.4531 21.4819 26.7151 25.7437 31.9691 25.7437C36.9589 25.7437 41.0447 21.9045 41.4497 17.0204H36.6536C36.2779 19.2687 34.3289 20.9829 31.9749 20.9829Z"
                    fill="white" />
            </g>
        </g>
    </g>
    <defs>
        <filter id="filter0_dddddi_2831_3065" x="0" y="0.25" width="64" height="80" filterUnits="userSpaceOnUse"
            color-interpolation-filters="sRGB">
            <feFlood flood-opacity="0" result="BackgroundImageFix" />
            <feColorMatrix in="SourceAlpha" type="matrix" values="0 0 0 0 0 0 0 0 0 0 0 0 0 0 0 0 0 0 127 0"
                result="hardAlpha" />
            <feOffset dy="32" />
            <feGaussianBlur stdDeviation="8" />
            <feColorMatrix type="matrix" values="0 0 0 0 0 0 0 0 0 0 0 0 0 0 0 0 0 0 0.09 0" />
            <feBlend mode="normal" in2="BackgroundImageFix" result="effect1_dropShadow_2831_3065" />
            <feColorMatrix in="SourceAlpha" type="matrix" values="0 0 0 0 0 0 0 0 0 0 0 0 0 0 0 0 0 0 127 0"
                result="hardAlpha" />
            <feOffset dy="16" />
            <feGaussianBlur stdDeviation="4" />
            <feColorMatrix type="matrix" values="0 0 0 0 0 0 0 0 0 0 0 0 0 0 0 0 0 0 0.09 0" />
            <feBlend mode="normal" in2="effect1_dropShadow_2831_3065" result="effect2_dropShadow_2831_3065" />
            <feColorMatrix in="SourceAlpha" type="matrix" values="0 0 0 0 0 0 0 0 0 0 0 0 0 0 0 0 0 0 127 0"
                result="hardAlpha" />
            <feOffset dy="8" />
            <feGaussianBlur stdDeviation="2" />
            <feColorMatrix type="matrix" values="0 0 0 0 0 0 0 0 0 0 0 0 0 0 0 0 0 0 0.09 0" />
            <feBlend mode="normal" in2="effect2_dropShadow_2831_3065" result="effect3_dropShadow_2831_3065" />
            <feColorMatrix in="SourceAlpha" type="matrix" values="0 0 0 0 0 0 0 0 0 0 0 0 0 0 0 0 0 0 127 0"
                result="hardAlpha" />
            <feOffset dy="4" />
            <feGaussianBlur stdDeviation="1" />
            <feColorMatrix type="matrix" values="0 0 0 0 0 0 0 0 0 0 0 0 0 0 0 0 0 0 0.09 0" />
            <feBlend mode="normal" in2="effect3_dropShadow_2831_3065" result="effect4_dropShadow_2831_3065" />
            <feColorMatrix in="SourceAlpha" type="matrix" values="0 0 0 0 0 0 0 0 0 0 0 0 0 0 0 0 0 0 127 0"
                result="hardAlpha" />
            <feOffset dy="2" />
            <feGaussianBlur stdDeviation="0.5" />
            <feColorMatrix type="matrix" values="0 0 0 0 0 0 0 0 0 0 0 0 0 0 0 0 0 0 0.06 0" />
            <feBlend mode="normal" in2="effect4_dropShadow_2831_3065" result="effect5_dropShadow_2831_3065" />
            <feBlend mode="normal" in="SourceGraphic" in2="effect5_dropShadow_2831_3065" result="shape" />
            <feColorMatrix in="SourceAlpha" type="matrix" values="0 0 0 0 0 0 0 0 0 0 0 0 0 0 0 0 0 0 127 0"
                result="hardAlpha" />
            <feOffset dy="-79" />
            <feGaussianBlur stdDeviation="20" />
            <feComposite in2="hardAlpha" operator="arithmetic" k2="-1" k3="1" />
            <feColorMatrix type="matrix" values="0 0 0 0 0 0 0 0 0 0 0 0 0 0 0 0 0 0 0.1 0" />
            <feBlend mode="normal" in2="shape" result="effect6_innerShadow_2831_3065" />
        </filter>
        <clipPath id="clip0_2831_3065">
            <rect x="16" y="0.25" width="32" height="32" rx="16" fill="white" />
        </clipPath>
    </defs>
</svg>