<svg width="9" height="8" viewBox="0 0 9 8" fill="none" xmlns="http://www.w3.org/2000/svg">
    <path
        d="M3.66411 3.20687C3.74248 2.98409 3.89717 2.79624 4.10077 2.67658C4.30437 2.55692 4.54375 2.51318 4.77651 2.55311C5.00927 2.59303 5.22039 2.71404 5.37247 2.89471C5.52456 3.07538 5.6078 3.30404 5.60745 3.5402C5.60745 4.20687 4.60745 4.5402 4.60745 4.5402M4.63411 5.87354H4.63745M7.96745 4.20687C7.96745 6.04782 6.47506 7.5402 4.63411 7.5402C2.79317 7.5402 1.30078 6.04782 1.30078 4.20687C1.30078 2.36592 2.79317 0.873535 4.63411 0.873535C6.47506 0.873535 7.96745 2.36592 7.96745 4.20687Z"
        stroke="#E3DAAC" stroke-width="0.666667" stroke-linecap="round" stroke-linejoin="round" />
</svg>