<svg width="24" height="25" viewBox="0 0 24 25" fill="none" xmlns="http://www.w3.org/2000/svg">
    <path opacity="0.4" fill-rule="evenodd" clip-rule="evenodd"
        d="M3 6.15582C3 5.60354 3.44772 5.15582 4 5.15582H10C10.5523 5.15582 11 5.60354 11 6.15582C11 6.70811 10.5523 7.15582 10 7.15582H4C3.44772 7.15582 3 6.70811 3 6.15582Z"
        fill="#B1F489" />
    <path fill-rule="evenodd" clip-rule="evenodd"
        d="M3 12.1558C3 11.6035 3.44772 11.1558 4 11.1558H20C20.5523 11.1558 21 11.6035 21 12.1558C21 12.7081 20.5523 13.1558 20 13.1558H4C3.44772 13.1558 3 12.7081 3 12.1558Z"
        fill="#B1F489" />
    <path opacity="0.4" fill-rule="evenodd" clip-rule="evenodd"
        d="M3 18.1558C3 17.6035 3.44772 17.1558 4 17.1558H14C14.5523 17.1558 15 17.6035 15 18.1558C15 18.7081 14.5523 19.1558 14 19.1558H4C3.44772 19.1558 3 18.7081 3 18.1558Z"
        fill="#B1F489" />
</svg>