<svg width="68" height="45" viewBox="0 0 68 45" fill="none" xmlns="http://www.w3.org/2000/svg">
    <g clip-path="url(#clip0_2831_3007)" filter="url(#filter0_dddddi_2831_3007)">
        <path fill-rule="evenodd" clip-rule="evenodd"
            d="M26.3906 29.5842L31.0574 30.8224V29.2032L31.4383 28.8223H34.105V30.727V32.0604H31.2479L27.724 30.5366L26.3906 29.5842Z"
            fill="#CDBDB2" />
        <path fill-rule="evenodd" clip-rule="evenodd"
            d="M41.6289 29.5842L37.0575 30.8224V29.2032L36.6765 28.8223H34.0099V30.727V32.0604H36.867L40.3907 30.5366L41.6289 29.5842Z"
            fill="#CDBDB2" />
        <path fill-rule="evenodd" clip-rule="evenodd"
            d="M31.4395 26.0603L31.0586 29.203L31.5347 28.8221H36.4871L37.0585 29.203L36.6776 26.0603L35.9157 25.584L32.1061 25.6793L31.4395 26.0603Z"
            fill="#393939" />
        <path fill-rule="evenodd" clip-rule="evenodd"
            d="M28.8672 4.82227L31.1529 10.1556L32.2006 25.6795H35.9148L37.0577 10.1556L39.1529 4.82227H28.8672Z"
            fill="#F89C35" />
        <path fill-rule="evenodd" clip-rule="evenodd"
            d="M18.8678 16.5359L16.2012 24.2501L22.8678 23.8691H27.1535V20.5359L26.963 13.6787L26.0106 14.4406L18.8678 16.5359Z"
            fill="#F89D35" />
        <path fill-rule="evenodd" clip-rule="evenodd"
            d="M23.916 17.3936L31.7255 17.584L30.8685 21.584L27.1541 20.6317L23.916 17.3936Z" fill="#D87C30" />
        <path fill-rule="evenodd" clip-rule="evenodd" d="M23.916 17.4883L27.1541 20.5359V23.5835L23.916 17.4883Z"
            fill="#EA8D3A" />
        <path fill-rule="evenodd" clip-rule="evenodd"
            d="M27.1523 20.6318L30.9619 21.5842L32.2 25.6795L31.3428 26.1556L27.1523 23.6795V20.6318Z" fill="#F89D35" />
        <path fill-rule="evenodd" clip-rule="evenodd"
            d="M27.1525 23.6787L26.3906 29.5835L31.4383 26.0597L27.1525 23.6787Z" fill="#EB8F35" />
        <path fill-rule="evenodd" clip-rule="evenodd"
            d="M31.7239 17.584L32.2001 25.6793L30.7715 21.5364L31.7239 17.584Z" fill="#EA8E3A" />
        <path fill-rule="evenodd" clip-rule="evenodd"
            d="M22.7715 23.774L27.1524 23.6787L26.3905 29.5835L22.7715 23.774Z" fill="#D87C30" />
        <path fill-rule="evenodd" clip-rule="evenodd"
            d="M18.2964 32.1554L26.3916 29.5839L22.7725 23.7744L16.2012 24.2505L18.2964 32.1554Z" fill="#EB8F35" />
        <path fill-rule="evenodd" clip-rule="evenodd"
            d="M31.1541 10.1553L27.059 13.5838L23.916 17.3934L31.7255 17.6792L31.1541 10.1553Z" fill="#E8821E" />
        <path fill-rule="evenodd" clip-rule="evenodd"
            d="M26.3906 29.5843L31.4383 26.0605L31.0574 29.1082V30.8225L27.6288 30.1557L26.3906 29.5843Z"
            fill="#DFCEC3" />
        <path fill-rule="evenodd" clip-rule="evenodd"
            d="M41.6289 29.5843L36.6765 26.0605L37.0575 29.1082V30.8225L40.486 30.1557L41.6289 29.5843Z"
            fill="#DFCEC3" />
        <path fill-rule="evenodd" clip-rule="evenodd" d="M29.63 19.2979L30.6777 21.4884L26.9634 20.536L29.63 19.2979Z"
            fill="#393939" />
        <path fill-rule="evenodd" clip-rule="evenodd"
            d="M18.2012 0.345703L31.1536 10.1551L28.9632 4.82181L18.2012 0.345703Z" fill="#E88F35" />
        <path fill-rule="evenodd" clip-rule="evenodd"
            d="M18.2006 0.345703L16.4863 5.5838L17.4387 11.2981L16.772 11.679L17.7244 12.5362L16.9625 13.2028L18.0101 14.1552L17.3435 14.7267L18.8673 16.6314L26.0101 14.4409C29.5022 11.6473 31.2165 10.2187 31.153 10.1552C31.0895 10.0917 26.772 6.82189 18.2006 0.345703Z"
            fill="#8E5A30" />
        <path fill-rule="evenodd" clip-rule="evenodd"
            d="M49.1536 16.5359L51.8203 24.2501L45.1536 23.8691H40.868V20.5359L41.0585 13.6787L42.0109 14.4406L49.1536 16.5359Z"
            fill="#F89D35" />
        <path fill-rule="evenodd" clip-rule="evenodd"
            d="M44.1055 17.3936L36.2959 17.584L37.153 21.584L40.8674 20.6317L44.1055 17.3936Z" fill="#D87C30" />
        <path fill-rule="evenodd" clip-rule="evenodd" d="M44.1055 17.4883L40.8674 20.5359V23.5835L44.1055 17.4883Z"
            fill="#EA8D3A" />
        <path fill-rule="evenodd" clip-rule="evenodd"
            d="M40.8672 20.6318L37.0577 21.5842L35.8195 25.6795L36.6767 26.1556L40.8672 23.6795V20.6318Z"
            fill="#F89D35" />
        <path fill-rule="evenodd" clip-rule="evenodd"
            d="M40.867 23.6787L41.6289 29.5835L36.6765 26.1549L40.867 23.6787Z" fill="#EB8F35" />
        <path fill-rule="evenodd" clip-rule="evenodd" d="M36.2957 17.584L35.8194 25.6793L37.248 21.5364L36.2957 17.584Z"
            fill="#EA8E3A" />
        <path fill-rule="evenodd" clip-rule="evenodd" d="M45.248 23.774L40.8671 23.6787L41.629 29.5835L45.248 23.774Z"
            fill="#D87C30" />
        <path fill-rule="evenodd" clip-rule="evenodd"
            d="M49.7251 32.1554L41.6299 29.5839L45.249 23.7744L51.8203 24.2505L49.7251 32.1554Z" fill="#EB8F35" />
        <path fill-rule="evenodd" clip-rule="evenodd"
            d="M36.8674 10.1553L40.9625 13.5838L44.1055 17.3934L36.2959 17.6792L36.8674 10.1553Z" fill="#E8821E" />
        <path fill-rule="evenodd" clip-rule="evenodd"
            d="M38.3915 19.2979L37.3438 21.4884L41.0581 20.536L38.3915 19.2979Z" fill="#393939" />
        <path fill-rule="evenodd" clip-rule="evenodd"
            d="M49.8203 0.345703L36.8679 10.1551L39.0583 4.82181L49.8203 0.345703Z" fill="#E88F35" />
        <path fill-rule="evenodd" clip-rule="evenodd"
            d="M49.8189 0.345703L51.5332 5.5838L50.5808 11.2981L51.2475 11.679L50.2951 12.5362L51.057 13.2028L50.0094 14.1552L50.6761 14.7267L49.1523 16.6314L42.0094 14.4409C38.5173 11.6473 36.803 10.2187 36.8665 10.1552C36.93 10.0917 41.2475 6.82189 49.8189 0.345703Z"
            fill="#8E5A30" />
    </g>
    <defs>
        <filter id="filter0_dddddi_2831_3007" x="0.105469" y="0.25" width="67.8945" height="80"
            filterUnits="userSpaceOnUse" color-interpolation-filters="sRGB">
            <feFlood flood-opacity="0" result="BackgroundImageFix" />
            <feColorMatrix in="SourceAlpha" type="matrix" values="0 0 0 0 0 0 0 0 0 0 0 0 0 0 0 0 0 0 127 0"
                result="hardAlpha" />
            <feOffset dy="32" />
            <feGaussianBlur stdDeviation="8" />
            <feColorMatrix type="matrix" values="0 0 0 0 0 0 0 0 0 0 0 0 0 0 0 0 0 0 0.09 0" />
            <feBlend mode="normal" in2="BackgroundImageFix" result="effect1_dropShadow_2831_3007" />
            <feColorMatrix in="SourceAlpha" type="matrix" values="0 0 0 0 0 0 0 0 0 0 0 0 0 0 0 0 0 0 127 0"
                result="hardAlpha" />
            <feOffset dy="16" />
            <feGaussianBlur stdDeviation="4" />
            <feColorMatrix type="matrix" values="0 0 0 0 0 0 0 0 0 0 0 0 0 0 0 0 0 0 0.09 0" />
            <feBlend mode="normal" in2="effect1_dropShadow_2831_3007" result="effect2_dropShadow_2831_3007" />
            <feColorMatrix in="SourceAlpha" type="matrix" values="0 0 0 0 0 0 0 0 0 0 0 0 0 0 0 0 0 0 127 0"
                result="hardAlpha" />
            <feOffset dy="8" />
            <feGaussianBlur stdDeviation="2" />
            <feColorMatrix type="matrix" values="0 0 0 0 0 0 0 0 0 0 0 0 0 0 0 0 0 0 0.09 0" />
            <feBlend mode="normal" in2="effect2_dropShadow_2831_3007" result="effect3_dropShadow_2831_3007" />
            <feColorMatrix in="SourceAlpha" type="matrix" values="0 0 0 0 0 0 0 0 0 0 0 0 0 0 0 0 0 0 127 0"
                result="hardAlpha" />
            <feOffset dy="4" />
            <feGaussianBlur stdDeviation="1" />
            <feColorMatrix type="matrix" values="0 0 0 0 0 0 0 0 0 0 0 0 0 0 0 0 0 0 0.09 0" />
            <feBlend mode="normal" in2="effect3_dropShadow_2831_3007" result="effect4_dropShadow_2831_3007" />
            <feColorMatrix in="SourceAlpha" type="matrix" values="0 0 0 0 0 0 0 0 0 0 0 0 0 0 0 0 0 0 127 0"
                result="hardAlpha" />
            <feOffset dy="2" />
            <feGaussianBlur stdDeviation="0.5" />
            <feColorMatrix type="matrix" values="0 0 0 0 0 0 0 0 0 0 0 0 0 0 0 0 0 0 0.06 0" />
            <feBlend mode="normal" in2="effect4_dropShadow_2831_3007" result="effect5_dropShadow_2831_3007" />
            <feBlend mode="normal" in="SourceGraphic" in2="effect5_dropShadow_2831_3007" result="shape" />
            <feColorMatrix in="SourceAlpha" type="matrix" values="0 0 0 0 0 0 0 0 0 0 0 0 0 0 0 0 0 0 127 0"
                result="hardAlpha" />
            <feOffset dy="-79" />
            <feGaussianBlur stdDeviation="20" />
            <feComposite in2="hardAlpha" operator="arithmetic" k2="-1" k3="1" />
            <feColorMatrix type="matrix" values="0 0 0 0 0 0 0 0 0 0 0 0 0 0 0 0 0 0 0.1 0" />
            <feBlend mode="normal" in2="shape" result="effect6_innerShadow_2831_3007" />
        </filter>
        <clipPath id="clip0_2831_3007">
            <rect width="35.8942" height="32" fill="white" transform="translate(16.1055 0.25)" />
        </clipPath>
    </defs>
</svg>