<svg width="51" height="32" viewBox="0 0 51 32" fill="none" xmlns="http://www.w3.org/2000/svg">
    <g filter="url(#filter0_dddddi_2831_4007)">
        <rect x="15.2383" y="0.00976562" width="20.7265" height="20" rx="10" fill="white" />
        <path
            d="M21.6742 5.57592C21.7462 5.50565 21.8426 5.46587 21.9433 5.46484H31.2292C31.2669 5.46479 31.3037 5.47592 31.335 5.49682C31.3664 5.51771 31.3908 5.54744 31.4052 5.58223C31.4196 5.61702 31.4233 5.6553 31.4159 5.69222C31.4085 5.72914 31.3904 5.76303 31.3637 5.78961L29.5294 7.6239C29.494 7.65922 29.4521 7.68723 29.4059 7.70633C29.3597 7.72542 29.3103 7.73524 29.2603 7.73521H19.9743C19.9369 7.73498 19.9004 7.72374 19.8694 7.7029C19.8383 7.68205 19.8141 7.65253 19.7998 7.61801C19.7854 7.58349 19.7815 7.54551 19.7886 7.5088C19.7957 7.47209 19.8134 7.43828 19.8396 7.41159L21.6742 5.57592Z"
            fill="url(#paint0_linear_2831_4007)" />
        <path
            d="M29.5286 8.98631C29.4932 8.95099 29.4513 8.92298 29.4051 8.90388C29.3589 8.88478 29.3094 8.87497 29.2595 8.875H19.9735C19.9359 8.87501 19.8991 8.88617 19.8678 8.90707C19.8365 8.92797 19.8121 8.95767 19.7977 8.99242C19.7833 9.02717 19.7795 9.06542 19.7868 9.10232C19.7941 9.13922 19.8122 9.17313 19.8388 9.19976L21.6733 11.0341C21.7087 11.0694 21.7506 11.0974 21.7968 11.1165C21.843 11.1356 21.8925 11.1454 21.9424 11.1454H31.2284C31.2661 11.1454 31.3029 11.1343 31.3342 11.1134C31.3655 11.0925 31.3899 11.0628 31.4043 11.028C31.4187 10.9932 31.4225 10.9549 31.4151 10.918C31.4077 10.8811 31.3895 10.8472 31.3629 10.8206L29.5286 8.98631Z"
            fill="url(#paint1_linear_2831_4007)" />
        <path
            d="M21.6742 12.3972C21.7455 12.3256 21.8423 12.2853 21.9433 12.2852H31.2292C31.2669 12.2851 31.3037 12.2962 31.335 12.3171C31.3664 12.338 31.3908 12.3678 31.4052 12.4025C31.4196 12.4373 31.4233 12.4756 31.4159 12.5125C31.4085 12.5495 31.3904 12.5833 31.3637 12.6099L29.5294 14.4442C29.494 14.4795 29.4521 14.5075 29.4059 14.5266C29.3597 14.5457 29.3103 14.5556 29.2603 14.5555H19.9743C19.9369 14.5553 19.9004 14.5441 19.8694 14.5232C19.8383 14.5024 19.8141 14.4728 19.7998 14.4383C19.7854 14.4038 19.7815 14.3658 19.7886 14.3291C19.7957 14.2924 19.8134 14.2586 19.8396 14.2319L21.6742 12.3972Z"
            fill="url(#paint2_linear_2831_4007)" />
    </g>
    <defs>
        <filter id="filter0_dddddi_2831_4007" x="0.692826" y="0.00976562" width="49.8175" height="63.6364"
            filterUnits="userSpaceOnUse" color-interpolation-filters="sRGB">
            <feFlood flood-opacity="0" result="BackgroundImageFix" />
            <feColorMatrix in="SourceAlpha" type="matrix" values="0 0 0 0 0 0 0 0 0 0 0 0 0 0 0 0 0 0 127 0"
                result="hardAlpha" />
            <feOffset dy="29.0909" />
            <feGaussianBlur stdDeviation="7.27273" />
            <feColorMatrix type="matrix" values="0 0 0 0 0 0 0 0 0 0 0 0 0 0 0 0 0 0 0.09 0" />
            <feBlend mode="normal" in2="BackgroundImageFix" result="effect1_dropShadow_2831_4007" />
            <feColorMatrix in="SourceAlpha" type="matrix" values="0 0 0 0 0 0 0 0 0 0 0 0 0 0 0 0 0 0 127 0"
                result="hardAlpha" />
            <feOffset dy="14.5455" />
            <feGaussianBlur stdDeviation="3.63636" />
            <feColorMatrix type="matrix" values="0 0 0 0 0 0 0 0 0 0 0 0 0 0 0 0 0 0 0.09 0" />
            <feBlend mode="normal" in2="effect1_dropShadow_2831_4007" result="effect2_dropShadow_2831_4007" />
            <feColorMatrix in="SourceAlpha" type="matrix" values="0 0 0 0 0 0 0 0 0 0 0 0 0 0 0 0 0 0 127 0"
                result="hardAlpha" />
            <feOffset dy="7.27273" />
            <feGaussianBlur stdDeviation="1.81818" />
            <feColorMatrix type="matrix" values="0 0 0 0 0 0 0 0 0 0 0 0 0 0 0 0 0 0 0.09 0" />
            <feBlend mode="normal" in2="effect2_dropShadow_2831_4007" result="effect3_dropShadow_2831_4007" />
            <feColorMatrix in="SourceAlpha" type="matrix" values="0 0 0 0 0 0 0 0 0 0 0 0 0 0 0 0 0 0 127 0"
                result="hardAlpha" />
            <feOffset dy="3.63636" />
            <feGaussianBlur stdDeviation="0.909091" />
            <feColorMatrix type="matrix" values="0 0 0 0 0 0 0 0 0 0 0 0 0 0 0 0 0 0 0.09 0" />
            <feBlend mode="normal" in2="effect3_dropShadow_2831_4007" result="effect4_dropShadow_2831_4007" />
            <feColorMatrix in="SourceAlpha" type="matrix" values="0 0 0 0 0 0 0 0 0 0 0 0 0 0 0 0 0 0 127 0"
                result="hardAlpha" />
            <feOffset dy="1.81818" />
            <feGaussianBlur stdDeviation="0.454545" />
            <feColorMatrix type="matrix" values="0 0 0 0 0 0 0 0 0 0 0 0 0 0 0 0 0 0 0.06 0" />
            <feBlend mode="normal" in2="effect4_dropShadow_2831_4007" result="effect5_dropShadow_2831_4007" />
            <feBlend mode="normal" in="SourceGraphic" in2="effect5_dropShadow_2831_4007" result="shape" />
            <feColorMatrix in="SourceAlpha" type="matrix" values="0 0 0 0 0 0 0 0 0 0 0 0 0 0 0 0 0 0 127 0"
                result="hardAlpha" />
            <feOffset dy="-71.8182" />
            <feGaussianBlur stdDeviation="18.1818" />
            <feComposite in2="hardAlpha" operator="arithmetic" k2="-1" k3="1" />
            <feColorMatrix type="matrix" values="0 0 0 0 0 0 0 0 0 0 0 0 0 0 0 0 0 0 0.1 0" />
            <feBlend mode="normal" in2="shape" result="effect6_innerShadow_2831_4007" />
        </filter>
        <linearGradient id="paint0_linear_2831_4007" x1="27.5323" y1="2.90201" x2="21.1057" y2="15.2116"
            gradientUnits="userSpaceOnUse">
            <stop stop-color="#00FFA3" />
            <stop offset="1" stop-color="#DC1FFF" />
        </linearGradient>
        <linearGradient id="paint1_linear_2831_4007" x1="28.9274" y1="3.63848" x2="22.5008" y2="15.9481"
            gradientUnits="userSpaceOnUse">
            <stop stop-color="#00FFA3" />
            <stop offset="1" stop-color="#DC1FFF" />
        </linearGradient>
        <linearGradient id="paint2_linear_2831_4007" x1="30.3422" y1="4.34151" x2="23.9154" y2="16.6509"
            gradientUnits="userSpaceOnUse">
            <stop stop-color="#00FFA3" />
            <stop offset="1" stop-color="#DC1FFF" />
        </linearGradient>
    </defs>
</svg>