<svg width="64" height="46" viewBox="0 0 64 46" fill="none" xmlns="http://www.w3.org/2000/svg">
    <g filter="url(#filter0_dddddi_2831_2965)">
        <path
            d="M32.1 32.7996C40.8537 32.7996 47.95 25.7033 47.95 16.9496C47.95 8.1959 40.8537 1.09961 32.1 1.09961C23.3463 1.09961 16.25 8.1959 16.25 16.9496C16.25 25.7033 23.3463 32.7996 32.1 32.7996Z"
            fill="#00A478" />
        <path d="M30.2992 15.4496V11.3996H24.9492V7.84961H39.8992V11.4496H34.5492V15.4496H30.2992Z" fill="white" />
        <path
            d="M32.3004 13.8492C37.9004 13.8492 40.8004 15.3992 41.1504 15.8992C40.8004 16.3992 37.9504 17.1492 32.3004 17.1492C26.7004 17.1492 23.8004 16.3992 23.4504 15.8992C23.8004 15.3492 26.7004 13.8492 32.3004 13.8492ZM32.3004 13.4492C26.9504 13.4492 22.6504 14.5492 22.6504 15.8992C22.6504 17.2492 26.9504 18.3492 32.3004 18.3492C37.6504 18.3492 41.9504 17.2492 41.9504 15.8992C41.9504 14.5492 37.6504 13.4492 32.3004 13.4492Z"
            fill="white" />
        <path
            d="M34.5508 16.6998V13.8998C33.8508 13.8498 33.1008 13.7998 32.3508 13.7998C31.6508 13.7998 31.0008 13.7998 30.3508 13.8498V16.6498C30.9508 16.6498 31.6508 16.6998 32.3508 16.6998C33.1008 16.7498 33.8508 16.7498 34.5508 16.6998ZM32.3008 18.3498C31.6008 18.3498 30.9508 18.3498 30.3008 18.2998V25.7498H34.5008V18.2498C33.8008 18.2998 33.0508 18.3498 32.3008 18.3498Z"
            fill="white" />
    </g>
    <defs>
        <filter id="filter0_dddddi_2831_2965" x="0" y="0.75" width="64" height="80.5" filterUnits="userSpaceOnUse"
            color-interpolation-filters="sRGB">
            <feFlood flood-opacity="0" result="BackgroundImageFix" />
            <feColorMatrix in="SourceAlpha" type="matrix" values="0 0 0 0 0 0 0 0 0 0 0 0 0 0 0 0 0 0 127 0"
                result="hardAlpha" />
            <feOffset dy="32" />
            <feGaussianBlur stdDeviation="8" />
            <feColorMatrix type="matrix" values="0 0 0 0 0 0 0 0 0 0 0 0 0 0 0 0 0 0 0.09 0" />
            <feBlend mode="normal" in2="BackgroundImageFix" result="effect1_dropShadow_2831_2965" />
            <feColorMatrix in="SourceAlpha" type="matrix" values="0 0 0 0 0 0 0 0 0 0 0 0 0 0 0 0 0 0 127 0"
                result="hardAlpha" />
            <feOffset dy="16" />
            <feGaussianBlur stdDeviation="4" />
            <feColorMatrix type="matrix" values="0 0 0 0 0 0 0 0 0 0 0 0 0 0 0 0 0 0 0.09 0" />
            <feBlend mode="normal" in2="effect1_dropShadow_2831_2965" result="effect2_dropShadow_2831_2965" />
            <feColorMatrix in="SourceAlpha" type="matrix" values="0 0 0 0 0 0 0 0 0 0 0 0 0 0 0 0 0 0 127 0"
                result="hardAlpha" />
            <feOffset dy="8" />
            <feGaussianBlur stdDeviation="2" />
            <feColorMatrix type="matrix" values="0 0 0 0 0 0 0 0 0 0 0 0 0 0 0 0 0 0 0.09 0" />
            <feBlend mode="normal" in2="effect2_dropShadow_2831_2965" result="effect3_dropShadow_2831_2965" />
            <feColorMatrix in="SourceAlpha" type="matrix" values="0 0 0 0 0 0 0 0 0 0 0 0 0 0 0 0 0 0 127 0"
                result="hardAlpha" />
            <feOffset dy="4" />
            <feGaussianBlur stdDeviation="1" />
            <feColorMatrix type="matrix" values="0 0 0 0 0 0 0 0 0 0 0 0 0 0 0 0 0 0 0.09 0" />
            <feBlend mode="normal" in2="effect3_dropShadow_2831_2965" result="effect4_dropShadow_2831_2965" />
            <feColorMatrix in="SourceAlpha" type="matrix" values="0 0 0 0 0 0 0 0 0 0 0 0 0 0 0 0 0 0 127 0"
                result="hardAlpha" />
            <feOffset dy="2" />
            <feGaussianBlur stdDeviation="0.5" />
            <feColorMatrix type="matrix" values="0 0 0 0 0 0 0 0 0 0 0 0 0 0 0 0 0 0 0.06 0" />
            <feBlend mode="normal" in2="effect4_dropShadow_2831_2965" result="effect5_dropShadow_2831_2965" />
            <feBlend mode="normal" in="SourceGraphic" in2="effect5_dropShadow_2831_2965" result="shape" />
            <feColorMatrix in="SourceAlpha" type="matrix" values="0 0 0 0 0 0 0 0 0 0 0 0 0 0 0 0 0 0 127 0"
                result="hardAlpha" />
            <feOffset dy="-79" />
            <feGaussianBlur stdDeviation="20" />
            <feComposite in2="hardAlpha" operator="arithmetic" k2="-1" k3="1" />
            <feColorMatrix type="matrix" values="0 0 0 0 0 0 0 0 0 0 0 0 0 0 0 0 0 0 0.1 0" />
            <feBlend mode="normal" in2="shape" result="effect6_innerShadow_2831_2965" />
        </filter>
    </defs>
</svg>