<svg width="20" height="21" viewBox="0 0 20 21" fill="none" xmlns="http://www.w3.org/2000/svg">
    <path fill-rule="evenodd" clip-rule="evenodd"
        d="M14.1673 10.1426C13.0167 10.1426 12.084 11.0753 12.084 12.2259C12.084 13.3765 13.0167 14.3092 14.1673 14.3092C15.3179 14.3092 16.2507 13.3765 16.2507 12.2259C16.2507 11.0753 15.3179 10.1426 14.1673 10.1426Z"
        fill="#B1F489" />
    <path fill-rule="evenodd" clip-rule="evenodd"
        d="M1.22407 14.1831C1.46815 13.939 1.86388 13.939 2.10796 14.1831L5.85777 17.9329C6.10185 18.177 6.10185 18.5727 5.85777 18.8168C5.6137 19.0608 5.21797 19.0608 4.97389 18.8168L1.22407 15.0669C0.979996 14.8229 0.979996 14.4271 1.22407 14.1831Z"
        fill="#F95D51" />
    <path fill-rule="evenodd" clip-rule="evenodd"
        d="M5.85777 14.1831C6.10185 14.4271 6.10185 14.8229 5.85777 15.0669L2.10796 18.8168C1.86388 19.0608 1.46815 19.0608 1.22407 18.8168C0.979996 18.5727 0.979996 18.177 1.22407 17.9329L4.97389 14.1831C5.21797 13.939 5.6137 13.939 5.85777 14.1831Z"
        fill="#F95D51" />
    <path opacity="0.4" fill-rule="evenodd" clip-rule="evenodd"
        d="M1.04102 4.66586C1.04102 3.64227 1.79876 2.77678 2.81338 2.6415L11.253 1.51621C13.1264 1.26643 14.791 2.72383 14.791 4.6138V5.45821H15.416C17.3334 5.45821 18.9577 6.92486 18.9577 8.81758V15.6405C18.9577 17.5332 17.3334 18.9999 15.416 18.9999H7.58713C7.45368 18.9999 7.37306 18.8499 7.43974 18.7343C7.82261 18.0705 8.04167 17.3003 8.04167 16.4789C8.04167 13.9821 6.01762 11.958 3.52083 11.958C2.71565 11.958 1.95964 12.1685 1.30482 12.5375C1.18927 12.6026 1.04102 12.5219 1.04102 12.3893V4.66586ZM13.541 4.6138C13.541 3.47982 12.5422 2.60538 11.4182 2.75525L2.97859 3.88053C2.58498 3.93301 2.29102 4.26877 2.29102 4.66586C2.29102 5.10346 2.64576 5.45821 3.0833 5.45821H13.541V4.6138Z"
        fill="#B1F489" />
</svg>