<svg width="109" height="107" viewBox="0 0 109 107" fill="none" xmlns="http://www.w3.org/2000/svg">
    <g filter="url(#filter0_ddii_2973_717)">
        <path d="M20 67.5769L26.8219 75.2515C27.2861 75.7738 28.1013 75.7763 28.5688 75.2569L45 57" stroke="#B1F489"
            stroke-width="5.59345" stroke-linecap="round" stroke-linejoin="round" />
        <path opacity="0.4" fill-rule="evenodd" clip-rule="evenodd"
            d="M27.2574 10.567C23.199 11.1081 20.168 14.57 20.168 18.6644V62.563C20.168 70.1338 26.665 76.0005 34.3346 76.0005H77.668C85.3376 76.0005 91.8346 70.1338 91.8346 62.563V35.2713C91.8346 27.7004 85.3376 21.8338 77.668 21.8338H75.168V18.4562C75.168 10.8963 68.5095 5.06668 61.0159 6.06583L27.2574 10.567ZM61.6767 11.022C66.1729 10.4225 70.168 13.9203 70.168 18.4562V21.8338H28.3371C26.5869 21.8338 25.168 20.4148 25.168 18.6644C25.168 17.0761 26.3438 15.733 27.9183 15.5231L61.6767 11.022Z"
            fill="#B1F489" />
        <path fill-rule="evenodd" clip-rule="evenodd"
            d="M72.6654 40.5674C68.063 40.5674 64.332 44.2983 64.332 48.9007C64.332 53.5031 68.063 57.234 72.6654 57.234C77.2677 57.234 80.9987 53.5031 80.9987 48.9007C80.9987 44.2983 77.2677 40.5674 72.6654 40.5674Z"
            fill="#B1F489" />
    </g>
    <defs>
        <filter id="filter0_ddii_2973_717" x="-0.666666" y="-4" width="113.333" height="113.333"
            filterUnits="userSpaceOnUse" color-interpolation-filters="sRGB">
            <feFlood flood-opacity="0" result="BackgroundImageFix" />
            <feColorMatrix in="SourceAlpha" type="matrix" values="0 0 0 0 0 0 0 0 0 0 0 0 0 0 0 0 0 0 127 0"
                result="hardAlpha" />
            <feMorphology radius="5" operator="erode" in="SourceAlpha" result="effect1_dropShadow_2973_717" />
            <feOffset dy="11.6667" />
            <feGaussianBlur stdDeviation="10.8333" />
            <feColorMatrix type="matrix" values="0 0 0 0 0 0 0 0 0 0 0 0 0 0 0 0 0 0 0.3 0" />
            <feBlend mode="normal" in2="BackgroundImageFix" result="effect1_dropShadow_2973_717" />
            <feColorMatrix in="SourceAlpha" type="matrix" values="0 0 0 0 0 0 0 0 0 0 0 0 0 0 0 0 0 0 127 0"
                result="hardAlpha" />
            <feOffset dy="3.33333" />
            <feGaussianBlur stdDeviation="3.33333" />
            <feColorMatrix type="matrix" values="0 0 0 0 0 0 0 0 0 0 0 0 0 0 0 0 0 0 0.4 0" />
            <feBlend mode="normal" in2="effect1_dropShadow_2973_717" result="effect2_dropShadow_2973_717" />
            <feBlend mode="normal" in="SourceGraphic" in2="effect2_dropShadow_2973_717" result="shape" />
            <feColorMatrix in="SourceAlpha" type="matrix" values="0 0 0 0 0 0 0 0 0 0 0 0 0 0 0 0 0 0 127 0"
                result="hardAlpha" />
            <feMorphology radius="1.66667" operator="erode" in="SourceAlpha" result="effect3_innerShadow_2973_717" />
            <feOffset dx="-5" dy="-5" />
            <feGaussianBlur stdDeviation="5" />
            <feComposite in2="hardAlpha" operator="arithmetic" k2="-1" k3="1" />
            <feColorMatrix type="matrix" values="0 0 0 0 1 0 0 0 0 1 0 0 0 0 1 0 0 0 0.5 0" />
            <feBlend mode="normal" in2="shape" result="effect3_innerShadow_2973_717" />
            <feColorMatrix in="SourceAlpha" type="matrix" values="0 0 0 0 0 0 0 0 0 0 0 0 0 0 0 0 0 0 127 0"
                result="hardAlpha" />
            <feOffset dx="5" dy="5" />
            <feGaussianBlur stdDeviation="5" />
            <feComposite in2="hardAlpha" operator="arithmetic" k2="-1" k3="1" />
            <feColorMatrix type="matrix" values="0 0 0 0 0.627594 0 0 0 0 1 0 0 0 0 0.557767 0 0 0 1 0" />
            <feBlend mode="normal" in2="effect3_innerShadow_2973_717" result="effect4_innerShadow_2973_717" />
        </filter>
    </defs>
</svg>