<svg width="625" height="105" viewBox="0 0 625 105" fill="none" xmlns="http://www.w3.org/2000/svg">
    <path
        d="M104.891 7L111.812 13.8613L112.106 14.1533L112.521 14.1514L624 11.5049V89.9834L21.0654 92.6279L9 80.666V7H104.891Z"
        fill="#1C1C1C" stroke="#212121" stroke-width="2" />
    <mask id="mask0_2072_9166" style="mask-type:luminance" maskUnits="userSpaceOnUse" x="0" y="0" width="35"
        height="15">
        <path d="M0 0H35V14.5833H0V0Z" fill="white" />
    </mask>
    <g mask="url(#mask0_2072_9166)">
        <path
            d="M0.68762 14.5758C0.555965 14.5758 0.436969 14.5404 0.328101 14.4644C0.219232 14.391 0.140745 14.2923 0.0951723 14.1682C0.0495991 14.0441 0.0420034 13.9201 0.0749177 13.7935C0.107831 13.6669 0.173659 13.5606 0.274932 13.4745L6.87035 7.76015C6.9387 7.69938 6.99187 7.62849 7.02985 7.54494C7.06783 7.46392 7.08808 7.37784 7.08808 7.28669C7.08808 7.19555 7.06783 7.10947 7.02985 7.02592C6.99187 6.94237 6.9387 6.87147 6.87035 6.81324L0.274932 1.0989C0.173659 1.01282 0.107831 0.906485 0.0749177 0.779894C0.0445358 0.653302 0.0495993 0.529242 0.0977042 0.405183C0.143277 0.283655 0.219232 0.184914 0.328101 0.108959C0.436969 0.0355355 0.555965 -0.00244141 0.68762 -0.00244141H19.8991C20.0966 -0.00244141 20.2587 0.0709821 20.3852 0.22036L26.0084 6.79046C26.1148 6.91452 26.1654 7.05883 26.1603 7.22087C26.1528 7.38544 26.092 7.52469 25.9755 7.64115L19.1928 14.3885C19.0687 14.5125 18.9193 14.5733 18.7446 14.5733H0.68762V14.5758ZM23.8412 1.03308L28.8643 6.90186C28.9732 7.02592 29.0238 7.17023 29.0163 7.3348C29.0087 7.49937 28.9479 7.63862 28.8314 7.75255L23.0513 13.5049C22.9626 13.5935 22.9044 13.6998 22.8791 13.8264C22.8538 13.9505 22.8664 14.072 22.9145 14.1885C22.9626 14.3049 23.0411 14.4011 23.1475 14.4695C23.2538 14.5404 23.3703 14.5758 23.4994 14.5758H27.7681C27.9453 14.5758 28.0947 14.5125 28.2187 14.3859L34.7559 7.7247C34.8749 7.60317 34.9357 7.45633 34.9357 7.28669C34.9357 7.11706 34.8749 6.97022 34.7559 6.84869L28.2187 0.187446C28.0947 0.0608546 27.9453 -0.00244141 27.7681 -0.00244141H24.3222C24.0513 -0.00244141 23.8614 0.119086 23.7475 0.362142C23.6361 0.605197 23.6665 0.827998 23.8412 1.03308Z"
            fill="#B1F489" />
    </g>
</svg>