<svg width="318" height="147" viewBox="0 0 318 147" fill="none" xmlns="http://www.w3.org/2000/svg">
    <mask id="mask0_0_1" style="mask-type:luminance" maskUnits="userSpaceOnUse" x="0" y="0" width="318" height="147">
        <path d="M0 0H318V146.207H0V0Z" fill="white" />
    </mask>
    <g mask="url(#mask0_0_1)">
        <mask id="path-2-inside-1_0_1" fill="white">
            <path
                d="M318.019 120.343C318.019 115.47 318.019 110.596 318.019 105.723C316.325 104.028 314.611 102.353 312.917 100.678C312.898 100.659 312.879 100.64 312.86 100.621V100.602C312.841 100.602 312.841 100.583 312.841 100.564C312.822 100.545 312.822 100.526 312.822 100.507C312.803 100.487 312.803 100.449 312.803 100.43C312.803 100.411 312.803 100.392 312.803 100.373C312.803 97.2511 312.803 94.129 312.803 91.0069C312.803 84.8007 312.803 78.5945 312.803 72.3884C312.803 66.3154 312.803 60.2425 312.803 54.1696C312.803 51.4473 312.803 48.7059 312.803 45.9645C312.803 45.9455 312.803 45.9074 312.822 45.8884C312.822 45.8693 312.822 45.8503 312.841 45.8312C312.841 45.8122 312.86 45.7932 312.86 45.7932C312.86 45.7741 312.86 45.7741 312.86 45.7741C312.879 45.7551 312.898 45.7361 312.917 45.717C314.611 44.0417 316.325 42.3664 318.019 40.6721C318.019 38.8255 318.019 36.9598 318.019 35.0942C318.019 30.2206 318.019 25.347 318.019 20.4735C317.924 20.3783 317.848 20.2831 317.753 20.1879C313.983 16.4756 310.214 12.7634 306.463 9.05107C303.436 6.08124 300.429 3.09238 297.402 0.122553C296.926 0.122553 296.45 0.122553 295.974 0.122553C292.071 0.122553 288.188 0.122553 284.304 0.122553C278.117 0.122553 271.949 0.122553 265.762 0.122553C259.117 0.122553 252.454 0.122553 245.81 0.122553C240.499 0.122553 235.168 0.122553 229.857 0.122553C227.744 0.122553 225.612 0.122553 223.48 0.122553C223.46 0.141589 223.422 0.179663 223.384 0.21774C219.977 3.56831 216.569 6.93793 213.161 10.2885C213.142 10.3075 213.123 10.3266 213.104 10.3456H213.085C213.066 10.3456 213.066 10.3646 213.047 10.3646C213.028 10.3837 213.009 10.3837 212.99 10.3837C212.952 10.3837 212.933 10.4027 212.914 10.4027C212.457 10.4027 211.981 10.4027 211.524 10.4027C208.25 10.4027 204.975 10.4027 201.701 10.4027C196.123 10.4027 190.545 10.4027 184.967 10.4027C178.113 10.4027 171.26 10.4027 164.388 10.4027C157.287 10.4027 150.167 10.4027 143.066 10.4027C136.726 10.4027 130.368 10.4027 124.028 10.4027C119.478 10.4027 114.909 10.4027 110.36 10.4027C108.608 10.4027 106.876 10.4027 105.124 10.4027C105.086 10.4027 105.067 10.3837 105.048 10.3837C105.048 10.3837 105.048 10.3837 105.029 10.3837C105.01 10.3837 105.01 10.3837 104.991 10.3646C104.972 10.3646 104.953 10.3456 104.934 10.3456C104.915 10.3266 104.896 10.3075 104.877 10.2885C104.801 10.2314 104.744 10.1552 104.667 10.0981C101.298 6.76659 97.9091 3.43505 94.5395 0.103516C94.0636 0.103516 93.5876 0.103516 93.1117 0.103516C89.2281 0.103516 85.3254 0.103516 81.4418 0.103516C75.2547 0.103516 69.0866 0.103516 62.8994 0.103516C56.2554 0.103516 49.6114 0.103516 42.9483 0.103516C37.6369 0.103516 32.3254 0.103516 26.995 0.103516C24.8818 0.103516 22.7496 0.103516 20.6175 0.103516C20.5223 0.198701 20.4461 0.29389 20.3509 0.389076C16.5815 4.10136 12.8121 7.81364 9.06178 11.5259C6.03484 14.5148 3.02694 17.4846 0 20.4735C0 22.3391 0 24.2048 0 26.0705C0 30.944 0 35.8176 0 40.6912C1.71336 42.3664 3.40769 44.0417 5.12105 45.717C5.12105 45.717 5.12105 45.717 5.12105 45.7361C5.14009 45.7361 5.15912 45.7551 5.15912 45.7741V45.7932C5.17816 45.7932 5.17816 45.8122 5.1972 45.8312C5.1972 45.8503 5.1972 45.8693 5.21624 45.8884C5.21624 45.9074 5.21624 45.9455 5.21624 45.9645C5.21624 45.9835 5.21624 46.0026 5.21624 46.0407C5.21624 49.1628 5.21624 52.2659 5.21624 55.388C5.21624 61.5942 5.21624 67.8003 5.21624 74.0065C5.21624 80.0794 5.21624 86.1524 5.21624 92.2253C5.21624 94.9476 5.21624 97.689 5.21624 100.43C5.21624 100.468 5.21624 100.487 5.21624 100.507C5.21624 100.507 5.21624 100.507 5.21624 100.526C5.1972 100.526 5.1972 100.545 5.1972 100.564C5.17816 100.583 5.17816 100.602 5.15912 100.621C5.14009 100.64 5.14009 100.659 5.12105 100.678C3.40769 102.353 1.71336 104.047 0 105.723C0 107.588 0 109.454 0 111.301C0 116.174 0 121.048 0 125.921C0.0951856 126.017 0.190375 126.112 0.28556 126.207C4.03592 129.919 7.80532 133.632 11.5747 137.344C14.5826 140.333 17.6096 143.303 20.6175 146.291C21.0934 146.291 21.5693 146.291 22.0453 146.291C25.9479 146.291 29.8315 146.291 33.7342 146.291C39.9023 146.291 21.0894 146.291 27.2575 146.291C33.9206 146.291 22.5647 146.291 21.2087 146.291C26.5392 146.291 31.8506 146.291 37.162 146.291C39.2942 146.291 43.4264 146.291 45.5395 146.291C45.5776 146.253 45.6157 146.215 45.6347 146.196C55.8768 131.106 45.6347 146.196 55.8768 131.106C55.8958 131.087 55.9149 131.068 55.9339 131.068C55.9339 131.049 55.9339 131.049 55.9339 131.049C55.9529 131.049 55.972 131.03 55.991 131.03C56.0101 131.03 56.0101 131.011 56.0291 131.011H56.0481C56.0672 131.011 56.0862 131.011 56.1243 131.011C56.5812 131.011 106.038 131.011 106.495 131.011C109.769 131.011 113.063 131.011 116.337 131.011C121.915 131.011 127.493 131.011 133.071 131.011C139.925 131.011 146.778 131.011 153.631 131.011C160.751 131.011 167.852 131.011 174.972 131.011C181.312 131.011 187.651 131.011 194.01 131.011C198.56 131.011 204.11 131.011 208.659 131.011C210.411 131.011 260.162 131.011 261.914 131.011C261.933 131.011 261.952 131.011 261.99 131.011C262.009 131.011 262.028 131.03 262.047 131.03C262.066 131.03 262.066 131.049 262.085 131.049C262.085 131.049 262.104 131.049 262.104 131.068C262.123 131.068 262.142 131.087 262.161 131.106C262.218 131.183 262.295 131.24 262.352 131.316C272.48 146.291 262.352 131.316 272.48 146.291C272.955 146.291 273.431 146.291 275.907 146.291C279.81 146.291 282.694 146.291 286.596 146.291C292.764 146.291 272.48 146.291 272.701 146.291C279.364 146.291 285.356 146.291 292 146.291C297.33 146.291 285.713 146.291 291.024 146.291C293.156 146.291 295.269 146.291 297.402 146.291C297.497 146.196 297.592 146.101 297.687 146.006C301.438 142.294 305.207 138.581 308.976 134.869C311.984 131.88 315.011 128.91 318.019 125.921C318.019 124.056 318.019 122.209 318.019 120.343Z" />
        </mask>
        <g filter="url(#filter0_ii_0_1)">
            <path
                d="M318.019 120.343C318.019 115.47 318.019 110.596 318.019 105.723C316.325 104.028 314.611 102.353 312.917 100.678C312.898 100.659 312.879 100.64 312.86 100.621V100.602C312.841 100.602 312.841 100.583 312.841 100.564C312.822 100.545 312.822 100.526 312.822 100.507C312.803 100.487 312.803 100.449 312.803 100.43C312.803 100.411 312.803 100.392 312.803 100.373C312.803 97.2511 312.803 94.129 312.803 91.0069C312.803 84.8007 312.803 78.5945 312.803 72.3884C312.803 66.3154 312.803 60.2425 312.803 54.1696C312.803 51.4473 312.803 48.7059 312.803 45.9645C312.803 45.9455 312.803 45.9074 312.822 45.8884C312.822 45.8693 312.822 45.8503 312.841 45.8312C312.841 45.8122 312.86 45.7932 312.86 45.7932C312.86 45.7741 312.86 45.7741 312.86 45.7741C312.879 45.7551 312.898 45.7361 312.917 45.717C314.611 44.0417 316.325 42.3664 318.019 40.6721C318.019 38.8255 318.019 36.9598 318.019 35.0942C318.019 30.2206 318.019 25.347 318.019 20.4735C317.924 20.3783 317.848 20.2831 317.753 20.1879C313.983 16.4756 310.214 12.7634 306.463 9.05107C303.436 6.08124 300.429 3.09238 297.402 0.122553C296.926 0.122553 296.45 0.122553 295.974 0.122553C292.071 0.122553 288.188 0.122553 284.304 0.122553C278.117 0.122553 271.949 0.122553 265.762 0.122553C259.117 0.122553 252.454 0.122553 245.81 0.122553C240.499 0.122553 235.168 0.122553 229.857 0.122553C227.744 0.122553 225.612 0.122553 223.48 0.122553C223.46 0.141589 223.422 0.179663 223.384 0.21774C219.977 3.56831 216.569 6.93793 213.161 10.2885C213.142 10.3075 213.123 10.3266 213.104 10.3456H213.085C213.066 10.3456 213.066 10.3646 213.047 10.3646C213.028 10.3837 213.009 10.3837 212.99 10.3837C212.952 10.3837 212.933 10.4027 212.914 10.4027C212.457 10.4027 211.981 10.4027 211.524 10.4027C208.25 10.4027 204.975 10.4027 201.701 10.4027C196.123 10.4027 190.545 10.4027 184.967 10.4027C178.113 10.4027 171.26 10.4027 164.388 10.4027C157.287 10.4027 150.167 10.4027 143.066 10.4027C136.726 10.4027 130.368 10.4027 124.028 10.4027C119.478 10.4027 114.909 10.4027 110.36 10.4027C108.608 10.4027 106.876 10.4027 105.124 10.4027C105.086 10.4027 105.067 10.3837 105.048 10.3837C105.048 10.3837 105.048 10.3837 105.029 10.3837C105.01 10.3837 105.01 10.3837 104.991 10.3646C104.972 10.3646 104.953 10.3456 104.934 10.3456C104.915 10.3266 104.896 10.3075 104.877 10.2885C104.801 10.2314 104.744 10.1552 104.667 10.0981C101.298 6.76659 97.9091 3.43505 94.5395 0.103516C94.0636 0.103516 93.5876 0.103516 93.1117 0.103516C89.2281 0.103516 85.3254 0.103516 81.4418 0.103516C75.2547 0.103516 69.0866 0.103516 62.8994 0.103516C56.2554 0.103516 49.6114 0.103516 42.9483 0.103516C37.6369 0.103516 32.3254 0.103516 26.995 0.103516C24.8818 0.103516 22.7496 0.103516 20.6175 0.103516C20.5223 0.198701 20.4461 0.29389 20.3509 0.389076C16.5815 4.10136 12.8121 7.81364 9.06178 11.5259C6.03484 14.5148 3.02694 17.4846 0 20.4735C0 22.3391 0 24.2048 0 26.0705C0 30.944 0 35.8176 0 40.6912C1.71336 42.3664 3.40769 44.0417 5.12105 45.717C5.12105 45.717 5.12105 45.717 5.12105 45.7361C5.14009 45.7361 5.15912 45.7551 5.15912 45.7741V45.7932C5.17816 45.7932 5.17816 45.8122 5.1972 45.8312C5.1972 45.8503 5.1972 45.8693 5.21624 45.8884C5.21624 45.9074 5.21624 45.9455 5.21624 45.9645C5.21624 45.9835 5.21624 46.0026 5.21624 46.0407C5.21624 49.1628 5.21624 52.2659 5.21624 55.388C5.21624 61.5942 5.21624 67.8003 5.21624 74.0065C5.21624 80.0794 5.21624 86.1524 5.21624 92.2253C5.21624 94.9476 5.21624 97.689 5.21624 100.43C5.21624 100.468 5.21624 100.487 5.21624 100.507C5.21624 100.507 5.21624 100.507 5.21624 100.526C5.1972 100.526 5.1972 100.545 5.1972 100.564C5.17816 100.583 5.17816 100.602 5.15912 100.621C5.14009 100.64 5.14009 100.659 5.12105 100.678C3.40769 102.353 1.71336 104.047 0 105.723C0 107.588 0 109.454 0 111.301C0 116.174 0 121.048 0 125.921C0.0951856 126.017 0.190375 126.112 0.28556 126.207C4.03592 129.919 7.80532 133.632 11.5747 137.344C14.5826 140.333 17.6096 143.303 20.6175 146.291C21.0934 146.291 21.5693 146.291 22.0453 146.291C25.9479 146.291 29.8315 146.291 33.7342 146.291C39.9023 146.291 21.0894 146.291 27.2575 146.291C33.9206 146.291 22.5647 146.291 21.2087 146.291C26.5392 146.291 31.8506 146.291 37.162 146.291C39.2942 146.291 43.4264 146.291 45.5395 146.291C45.5776 146.253 45.6157 146.215 45.6347 146.196C55.8768 131.106 45.6347 146.196 55.8768 131.106C55.8958 131.087 55.9149 131.068 55.9339 131.068C55.9339 131.049 55.9339 131.049 55.9339 131.049C55.9529 131.049 55.972 131.03 55.991 131.03C56.0101 131.03 56.0101 131.011 56.0291 131.011H56.0481C56.0672 131.011 56.0862 131.011 56.1243 131.011C56.5812 131.011 106.038 131.011 106.495 131.011C109.769 131.011 113.063 131.011 116.337 131.011C121.915 131.011 127.493 131.011 133.071 131.011C139.925 131.011 146.778 131.011 153.631 131.011C160.751 131.011 167.852 131.011 174.972 131.011C181.312 131.011 187.651 131.011 194.01 131.011C198.56 131.011 204.11 131.011 208.659 131.011C210.411 131.011 260.162 131.011 261.914 131.011C261.933 131.011 261.952 131.011 261.99 131.011C262.009 131.011 262.028 131.03 262.047 131.03C262.066 131.03 262.066 131.049 262.085 131.049C262.085 131.049 262.104 131.049 262.104 131.068C262.123 131.068 262.142 131.087 262.161 131.106C262.218 131.183 262.295 131.24 262.352 131.316C272.48 146.291 262.352 131.316 272.48 146.291C272.955 146.291 273.431 146.291 275.907 146.291C279.81 146.291 282.694 146.291 286.596 146.291C292.764 146.291 272.48 146.291 272.701 146.291C279.364 146.291 285.356 146.291 292 146.291C297.33 146.291 285.713 146.291 291.024 146.291C293.156 146.291 295.269 146.291 297.402 146.291C297.497 146.196 297.592 146.101 297.687 146.006C301.438 142.294 305.207 138.581 308.976 134.869C311.984 131.88 315.011 128.91 318.019 125.921C318.019 124.056 318.019 122.209 318.019 120.343Z"
                fill="#1C1C1C" />
            <path
                d="M318.019 120.343C318.019 115.47 318.019 110.596 318.019 105.723C316.325 104.028 314.611 102.353 312.917 100.678C312.898 100.659 312.879 100.64 312.86 100.621V100.602C312.841 100.602 312.841 100.583 312.841 100.564C312.822 100.545 312.822 100.526 312.822 100.507C312.803 100.487 312.803 100.449 312.803 100.43C312.803 100.411 312.803 100.392 312.803 100.373C312.803 97.2511 312.803 94.129 312.803 91.0069C312.803 84.8007 312.803 78.5945 312.803 72.3884C312.803 66.3154 312.803 60.2425 312.803 54.1696C312.803 51.4473 312.803 48.7059 312.803 45.9645C312.803 45.9455 312.803 45.9074 312.822 45.8884C312.822 45.8693 312.822 45.8503 312.841 45.8312C312.841 45.8122 312.86 45.7932 312.86 45.7932C312.86 45.7741 312.86 45.7741 312.86 45.7741C312.879 45.7551 312.898 45.7361 312.917 45.717C314.611 44.0417 316.325 42.3664 318.019 40.6721C318.019 38.8255 318.019 36.9598 318.019 35.0942C318.019 30.2206 318.019 25.347 318.019 20.4735C317.924 20.3783 317.848 20.2831 317.753 20.1879C313.983 16.4756 310.214 12.7634 306.463 9.05107C303.436 6.08124 300.429 3.09238 297.402 0.122553C296.926 0.122553 296.45 0.122553 295.974 0.122553C292.071 0.122553 288.188 0.122553 284.304 0.122553C278.117 0.122553 271.949 0.122553 265.762 0.122553C259.117 0.122553 252.454 0.122553 245.81 0.122553C240.499 0.122553 235.168 0.122553 229.857 0.122553C227.744 0.122553 225.612 0.122553 223.48 0.122553C223.46 0.141589 223.422 0.179663 223.384 0.21774C219.977 3.56831 216.569 6.93793 213.161 10.2885C213.142 10.3075 213.123 10.3266 213.104 10.3456H213.085C213.066 10.3456 213.066 10.3646 213.047 10.3646C213.028 10.3837 213.009 10.3837 212.99 10.3837C212.952 10.3837 212.933 10.4027 212.914 10.4027C212.457 10.4027 211.981 10.4027 211.524 10.4027C208.25 10.4027 204.975 10.4027 201.701 10.4027C196.123 10.4027 190.545 10.4027 184.967 10.4027C178.113 10.4027 171.26 10.4027 164.388 10.4027C157.287 10.4027 150.167 10.4027 143.066 10.4027C136.726 10.4027 130.368 10.4027 124.028 10.4027C119.478 10.4027 114.909 10.4027 110.36 10.4027C108.608 10.4027 106.876 10.4027 105.124 10.4027C105.086 10.4027 105.067 10.3837 105.048 10.3837C105.048 10.3837 105.048 10.3837 105.029 10.3837C105.01 10.3837 105.01 10.3837 104.991 10.3646C104.972 10.3646 104.953 10.3456 104.934 10.3456C104.915 10.3266 104.896 10.3075 104.877 10.2885C104.801 10.2314 104.744 10.1552 104.667 10.0981C101.298 6.76659 97.9091 3.43505 94.5395 0.103516C94.0636 0.103516 93.5876 0.103516 93.1117 0.103516C89.2281 0.103516 85.3254 0.103516 81.4418 0.103516C75.2547 0.103516 69.0866 0.103516 62.8994 0.103516C56.2554 0.103516 49.6114 0.103516 42.9483 0.103516C37.6369 0.103516 32.3254 0.103516 26.995 0.103516C24.8818 0.103516 22.7496 0.103516 20.6175 0.103516C20.5223 0.198701 20.4461 0.29389 20.3509 0.389076C16.5815 4.10136 12.8121 7.81364 9.06178 11.5259C6.03484 14.5148 3.02694 17.4846 0 20.4735C0 22.3391 0 24.2048 0 26.0705C0 30.944 0 35.8176 0 40.6912C1.71336 42.3664 3.40769 44.0417 5.12105 45.717C5.12105 45.717 5.12105 45.717 5.12105 45.7361C5.14009 45.7361 5.15912 45.7551 5.15912 45.7741V45.7932C5.17816 45.7932 5.17816 45.8122 5.1972 45.8312C5.1972 45.8503 5.1972 45.8693 5.21624 45.8884C5.21624 45.9074 5.21624 45.9455 5.21624 45.9645C5.21624 45.9835 5.21624 46.0026 5.21624 46.0407C5.21624 49.1628 5.21624 52.2659 5.21624 55.388C5.21624 61.5942 5.21624 67.8003 5.21624 74.0065C5.21624 80.0794 5.21624 86.1524 5.21624 92.2253C5.21624 94.9476 5.21624 97.689 5.21624 100.43C5.21624 100.468 5.21624 100.487 5.21624 100.507C5.21624 100.507 5.21624 100.507 5.21624 100.526C5.1972 100.526 5.1972 100.545 5.1972 100.564C5.17816 100.583 5.17816 100.602 5.15912 100.621C5.14009 100.64 5.14009 100.659 5.12105 100.678C3.40769 102.353 1.71336 104.047 0 105.723C0 107.588 0 109.454 0 111.301C0 116.174 0 121.048 0 125.921C0.0951856 126.017 0.190375 126.112 0.28556 126.207C4.03592 129.919 7.80532 133.632 11.5747 137.344C14.5826 140.333 17.6096 143.303 20.6175 146.291C21.0934 146.291 21.5693 146.291 22.0453 146.291C25.9479 146.291 29.8315 146.291 33.7342 146.291C39.9023 146.291 21.0894 146.291 27.2575 146.291C33.9206 146.291 22.5647 146.291 21.2087 146.291C26.5392 146.291 31.8506 146.291 37.162 146.291C39.2942 146.291 43.4264 146.291 45.5395 146.291C45.5776 146.253 45.6157 146.215 45.6347 146.196C55.8768 131.106 45.6347 146.196 55.8768 131.106C55.8958 131.087 55.9149 131.068 55.9339 131.068C55.9339 131.049 55.9339 131.049 55.9339 131.049C55.9529 131.049 55.972 131.03 55.991 131.03C56.0101 131.03 56.0101 131.011 56.0291 131.011H56.0481C56.0672 131.011 56.0862 131.011 56.1243 131.011C56.5812 131.011 106.038 131.011 106.495 131.011C109.769 131.011 113.063 131.011 116.337 131.011C121.915 131.011 127.493 131.011 133.071 131.011C139.925 131.011 146.778 131.011 153.631 131.011C160.751 131.011 167.852 131.011 174.972 131.011C181.312 131.011 187.651 131.011 194.01 131.011C198.56 131.011 204.11 131.011 208.659 131.011C210.411 131.011 260.162 131.011 261.914 131.011C261.933 131.011 261.952 131.011 261.99 131.011C262.009 131.011 262.028 131.03 262.047 131.03C262.066 131.03 262.066 131.049 262.085 131.049C262.085 131.049 262.104 131.049 262.104 131.068C262.123 131.068 262.142 131.087 262.161 131.106C262.218 131.183 262.295 131.24 262.352 131.316C272.48 146.291 262.352 131.316 272.48 146.291C272.955 146.291 273.431 146.291 275.907 146.291C279.81 146.291 282.694 146.291 286.596 146.291C292.764 146.291 272.48 146.291 272.701 146.291C279.364 146.291 285.356 146.291 292 146.291C297.33 146.291 285.713 146.291 291.024 146.291C293.156 146.291 295.269 146.291 297.402 146.291C297.497 146.196 297.592 146.101 297.687 146.006C301.438 142.294 305.207 138.581 308.976 134.869C311.984 131.88 315.011 128.91 318.019 125.921C318.019 124.056 318.019 122.209 318.019 120.343Z"
                fill="url(#paint0_linear_0_1)" />
        </g>
        <path
            d="M318.019 120.343C318.019 115.47 318.019 110.596 318.019 105.723C316.325 104.028 314.611 102.353 312.917 100.678C312.898 100.659 312.879 100.64 312.86 100.621V100.602C312.841 100.602 312.841 100.583 312.841 100.564C312.822 100.545 312.822 100.526 312.822 100.507C312.803 100.487 312.803 100.449 312.803 100.43C312.803 100.411 312.803 100.392 312.803 100.373C312.803 97.2511 312.803 94.129 312.803 91.0069C312.803 84.8007 312.803 78.5945 312.803 72.3884C312.803 66.3154 312.803 60.2425 312.803 54.1696C312.803 51.4473 312.803 48.7059 312.803 45.9645C312.803 45.9455 312.803 45.9074 312.822 45.8884C312.822 45.8693 312.822 45.8503 312.841 45.8312C312.841 45.8122 312.86 45.7932 312.86 45.7932C312.86 45.7741 312.86 45.7741 312.86 45.7741C312.879 45.7551 312.898 45.7361 312.917 45.717C314.611 44.0417 316.325 42.3664 318.019 40.6721C318.019 38.8255 318.019 36.9598 318.019 35.0942C318.019 30.2206 318.019 25.347 318.019 20.4735C317.924 20.3783 317.848 20.2831 317.753 20.1879C313.983 16.4756 310.214 12.7634 306.463 9.05107C303.436 6.08124 300.429 3.09238 297.402 0.122553C296.926 0.122553 296.45 0.122553 295.974 0.122553C292.071 0.122553 288.188 0.122553 284.304 0.122553C278.117 0.122553 271.949 0.122553 265.762 0.122553C259.117 0.122553 252.454 0.122553 245.81 0.122553C240.499 0.122553 235.168 0.122553 229.857 0.122553C227.744 0.122553 225.612 0.122553 223.48 0.122553C223.46 0.141589 223.422 0.179663 223.384 0.21774C219.977 3.56831 216.569 6.93793 213.161 10.2885C213.142 10.3075 213.123 10.3266 213.104 10.3456H213.085C213.066 10.3456 213.066 10.3646 213.047 10.3646C213.028 10.3837 213.009 10.3837 212.99 10.3837C212.952 10.3837 212.933 10.4027 212.914 10.4027C212.457 10.4027 211.981 10.4027 211.524 10.4027C208.25 10.4027 204.975 10.4027 201.701 10.4027C196.123 10.4027 190.545 10.4027 184.967 10.4027C178.113 10.4027 171.26 10.4027 164.388 10.4027C157.287 10.4027 150.167 10.4027 143.066 10.4027C136.726 10.4027 130.368 10.4027 124.028 10.4027C119.478 10.4027 114.909 10.4027 110.36 10.4027C108.608 10.4027 106.876 10.4027 105.124 10.4027C105.086 10.4027 105.067 10.3837 105.048 10.3837C105.048 10.3837 105.048 10.3837 105.029 10.3837C105.01 10.3837 105.01 10.3837 104.991 10.3646C104.972 10.3646 104.953 10.3456 104.934 10.3456C104.915 10.3266 104.896 10.3075 104.877 10.2885C104.801 10.2314 104.744 10.1552 104.667 10.0981C101.298 6.76659 97.9091 3.43505 94.5395 0.103516C94.0636 0.103516 93.5876 0.103516 93.1117 0.103516C89.2281 0.103516 85.3254 0.103516 81.4418 0.103516C75.2547 0.103516 69.0866 0.103516 62.8994 0.103516C56.2554 0.103516 49.6114 0.103516 42.9483 0.103516C37.6369 0.103516 32.3254 0.103516 26.995 0.103516C24.8818 0.103516 22.7496 0.103516 20.6175 0.103516C20.5223 0.198701 20.4461 0.29389 20.3509 0.389076C16.5815 4.10136 12.8121 7.81364 9.06178 11.5259C6.03484 14.5148 3.02694 17.4846 0 20.4735C0 22.3391 0 24.2048 0 26.0705C0 30.944 0 35.8176 0 40.6912C1.71336 42.3664 3.40769 44.0417 5.12105 45.717C5.12105 45.717 5.12105 45.717 5.12105 45.7361C5.14009 45.7361 5.15912 45.7551 5.15912 45.7741V45.7932C5.17816 45.7932 5.17816 45.8122 5.1972 45.8312C5.1972 45.8503 5.1972 45.8693 5.21624 45.8884C5.21624 45.9074 5.21624 45.9455 5.21624 45.9645C5.21624 45.9835 5.21624 46.0026 5.21624 46.0407C5.21624 49.1628 5.21624 52.2659 5.21624 55.388C5.21624 61.5942 5.21624 67.8003 5.21624 74.0065C5.21624 80.0794 5.21624 86.1524 5.21624 92.2253C5.21624 94.9476 5.21624 97.689 5.21624 100.43C5.21624 100.468 5.21624 100.487 5.21624 100.507C5.21624 100.507 5.21624 100.507 5.21624 100.526C5.1972 100.526 5.1972 100.545 5.1972 100.564C5.17816 100.583 5.17816 100.602 5.15912 100.621C5.14009 100.64 5.14009 100.659 5.12105 100.678C3.40769 102.353 1.71336 104.047 0 105.723C0 107.588 0 109.454 0 111.301C0 116.174 0 121.048 0 125.921C0.0951856 126.017 0.190375 126.112 0.28556 126.207C4.03592 129.919 7.80532 133.632 11.5747 137.344C14.5826 140.333 17.6096 143.303 20.6175 146.291C21.0934 146.291 21.5693 146.291 22.0453 146.291C25.9479 146.291 29.8315 146.291 33.7342 146.291C39.9023 146.291 21.0894 146.291 27.2575 146.291C33.9206 146.291 22.5647 146.291 21.2087 146.291C26.5392 146.291 31.8506 146.291 37.162 146.291C39.2942 146.291 43.4264 146.291 45.5395 146.291C45.5776 146.253 45.6157 146.215 45.6347 146.196C55.8768 131.106 45.6347 146.196 55.8768 131.106C55.8958 131.087 55.9149 131.068 55.9339 131.068C55.9339 131.049 55.9339 131.049 55.9339 131.049C55.9529 131.049 55.972 131.03 55.991 131.03C56.0101 131.03 56.0101 131.011 56.0291 131.011H56.0481C56.0672 131.011 56.0862 131.011 56.1243 131.011C56.5812 131.011 106.038 131.011 106.495 131.011C109.769 131.011 113.063 131.011 116.337 131.011C121.915 131.011 127.493 131.011 133.071 131.011C139.925 131.011 146.778 131.011 153.631 131.011C160.751 131.011 167.852 131.011 174.972 131.011C181.312 131.011 187.651 131.011 194.01 131.011C198.56 131.011 204.11 131.011 208.659 131.011C210.411 131.011 260.162 131.011 261.914 131.011C261.933 131.011 261.952 131.011 261.99 131.011C262.009 131.011 262.028 131.03 262.047 131.03C262.066 131.03 262.066 131.049 262.085 131.049C262.085 131.049 262.104 131.049 262.104 131.068C262.123 131.068 262.142 131.087 262.161 131.106C262.218 131.183 262.295 131.24 262.352 131.316C272.48 146.291 262.352 131.316 272.48 146.291C272.955 146.291 273.431 146.291 275.907 146.291C279.81 146.291 282.694 146.291 286.596 146.291C292.764 146.291 272.48 146.291 272.701 146.291C279.364 146.291 285.356 146.291 292 146.291C297.33 146.291 285.713 146.291 291.024 146.291C293.156 146.291 295.269 146.291 297.402 146.291C297.497 146.196 297.592 146.101 297.687 146.006C301.438 142.294 305.207 138.581 308.976 134.869C311.984 131.88 315.011 128.91 318.019 125.921C318.019 124.056 318.019 122.209 318.019 120.343Z"
            stroke="url(#paint1_linear_0_1)" stroke-width="2" mask="url(#path-2-inside-1_0_1)" />
    </g>
    <mask id="mask1_0_1" style="mask-type:luminance" maskUnits="userSpaceOnUse" x="23" y="135" width="25" height="8">
        <path d="M23 135.104H48V142.385H23V135.104Z" fill="white" />
    </mask>
    <g mask="url(#mask1_0_1)">
        <g filter="url(#filter1_ddi_0_1)">
            <path
                d="M42.303 141.161L46.7901 136.614L45.2944 135.098H25.9071L22.2578 138.796H38.9776L41.8096 141.666L42.303 141.161Z"
                fill="#B1F489" />
        </g>
    </g>
    <mask id="mask2_0_1" style="mask-type:luminance" maskUnits="userSpaceOnUse" x="270" y="135" width="25" height="8">
        <path d="M295 135.104H270.001V142.385H295V135.104Z" fill="white" />
    </mask>
    <g mask="url(#mask2_0_1)">
        <g filter="url(#filter2_ddi_0_1)">
            <path
                d="M275.697 141.161L271.211 136.614L272.706 135.098H292.093L295.742 138.796H279.023L276.191 141.666L275.697 141.161Z"
                fill="#B1F489" />
        </g>
    </g>
    <defs>
        <filter id="filter0_ii_0_1" x="0" y="-7.89648" width="318.02" height="184.188" filterUnits="userSpaceOnUse"
            color-interpolation-filters="sRGB">
            <feFlood flood-opacity="0" result="BackgroundImageFix" />
            <feBlend mode="normal" in="SourceGraphic" in2="BackgroundImageFix" result="shape" />
            <feColorMatrix in="SourceAlpha" type="matrix" values="0 0 0 0 0 0 0 0 0 0 0 0 0 0 0 0 0 0 127 0"
                result="hardAlpha" />
            <feMorphology radius="12" operator="dilate" in="SourceAlpha" result="effect1_innerShadow_0_1" />
            <feOffset dy="30" />
            <feGaussianBlur stdDeviation="30" />
            <feComposite in2="hardAlpha" operator="arithmetic" k2="-1" k3="1" />
            <feColorMatrix type="matrix" values="0 0 0 0 0.0509804 0 0 0 0 0.0509804 0 0 0 0 0.0509804 0 0 0 0.5 0" />
            <feBlend mode="normal" in2="shape" result="effect1_innerShadow_0_1" />
            <feColorMatrix in="SourceAlpha" type="matrix" values="0 0 0 0 0 0 0 0 0 0 0 0 0 0 0 0 0 0 127 0"
                result="hardAlpha" />
            <feMorphology radius="28" operator="dilate" in="SourceAlpha" result="effect2_innerShadow_0_1" />
            <feOffset dy="-50" />
            <feGaussianBlur stdDeviation="18" />
            <feComposite in2="hardAlpha" operator="arithmetic" k2="-1" k3="1" />
            <feColorMatrix type="matrix" values="0 0 0 0 0.0509804 0 0 0 0 0.0509804 0 0 0 0 0.0509804 0 0 0 0.35 0" />
            <feBlend mode="normal" in2="effect1_innerShadow_0_1" result="effect2_innerShadow_0_1" />
        </filter>
        <filter id="filter1_ddi_0_1" x="9.25781" y="129.098" width="50.5312" height="32.5676"
            filterUnits="userSpaceOnUse" color-interpolation-filters="sRGB">
            <feFlood flood-opacity="0" result="BackgroundImageFix" />
            <feColorMatrix in="SourceAlpha" type="matrix" values="0 0 0 0 0 0 0 0 0 0 0 0 0 0 0 0 0 0 127 0"
                result="hardAlpha" />
            <feOffset dy="2" />
            <feGaussianBlur stdDeviation="2" />
            <feColorMatrix type="matrix" values="0 0 0 0 0 0 0 0 0 0 0 0 0 0 0 0 0 0 0.4 0" />
            <feBlend mode="normal" in2="BackgroundImageFix" result="effect1_dropShadow_0_1" />
            <feColorMatrix in="SourceAlpha" type="matrix" values="0 0 0 0 0 0 0 0 0 0 0 0 0 0 0 0 0 0 127 0"
                result="hardAlpha" />
            <feOffset dy="7" />
            <feGaussianBlur stdDeviation="6.5" />
            <feColorMatrix type="matrix" values="0 0 0 0 0 0 0 0 0 0 0 0 0 0 0 0 0 0 0.3 0" />
            <feBlend mode="normal" in2="effect1_dropShadow_0_1" result="effect2_dropShadow_0_1" />
            <feBlend mode="normal" in="SourceGraphic" in2="effect2_dropShadow_0_1" result="shape" />
            <feColorMatrix in="SourceAlpha" type="matrix" values="0 0 0 0 0 0 0 0 0 0 0 0 0 0 0 0 0 0 127 0"
                result="hardAlpha" />
            <feOffset dy="-3" />
            <feComposite in2="hardAlpha" operator="arithmetic" k2="-1" k3="1" />
            <feColorMatrix type="matrix" values="0 0 0 0 0 0 0 0 0 0 0 0 0 0 0 0 0 0 0.2 0" />
            <feBlend mode="normal" in2="shape" result="effect3_innerShadow_0_1" />
        </filter>
        <filter id="filter2_ddi_0_1" x="258.211" y="129.098" width="50.5312" height="32.5676"
            filterUnits="userSpaceOnUse" color-interpolation-filters="sRGB">
            <feFlood flood-opacity="0" result="BackgroundImageFix" />
            <feColorMatrix in="SourceAlpha" type="matrix" values="0 0 0 0 0 0 0 0 0 0 0 0 0 0 0 0 0 0 127 0"
                result="hardAlpha" />
            <feOffset dy="2" />
            <feGaussianBlur stdDeviation="2" />
            <feColorMatrix type="matrix" values="0 0 0 0 0 0 0 0 0 0 0 0 0 0 0 0 0 0 0.4 0" />
            <feBlend mode="normal" in2="BackgroundImageFix" result="effect1_dropShadow_0_1" />
            <feColorMatrix in="SourceAlpha" type="matrix" values="0 0 0 0 0 0 0 0 0 0 0 0 0 0 0 0 0 0 127 0"
                result="hardAlpha" />
            <feOffset dy="7" />
            <feGaussianBlur stdDeviation="6.5" />
            <feColorMatrix type="matrix" values="0 0 0 0 0 0 0 0 0 0 0 0 0 0 0 0 0 0 0.3 0" />
            <feBlend mode="normal" in2="effect1_dropShadow_0_1" result="effect2_dropShadow_0_1" />
            <feBlend mode="normal" in="SourceGraphic" in2="effect2_dropShadow_0_1" result="shape" />
            <feColorMatrix in="SourceAlpha" type="matrix" values="0 0 0 0 0 0 0 0 0 0 0 0 0 0 0 0 0 0 127 0"
                result="hardAlpha" />
            <feOffset dy="-3" />
            <feComposite in2="hardAlpha" operator="arithmetic" k2="-1" k3="1" />
            <feColorMatrix type="matrix" values="0 0 0 0 0 0 0 0 0 0 0 0 0 0 0 0 0 0 0.2 0" />
            <feBlend mode="normal" in2="shape" result="effect3_innerShadow_0_1" />
        </filter>
        <linearGradient id="paint0_linear_0_1" x1="159.01" y1="0.103516" x2="159.01" y2="146.291"
            gradientUnits="userSpaceOnUse">
            <stop offset="0.362193" stop-color="#323131" stop-opacity="0" />
            <stop offset="0.826651" />
        </linearGradient>
        <linearGradient id="paint1_linear_0_1" x1="159.01" y1="0.103516" x2="159.01" y2="146.291"
            gradientUnits="userSpaceOnUse">
            <stop offset="0.188777" stop-color="#1C1C1C" stop-opacity="0" />
            <stop offset="1" stop-color="#B1F489" />
        </linearGradient>
    </defs>
</svg>