<svg width="57" height="57" viewBox="0 0 57 57" fill="none" xmlns="http://www.w3.org/2000/svg">
    <mask id="mask0_2113_170" style="mask-type:luminance" maskUnits="userSpaceOnUse" x="3" y="3" width="54" height="53">
        <path d="M3.42969 3.20813H56.2541V55.9999H3.42969V3.20813Z" fill="white" />
    </mask>
    <g mask="url(#mask0_2113_170)">
        <path fill-rule="evenodd" clip-rule="evenodd"
            d="M5.51362 3.20941H54.1982C55.3217 3.20941 56.2411 4.12886 56.2411 5.25299V53.9569C56.2411 55.081 55.3217 56.0011 54.1982 56.0011H5.51362C4.39015 56.0011 3.4707 55.081 3.4707 53.9569V5.25299C3.4707 4.12886 4.39015 3.20941 5.51362 3.20941Z"
            fill="#212121" />
    </g>
    <mask id="mask1_2113_170" style="mask-type:luminance" maskUnits="userSpaceOnUse" x="1" y="1" width="53" height="53">
        <path d="M1 1H53.9544V53.9024H1V1Z" fill="white" />
    </mask>
    <g mask="url(#mask1_2113_170)">
        <path fill-rule="evenodd" clip-rule="evenodd"
            d="M3.05659 0.999939H51.7411C52.8646 0.999939 53.7841 1.92005 53.7841 3.04352V51.7481C53.7841 52.8722 52.8646 53.7917 51.7411 53.7917H3.05659C1.93245 53.7917 1.01367 52.8722 1.01367 51.7481V3.04352C1.01367 1.92005 1.93245 0.999939 3.05659 0.999939Z"
            fill="#78B851" />
    </g>
    <g filter="url(#filter0_d_2113_170)">
        <path fill-rule="evenodd" clip-rule="evenodd"
            d="M4.21284 2.02008H52.8974C54.0209 2.02008 54.9403 2.94019 54.9403 4.06366V52.7682C54.9403 53.8917 54.0209 54.8118 52.8974 54.8118H4.21284C3.08937 54.8118 2.16992 53.8917 2.16992 52.7682V4.06366C2.16992 2.94019 3.08937 2.02008 4.21284 2.02008Z"
            fill="#B1F489" />
    </g>
    <path fill-rule="evenodd" clip-rule="evenodd"
        d="M54.9378 42.837V52.7682C54.9378 53.8917 54.0184 54.8118 52.8949 54.8118H38.6719L54.9378 42.837Z"
        fill="#92D36B" />
    <path fill-rule="evenodd" clip-rule="evenodd" d="M54.9359 35.0434V41.4542L36.7924 54.8118H28.084L54.9359 35.0434Z"
        fill="#92D36B" />
    <path fill-rule="evenodd" clip-rule="evenodd"
        d="M25.1634 2.02008H31.6628L2.16992 23.7327V18.9475L25.1634 2.02008ZM34.7719 2.02008L2.16992 26.021V37.4637L50.3144 2.02008H34.7719Z"
        fill="#D5F9C0" />
    <path fill-rule="evenodd" clip-rule="evenodd"
        d="M5.00463 3.68561H7.80363V4.57372H8.69108V7.37406H7.80363V8.2615H5.00463V7.37406H4.11719V4.57372H5.00463V3.68561Z"
        fill="#212121" />
    <path fill-rule="evenodd" clip-rule="evenodd"
        d="M49.3054 3.68561H52.1044V4.57372H52.9919V7.37406H52.1044V8.2615H49.3054V7.37406H48.418V4.57372H49.3054V3.68561Z"
        fill="#212121" />
    <path fill-rule="evenodd" clip-rule="evenodd"
        d="M49.3054 48.5704H52.1044V49.4578H52.9919V52.2582H52.1044V53.1463H49.3054V52.2582H48.418V49.4578H49.3054V48.5704Z"
        fill="#212121" />
    <path fill-rule="evenodd" clip-rule="evenodd"
        d="M5.00463 48.5704H7.80363V49.4578H8.69108V52.2582H7.80363V53.1463H5.00463V52.2582H4.11719V49.4578H5.00463V48.5704Z"
        fill="#212121" />
    <mask id="path-13-inside-1_2113_170" fill="white">
        <path
            d="M19.9327 28.6476V32.3717H18.0706V34.2338H6.89835V21.1995H18.0706V23.0615H19.9327V26.7856H18.0706V28.6476H19.9327ZM10.6224 26.7856H16.2086V23.0615H10.6224V26.7856ZM10.6224 32.3717H16.2086V28.6476H10.6224V32.3717ZM35.3527 21.1995V32.3717H33.4907V34.2338H24.1804V32.3717H22.3184V21.1995H26.0425V32.3717H31.6286V21.1995H35.3527ZM49.8417 21.1995V26.7856H47.9797V28.6476H46.1177V34.2338H42.3936V28.6476H40.5129V26.7856H38.6695V21.1995H42.3936V26.7856H46.1177V21.1995H49.8417Z" />
    </mask>
    <path
        d="M19.9327 28.6476V32.3717H18.0706V34.2338H6.89835V21.1995H18.0706V23.0615H19.9327V26.7856H18.0706V28.6476H19.9327ZM10.6224 26.7856H16.2086V23.0615H10.6224V26.7856ZM10.6224 32.3717H16.2086V28.6476H10.6224V32.3717ZM35.3527 21.1995V32.3717H33.4907V34.2338H24.1804V32.3717H22.3184V21.1995H26.0425V32.3717H31.6286V21.1995H35.3527ZM49.8417 21.1995V26.7856H47.9797V28.6476H46.1177V34.2338H42.3936V28.6476H40.5129V26.7856H38.6695V21.1995H42.3936V26.7856H46.1177V21.1995H49.8417Z"
        fill="#212121" />
    <path
        d="M19.9327 28.6476H20.2236V28.3567H19.9327V28.6476ZM19.9327 32.3717V32.6627H20.2236V32.3717H19.9327ZM18.0706 32.3717V32.0808H17.7797V32.3717H18.0706ZM18.0706 34.2338V34.5247H18.3616V34.2338H18.0706ZM6.89835 34.2338H6.60741V34.5247H6.89835V34.2338ZM6.89835 21.1995V20.9085H6.60741V21.1995H6.89835ZM18.0706 21.1995H18.3616V20.9085H18.0706V21.1995ZM18.0706 23.0615H17.7797V23.3524H18.0706V23.0615ZM19.9327 23.0615H20.2236V22.7706H19.9327V23.0615ZM19.9327 26.7856V27.0765H20.2236V26.7856H19.9327ZM18.0706 26.7856V26.4946H17.7797V26.7856H18.0706ZM18.0706 28.6476H17.7797V28.9386H18.0706V28.6476ZM10.6224 26.7856H10.3315V27.0765H10.6224V26.7856ZM16.2086 26.7856V27.0765H16.4995V26.7856H16.2086ZM16.2086 23.0615H16.4995V22.7706H16.2086V23.0615ZM10.6224 23.0615V22.7706H10.3315V23.0615H10.6224ZM10.6224 32.3717H10.3315V32.6627H10.6224V32.3717ZM16.2086 32.3717V32.6627H16.4995V32.3717H16.2086ZM16.2086 28.6476H16.4995V28.3567H16.2086V28.6476ZM10.6224 28.6476V28.3567H10.3315V28.6476H10.6224ZM19.9327 28.6476H19.6417V32.3717H19.9327H20.2236V28.6476H19.9327ZM19.9327 32.3717V32.0808H18.0706V32.3717V32.6627H19.9327V32.3717ZM18.0706 32.3717H17.7797V34.2338H18.0706H18.3616V32.3717H18.0706ZM18.0706 34.2338V33.9428H6.89835V34.2338V34.5247H18.0706V34.2338ZM6.89835 34.2338H7.18929V21.1995H6.89835H6.60741V34.2338H6.89835ZM6.89835 21.1995V21.4904H18.0706V21.1995V20.9085H6.89835V21.1995ZM18.0706 21.1995H17.7797V23.0615H18.0706H18.3616V21.1995H18.0706ZM18.0706 23.0615V23.3524H19.9327V23.0615V22.7706H18.0706V23.0615ZM19.9327 23.0615H19.6417V26.7856H19.9327H20.2236V23.0615H19.9327ZM19.9327 26.7856V26.4946H18.0706V26.7856V27.0765H19.9327V26.7856ZM18.0706 26.7856H17.7797V28.6476H18.0706H18.3616V26.7856H18.0706ZM18.0706 28.6476V28.9386H19.9327V28.6476V28.3567H18.0706V28.6476ZM10.6224 26.7856V27.0765H16.2086V26.7856V26.4946H10.6224V26.7856ZM16.2086 26.7856H16.4995V23.0615H16.2086H15.9176V26.7856H16.2086ZM16.2086 23.0615V22.7706H10.6224V23.0615V23.3524H16.2086V23.0615ZM10.6224 23.0615H10.3315V26.7856H10.6224H10.9134V23.0615H10.6224ZM10.6224 32.3717V32.6627H16.2086V32.3717V32.0808H10.6224V32.3717ZM16.2086 32.3717H16.4995V28.6476H16.2086H15.9176V32.3717H16.2086ZM16.2086 28.6476V28.3567H10.6224V28.6476V28.9386H16.2086V28.6476ZM10.6224 28.6476H10.3315V32.3717H10.6224H10.9134V28.6476H10.6224ZM35.3527 21.1995H35.6437V20.9085H35.3527V21.1995ZM35.3527 32.3717V32.6627H35.6437V32.3717H35.3527ZM33.4907 32.3717V32.0808H33.1997V32.3717H33.4907ZM33.4907 34.2338V34.5247H33.7816V34.2338H33.4907ZM24.1804 34.2338H23.8895V34.5247H24.1804V34.2338ZM24.1804 32.3717H24.4714V32.0808H24.1804V32.3717ZM22.3184 32.3717H22.0275V32.6627H22.3184V32.3717ZM22.3184 21.1995V20.9085H22.0275V21.1995H22.3184ZM26.0425 21.1995H26.3334V20.9085H26.0425V21.1995ZM26.0425 32.3717H25.7515V32.6627H26.0425V32.3717ZM31.6286 32.3717V32.6627H31.9196V32.3717H31.6286ZM31.6286 21.1995V20.9085H31.3377V21.1995H31.6286ZM35.3527 21.1995H35.0618V32.3717H35.3527H35.6437V21.1995H35.3527ZM35.3527 32.3717V32.0808H33.4907V32.3717V32.6627H35.3527V32.3717ZM33.4907 32.3717H33.1997V34.2338H33.4907H33.7816V32.3717H33.4907ZM33.4907 34.2338V33.9428H24.1804V34.2338V34.5247H33.4907V34.2338ZM24.1804 34.2338H24.4714V32.3717H24.1804H23.8895V34.2338H24.1804ZM24.1804 32.3717V32.0808H22.3184V32.3717V32.6627H24.1804V32.3717ZM22.3184 32.3717H22.6093V21.1995H22.3184H22.0275V32.3717H22.3184ZM22.3184 21.1995V21.4904H26.0425V21.1995V20.9085H22.3184V21.1995ZM26.0425 21.1995H25.7515V32.3717H26.0425H26.3334V21.1995H26.0425ZM26.0425 32.3717V32.6627H31.6286V32.3717V32.0808H26.0425V32.3717ZM31.6286 32.3717H31.9196V21.1995H31.6286H31.3377V32.3717H31.6286ZM31.6286 21.1995V21.4904H35.3527V21.1995V20.9085H31.6286V21.1995ZM49.8417 21.1995H50.1327V20.9085H49.8417V21.1995ZM49.8417 26.7856V27.0765H50.1327V26.7856H49.8417ZM47.9797 26.7856V26.4946H47.6888V26.7856H47.9797ZM47.9797 28.6476V28.9386H48.2706V28.6476H47.9797ZM46.1177 28.6476V28.3567H45.8267V28.6476H46.1177ZM46.1177 34.2338V34.5247H46.4086V34.2338H46.1177ZM42.3936 34.2338H42.1026V34.5247H42.3936V34.2338ZM42.3936 28.6476H42.6845V28.3567H42.3936V28.6476ZM40.5129 28.6476H40.222V28.9386H40.5129V28.6476ZM40.5129 26.7856H40.8038V26.4946H40.5129V26.7856ZM38.6695 26.7856H38.3785V27.0765H38.6695V26.7856ZM38.6695 21.1995V20.9085H38.3785V21.1995H38.6695ZM42.3936 21.1995H42.6845V20.9085H42.3936V21.1995ZM42.3936 26.7856H42.1026V27.0765H42.3936V26.7856ZM46.1177 26.7856V27.0765H46.4086V26.7856H46.1177ZM46.1177 21.1995V20.9085H45.8267V21.1995H46.1177ZM49.8417 21.1995H49.5508V26.7856H49.8417H50.1327V21.1995H49.8417ZM49.8417 26.7856V26.4946H47.9797V26.7856V27.0765H49.8417V26.7856ZM47.9797 26.7856H47.6888V28.6476H47.9797H48.2706V26.7856H47.9797ZM47.9797 28.6476V28.3567H46.1177V28.6476V28.9386H47.9797V28.6476ZM46.1177 28.6476H45.8267V34.2338H46.1177H46.4086V28.6476H46.1177ZM46.1177 34.2338V33.9428H42.3936V34.2338V34.5247H46.1177V34.2338ZM42.3936 34.2338H42.6845V28.6476H42.3936H42.1026V34.2338H42.3936ZM42.3936 28.6476V28.3567H40.5129V28.6476V28.9386H42.3936V28.6476ZM40.5129 28.6476H40.8038V26.7856H40.5129H40.222V28.6476H40.5129ZM40.5129 26.7856V26.4946H38.6695V26.7856V27.0765H40.5129V26.7856ZM38.6695 26.7856H38.9604V21.1995H38.6695H38.3785V26.7856H38.6695ZM38.6695 21.1995V21.4904H42.3936V21.1995V20.9085H38.6695V21.1995ZM42.3936 21.1995H42.1026V26.7856H42.3936H42.6845V21.1995H42.3936ZM42.3936 26.7856V27.0765H46.1177V26.7856V26.4946H42.3936V26.7856ZM46.1177 26.7856H46.4086V21.1995H46.1177H45.8267V26.7856H46.1177ZM46.1177 21.1995V21.4904H49.8417V21.1995V20.9085H46.1177V21.1995Z"
        fill="#212121" mask="url(#path-13-inside-1_2113_170)" />
    <defs>
        <filter id="filter0_d_2113_170" x="0.169922" y="0.0200806" width="56.7695" height="56.7917"
            filterUnits="userSpaceOnUse" color-interpolation-filters="sRGB">
            <feFlood flood-opacity="0" result="BackgroundImageFix" />
            <feColorMatrix in="SourceAlpha" type="matrix" values="0 0 0 0 0 0 0 0 0 0 0 0 0 0 0 0 0 0 127 0"
                result="hardAlpha" />
            <feOffset />
            <feGaussianBlur stdDeviation="1" />
            <feComposite in2="hardAlpha" operator="out" />
            <feColorMatrix type="matrix" values="0 0 0 0 0.694118 0 0 0 0 0.956863 0 0 0 0 0.537255 0 0 0 1 0" />
            <feBlend mode="normal" in2="BackgroundImageFix" result="effect1_dropShadow_2113_170" />
            <feBlend mode="normal" in="SourceGraphic" in2="effect1_dropShadow_2113_170" result="shape" />
        </filter>
    </defs>
</svg>