<svg width="5" height="12" viewBox="0 0 5 12" fill="none" xmlns="http://www.w3.org/2000/svg">
    <path
        d="M2.39825 0H2.40662C2.69971 0 2.97605 0.0502453 3.2524 0.167481C3.52037 0.276345 3.76322 0.43545 3.96419 0.636427C4.17354 0.84578 4.33265 1.08025 4.44989 1.35659C4.55875 1.62456 4.61737 1.90091 4.61737 2.194V9.806C4.61737 10.0907 4.55875 10.3754 4.44989 10.6434C4.33265 10.9114 4.17354 11.1458 3.96419 11.3552C3.76322 11.5646 3.52037 11.7237 3.2524 11.8325C2.97605 11.9414 2.69971 12 2.40662 12H2.39825C2.10515 12 1.82881 11.9414 1.55247 11.8325C1.2845 11.7237 1.04165 11.5646 0.840675 11.3552C0.631323 11.1458 0.472218 10.9114 0.354981 10.6434C0.246119 10.3754 0.1875 10.0907 0.1875 9.806V2.194C0.1875 1.90091 0.246119 1.62456 0.354981 1.35659C0.472218 1.08025 0.631323 0.84578 0.840675 0.636427C1.04165 0.43545 1.2845 0.276345 1.55247 0.167481C1.82881 0.0502453 2.10515 0 2.39825 0Z"
        fill="#C0C0C0" />
</svg>