<svg width="5" height="12" viewBox="0 0 5 12" fill="none" xmlns="http://www.w3.org/2000/svg">
    <path
        d="M2.77325 0C3.06634 0 3.35106 0.0502453 3.61902 0.167481C3.89537 0.276345 4.12984 0.43545 4.33919 0.636427C4.54854 0.84578 4.70765 1.08025 4.81651 1.35659C4.93375 1.62456 4.99237 1.90091 4.99237 2.194V9.806C4.99237 10.0907 4.93375 10.3754 4.81651 10.6434C4.70765 10.9114 4.54854 11.1458 4.33919 11.3552C4.12984 11.5646 3.89537 11.7237 3.61902 11.8325C3.35106 11.9414 3.06634 12 2.77325 12C2.48015 12 2.20381 11.9414 1.92747 11.8325C1.6595 11.7237 1.41665 11.5646 1.2073 11.3552C1.00632 11.1458 0.847216 10.9114 0.729981 10.6434C0.621117 10.3754 0.5625 10.0907 0.5625 9.806V2.194C0.5625 1.90091 0.621117 1.62456 0.729981 1.35659C0.847216 1.08025 1.00632 0.84578 1.2073 0.636427C1.41665 0.43545 1.6595 0.276345 1.92747 0.167481C2.20381 0.0502453 2.48015 0 2.77325 0Z"
        fill="#F95D51" />
</svg>