<svg width="626" height="109" viewBox="0 0 626 109" fill="none" xmlns="http://www.w3.org/2000/svg">
    <path
        d="M1.63184 69.3523L1.02051 7.40308C1.00908 4.15366 3.65092 1.51052 6.90625 1.5105H124.611C127.642 1.5106 129.375 2.78779 133.112 5.08862V5.0896L161.698 23.6414L161.708 23.6472L161.718 23.6541C164.192 25.1775 165.479 26.3457 168.233 26.491L168.805 26.5066H619.097C622.356 26.5068 624.999 29.1393 624.999 32.3923V75.2966C624.999 78.5497 622.356 81.1822 619.097 81.1824H122.398C119.839 81.1824 117.394 82.1267 115.502 83.8259L115.131 84.1765L115.129 84.1785L101.423 97.8503L101.422 97.8513C99.2125 100.06 96.2191 101.299 93.083 101.299H32.0215C29.0966 101.299 26.2686 100.21 24.1064 98.2537L23.6826 97.8513L23.6816 97.8503L6.25293 80.4548L6.25195 80.4539L5.97754 80.1746C3.19125 77.2627 1.63184 73.4022 1.63184 69.3621V69.3523Z"
        fill="#1C1C1C" stroke="#212121" stroke-width="2.00101" />
    <g filter="url(#filter0_dddi_0_1)">
        <path
            d="M14.351 73.2503L30.0861 88.9517C32.0382 90.887 34.6804 91.9809 37.4404 91.9809H86.8503C90.2497 91.9809 93.4977 90.6346 95.8874 88.2449L110.478 73.7046C112.313 71.8703 114.786 70.8605 117.378 70.8605H595.491C598.201 70.8605 600.809 69.7667 602.744 67.865L611.512 59.0971C613.178 57.4478 614.104 55.2096 614.104 52.8872V44.4372C614.104 41.9634 612.101 39.9607 609.611 39.9607H162.547C160.46 39.9607 160 40 157 38L146.055 31.7668C143 30 142.251 29.2593 139.979 29.2593H18.8948C14.9736 29.2593 11.793 32.44 11.793 36.3443V67.0908C11.793 69.3964 12.7186 71.6178 14.351 73.2503Z"
            fill="white" />
        <path
            d="M14.351 73.2503L30.0861 88.9517C32.0382 90.887 34.6804 91.9809 37.4404 91.9809H86.8503C90.2497 91.9809 93.4977 90.6346 95.8874 88.2449L110.478 73.7046C112.313 71.8703 114.786 70.8605 117.378 70.8605H595.491C598.201 70.8605 600.809 69.7667 602.744 67.865L611.512 59.0971C613.178 57.4478 614.104 55.2096 614.104 52.8872V44.4372C614.104 41.9634 612.101 39.9607 609.611 39.9607H162.547C160.46 39.9607 160 40 157 38L146.055 31.7668C143 30 142.251 29.2593 139.979 29.2593H18.8948C14.9736 29.2593 11.793 32.44 11.793 36.3443V67.0908C11.793 69.3964 12.7186 71.6178 14.351 73.2503Z"
            fill="url(#paint0_linear_0_1)" />
        <path
            d="M14.351 73.2503L30.0861 88.9517C32.0382 90.887 34.6804 91.9809 37.4404 91.9809H86.8503C90.2497 91.9809 93.4977 90.6346 95.8874 88.2449L110.478 73.7046C112.313 71.8703 114.786 70.8605 117.378 70.8605H595.491C598.201 70.8605 600.809 69.7667 602.744 67.865L611.512 59.0971C613.178 57.4478 614.104 55.2096 614.104 52.8872V44.4372C614.104 41.9634 612.101 39.9607 609.611 39.9607H162.547C160.46 39.9607 160 40 157 38L146.055 31.7668C143 30 142.251 29.2593 139.979 29.2593H18.8948C14.9736 29.2593 11.793 32.44 11.793 36.3443V67.0908C11.793 69.3964 12.7186 71.6178 14.351 73.2503Z"
            fill="url(#paint1_linear_0_1)" />
    </g>
    <defs>
        <filter id="filter0_dddi_0_1" x="1.79297" y="25.2593" width="622.311" height="83.7217"
            filterUnits="userSpaceOnUse" color-interpolation-filters="sRGB">
            <feFlood flood-opacity="0" result="BackgroundImageFix" />
            <feColorMatrix in="SourceAlpha" type="matrix" values="0 0 0 0 0 0 0 0 0 0 0 0 0 0 0 0 0 0 127 0"
                result="hardAlpha" />
            <feMorphology radius="3" operator="erode" in="SourceAlpha" result="effect1_dropShadow_0_1" />
            <feOffset dy="7" />
            <feGaussianBlur stdDeviation="6.5" />
            <feColorMatrix type="matrix" values="0 0 0 0 0 0 0 0 0 0 0 0 0 0 0 0 0 0 0.3 0" />
            <feBlend mode="normal" in2="BackgroundImageFix" result="effect1_dropShadow_0_1" />
            <feColorMatrix in="SourceAlpha" type="matrix" values="0 0 0 0 0 0 0 0 0 0 0 0 0 0 0 0 0 0 127 0"
                result="hardAlpha" />
            <feOffset dy="2" />
            <feGaussianBlur stdDeviation="2" />
            <feColorMatrix type="matrix" values="0 0 0 0 0 0 0 0 0 0 0 0 0 0 0 0 0 0 0.4 0" />
            <feBlend mode="normal" in2="effect1_dropShadow_0_1" result="effect2_dropShadow_0_1" />
            <feColorMatrix in="SourceAlpha" type="matrix" values="0 0 0 0 0 0 0 0 0 0 0 0 0 0 0 0 0 0 127 0"
                result="hardAlpha" />
            <feOffset />
            <feGaussianBlur stdDeviation="2" />
            <feComposite in2="hardAlpha" operator="out" />
            <feColorMatrix type="matrix" values="0 0 0 0 0.694118 0 0 0 0 0.956863 0 0 0 0 0.537255 0 0 0 0.5 0" />
            <feBlend mode="normal" in2="effect2_dropShadow_0_1" result="effect3_dropShadow_0_1" />
            <feBlend mode="normal" in="SourceGraphic" in2="effect3_dropShadow_0_1" result="shape" />
            <feColorMatrix in="SourceAlpha" type="matrix" values="0 0 0 0 0 0 0 0 0 0 0 0 0 0 0 0 0 0 127 0"
                result="hardAlpha" />
            <feOffset dy="-3" />
            <feComposite in2="hardAlpha" operator="arithmetic" k2="-1" k3="1" />
            <feColorMatrix type="matrix" values="0 0 0 0 0 0 0 0 0 0 0 0 0 0 0 0 0 0 0.2 0" />
            <feBlend mode="normal" in2="shape" result="effect4_innerShadow_0_1" />
        </filter>
        <linearGradient id="paint0_linear_0_1" x1="27.37" y1="23.2454" x2="226.779" y2="343.12"
            gradientUnits="userSpaceOnUse">
            <stop stop-color="#39FF14" stop-opacity="0.48" />
            <stop offset="0.718615" stop-color="#39FF14" />
        </linearGradient>
        <linearGradient id="paint1_linear_0_1" x1="27.37" y1="23.2454" x2="226.779" y2="343.12"
            gradientUnits="userSpaceOnUse">
            <stop stop-color="#B1F489" stop-opacity="0.48" />
            <stop offset="0.718615" stop-color="#B1F489" />
        </linearGradient>
    </defs>
</svg>